<svg id="Layer_1" data-name="Layer 1" xmlns="http://www.w3.org/2000/svg" xmlns:xlink="http://www.w3.org/1999/xlink" width="1920" height="1080" viewBox="0 0 1920 1080"><defs><style>.cls-1{fill:#565f73;}.cls-2,.cls-37,.cls-5{fill:#fff;}.cls-2{opacity:0.16;}.cls-3{fill:#fdc59a;}.cls-4,.cls-99{fill:#1a1a1a;}.cls-6,.cls-97{fill:#333;}.cls-7,.cls-74{fill:#666;}.cls-8{fill:#d6ab8e;}.cls-14,.cls-28,.cls-30,.cls-38,.cls-84,.cls-9{fill:none;}.cls-9{stroke:#d6ab8e;stroke-width:6px;}.cls-14,.cls-28,.cls-30,.cls-37,.cls-38,.cls-39,.cls-40,.cls-41,.cls-42,.cls-43,.cls-44,.cls-62,.cls-63,.cls-77,.cls-83,.cls-84,.cls-87,.cls-9,.cls-95,.cls-96,.cls-97,.cls-98,.cls-99{stroke-miterlimit:10;}.cls-10{filter:url(#AI_GaussianBlur_4);}.cls-11{fill:#ffc9ff;}.cls-12{fill:#aed3ff;}.cls-13{fill:#bf272d;}.cls-14{stroke:#7f272d;stroke-width:0.08px;}.cls-15{fill:#29abe2;}.cls-16{opacity:0.19;}.cls-17{fill:#2fab71;}.cls-18{fill:#ff911e;}.cls-19{fill:#b06315;}.cls-20,.cls-96{fill:#c69c6d;}.cls-21{fill:#8c6239;}.cls-22{fill:#39b54a;}.cls-23{fill:#fcee21;}.cls-24{fill:#00ffd0;}.cls-25{fill:#e0bda7;}.cls-26{fill:#a47d65;}.cls-27{fill:#ff7baa;}.cls-28{stroke:#754c24;stroke-width:0.48px;}.cls-29{fill:#603813;}.cls-30{stroke:#603813;stroke-width:0.16px;}.cls-31{fill:#d7b09a;}.cls-32{fill:#38a84e;}.cls-33{fill:#247033;}.cls-34{fill:#9d5900;}.cls-35{fill:#e6e6e6;}.cls-36{fill:#662d91;}.cls-37,.cls-38,.cls-39,.cls-40,.cls-41,.cls-42,.cls-43,.cls-44,.cls-62,.cls-63,.cls-77,.cls-83,.cls-84{stroke:#000;}.cls-37{stroke-width:0.75px;}.cls-38{stroke-width:0.32px;}.cls-39{fill:#e8c913;stroke-width:0.28px;}.cls-40{fill:#e58a38;stroke-width:0.27px;}.cls-41{fill:#6fa037;stroke-width:0.19px;}.cls-42{fill:#995cea;stroke-width:0.3px;}.cls-43{fill:#10c18e;stroke-width:0.25px;}.cls-44{fill:#e0276e;stroke-width:0.19px;}.cls-45{fill:#e7a6ed;}.cls-46{fill:#c98868;}.cls-47{fill:#878d91;}.cls-48{fill:#280f03;}.cls-49{fill:#6b3b2c;}.cls-50{fill:#9ca6af;}.cls-51{fill:#12ff93;}.cls-52{fill:#83847e;}.cls-53{fill:#ffe210;}.cls-54{fill:#48493f;}.cls-55{fill:#606060;}.cls-56{fill:#ff8b00;}.cls-57{fill:#1b242d;}.cls-58{fill:#b7aeae;}.cls-59{fill:#ddcece;}.cls-60{fill:#b7a3a3;}.cls-61{fill:#fb9701;}.cls-62,.cls-63{fill:#bab5b5;}.cls-62{stroke-width:0.13px;}.cls-63{stroke-width:0.12px;}.cls-64{fill:#754c24;}.cls-65{fill:#009245;}.cls-66{fill:#0071bc;}.cls-67{fill:aqua;}.cls-68{fill:#fbb03b;}.cls-69{fill:#b3b3b3;}.cls-70{fill:#c7b299;}.cls-71{fill:#4d4d4d;}.cls-72,.cls-73{fill:#999;}.cls-73{opacity:0.44;}.cls-73,.cls-74,.cls-78,.cls-79{isolation:isolate;}.cls-74{opacity:0.7;}.cls-75,.cls-77,.cls-79{fill:#a8715a;}.cls-76,.cls-78{fill:#b2785f;}.cls-77{stroke-width:0.51px;}.cls-78,.cls-79{opacity:0.43;}.cls-80{fill:#dcea5c;}.cls-81{fill:#e3c1ab;}.cls-82{fill:#ebceb3;}.cls-83{fill:#e99eef;}.cls-83,.cls-84{stroke-width:0.63px;}.cls-85{fill:#d0f3fd;}.cls-86{fill:#f6be4c;}.cls-87{fill:#60a753;stroke:#f6be4c;stroke-width:1.16px;}.cls-88{fill:#b0bb38;}.cls-89{fill:#ffc91f;}.cls-90{fill:#136641;}.cls-91{fill:#1d9660;}.cls-92{fill:#22b573;}.cls-93{fill:#156e46;}.cls-94{fill:#736357;}.cls-100,.cls-95{fill:#a67c52;}.cls-95,.cls-96,.cls-97,.cls-98,.cls-99{stroke:#666;stroke-width:0.22px;}.cls-98{fill:#c1272d;}</style><filter id="AI_GaussianBlur_4" name="AI_GaussianBlur_4"><feGaussianBlur stdDeviation="4"/></filter></defs><title>game_screen</title><rect class="cls-1" x="0.41" y="0.41" width="1919.18" height="1087.18"/><path d="M1919.18.82V1087.18H.82V.82H1919.18M1920,0H0V1088H1920V0Z"/><path class="cls-2" d="M324,48.12H749.18a9.65,9.65,0,0,1,9.64,9.64h0V888.24a9.65,9.65,0,0,1-9.64,9.64H324a9.63,9.63,0,0,1-9.63-9.63h0V57.75A9.64,9.64,0,0,1,324,48.12Z"/><path class="cls-3" d="M-.13,1087.68c.16-5.62-.33-11.28-.49-16.92l-.52-18-1.34-45.17-1.65-57.54-1.29-45.13c115.35-60.62,177.58-132.19,213.3-187.64,45.28-70.32,73.53-154.45,96.76-148.22,13.34,3.57,18.35,35.13,20.51,61.15l183.9,216c10.37,12.16,13.95,26.37,7.95,31.57C481,908.88,463.85,946,329.42,1040.18c-67,47-89.73,67.69-130.31,66.87"/><path class="cls-4" d="M309,36.12H734.18a9.65,9.65,0,0,1,9.64,9.64h0V876.24a9.65,9.65,0,0,1-9.64,9.64H309a9.63,9.63,0,0,1-9.63-9.63h0V45.75A9.64,9.64,0,0,1,309,36.12Z"/><path d="M734.18,36.48a7.29,7.29,0,0,1,7.27,7.27V874.24a7.29,7.29,0,0,1-7.27,7.27H309a7.29,7.29,0,0,1-7.27-7.27V43.75A7.29,7.29,0,0,1,309,36.48H734.18m0-4.73H309a12,12,0,0,0-12,12V874.24a12,12,0,0,0,12,12H734.18a12,12,0,0,0,12-12V43.75A12,12,0,0,0,734.18,31.75Z"/><rect class="cls-5" x="314.28" y="78.39" width="412.26" height="696.78"/><path d="M725.34,80.75V772.8H317.8V80.8H725.34m4.73-4.8h-417V777.53h417Z"/><ellipse class="cls-6" cx="521.47" cy="825.39" rx="41.5" ry="41.77"/><rect x="503.97" y="806.76" width="38" height="38.25" rx="12"/><path class="cls-7" d="M510,44.83h0a12,12,0,0,1,12,12V57a12,12,0,0,1-12,12h0a12,12,0,0,1-12-12v-.16A12,12,0,0,1,510,44.83Z"/><ellipse class="cls-7" cx="541.97" cy="57.91" rx="5" ry="5.03"/><ellipse cx="510.47" cy="56.4" rx="6.5" ry="6.54"/><path class="cls-3" d="M261.65,474.3c-1.66-.39-16.18-3.68-28,2-21.34,10.26-15.17,40.79-16.54,81.94-1.2,35.93-6.54,31.69-12.72,83.93C192.23,744.93,202.25,851,218.39,852c2.1.13,9.88-8.24,25.44-25,9.75-10.48,11.65-13.18,17.82-17,10.75-6.65,17.76-5.84,24.17-12,7.77-7.45,6.62-17.43,6.36-21C290.09,748.36,312.93,486.52,261.65,474.3Z"/><path class="cls-8" d="M222,508.1v53.36S229.88,526,227.88,508s-5.47-19.23-5.47-19.23Z"/><path class="cls-9" d="M232.46,792.64s29.29,124.74,123.08,148.72"/><g class="cls-10"><rect class="cls-11" x="328.5" y="91" width="90" height="90"/><g id="Plastflaske"><g id="Plastikflaske"><path class="cls-12" d="M358.56,120.85a1.43,1.43,0,0,0-.2-.73L349,106.78a1.49,1.49,0,0,0-1.28-.73h-4.09a1.46,1.46,0,0,0-1.22.65L333.19,120a1.47,1.47,0,0,0-.26.81h0V163.2h0a1.23,1.23,0,0,0,.07.42l1.49,3.87c.58,1.3,1.13,2.7,2.5,2.7h2.08a2.61,2.61,0,0,0,2.5-2.7v1.17a1.52,1.52,0,0,0,1.53,1.53h5.3a1.53,1.53,0,0,0,1.53-1.53v-1.17a2.61,2.61,0,0,0,2.5,2.7h2.07c1.38,0,1.93-1.4,2.5-2.7l1.49-3.88a1,1,0,0,0,.07-.41h0V120.85Z"/><rect class="cls-13" x="332.79" y="125.78" width="25.91" height="30.84"/><rect class="cls-13" x="340.74" y="105.5" width="10.01" height="1.23"/><path class="cls-5" d="M339.74,142a5,5,0,0,1-1.95-.39,3.47,3.47,0,0,1-1.48-1.17,3.53,3.53,0,0,1-.67-1.68,6.11,6.11,0,0,1-.06-.86,8.4,8.4,0,0,1,.12-1.23,6.48,6.48,0,0,1,.52-1.67,7.08,7.08,0,0,1,.94-1.59,6.72,6.72,0,0,1-.22-1.61,5.3,5.3,0,0,1,.17-1.37.28.28,0,0,1,.08-.15l.09-.05c.08,0,.11.11.07.32a6.94,6.94,0,0,0-.05.91,8.52,8.52,0,0,0,.17,1.51,6.26,6.26,0,0,1,2.45-2,5.73,5.73,0,0,1,2.27-.47c.23,0,.47,0,.7,0a3.22,3.22,0,0,1,2.71,1.54,2.36,2.36,0,0,1,.28,1.13,2.81,2.81,0,0,1-.27,1.21,3.62,3.62,0,0,1-2,1.85,4.73,4.73,0,0,1-2,.39,7.26,7.26,0,0,1-.93-.06,4,4,0,0,1-3.23-2.22,6.12,6.12,0,0,0-.64,1.49,7.94,7.94,0,0,0-.38,1.6,8.85,8.85,0,0,0-.05.94,5.11,5.11,0,0,0,.05.78,2.57,2.57,0,0,0,.55,1.29,2.28,2.28,0,0,0,1.21.81,4.58,4.58,0,0,0,1.32.23,6,6,0,0,0,3.09-.75,4.27,4.27,0,0,0,1.2-1,9.72,9.72,0,0,0,.93-1.59c.05-.12.11-.16.17-.12s0,.12,0,.25a11.5,11.5,0,0,1-.92,1.59,4.82,4.82,0,0,1-1.16,1.09A5.39,5.39,0,0,1,339.74,142Zm-1.95-8a3.69,3.69,0,0,0,3.85,2.35,3.74,3.74,0,0,0,2.65-.92,2.79,2.79,0,0,0,1-2.1,2,2,0,0,0-1-1.82,3.43,3.43,0,0,0-1.86-.48,4.44,4.44,0,0,0-2.23.64A7,7,0,0,0,337.79,134Z"/><path class="cls-5" d="M347.16,136.1c.63,0,.95.4.95,1.2a2.83,2.83,0,0,1-.28,1.17,4.78,4.78,0,0,1-1.1,1.54.63.63,0,0,0,.61.32A.88.88,0,0,0,348,140a3.89,3.89,0,0,0,.56-.71l.24-.45c.06-.09.12-.23.21-.41l.15-.32a.09.09,0,0,1,.09-.06c.08,0,.13,0,.13.09a.16.16,0,0,1,0,.09l-.08.18c0,.13-.09.21-.11.27s-.07.14-.14.28-.12.24-.17.31-.11.19-.2.32a2.18,2.18,0,0,1-.22.31,2.62,2.62,0,0,1-.24.26,1.44,1.44,0,0,1-.27.22,1.2,1.2,0,0,1-.61.2,1.08,1.08,0,0,1-.84-.34,1.92,1.92,0,0,1-1.1.44c-.64,0-.95-.4-.95-1.2a2.83,2.83,0,0,1,.28-1.17,4.48,4.48,0,0,1,1.1-1.55A2.05,2.05,0,0,1,347.16,136.1Zm.14.4a1.35,1.35,0,0,0-.83.47,4.27,4.27,0,0,0-.86,1.28,3.81,3.81,0,0,0-.46,1.53c0,.4.16.6.46.6a1.14,1.14,0,0,0,.73-.35,1.11,1.11,0,0,1-.21-.64c0-.37.17-.56.46-.56a.38.38,0,0,1,.28.12.36.36,0,0,1,.11.22.75.75,0,0,1,0,.2,8.4,8.4,0,0,0,.51-.93,3,3,0,0,0,.33-1.3C347.79,136.72,347.62,136.5,347.3,136.5Z"/><path class="cls-5" d="M349.76,138.5c-.07.21-.13.4-.18.59a2.1,2.1,0,0,0-.07.56,1.06,1.06,0,0,0,.13.52.43.43,0,0,0,.41.24,1.2,1.2,0,0,0,.92-.63,12.92,12.92,0,0,0,.93-1.61c.07-.12.14-.17.2-.14a.11.11,0,0,1,0,.13l-.17.37c-.08.18-.14.32-.18.39l-.21.39a2.26,2.26,0,0,1-.26.42l-.3.35a1.59,1.59,0,0,1-.36.32,1.62,1.62,0,0,1-.86.28,1,1,0,0,1-.62-.17.74.74,0,0,1-.27-.38,1.47,1.47,0,0,1,0-.36c0-.1,0-.24,0-.4a3.63,3.63,0,0,1,.16-.81l.14-.44a18.47,18.47,0,0,1,.85-2.36,17.36,17.36,0,0,1,.94-1.92,5.25,5.25,0,0,1,.6-.88,1.27,1.27,0,0,1,.87-.47c.2,0,.34.15.41.43a1.34,1.34,0,0,1,0,.2,2.8,2.8,0,0,1-.31,1.12,11.75,11.75,0,0,1-2.67,3.91Zm1.53-2.48a14.12,14.12,0,0,0,1-1.75,3.22,3.22,0,0,0,.3-1c0-.17,0-.26-.09-.26s-.25.18-.49.52a12.86,12.86,0,0,0-1,1.85c-.41.89-.74,1.67-1,2.34A11.4,11.4,0,0,0,351.29,136Z"/><path class="cls-5" d="M355.21,138.19a5.42,5.42,0,0,0-.52,1.24,2.91,2.91,0,0,0-.08.66c0,.17.06.25.19.25s.37-.15.62-.45a9.85,9.85,0,0,0,1.05-1.73c0-.08.07-.12.12-.13s.1,0,.1.07a.29.29,0,0,1,0,.16c-.8,1.61-1.47,2.42-2,2.42a.71.71,0,0,1-.61-.36,1.05,1.05,0,0,1-.11-.53A2.72,2.72,0,0,1,354,139q-1.05,1.68-1.8,1.68a.58.58,0,0,1-.38-.13,1.05,1.05,0,0,1-.39-.93,4.06,4.06,0,0,1,1.11-2.6,2.9,2.9,0,0,1,1.53-1,1.89,1.89,0,0,1,.47-.06,1.37,1.37,0,0,1,1,.42.27.27,0,0,1,.08.27c0,.09-.11.12-.23.1a.6.6,0,0,0-.62-.47c-.37,0-.83.3-1.38.89a7.33,7.33,0,0,0-.87,1.22,2.92,2.92,0,0,0-.51,1.36c0,.33.11.5.32.5.52,0,1.21-.8,2.05-2.39a3.09,3.09,0,0,1,.41-.66.6.6,0,0,1,.43-.18l.27,0a.87.87,0,0,0,.32,0A4.49,4.49,0,0,0,355.21,138.19Z"/><rect class="cls-12" x="342.74" y="104.95" width="5.89" height="0.55"/><rect class="cls-13" x="340.69" y="100.15" width="10.01" height="4.8" rx="0.38"/><line class="cls-14" x1="342.4" y1="100.42" x2="342.4" y2="104.67"/><line class="cls-14" x1="341.85" y1="100.42" x2="341.85" y2="104.67"/><line class="cls-14" x1="342.95" y1="100.42" x2="342.95" y2="104.67"/><line class="cls-14" x1="341.31" y1="100.42" x2="341.31" y2="104.67"/><line class="cls-14" x1="344.6" y1="100.42" x2="344.6" y2="104.67"/><line class="cls-14" x1="344.05" y1="100.42" x2="344.05" y2="104.67"/><line class="cls-14" x1="345.14" y1="100.42" x2="345.14" y2="104.67"/><line class="cls-14" x1="343.5" y1="100.42" x2="343.5" y2="104.67"/><line class="cls-14" x1="346.79" y1="100.42" x2="346.79" y2="104.67"/><line class="cls-14" x1="346.24" y1="100.42" x2="346.24" y2="104.67"/><line class="cls-14" x1="347.34" y1="100.42" x2="347.34" y2="104.67"/><line class="cls-14" x1="345.69" y1="100.42" x2="345.69" y2="104.67"/><line class="cls-14" x1="348.98" y1="100.42" x2="348.98" y2="104.67"/><line class="cls-14" x1="348.43" y1="100.42" x2="348.43" y2="104.67"/><line class="cls-14" x1="349.53" y1="100.42" x2="349.53" y2="104.67"/><line class="cls-14" x1="347.88" y1="100.42" x2="347.88" y2="104.67"/><line class="cls-14" x1="350.08" y1="100.42" x2="350.08" y2="104.67"/></g></g><g id="Plastflaske-2" data-name="Plastflaske"><g id="Plastikflaske-2" data-name="Plastikflaske"><path class="cls-12" d="M386.85,122.23a1.42,1.42,0,0,0-.2-.72l-9.37-13.34a1.47,1.47,0,0,0-1.27-.74h-4.09a1.47,1.47,0,0,0-1.22.66l-9.22,13.33a1.39,1.39,0,0,0-.26.81h0v42.36h0a1.14,1.14,0,0,0,.07.41l1.49,3.88c.58,1.3,1.13,2.7,2.5,2.7h2.07a2.62,2.62,0,0,0,2.51-2.7v1.17a1.53,1.53,0,0,0,1.52,1.53h5.31a1.54,1.54,0,0,0,1.53-1.53v-1.17a2.61,2.61,0,0,0,2.5,2.7h2.07c1.37,0,1.92-1.4,2.5-2.7l1.49-3.88a1.14,1.14,0,0,0,.07-.41h0V122.23Z"/><rect class="cls-13" x="361.08" y="127.17" width="25.91" height="30.84"/><rect class="cls-13" x="369.03" y="106.88" width="10.01" height="1.23"/><path class="cls-5" d="M368,143.36a4.78,4.78,0,0,1-1.94-.4,3.32,3.32,0,0,1-1.48-1.16,3.55,3.55,0,0,1-.68-1.68,8.43,8.43,0,0,1-.05-.86A8.54,8.54,0,0,1,364,138a6.93,6.93,0,0,1,.51-1.66,7.28,7.28,0,0,1,.95-1.59,6.31,6.31,0,0,1-.22-1.61,4.86,4.86,0,0,1,.17-1.37.24.24,0,0,1,.08-.15.13.13,0,0,1,.09,0c.08,0,.11.11.07.32a6.94,6.94,0,0,0-.05.91,8.3,8.3,0,0,0,.17,1.5,6.32,6.32,0,0,1,2.45-1.95,5.81,5.81,0,0,1,3-.43,3.23,3.23,0,0,1,2.71,1.54,2.42,2.42,0,0,1,.28,1.13,3,3,0,0,1-.27,1.21,3.65,3.65,0,0,1-2,1.85,4.73,4.73,0,0,1-2,.39A7.26,7.26,0,0,1,369,138a4,4,0,0,1-3.23-2.22,5.75,5.75,0,0,0-.64,1.49,7.94,7.94,0,0,0-.38,1.6,9.08,9.08,0,0,0-.06.94,6.83,6.83,0,0,0,.06.78,2.65,2.65,0,0,0,.54,1.29,2.36,2.36,0,0,0,1.22.81,4.58,4.58,0,0,0,1.32.23,5.9,5.9,0,0,0,3.09-.76,4.08,4.08,0,0,0,1.2-1,9.81,9.81,0,0,0,.93-1.6c.05-.11.11-.15.16-.11s.06.11,0,.25a11.83,11.83,0,0,1-.92,1.58,4.67,4.67,0,0,1-1.16,1.1A5.44,5.44,0,0,1,368,143.36Zm-1.95-8a3.71,3.71,0,0,0,3.86,2.36,3.78,3.78,0,0,0,2.65-.92,2.82,2.82,0,0,0,1-2.1,2,2,0,0,0-1-1.82,3.43,3.43,0,0,0-1.86-.48,4.53,4.53,0,0,0-2.23.63A7.29,7.29,0,0,0,366.07,135.36Z"/><path class="cls-5" d="M375.45,137.49c.63,0,.95.4.95,1.2a3,3,0,0,1-.28,1.17,4.63,4.63,0,0,1-1.1,1.53.63.63,0,0,0,.61.33.88.88,0,0,0,.67-.35,3.89,3.89,0,0,0,.56-.71l.24-.45a3.16,3.16,0,0,0,.2-.41,2.83,2.83,0,0,0,.15-.32.11.11,0,0,1,.1-.06c.08,0,.13,0,.13.09l0,.09-.08.18-.11.26-.14.28c-.07.14-.12.24-.17.32l-.2.31a2.27,2.27,0,0,1-.22.32l-.24.26a1.44,1.44,0,0,1-.27.22,1.12,1.12,0,0,1-.61.19,1.08,1.08,0,0,1-.84-.33,2,2,0,0,1-1.1.44q-1,0-1-1.2a2.77,2.77,0,0,1,.29-1.17,4.48,4.48,0,0,1,1.1-1.55A2.05,2.05,0,0,1,375.45,137.49Zm.14.4a1.35,1.35,0,0,0-.83.47,4.27,4.27,0,0,0-.86,1.28,3.77,3.77,0,0,0-.46,1.53c0,.4.16.6.46.6a1.19,1.19,0,0,0,.73-.35,1.07,1.07,0,0,1-.21-.64c0-.37.17-.56.46-.56a.38.38,0,0,1,.28.12.33.33,0,0,1,.11.21.76.76,0,0,1,0,.21,8.4,8.4,0,0,0,.51-.93,3,3,0,0,0,.33-1.3C376.07,138.1,375.91,137.89,375.59,137.89Z"/><path class="cls-5" d="M378,139.89c-.07.21-.12.4-.17.59a2.1,2.1,0,0,0-.07.56,1.06,1.06,0,0,0,.13.52.44.44,0,0,0,.41.24,1.2,1.2,0,0,0,.92-.63,14.31,14.31,0,0,0,.93-1.61c.07-.12.14-.17.2-.15a.11.11,0,0,1,0,.14,4,4,0,0,1-.16.37l-.18.39-.21.39a2.57,2.57,0,0,1-.26.41c-.07.1-.17.21-.3.36a1.34,1.34,0,0,1-.36.31,1.55,1.55,0,0,1-.86.29,1,1,0,0,1-.62-.17.73.73,0,0,1-.27-.38,1.47,1.47,0,0,1,0-.36c0-.11,0-.24,0-.4a3.63,3.63,0,0,1,.16-.81c.08-.26.13-.41.13-.44a18,18,0,0,1,.86-2.36,19.76,19.76,0,0,1,.93-1.92,5.8,5.8,0,0,1,.61-.88,1.27,1.27,0,0,1,.87-.47c.2,0,.34.14.41.43a1.34,1.34,0,0,1,0,.2,2.8,2.8,0,0,1-.31,1.12,11.74,11.74,0,0,1-2.67,3.9Zm1.54-2.48a13,13,0,0,0,.95-1.76,3,3,0,0,0,.31-1c0-.17,0-.26-.09-.26s-.25.17-.49.52a12.32,12.32,0,0,0-1,1.85c-.41.88-.74,1.66-1,2.33A10.32,10.32,0,0,0,379.58,137.41Z"/><path class="cls-5" d="M383.5,139.58a5.58,5.58,0,0,0-.52,1.23,3,3,0,0,0-.08.67c0,.17.06.25.19.25s.37-.15.61-.45a9.09,9.09,0,0,0,1.06-1.74c0-.07.07-.12.12-.13s.1,0,.1.08a.42.42,0,0,1,0,.16c-.8,1.61-1.47,2.42-2,2.42a.7.7,0,0,1-.61-.37,1.17,1.17,0,0,1-.12-.52,3.52,3.52,0,0,1,.13-.79c-.69,1.12-1.29,1.68-1.79,1.68a.58.58,0,0,1-.38-.13,1.06,1.06,0,0,1-.39-.94,4.06,4.06,0,0,1,1.11-2.59,2.84,2.84,0,0,1,1.53-.95,1.84,1.84,0,0,1,.47-.06,1.4,1.4,0,0,1,1,.41.26.26,0,0,1,.07.28c0,.08-.1.12-.22.1a.6.6,0,0,0-.62-.47c-.38,0-.84.3-1.38.89a6.64,6.64,0,0,0-.88,1.22,3,3,0,0,0-.5,1.35c0,.34.1.51.32.51.52,0,1.2-.8,2.05-2.39a2.63,2.63,0,0,1,.41-.66.58.58,0,0,1,.43-.18l.27,0a.69.69,0,0,0,.32,0A4.87,4.87,0,0,0,383.5,139.58Z"/><rect class="cls-12" x="371.03" y="106.33" width="5.89" height="0.55"/><rect class="cls-13" x="368.98" y="101.54" width="10.01" height="4.8" rx="0.38"/><line class="cls-14" x1="370.69" y1="101.81" x2="370.69" y2="106.06"/><line class="cls-14" x1="370.14" y1="101.81" x2="370.14" y2="106.06"/><line class="cls-14" x1="371.24" y1="101.81" x2="371.24" y2="106.06"/><line class="cls-14" x1="369.59" y1="101.81" x2="369.59" y2="106.06"/><line class="cls-14" x1="372.88" y1="101.81" x2="372.88" y2="106.06"/><line class="cls-14" x1="372.34" y1="101.81" x2="372.34" y2="106.06"/><line class="cls-14" x1="373.43" y1="101.81" x2="373.43" y2="106.06"/><line class="cls-14" x1="371.79" y1="101.81" x2="371.79" y2="106.06"/><line class="cls-14" x1="375.08" y1="101.81" x2="375.08" y2="106.06"/><line class="cls-14" x1="374.53" y1="101.81" x2="374.53" y2="106.06"/><line class="cls-14" x1="375.63" y1="101.81" x2="375.63" y2="106.06"/><line class="cls-14" x1="373.98" y1="101.81" x2="373.98" y2="106.06"/><line class="cls-14" x1="377.27" y1="101.81" x2="377.27" y2="106.06"/><line class="cls-14" x1="376.72" y1="101.81" x2="376.72" y2="106.06"/><line class="cls-14" x1="377.82" y1="101.81" x2="377.82" y2="106.06"/><line class="cls-14" x1="376.17" y1="101.81" x2="376.17" y2="106.06"/><line class="cls-14" x1="378.37" y1="101.81" x2="378.37" y2="106.06"/></g></g><g id="Plastflaske-3" data-name="Plastflaske"><g id="Plastikflaske-3" data-name="Plastikflaske"><path class="cls-12" d="M414.83,122.23a1.42,1.42,0,0,0-.2-.72l-9.37-13.34a1.47,1.47,0,0,0-1.27-.74H399.9a1.47,1.47,0,0,0-1.22.66l-9.22,13.33a1.39,1.39,0,0,0-.26.81h0v42.36h0a1.14,1.14,0,0,0,.07.41l1.49,3.88c.58,1.3,1.13,2.7,2.5,2.7h2.07a2.62,2.62,0,0,0,2.51-2.7v1.17a1.53,1.53,0,0,0,1.52,1.53h5.31a1.54,1.54,0,0,0,1.53-1.53v-1.17a2.61,2.61,0,0,0,2.5,2.7h2.07c1.37,0,1.92-1.4,2.5-2.7l1.49-3.88a1,1,0,0,0,.07-.41h0V122.23Z"/><rect class="cls-13" x="389.06" y="127.17" width="25.91" height="30.84"/><rect class="cls-13" x="397.01" y="106.88" width="10.01" height="1.23"/><path class="cls-5" d="M396,143.36a4.78,4.78,0,0,1-1.94-.4,3.32,3.32,0,0,1-1.48-1.16,3.55,3.55,0,0,1-.68-1.68,8.43,8.43,0,0,1,0-.86A8.54,8.54,0,0,1,392,138a6.93,6.93,0,0,1,.51-1.66,7.28,7.28,0,0,1,.95-1.59,6.31,6.31,0,0,1-.22-1.61,4.86,4.86,0,0,1,.17-1.37.24.24,0,0,1,.08-.15.13.13,0,0,1,.09,0c.08,0,.11.11.07.32a6.94,6.94,0,0,0-.05.91,8.3,8.3,0,0,0,.17,1.5,6.32,6.32,0,0,1,2.45-1.95,5.81,5.81,0,0,1,3-.43,3.23,3.23,0,0,1,2.71,1.54,2.42,2.42,0,0,1,.28,1.13,3,3,0,0,1-.27,1.21,3.65,3.65,0,0,1-2,1.85,4.73,4.73,0,0,1-2,.39A7.26,7.26,0,0,1,397,138a4,4,0,0,1-3.23-2.22,6.12,6.12,0,0,0-.64,1.49,7.94,7.94,0,0,0-.38,1.6,9.08,9.08,0,0,0-.06.94,6.83,6.83,0,0,0,.06.78,2.65,2.65,0,0,0,.54,1.29,2.36,2.36,0,0,0,1.22.81,4.58,4.58,0,0,0,1.32.23,5.9,5.9,0,0,0,3.09-.76,4.08,4.08,0,0,0,1.2-1,9.81,9.81,0,0,0,.93-1.6c.05-.11.11-.15.16-.11s.06.11,0,.25a11.83,11.83,0,0,1-.92,1.58,4.67,4.67,0,0,1-1.16,1.1A5.44,5.44,0,0,1,396,143.36Zm-1.95-8a3.71,3.71,0,0,0,3.86,2.36,3.78,3.78,0,0,0,2.65-.92,2.82,2.82,0,0,0,1-2.1,2,2,0,0,0-1-1.82,3.43,3.43,0,0,0-1.86-.48,4.53,4.53,0,0,0-2.23.63A7.29,7.29,0,0,0,394.05,135.36Z"/><path class="cls-5" d="M403.43,137.49c.63,0,.95.4.95,1.2a3,3,0,0,1-.28,1.17,4.63,4.63,0,0,1-1.1,1.53.63.63,0,0,0,.61.33.88.88,0,0,0,.67-.35,3.89,3.89,0,0,0,.56-.71l.24-.45a3.16,3.16,0,0,0,.2-.41,2.83,2.83,0,0,0,.15-.32.11.11,0,0,1,.1-.06c.08,0,.13,0,.13.09l0,.09-.08.18-.11.26-.14.28c-.07.14-.12.24-.17.32l-.2.31a2.27,2.27,0,0,1-.22.32l-.24.26a1.44,1.44,0,0,1-.27.22,1.12,1.12,0,0,1-.61.19,1.08,1.08,0,0,1-.84-.33,2,2,0,0,1-1.1.44q-1,0-1-1.2a2.77,2.77,0,0,1,.29-1.17,4.48,4.48,0,0,1,1.1-1.55A2.05,2.05,0,0,1,403.43,137.49Zm.14.4a1.35,1.35,0,0,0-.83.47,4.27,4.27,0,0,0-.86,1.28,3.77,3.77,0,0,0-.46,1.53c0,.4.16.6.46.6a1.19,1.19,0,0,0,.73-.35,1.07,1.07,0,0,1-.21-.64c0-.37.17-.56.46-.56a.38.38,0,0,1,.28.12.33.33,0,0,1,.11.21.76.76,0,0,1,0,.21,8.4,8.4,0,0,0,.51-.93,3,3,0,0,0,.33-1.3C404.05,138.1,403.89,137.89,403.57,137.89Z"/><path class="cls-5" d="M406,139.89c-.07.21-.12.4-.17.59a2.1,2.1,0,0,0-.07.56,1.06,1.06,0,0,0,.13.52.44.44,0,0,0,.41.24,1.2,1.2,0,0,0,.92-.63,14.31,14.31,0,0,0,.93-1.61c.07-.12.14-.17.2-.15a.11.11,0,0,1,0,.14,4,4,0,0,1-.16.37l-.18.39-.21.39a2.57,2.57,0,0,1-.26.41c-.07.1-.17.21-.3.36a1.34,1.34,0,0,1-.36.31,1.55,1.55,0,0,1-.86.29,1,1,0,0,1-.62-.17.73.73,0,0,1-.27-.38,1.47,1.47,0,0,1,0-.36c0-.11,0-.24,0-.4a3.63,3.63,0,0,1,.16-.81c.08-.26.13-.41.13-.44a18,18,0,0,1,.86-2.36,19.76,19.76,0,0,1,.93-1.92,5.8,5.8,0,0,1,.61-.88,1.27,1.27,0,0,1,.87-.47c.2,0,.34.14.41.43a1.34,1.34,0,0,1,0,.2,2.8,2.8,0,0,1-.31,1.12,11.74,11.74,0,0,1-2.67,3.9Zm1.54-2.48a13,13,0,0,0,.95-1.76,3,3,0,0,0,.31-1c0-.17,0-.26-.09-.26s-.25.17-.49.52a12.32,12.32,0,0,0-1,1.85c-.41.88-.74,1.66-1,2.33A10.32,10.32,0,0,0,407.56,137.41Z"/><path class="cls-5" d="M411.48,139.58a5.58,5.58,0,0,0-.52,1.23,3,3,0,0,0-.08.67c0,.17.06.25.19.25s.37-.15.61-.45a9.09,9.09,0,0,0,1.06-1.74c0-.07.07-.12.12-.13s.1,0,.1.08a.42.42,0,0,1,0,.16c-.8,1.61-1.47,2.42-2,2.42a.7.7,0,0,1-.61-.37,1.17,1.17,0,0,1-.12-.52,3.52,3.52,0,0,1,.13-.79c-.69,1.12-1.29,1.68-1.79,1.68a.58.58,0,0,1-.38-.13,1.06,1.06,0,0,1-.39-.94,4.06,4.06,0,0,1,1.11-2.59,2.84,2.84,0,0,1,1.53-.95,1.89,1.89,0,0,1,.47-.06,1.4,1.4,0,0,1,1,.41.26.26,0,0,1,.07.28c0,.08-.1.12-.22.1a.6.6,0,0,0-.62-.47c-.38,0-.84.3-1.38.89a6.64,6.64,0,0,0-.88,1.22,3,3,0,0,0-.5,1.35c0,.34.1.51.32.51.52,0,1.2-.8,2-2.39a2.63,2.63,0,0,1,.41-.66.58.58,0,0,1,.43-.18l.27,0a.69.69,0,0,0,.32,0A4.87,4.87,0,0,0,411.48,139.58Z"/><rect class="cls-12" x="399.01" y="106.33" width="5.89" height="0.55"/><rect class="cls-13" x="396.96" y="101.54" width="10.01" height="4.8" rx="0.38"/><line class="cls-14" x1="398.67" y1="101.81" x2="398.67" y2="106.06"/><line class="cls-14" x1="398.12" y1="101.81" x2="398.12" y2="106.06"/><line class="cls-14" x1="399.22" y1="101.81" x2="399.22" y2="106.06"/><line class="cls-14" x1="397.57" y1="101.81" x2="397.57" y2="106.06"/><line class="cls-14" x1="400.86" y1="101.81" x2="400.86" y2="106.06"/><line class="cls-14" x1="400.32" y1="101.81" x2="400.32" y2="106.06"/><line class="cls-14" x1="401.41" y1="101.81" x2="401.41" y2="106.06"/><line class="cls-14" x1="399.77" y1="101.81" x2="399.77" y2="106.06"/><line class="cls-14" x1="403.06" y1="101.81" x2="403.06" y2="106.06"/><line class="cls-14" x1="402.51" y1="101.81" x2="402.51" y2="106.06"/><line class="cls-14" x1="403.61" y1="101.81" x2="403.61" y2="106.06"/><line class="cls-14" x1="401.96" y1="101.81" x2="401.96" y2="106.06"/><line class="cls-14" x1="405.25" y1="101.81" x2="405.25" y2="106.06"/><line class="cls-14" x1="404.7" y1="101.81" x2="404.7" y2="106.06"/><line class="cls-14" x1="405.8" y1="101.81" x2="405.8" y2="106.06"/><line class="cls-14" x1="404.15" y1="101.81" x2="404.15" y2="106.06"/><line class="cls-14" x1="406.35" y1="101.81" x2="406.35" y2="106.06"/></g></g><rect class="cls-15" x="624.46" y="571.52" width="90" height="90"/><polygon class="cls-7" points="625 661.52 669.46 579.44 714.46 661.52 625 661.52"/><polygon class="cls-5" points="653.37 609.14 657.13 616.48 664.33 611.53 670.54 618.91 675.76 612.16 683.14 616.57 686.28 610.13 669.46 579.44 653.37 609.14"/><polygon class="cls-16" points="669.46 579.44 647.32 661.52 625 661.52 669.46 579.44"/><rect class="cls-17" x="526" y="91" width="90" height="90"/><g id="Levende_fisk" data-name="Levende fisk"><path class="cls-18" d="M583.58,151.13s-17.77,8.79-7.74,13.53S583.58,151.13,583.58,151.13Z"/><path class="cls-19" d="M583.55,151.13s-9.47,20.57,2.32,18.28S583.55,151.13,583.55,151.13Z"/><path class="cls-18" d="M607.86,143.22l-4.08,8.17a2.48,2.48,0,0,0-.17.37c-.23.59-1.7,3.28-9.1,1.18a2.57,2.57,0,0,0-.38-.08c-2.81-.29-36-4.1-49.43-17.73,0,0,23-20.48,49.18-23.64s16.18,23.73,16.18,23.73-10.91,5.63-22.52-5.09C587.54,130.13,592.47,147.7,607.86,143.22Z"/><path class="cls-19" d="M585.78,151.54a.14.14,0,0,1-.12-.06,17.61,17.61,0,0,1-1.45-2.67,33.87,33.87,0,0,1-2.42-7.65,41.43,41.43,0,0,1-.46-12.13,54.87,54.87,0,0,1,4.37-16.1.15.15,0,0,1,.2-.06.14.14,0,0,1,.07.18,54.56,54.56,0,0,0-4.34,16,40.82,40.82,0,0,0,.46,12,33.55,33.55,0,0,0,2.38,7.58,18.45,18.45,0,0,0,1.43,2.63.16.16,0,0,1,0,.21h0Z"/><path class="cls-19" d="M567.66,119.88s3.58-6.07-4.39-6.82a.42.42,0,0,1-.17-.78c4.28-2.48,19.35-10.17,26.67-.15C589.78,112.13,575.14,115.88,567.66,119.88Z"/><path class="cls-19" d="M544.7,135.14s-2.78-15.27-12.53-20.15a1.4,1.4,0,0,0-1.85,2c3.25,5.65,8.47,18.25,3.08,34.77a1.41,1.41,0,0,0,2.47,1.27C538.33,149.66,541.48,144.14,544.7,135.14Z"/><ellipse class="cls-5" cx="600.83" cy="121.6" rx="6.16" ry="6.15"/><circle cx="600.83" cy="121.6" r="1.41"/><path class="cls-19" d="M580.08,137.39a.16.16,0,0,1-.12-.06,7.47,7.47,0,0,1-1-2.7,12.37,12.37,0,0,1,1-7.28.14.14,0,0,1,.19-.09.16.16,0,0,1,.09.19v0c-2.56,5.91,0,9.65,0,9.69a.17.17,0,0,1,0,.21l-.09,0Z"/><path class="cls-19" d="M578.11,136.34a.14.14,0,0,1-.12-.06s-2.25-3.09,0-7.88a.13.13,0,0,1,.19-.07.14.14,0,0,1,.08.19c-2.17,4.63,0,7.55,0,7.58a.15.15,0,0,1,0,.21h0Z"/></g><rect class="cls-15" x="328.5" y="572" width="90" height="90"/><path class="cls-20" d="M328.5,662h90V630.26s-44.82-13.3-90,3.51Z"/><path class="cls-21" d="M396.09,639.34s10.17-21.4-4-39.74l2-1.26s13.59,14.12,5.49,41Z"/><path class="cls-22" d="M392.13,599.6s-7.83,2.88-1.62,15.2c0,0-13.59-15.2,3.6-16.46Z"/><path class="cls-22" d="M394.11,598.34s11.25-1.79,13.68,8.19c0,0-5.22-20.68-15.66-6.93Z"/><path class="cls-22" d="M392.13,599.6s-12.06-3.14-10.71,9.26c0,0-6.21-16.18,12.69-10.52Z"/><path class="cls-22" d="M394.11,598.34s4.86-11.5,15.12.36c0,0-9.81-19-17.1.9Z"/><path class="cls-22" d="M394.11,598.34s-2.07-14.47,11.61-15.28c0,0-20.34-7.28-13.59,16.54Z"/><path class="cls-22" d="M392.13,599.6s-10.53-15.1-21.06-4.76c0,0,9.72-16,23,3.5Z"/><ellipse class="cls-23" cx="342.67" cy="584.54" rx="7.6" ry="7.6"/><rect class="cls-24" x="525.58" y="571.52" width="90" height="90"/><path class="cls-25" d="M592.13,644.67l-39.12.22a4.54,4.54,0,0,1-4.56-4.5l-.26-46.84a4.53,4.53,0,0,1,4.5-4.55l34.59-.2a4.55,4.55,0,0,1,4.56,4.51l-.41,6.16-.12,1.83-.09,1.36h0v.26l0,.54h0l0,.37-.15,2.28-.07,1-1,14.63-.32,4.81,0,.45C589.18,630.79,600,643.87,592.13,644.67Z"/><circle class="cls-5" cx="575.29" cy="605.18" r="3.78"/><circle cx="576.95" cy="605.17" r="0.91"/><path class="cls-26" d="M578.76,603.65c.13.27-7,.34-7,0a3.78,3.78,0,0,1,3.46-2.28A3.73,3.73,0,0,1,578.76,603.65Z"/><path class="cls-5" d="M591.23,603.57l0,.26L591,607a3.32,3.32,0,0,1-5.43-3.83,3.25,3.25,0,0,1,.73-.75l.1-.07a1.58,1.58,0,0,1,.24-.15l.1-.05.11-.06.08,0,.1,0,.13,0h.05l.09,0h0l.12,0,.14,0,.16,0a2.92,2.92,0,0,1,.51,0h.19l.18,0h0a3.34,3.34,0,0,1,2.19,1.18l.06.07a4,4,0,0,1,.32.48h0Z"/><circle cx="589.74" cy="605.1" r="0.8"/><path class="cls-26" d="M591.23,603.57h0l0,.25a29.68,29.68,0,0,1-6,0h0a3,3,0,0,1,1.09-1.36l.1-.08.24-.15.09,0,.11-.06.09,0,.1,0,.13,0,0,0,.1,0h0l.12,0,.14,0,.15,0a4.57,4.57,0,0,1,.52-.05h.19a.44.44,0,0,1,.17,0h0a3,3,0,0,1,2.19,1.18l.06.07a4.76,4.76,0,0,1,.31.47h0Z"/><path class="cls-5" d="M590,621.75l-.32,4.81a11.24,11.24,0,0,1-1.45.58,16,16,0,0,1-4.77.73,15.52,15.52,0,0,1-4.39-.57c-3.44-1-5.82-3.06-5.84-5.49l10.19.05Z"/><path class="cls-27" d="M588.19,627.14a16,16,0,0,1-4.76.73,15.55,15.55,0,0,1-4.4-.57c.52-.91,2.38-1.61,4.61-1.62S587.58,626.28,588.19,627.14Z"/><path class="cls-28" d="M582.12,610.88s-.14,2.73,1.68,3.62,2.13,3-2.1,1.82"/><circle class="cls-29" cx="593.99" cy="639.14" r="6.72"/><path class="cls-29" d="M554.43,608a4.75,4.75,0,0,1-3.3,2.1,4.89,4.89,0,0,1-.66,0,4.77,4.77,0,0,1-2.19-.52,4.77,4.77,0,0,1-2.21-6.1,4.77,4.77,0,0,1,2.16-2.36l.35-.16a4.76,4.76,0,0,1,5.85,7Z"/><path class="cls-29" d="M554.8,603.49a4.76,4.76,0,0,1-6.24,2.5l-.3-.14a3.07,3.07,0,0,1-.31-.17,4.76,4.76,0,0,1-1.6-6.54,4.83,4.83,0,0,1,1.85-1.74,4.78,4.78,0,0,1,6.6,6.09Z"/><path class="cls-29" d="M555,600.39a4.76,4.76,0,0,1-6.45.63l-.35-.29a4.73,4.73,0,0,1-1.37-2.26,4.9,4.9,0,0,1-.16-1.21,4.53,4.53,0,0,1,0-.52,4.75,4.75,0,0,1,.66-2,4.28,4.28,0,0,1,.81-1,4.79,4.79,0,0,1,4.43-1.16h0a4.77,4.77,0,0,1,2.87,2.1,4.69,4.69,0,0,1,.68,1.95,4.9,4.9,0,0,1,0,.54A4.77,4.77,0,0,1,555,600.39Z"/><circle class="cls-29" cx="586" cy="641.91" r="6.72"/><circle class="cls-29" cx="575.58" cy="643.33" r="6.72"/><path class="cls-29" d="M571.6,644.7a.19.19,0,0,1,0,.08,6.69,6.69,0,0,1-1.26,2.73c-.14.17-.28.34-.43.49a6.71,6.71,0,0,1-3.51,2,6.83,6.83,0,0,1-.79.11l-.34,0H565a6.72,6.72,0,0,1-6.07-9.68l.08-.17a7.34,7.34,0,0,1,.72-1.09c.1-.12.19-.24.3-.35a6.71,6.71,0,0,1,4.9-2.16,6.6,6.6,0,0,1,1.87.26l.18.05a6.61,6.61,0,0,1,.74.28,6.91,6.91,0,0,1,2.51,2l.06.08a4.51,4.51,0,0,1,.46.68,6.61,6.61,0,0,1,.94,3.39.85.85,0,0,0,0,.16c0,.11,0,.22,0,.33A4.94,4.94,0,0,1,571.6,644.7Z"/><path class="cls-29" d="M561.87,644.17h0a4.93,4.93,0,0,1-.11.67,6.72,6.72,0,0,1-13.17-.11,6.54,6.54,0,0,1-.12-1.25,6.24,6.24,0,0,1,.21-1.72,6.71,6.71,0,0,1,11.13-3.19,3.07,3.07,0,0,1,.26.25,6.06,6.06,0,0,1,.6.74,6.57,6.57,0,0,1,.9,1.77,6.65,6.65,0,0,1,.34,2.07A6.51,6.51,0,0,1,561.87,644.17Z"/><path class="cls-29" d="M553.5,639.92a6.71,6.71,0,0,1-3.16,4.11,6.61,6.61,0,0,1-1.75.7,6.79,6.79,0,0,1-1.55.2,6.72,6.72,0,0,1-.12-13.44h0a6.28,6.28,0,0,1,1.44.14,6.72,6.72,0,0,1,3.32,1.79,5.32,5.32,0,0,1,.55.61,6.6,6.6,0,0,1,1.33,2.89,7.69,7.69,0,0,1,.13,1.26A6.81,6.81,0,0,1,553.5,639.92Z"/><path class="cls-29" d="M551.72,633.41a5.57,5.57,0,0,1-.57.52,6.55,6.55,0,0,1-1,.69,6.44,6.44,0,0,1-1.68.63,7.08,7.08,0,0,1-1.44.17A6.73,6.73,0,0,1,547,622a8.26,8.26,0,0,1,1,.08h0a3,3,0,0,1,.32.06,6.74,6.74,0,0,1,5,4.43,7.25,7.25,0,0,1,.33,1.59c0,.16,0,.34,0,.51A6.69,6.69,0,0,1,551.72,633.41Z"/><path class="cls-29" d="M556.61,622.2h0a6.71,6.71,0,0,1-3.3,4.34,6.57,6.57,0,0,1-2.84.82l-.37,0a6.75,6.75,0,0,1-6.73-6.07c0-.2,0-.41,0-.62a6.68,6.68,0,0,1,1.36-4.08h0a6.69,6.69,0,0,1,2.12-1.84,6.49,6.49,0,0,1,1.47-.6,7.29,7.29,0,0,1,1.73-.24,6.79,6.79,0,0,1,3,.71,6,6,0,0,1,1.06.65,6.7,6.7,0,0,1,2.52,3.94,6.5,6.5,0,0,1,.15,1.39A7,7,0,0,1,556.61,622.2Z"/><path class="cls-29" d="M554.87,612h0a5,5,0,0,1-1.15,2,4.63,4.63,0,0,1-.65.6,5.08,5.08,0,0,1-3.18,1.11,4.8,4.8,0,0,1-1.59-.24,5.22,5.22,0,0,1-.35-9.82l.3-.1a5.22,5.22,0,0,1,6.83,4.93A5.29,5.29,0,0,1,554.87,612Z"/><circle class="cls-29" cx="556.8" cy="634.06" r="6.72"/><circle class="cls-29" cx="552.23" cy="627.29" r="6.72"/><circle class="cls-29" cx="566.49" cy="639.3" r="6.72"/><circle class="cls-29" cx="576.93" cy="640.6" r="6.72"/><circle class="cls-29" cx="587.18" cy="638.43" r="6.72"/><path class="cls-29" d="M554.15,616.8a4.34,4.34,0,0,1-.39,1.33,4.77,4.77,0,0,1-5.39,2.64h0a3.89,3.89,0,0,1-.94-.33,4.76,4.76,0,0,1-2.69-3.81h0a3.54,3.54,0,0,1,0-.46,4.76,4.76,0,0,1,9-2.12,3,3,0,0,1,.2.49,5.16,5.16,0,0,1,.21.77,4.76,4.76,0,0,1,.07.75v.05A4,4,0,0,1,554.15,616.8Z"/><path class="cls-29" d="M550.48,627.37a4.76,4.76,0,0,1-2.09,2,4.69,4.69,0,0,1-2,.47,2.17,2.17,0,0,1-.36,0,4.75,4.75,0,0,1-4.42-4.71,2.36,2.36,0,0,1,0-.46,4.75,4.75,0,0,1,4.7-4.33,4.82,4.82,0,0,1,2.05.45l0,0a4.48,4.48,0,0,1,.84.51,4.75,4.75,0,0,1,1.27,6.09Z"/><circle class="cls-29" cx="570.6" cy="644.71" r="4.76"/><circle class="cls-29" cx="572.99" cy="639.26" r="4.76"/><circle class="cls-29" cx="582.35" cy="638.45" r="4.76"/><circle class="cls-29" cx="562.1" cy="636.6" r="4.76"/><rect class="cls-29" x="569.17" y="598.73" width="8.76" height="1.81" rx="0.57" transform="translate(-82.4 91.45) rotate(-8.51)"/><path class="cls-29" d="M591.31,601.3l-5.43-1.1a.91.91,0,0,1,.28-1.79h.08l5.19,1.05Z"/><line class="cls-30" x1="570.97" y1="628.3" x2="571.12" y2="629"/><line class="cls-30" x1="572.25" y1="627" x2="572" y2="627.88"/><line class="cls-30" x1="572.25" y1="629.05" x2="571.95" y2="629.7"/><line class="cls-30" x1="569.15" y1="628.26" x2="568.71" y2="628.74"/><line class="cls-30" x1="574.04" y1="628.71" x2="573.67" y2="629.28"/><line class="cls-30" x1="568.34" y1="626.57" x2="567.83" y2="627.13"/><line class="cls-30" x1="570.09" y1="626.54" x2="569.66" y2="627.02"/><line class="cls-30" x1="570.9" y1="626.85" x2="570.66" y2="627.59"/><line class="cls-30" x1="575.44" y1="628.41" x2="575.21" y2="629.14"/><line class="cls-30" x1="573.54" y1="630.48" x2="573.04" y2="630.88"/><line class="cls-30" x1="573.45" y1="627.13" x2="573.22" y2="627.86"/><line class="cls-30" x1="575.4" y1="627.34" x2="574.88" y2="627.89"/><line class="cls-30" x1="575.24" y1="630.21" x2="574.73" y2="630.76"/><line class="cls-30" x1="576.96" y1="629.79" x2="576.74" y2="630.37"/><line class="cls-30" x1="576.69" y1="628.09" x2="576.46" y2="628.82"/><line class="cls-30" x1="576" y1="631.66" x2="575.5" y2="632.06"/><line class="cls-30" x1="573.94" y1="631.67" x2="573.81" y2="632.18"/><line class="cls-30" x1="571.87" y1="631.14" x2="571.27" y2="631.76"/><line class="cls-30" x1="570.57" y1="630.54" x2="570.41" y2="631.36"/><line class="cls-30" x1="569.24" y1="630.24" x2="569.07" y2="631.06"/><line class="cls-30" x1="569.86" y1="625.22" x2="569.49" y2="625.79"/><line class="cls-30" x1="571.96" y1="624.76" x2="571.53" y2="625.25"/><line class="cls-30" x1="573.3" y1="625.74" x2="572.95" y2="626.16"/><line class="cls-30" x1="574.15" y1="633.28" x2="573.93" y2="633.87"/><line class="cls-30" x1="572.21" y1="632.92" x2="571.98" y2="633.66"/><line class="cls-30" x1="570.38" y1="632.34" x2="569.93" y2="632.98"/><line class="cls-30" x1="568.03" y1="630.11" x2="567.45" y2="630.58"/><line class="cls-30" x1="567.75" y1="628.56" x2="567.28" y2="629.35"/><line class="cls-30" x1="566.43" y1="630.85" x2="566.27" y2="631.67"/><line class="cls-30" x1="568.06" y1="632.01" x2="567.82" y2="632.75"/><line class="cls-30" x1="561.47" y1="626.21" x2="561.62" y2="626.91"/><line class="cls-30" x1="562.94" y1="626.67" x2="562.64" y2="627.32"/><line class="cls-30" x1="559.83" y1="625.88" x2="559.4" y2="626.36"/><line class="cls-30" x1="564.72" y1="626.33" x2="564.36" y2="626.9"/><line class="cls-30" x1="559.03" y1="624.19" x2="558.51" y2="624.75"/><line class="cls-30" x1="560.78" y1="624.16" x2="560.35" y2="624.64"/><line class="cls-30" x1="564.23" y1="628.1" x2="563.73" y2="628.5"/><line class="cls-30" x1="564.13" y1="624.75" x2="563.9" y2="625.48"/><line class="cls-30" x1="565.93" y1="627.83" x2="565.41" y2="628.38"/><line class="cls-30" x1="567.37" y1="625.71" x2="567.14" y2="626.44"/><line class="cls-30" x1="566.68" y1="629.28" x2="566.18" y2="629.68"/><line class="cls-30" x1="564.63" y1="629.29" x2="564.5" y2="629.8"/><line class="cls-30" x1="562.56" y1="628.76" x2="561.96" y2="629.38"/><line class="cls-30" x1="561.26" y1="628.16" x2="561.09" y2="628.98"/><line class="cls-30" x1="559.92" y1="627.86" x2="559.76" y2="628.68"/><line class="cls-30" x1="560.54" y1="622.84" x2="560.18" y2="623.41"/><line class="cls-30" x1="562.64" y1="622.38" x2="562.21" y2="622.87"/><line class="cls-30" x1="563.98" y1="623.36" x2="563.63" y2="623.78"/><line class="cls-30" x1="564.83" y1="630.9" x2="564.62" y2="631.49"/><line class="cls-30" x1="562.9" y1="630.54" x2="562.67" y2="631.28"/><line class="cls-30" x1="561.06" y1="629.96" x2="560.61" y2="630.6"/><line class="cls-30" x1="558.72" y1="627.73" x2="558.14" y2="628.2"/><line class="cls-30" x1="558.43" y1="626.18" x2="557.97" y2="626.97"/><line class="cls-30" x1="557.12" y1="628.47" x2="556.96" y2="629.29"/><line class="cls-30" x1="558.74" y1="629.63" x2="558.51" y2="630.37"/><line class="cls-30" x1="566.46" y1="622.19" x2="566.61" y2="622.89"/><line class="cls-30" x1="567.75" y1="620.89" x2="567.5" y2="621.77"/><line class="cls-30" x1="567.75" y1="622.94" x2="567.45" y2="623.59"/><line class="cls-30" x1="564.65" y1="622.15" x2="564.21" y2="622.63"/><line class="cls-30" x1="569.53" y1="622.6" x2="569.17" y2="623.17"/><line class="cls-30" x1="563.84" y1="620.46" x2="563.32" y2="621.01"/><line class="cls-30" x1="565.59" y1="620.43" x2="565.16" y2="620.91"/><line class="cls-30" x1="566.39" y1="620.74" x2="566.16" y2="621.47"/><line class="cls-30" x1="570.93" y1="622.3" x2="570.7" y2="623.03"/><line class="cls-30" x1="569.04" y1="624.37" x2="568.54" y2="624.77"/><line class="cls-30" x1="568.95" y1="621.02" x2="568.72" y2="621.75"/><line class="cls-30" x1="570.74" y1="624.1" x2="570.22" y2="624.65"/><line class="cls-30" x1="572.46" y1="623.68" x2="572.24" y2="624.26"/><line class="cls-30" x1="572.19" y1="621.98" x2="571.95" y2="622.71"/><line class="cls-30" x1="571.49" y1="625.55" x2="570.99" y2="625.95"/><line class="cls-30" x1="567.37" y1="625.02" x2="566.77" y2="625.64"/><line class="cls-30" x1="566.07" y1="624.43" x2="565.9" y2="625.25"/><line class="cls-30" x1="564.73" y1="624.13" x2="564.57" y2="624.95"/><line class="cls-30" x1="565.87" y1="626.23" x2="565.42" y2="626.87"/><line class="cls-30" x1="563.1" y1="623.8" x2="562.63" y2="624.59"/><line class="cls-30" x1="561.93" y1="624.74" x2="561.77" y2="625.56"/><line class="cls-30" x1="563.55" y1="625.9" x2="563.32" y2="626.64"/><line class="cls-30" x1="580.45" y1="631.92" x2="580.6" y2="632.62"/><line class="cls-30" x1="581.73" y1="630.61" x2="581.48" y2="631.5"/><line class="cls-30" x1="581.74" y1="632.67" x2="581.44" y2="633.32"/><line class="cls-30" x1="578.63" y1="631.87" x2="578.2" y2="632.36"/><line class="cls-30" x1="577.83" y1="630.19" x2="577.31" y2="630.74"/><line class="cls-30" x1="579.58" y1="630.15" x2="579.15" y2="630.64"/><line class="cls-30" x1="580.38" y1="630.47" x2="580.15" y2="631.2"/><line class="cls-30" x1="584.92" y1="632.02" x2="584.69" y2="632.76"/><line class="cls-30" x1="583.02" y1="634.1" x2="582.53" y2="634.5"/><line class="cls-30" x1="582.93" y1="630.74" x2="582.7" y2="631.48"/><line class="cls-30" x1="584.89" y1="630.96" x2="584.37" y2="631.51"/><line class="cls-30" x1="584.73" y1="633.83" x2="584.21" y2="634.38"/><line class="cls-30" x1="586.44" y1="633.4" x2="586.23" y2="633.99"/><line class="cls-30" x1="586.17" y1="631.7" x2="585.94" y2="632.44"/><line class="cls-30" x1="585.48" y1="635.28" x2="584.98" y2="635.68"/><line class="cls-30" x1="583.43" y1="635.28" x2="583.3" y2="635.8"/><line class="cls-30" x1="581.36" y1="634.75" x2="580.76" y2="635.37"/><line class="cls-30" x1="580.06" y1="634.15" x2="579.89" y2="634.97"/><line class="cls-30" x1="578.72" y1="633.86" x2="578.56" y2="634.67"/><line class="cls-30" x1="579.34" y1="628.83" x2="578.98" y2="629.4"/><line class="cls-30" x1="581.44" y1="628.38" x2="581.01" y2="628.86"/><line class="cls-30" x1="582.78" y1="629.36" x2="582.43" y2="629.78"/><line class="cls-30" x1="583.63" y1="636.9" x2="583.42" y2="637.48"/><line class="cls-30" x1="581.7" y1="636.53" x2="581.46" y2="637.27"/><line class="cls-30" x1="579.86" y1="635.96" x2="579.41" y2="636.59"/><line class="cls-30" x1="577.52" y1="633.73" x2="576.94" y2="634.19"/><line class="cls-30" x1="577.23" y1="632.18" x2="576.77" y2="632.96"/><line class="cls-30" x1="575.92" y1="634.46" x2="575.75" y2="635.28"/><line class="cls-30" x1="577.54" y1="635.63" x2="577.31" y2="636.36"/><line class="cls-30" x1="587.17" y1="631.58" x2="587.32" y2="632.28"/><line class="cls-30" x1="588.45" y1="630.28" x2="588.21" y2="631.16"/><line class="cls-30" x1="588.46" y1="632.33" x2="588.16" y2="632.98"/><line class="cls-30" x1="590.24" y1="631.99" x2="589.88" y2="632.56"/><line class="cls-30" x1="584.55" y1="629.86" x2="584.03" y2="630.41"/><line class="cls-30" x1="586.3" y1="629.82" x2="585.87" y2="630.3"/><line class="cls-30" x1="587.1" y1="630.13" x2="586.87" y2="630.87"/><line class="cls-30" x1="589.75" y1="633.76" x2="589.25" y2="634.16"/><line class="cls-30" x1="589.65" y1="630.41" x2="589.42" y2="631.14"/><line class="cls-30" x1="591.45" y1="633.49" x2="590.93" y2="634.04"/><line class="cls-30" x1="593.16" y1="633.07" x2="592.95" y2="633.66"/><line class="cls-30" x1="592.2" y1="634.94" x2="591.7" y2="635.34"/><line class="cls-30" x1="590.15" y1="634.95" x2="590.02" y2="635.46"/><line class="cls-30" x1="588.08" y1="634.42" x2="587.48" y2="635.04"/><line class="cls-30" x1="586.78" y1="633.82" x2="586.61" y2="634.64"/><line class="cls-30" x1="585.44" y1="633.52" x2="585.28" y2="634.34"/><line class="cls-30" x1="586.06" y1="628.5" x2="585.7" y2="629.07"/><line class="cls-30" x1="588.17" y1="628.05" x2="587.73" y2="628.53"/><line class="cls-30" x1="589.5" y1="629.03" x2="589.15" y2="629.44"/><line class="cls-30" x1="590.35" y1="636.56" x2="590.14" y2="637.15"/><line class="cls-30" x1="588.42" y1="636.2" x2="588.19" y2="636.94"/><line class="cls-30" x1="586.58" y1="635.62" x2="586.13" y2="636.26"/><line class="cls-30" x1="584.24" y1="633.39" x2="583.66" y2="633.86"/><line class="cls-30" x1="583.95" y1="631.84" x2="583.49" y2="632.63"/><line class="cls-30" x1="582.64" y1="634.13" x2="582.48" y2="634.95"/><line class="cls-30" x1="584.26" y1="635.29" x2="584.03" y2="636.03"/><line class="cls-30" x1="557.82" y1="617.23" x2="557.72" y2="617.94"/><line class="cls-30" x1="559.47" y1="616.45" x2="558.93" y2="617.19"/><line class="cls-30" x1="558.77" y1="618.38" x2="558.26" y2="618.88"/><line class="cls-30" x1="556.13" y1="616.55" x2="555.56" y2="616.86"/><line class="cls-30" x1="560.56" y1="618.68" x2="560.02" y2="619.08"/><line class="cls-30" x1="555.96" y1="614.7" x2="555.28" y2="615.03"/><line class="cls-30" x1="557.62" y1="615.27" x2="557.04" y2="615.57"/><line class="cls-30" x1="558.26" y1="615.84" x2="557.78" y2="616.45"/><line class="cls-30" x1="561.97" y1="618.88" x2="561.5" y2="619.49"/><line class="cls-30" x1="559.48" y1="620.17" x2="558.87" y2="620.37"/><line class="cls-30" x1="560.56" y1="616.99" x2="560.08" y2="617.6"/><line class="cls-30" x1="562.31" y1="617.87" x2="561.64" y2="618.2"/><line class="cls-30" x1="561.17" y1="620.5" x2="560.49" y2="620.84"/><line class="cls-30" x1="562.92" y1="620.7" x2="562.52" y2="621.18"/><line class="cls-30" x1="563.26" y1="619.01" x2="562.79" y2="619.62"/><line class="cls-30" x1="561.37" y1="622.12" x2="560.76" y2="622.33"/><line class="cls-30" x1="559.44" y1="621.41" x2="559.14" y2="621.85"/><line class="cls-30" x1="557.69" y1="620.2" x2="556.91" y2="620.57"/><line class="cls-30" x1="556.67" y1="619.19" x2="556.23" y2="619.9"/><line class="cls-30" x1="555.52" y1="618.45" x2="555.08" y2="619.16"/><line class="cls-30" x1="557.85" y1="613.95" x2="557.31" y2="614.36"/><line class="cls-30" x1="559.07" y1="623" x2="558.67" y2="623.48"/><line class="cls-30" x1="557.38" y1="621.99" x2="556.91" y2="622.6"/><line class="cls-30" x1="555.86" y1="620.81" x2="555.22" y2="621.25"/><line class="cls-30" x1="554.44" y1="617.91" x2="553.73" y2="618.14"/><line class="cls-30" x1="554.71" y1="616.35" x2="554" y2="616.93"/><line class="cls-30" x1="552.68" y1="618.04" x2="552.25" y2="618.75"/><line class="cls-30" x1="553.8" y1="619.7" x2="553.33" y2="620.31"/><line class="cls-30" x1="551.05" y1="611.02" x2="550.95" y2="611.73"/><line class="cls-30" x1="552.7" y1="610.24" x2="552.16" y2="610.99"/><line class="cls-30" x1="551.99" y1="612.17" x2="551.49" y2="612.68"/><line class="cls-30" x1="549.36" y1="610.35" x2="548.78" y2="610.65"/><line class="cls-30" x1="553.79" y1="612.47" x2="553.24" y2="612.88"/><line class="cls-30" x1="549.19" y1="608.49" x2="548.51" y2="608.83"/><line class="cls-30" x1="550.84" y1="609.06" x2="550.27" y2="609.37"/><line class="cls-30" x1="551.49" y1="609.64" x2="551.01" y2="610.24"/><line class="cls-30" x1="555.2" y1="612.67" x2="554.73" y2="613.28"/><line class="cls-30" x1="552.71" y1="613.96" x2="552.1" y2="614.16"/><line class="cls-30" x1="553.78" y1="610.78" x2="553.31" y2="611.39"/><line class="cls-30" x1="555.54" y1="611.66" x2="554.87" y2="612"/><line class="cls-30" x1="554.39" y1="614.3" x2="553.72" y2="614.63"/><line class="cls-30" x1="556.49" y1="612.81" x2="556.02" y2="613.42"/><line class="cls-30" x1="554.6" y1="615.92" x2="553.99" y2="616.12"/><line class="cls-30" x1="552.67" y1="615.21" x2="552.37" y2="615.65"/><line class="cls-30" x1="550.92" y1="613.99" x2="550.14" y2="614.37"/><line class="cls-30" x1="549.9" y1="612.98" x2="549.46" y2="613.69"/><line class="cls-30" x1="548.75" y1="612.24" x2="548.31" y2="612.95"/><line class="cls-30" x1="551.08" y1="607.74" x2="550.54" y2="608.15"/><line class="cls-30" x1="553.21" y1="608.05" x2="552.63" y2="608.35"/><line class="cls-30" x1="554.12" y1="609.43" x2="553.65" y2="609.7"/><line class="cls-30" x1="552.3" y1="616.8" x2="551.9" y2="617.27"/><line class="cls-30" x1="550.61" y1="615.79" x2="550.14" y2="616.39"/><line class="cls-30" x1="549.09" y1="614.6" x2="548.45" y2="615.04"/><line class="cls-30" x1="547.67" y1="611.7" x2="546.96" y2="611.94"/><line class="cls-30" x1="547.94" y1="610.15" x2="547.23" y2="610.72"/><line class="cls-30" x1="547.03" y1="613.49" x2="546.56" y2="614.1"/><path class="cls-31" d="M564.89,613.49c-2.66-4.2-1.94-9.45.17-13.7.05-.1-.11-.15-.16-.06-2.13,4.31-2.83,9.61-.15,13.86.06.09.19,0,.13-.1Z"/><path class="cls-31" d="M563.7,613.22a9.28,9.28,0,0,1-1.8-6.44,22.48,22.48,0,0,1,1.91-7.25c0-.1-.11-.15-.16-.06a22.26,22.26,0,0,0-1.94,7.59,9.4,9.4,0,0,0,1.85,6.26.08.08,0,1,0,.13-.1Z"/><path class="cls-31" d="M581.71,602.23a13,13,0,0,0,.08,2.42.08.08,0,0,0,.1.07.1.1,0,0,0,.07-.09,11.16,11.16,0,0,1-.08-2.38c0-.1-.15-.12-.16,0Z"/><path class="cls-31" d="M582.66,602.46a3.11,3.11,0,0,0,.13,1.76c0,.1.18,0,.15-.07a3,3,0,0,1-.12-1.67C582.84,602.38,582.68,602.36,582.66,602.46Z"/><g id="Hat"><path class="cls-32" d="M593.55,594.89H592l-19.45.11h-.77l-15.23.09-8,0H547v-4.08a7.72,7.72,0,0,1,7.66-7.59l15.36-.09h.34l2.63,0h.78l12-.07a7.73,7.73,0,0,1,7.75,7.51.86.86,0,0,0,0,.16v3.92Z"/><polygon class="cls-33" points="594.14 592.92 593.54 592.93 592.09 592.93 572.73 593.04 571.96 593.04 555.83 593.14 548.52 593.18 547.72 593.19 547.01 593.19 546.56 593.19 546.55 591.08 547 591.07 548.61 591.06 550.57 591.05 552.95 591.04 552.96 591.04 572.18 590.93 572.96 590.93 592.08 590.82 593.53 590.81 594.13 590.81 594.14 592.92"/><path class="cls-33" d="M572.94,582.84c0,.28-1.14.52-2.57.54H570c-1.41,0-2.53-.23-2.53-.51s1.21-.54,2.72-.55S572.94,582.55,572.94,582.84Z"/></g><rect class="cls-34" x="427.77" y="572" width="90" height="90"/><rect class="cls-4" x="435.1" y="594.39" width="75.33" height="45.22" rx="2.7"/><ellipse class="cls-35" cx="482.87" cy="616.33" rx="11.43" ry="11.42"/><rect class="cls-35" x="441.11" y="599.24" width="12.6" height="5.66" rx="2.7"/><rect class="cls-35" x="446.69" y="593.04" width="8.91" height="1.35" rx="0.67"/><rect class="cls-36" x="526" y="283" width="90" height="90"/><polygon class="cls-15" points="548.73 283 526 305.71 526 297.06 540.08 283 548.73 283"/><polygon class="cls-15" points="568.17 283 526 325.13 526 316.48 559.52 283 568.17 283"/><polygon class="cls-15" points="587.97 283 526 344.91 526 336.26 579.32 283 587.97 283"/><polygon class="cls-15" points="606.05 283.01 526 362.98 526 354.34 597.41 283 606.04 283 606.05 283.01"/><polygon class="cls-15" points="616 283.85 616 293.7 536.62 373 526.76 373 616 283.85"/><polygon class="cls-15" points="616 303.63 616 312.27 555.21 373 546.56 373 616 303.63"/><polygon class="cls-15" points="616 303.81 616 312.45 555.39 373 546.74 373 616 303.81"/><polygon class="cls-15" points="616 323.23 616 331.87 574.83 373 566.18 373 616 323.23"/><polygon class="cls-15" points="616 343.01 616 351.65 594.63 373 585.98 373 616 343.01"/><polygon class="cls-15" points="616 343.1 616 351.74 594.72 373 586.07 373 616 343.1"/><polygon class="cls-15" points="616 362.88 616 371.52 614.52 373 605.87 373 616 362.88"/><rect class="cls-37" x="526" y="379" width="90" height="90"/><polyline class="cls-38" points="533.38 392.73 533.38 450.31 612.56 450.31"/><rect class="cls-39" x="536.25" y="400.08" width="12.31" height="47.83"/><rect class="cls-40" x="548.57" y="405.84" width="12.31" height="42.07"/><rect class="cls-41" x="560.89" y="426.8" width="12.31" height="21.11"/><rect class="cls-42" x="573.29" y="392.33" width="12.31" height="55.67"/><rect class="cls-43" x="585.44" y="412.32" width="12.31" height="35.67"/><rect class="cls-44" x="597.6" y="426.72" width="12.31" height="21.27"/><rect class="cls-45" x="624" y="476" width="90" height="90"/><rect class="cls-46" x="663.85" y="526.31" width="9.84" height="23.4"/><polygon class="cls-47" points="670.85 531.16 674.17 532.47 670.19 551.89 668.88 549.79 670.85 531.16"/><path class="cls-47" d="M663.75,532.25c.32,0,3.38-1.35,3.38-1.35l1.75,18.89-1.31,2.1Z"/><path class="cls-46" d="M683.76,511.55c.21,7.67-6.87,16.73-15.09,16.73s-15.09-8.84-15.1-16.33c0-.69.07-1.36.07-1.36a10.15,10.15,0,0,1,.25-1.22c.06-.26.13-.52.23-.83.3-.87,5.44-12.7,14.55-12.92C676.49,495.42,683.56,503.87,683.76,511.55Z"/><path class="cls-48" d="M655.22,515.38l3.84-11.25s10.16,4.39,19.21,0l4.39,11.25,1.1-.55s-1.65-17.56-6.31-18.66a10.85,10.85,0,0,0-3.84-1.1c-1.65,0,.27-1.92.27-1.92s-19.21-4.94-20.31,20.57Z"/><circle class="cls-48" cx="664.14" cy="509.75" r="0.96"/><circle class="cls-48" cx="673.47" cy="509.75" r="0.96"/><path class="cls-49" d="M662.65,520v.33c0,2.32,2.7,4.2,6,4.2s6-1.88,6-4.2a1.82,1.82,0,0,0,0-.33Z"/><path class="cls-5" d="M662.87,521.69h11.59a3,3,0,0,0,.24-1.18,1.82,1.82,0,0,0,0-.33H662.65v.33A3,3,0,0,0,662.87,521.69Z"/><polygon class="cls-50" points="647.32 566 648.54 558.46 648.54 566 689 566 689 557.53 690.39 566 700.75 566 704.74 564.14 695.67 540.31 670.82 532.22 670.14 549.49 667.62 549.49 667.13 532 642.14 540.31 633.24 564.14 637.15 566 647.32 566"/><rect class="cls-51" x="624" y="379" width="90" height="90"/><path class="cls-52" d="M695,406.5l-49.53-11.24a2.06,2.06,0,0,1-1.58-2.45v0h0a2.12,2.12,0,0,1,2.53-1.54L696,402.49a2.07,2.07,0,0,1,1.58,2.46h0A2.12,2.12,0,0,1,695,406.5Z"/><rect class="cls-53" x="628.03" y="402.3" width="81.47" height="46.91" rx="7.68"/><ellipse class="cls-54" cx="647.27" cy="423.16" rx="13.06" ry="13.44"/><ellipse class="cls-54" cx="674.67" cy="436.53" rx="3.93" ry="4.05"/><ellipse class="cls-54" cx="687.02" cy="436.53" rx="3.93" ry="4.05"/><ellipse class="cls-54" cx="697.7" cy="436.53" rx="3.93" ry="4.05"/><rect class="cls-5" x="670.73" y="410.81" width="29.78" height="17.28" rx="5.68"/><rect class="cls-55" x="428" y="476" width="90" height="90"/><rect class="cls-56" x="428" y="537.58" width="90" height="28.42"/><path class="cls-57" d="M439.57,550.61l-2.29-20.44-1.38-12.36h26.29l-4.91,32.8S450,563.11,439.57,550.61Z"/><ellipse class="cls-58" cx="448.9" cy="517.81" rx="13.15" ry="4.95"/><ellipse class="cls-59" cx="448.88" cy="517.89" rx="9.73" ry="3.57" transform="translate(-35.07 32.61) rotate(-4)"/><path class="cls-60" d="M456.84,499.44s-1.72,3.47.33,2.78l-8.1,4.09-.15,11.5s-1.9,1.59-2-.09c-.19-4.24-.3-8.5-.44-12.75l10.33-5.53"/><path class="cls-61" d="M459.19,538.28a25.77,25.77,0,0,1-10.4,2.85c-4.35.13-9.27-.84-10.62-2.77l-.65-6.54c1.44,1.92,6.74,2.9,11.43,2.76a29.57,29.57,0,0,0,11.19-2.84Z"/><path class="cls-5" d="M441.25,537.3l-.18.64-.44-.13.55-1.93.7.2a.51.51,0,0,1,.38.3.87.87,0,0,1-.29.93.49.49,0,0,1-.47.05Zm.12-.41.14,0a.23.23,0,0,0,.2,0,.28.28,0,0,0,0-.45l-.07,0-.15,0Z"/><path class="cls-5" d="M443.31,536.4a.48.48,0,0,1,.39.25.64.64,0,0,1,.07.47.61.61,0,0,1-.21.39.39.39,0,0,1-.26.09l.4.91-.56-.1-.3-.83-.13.75-.46-.08.35-2Zm-.41.85H443a.31.31,0,0,0,.23,0,.26.26,0,0,0,.06-.33.28.28,0,0,0-.2-.12H443Z"/><path class="cls-5" d="M444.67,536.59l-.26,2-.44-.06.25-2Z"/><path class="cls-5" d="M445.31,536.67l.32,1.25.53-1.17.5,0-.91,2-.35,0-.56-2.07Z"/><path class="cls-5" d="M447.65,538.51l-.64,0-.14.33-.5,0,.78-2h.5l.6,2.07-.5,0Zm-.1-.41-.17-.66-.22.64Z"/><path class="cls-5" d="M449.06,537.31v1.57h-.46v-1.57h-.35v-.44h1.21v.44Z"/><path class="cls-5" d="M450.44,538.21a.56.56,0,0,0,.42.15.2.2,0,0,0,.17-.09.14.14,0,0,0,0-.13A.24.24,0,0,0,451,538a.75.75,0,0,0-.24-.08l-.12,0a.47.47,0,0,1-.41-.47.68.68,0,0,1,.1-.5.6.6,0,0,1,.42-.25,1.17,1.17,0,0,1,.56.1l-.13.43a.46.46,0,0,0-.32-.1.18.18,0,0,0-.17.19.16.16,0,0,0,0,.09.28.28,0,0,0,.17.07l.14,0a.67.67,0,0,1,.34.16.6.6,0,0,1,.16.35.8.8,0,0,1-.11.5.61.61,0,0,1-.5.26.69.69,0,0,1-.35,0,.9.9,0,0,1-.28-.13Z"/><path class="cls-5" d="M452,538.62l-.44-2,.45-.1,1.09,1-.27-1.2.44-.1.47,2-.44.1-1.09-1,.27,1.2Z"/><path class="cls-5" d="M455.12,537.42l-.6.2V538l-.46.16V536l.47-.16,1.29,1.69-.46.16Zm-.24-.34-.4-.55,0,.68Z"/><path class="cls-5" d="M456,536.14l.16-1,.5-.24-.24,1.16,1.14.66L457,537l-.9-.54.36.79-.41.19-.83-1.82.42-.19Z"/><path class="cls-62" d="M506.64,496.66c0,.73.27,1.33.62,1.33s.61-1.38.61-2.12"/><path class="cls-57" d="M488.83,549.29l-2.41-21.61L485,514.61h27.79l-5.19,34.68S499.89,562.5,488.83,549.29Z"/><ellipse class="cls-58" cx="498.69" cy="514.61" rx="13.9" ry="5.24"/><ellipse class="cls-59" cx="498.8" cy="514.75" rx="10.29" ry="3.77" transform="translate(-34.73 36.09) rotate(-4)"/><path class="cls-60" d="M507.1,495.18s-1.39,3.38.77,2.66l-9,4.62-.12,12.15s-2,1.69-2.09-.09c-.19-4.5-.31-9-.47-13.5l10.91-5.84"/><path class="cls-61" d="M509.57,536.25a26.88,26.88,0,0,1-11,3c-4.6.14-9.8-.88-11.22-2.92l-.7-6.93c1.53,2,7.14,3.07,12.09,2.93a31,31,0,0,0,11.83-3Z"/><path class="cls-5" d="M490.58,535.22l-.19.67-.47-.13.59-2,.75.21a.64.64,0,0,1,.4.32.72.72,0,0,1,0,.54.85.85,0,0,1-.31.47.58.58,0,0,1-.5,0Zm.13-.44.15.05a.24.24,0,0,0,.31-.11.19.19,0,0,0,0-.07.23.23,0,0,0,0-.2.27.27,0,0,0-.18-.13l-.16-.05Z"/><path class="cls-5" d="M492.79,534.25a.57.57,0,0,1,.42.26.8.8,0,0,1,.07.5.64.64,0,0,1-.22.41.42.42,0,0,1-.28.1l.42,1-.59-.1-.31-.89-.15.81-.5-.08.37-2.1Zm-.43.9h.09a.34.34,0,0,0,.24,0,.27.27,0,0,0,.1-.16.26.26,0,0,0,0-.19.31.31,0,0,0-.21-.13h-.09Z"/><path class="cls-5" d="M494.2,534.47l-.27,2.11-.5-.06.27-2.12Z"/><path class="cls-5" d="M494.89,534.54l.33,1.34.56-1.26.53,0-1,2.05-.37,0-.59-2.19Z"/><path class="cls-5" d="M497.33,536.5l-.67,0-.14.35-.5,0,.82-2.09.5,0,.59,2.17-.5,0Zm-.1-.43-.17-.7-.24.67Z"/><path class="cls-5" d="M498.82,535.25v1.66h-.5v-1.66h-.39v-.5h1.27v.5Z"/><path class="cls-5" d="M500.28,536.18a.61.61,0,0,0,.44.17.21.21,0,0,0,.18-.1.18.18,0,0,0,0-.13.33.33,0,0,0-.07-.13.81.81,0,0,0-.25-.08l-.13,0a.61.61,0,0,1-.29-.14.54.54,0,0,1-.14-.36.68.68,0,0,1,.11-.53.56.56,0,0,1,.45-.25,1.1,1.1,0,0,1,.59.1l-.14.45a.43.43,0,0,0-.34-.1.19.19,0,0,0-.15.08.16.16,0,0,0,0,.12.36.36,0,0,0,0,.09.48.48,0,0,0,.17.08l.15,0a.64.64,0,0,1,.36.17.58.58,0,0,1,.17.37.76.76,0,0,1-.12.55.71.71,0,0,1-.5.28,1.16,1.16,0,0,1-.37,0,1.38,1.38,0,0,1-.3-.14Z"/><path class="cls-5" d="M501.94,536.62l-.45-2.08.47-.1,1.15,1.08-.29-1.27.47-.11.46,2.11-.47.1-1.14-1.1.28,1.28Z"/><path class="cls-5" d="M505.25,535.36l-.64.22V536l-.5.17,0-2.25.5-.17,1.36,1.78-.5.17ZM505,535l-.43-.58,0,.72Z"/><path class="cls-5" d="M506.17,534l.18-1,.54-.25-.26,1.23,1.2.69-.57.25-.95-.58.37.84-.44.2-.88-1.94.45-.19Z"/><path class="cls-57" d="M460.56,549.68q-1.55-13.75-3.07-27.5l-1.87-16.64H491l-6.61,44.14S474.65,566.51,460.56,549.68Z"/><ellipse class="cls-58" cx="473.12" cy="505.54" rx="17.69" ry="6.66"/><ellipse class="cls-59" cx="473.12" cy="505.49" rx="13.06" ry="4.79" transform="translate(-34.93 35.12) rotate(-4.1)"/><path class="cls-60" d="M470.51,505.43c-.26-5.72-.39-11.44-.59-17.18l13.9-7.45s-1.78,4.29,1,3.39l-11.45,5.88-.2,15.47S470.6,507.68,470.51,505.43Z"/><path class="cls-61" d="M487,533.09a34.79,34.79,0,0,1-14,3.84c-5.85.17-12.5-1.13-14.29-3.73l-.88-8.8c1.95,2.59,9.08,3.9,15.38,3.72a39.47,39.47,0,0,0,15.07-3.84Z"/><path class="cls-5" d="M462.82,531.78l-.25.86-.59-.17.77-2.6.94.27a.72.72,0,0,1,.5.4.91.91,0,0,1,0,.69,1,1,0,0,1-.38.59.74.74,0,0,1-.63.07Zm.16-.55.19.06a.42.42,0,0,0,.27,0,.3.3,0,0,0,.14-.22.28.28,0,0,0,0-.25.3.3,0,0,0-.22-.17l-.2-.06Z"/><path class="cls-5" d="M465.62,530.56a.71.71,0,0,1,.53.34,1,1,0,0,1,.09.63.84.84,0,0,1-.28.5.59.59,0,0,1-.35.12l.53,1.23-.75-.14-.4-1.12-.18,1-.6-.11.47-2.67Zm-.55,1.13h.12a.39.39,0,0,0,.31-.05.45.45,0,0,0,.12-.21.4.4,0,0,0,0-.24.45.45,0,0,0-.28-.16h-.11Z"/><path class="cls-5" d="M467.44,530.83l-.34,2.69-.61-.08.34-2.69Z"/><path class="cls-5" d="M468.33,530.92l.42,1.69.72-1.59.66.06-1.24,2.61-.5,0-.75-2.79Z"/><path class="cls-5" d="M471.46,533.4l-.86,0-.18.45-.67-.06,1.05-2.66.67,0,.78,2.78-.65,0Zm-.14-.54-.22-.89-.3.87Z"/><path class="cls-5" d="M473.36,531.78v2.12h-.61v-2.11h-.5v-.6h1.62v.6Z"/><path class="cls-5" d="M475.25,533a.75.75,0,0,0,.57.21.24.24,0,0,0,.22-.12.21.21,0,0,0,0-.17.19.19,0,0,0-.08-.16.92.92,0,0,0-.32-.1l-.17,0a.82.82,0,0,1-.36-.18A.73.73,0,0,1,475,532a1,1,0,0,1,.13-.67.81.81,0,0,1,.58-.33,1.47,1.47,0,0,1,.75.13l-.17.57a.64.64,0,0,0-.42-.13.27.27,0,0,0-.19.11.2.2,0,0,0-.05.15.21.21,0,0,0,.05.12.4.4,0,0,0,.22.09l.19,0a.81.81,0,0,1,.46.21.73.73,0,0,1,.21.46,1,1,0,0,1-.14.71.92.92,0,0,1-.66.36,1.2,1.2,0,0,1-.5,0,1.46,1.46,0,0,1-.38-.17Z"/><path class="cls-5" d="M477.38,533.54l-.6-2.64.59-.14,1.47,1.37-.36-1.62.59-.13.6,2.64-.59.13-1.48-1.36.37,1.62Z"/><path class="cls-5" d="M481.56,531.91l-.82.28v.5l-.61.21,0-2.86.63-.22,1.75,2.26-.62.23Zm-.34-.46-.54-.74.05.92Z"/><path class="cls-5" d="M482.75,530.19l.22-1.34.68-.31-.32,1.56,1.53.87-.72.33-1.22-.73.5,1.07-.55.26-1.12-2.47.56-.26Z"/><path class="cls-62" d="M483.25,482.68c0,.94.35,1.7.78,1.7s.8-1.76.8-2.69-.36-.69-.8-.69S483.25,481.75,483.25,482.68Z"/><path class="cls-63" d="M456.05,501.41a.86.86,0,0,0,.93.91c.33,0,.63-1.52.63-2.27s-.25-.56-.59-.56S456.05,500.66,456.05,501.41Z"/><path class="cls-62" d="M506.25,497.12c0,.9.39,1.63.89,1.63s.88-1.69.88-2.59-.4-.67-.88-.67S506.25,496.22,506.25,497.12Z"/><rect class="cls-15" x="526" y="187" width="89.7" height="89.7"/><polygon class="cls-29" points="583.4 246.2 562.69 246.28 559.09 246.3 526 246.93 526 238.13 549.32 214.81 558.46 223.22 569.85 233.71 583.4 246.2"/><polygon class="cls-64" points="615.7 233.04 615.7 246.25 562.61 246.44 562.69 246.28 562.74 246.2 569.85 233.71 579.12 217.42 585.2 206.73 595.69 215.79 615.7 233.04"/><rect class="cls-65" x="526" y="246.2" width="89.7" height="30.5"/><path class="cls-66" d="M570.85,273.11c0,1.31-1.25,2.54-3.44,3.59H526v-8.3a56.76,56.76,0,0,1,13.1-2.25c2-.15,4-.22,6.18-.22C559.4,265.93,570.85,269.14,570.85,273.11Z"/><polygon class="cls-67" points="549.32 214.81 536.76 227.36 547.53 223.78 552.01 226.47 558.46 223.22 549.32 214.81"/><polygon class="cls-67" points="585.2 206.73 578.92 217.5 583.4 215.7 587.89 218.39 595.96 215.7 585.2 206.73"/><path class="cls-66" d="M585.2,270.42c0,2.71-5.33,5.06-13.2,6.28H547.28c-7.88-1.22-13.21-3.57-13.21-6.28,0-1.61,1.87-3.08,5-4.27,4.65-1.77,12.12-2.91,20.54-2.91C573.75,263.24,585.2,266.45,585.2,270.42Z"/><path class="cls-68" d="M551.11,195.52c0,8.17-7.42,14.8-16.59,14.8a18,18,0,0,1-8.52-2.1V187h22.08A13.63,13.63,0,0,1,551.11,195.52Z"/><ellipse class="cls-5" cx="568.61" cy="195.07" rx="4.04" ry="3.59"/><ellipse class="cls-5" cx="569.5" cy="198.66" rx="4.04" ry="3.59"/><ellipse class="cls-5" cx="573.09" cy="202.25" rx="4.04" ry="3.59"/><ellipse class="cls-5" cx="577.57" cy="203.15" rx="4.04" ry="3.59"/><ellipse class="cls-5" cx="581.16" cy="200.45" rx="4.04" ry="3.59"/><ellipse class="cls-5" cx="581.16" cy="196.87" rx="4.04" ry="3.59"/><ellipse class="cls-5" cx="573.99" cy="198.66" rx="4.04" ry="3.59"/><ellipse class="cls-5" cx="572.19" cy="193.28" rx="4.04" ry="3.59"/><ellipse class="cls-5" cx="576.68" cy="193.28" rx="4.04" ry="3.59"/><ellipse class="cls-5" cx="578.47" cy="195.07" rx="4.04" ry="3.59"/><path class="cls-5" d="M606.73,188.79a1.55,1.55,0,0,1,0,.22,3.08,3.08,0,0,1-.2.91,2.82,2.82,0,0,1-.34.67,3.9,3.9,0,0,1-2.14,1.58,4.29,4.29,0,0,1-1.35.21,4.2,4.2,0,0,1-2.93-1.13,3.35,3.35,0,0,1-1.11-2.46,3.23,3.23,0,0,1,.55-1.79h7A3.23,3.23,0,0,1,606.73,188.79Z"/><ellipse class="cls-5" cx="603.59" cy="192.38" rx="4.04" ry="3.59"/><ellipse class="cls-5" cx="607.17" cy="195.97" rx="4.04" ry="3.59"/><ellipse class="cls-5" cx="611.66" cy="196.87" rx="4.04" ry="3.59"/><path class="cls-5" d="M616,190.65a2.14,2.14,0,0,1-.3.39v6.7h-.45a3.89,3.89,0,0,1-4-3.16,3,3,0,0,1,0-.42,3.12,3.12,0,0,1,.13-.88,3.19,3.19,0,0,1,.42-.92l0-.06a1.84,1.84,0,0,1,.28-.36,4.2,4.2,0,0,1,3.17-1.37l.45,0Z"/><path class="cls-5" d="M616,190.65a2.14,2.14,0,0,1-.3.39v3.11l-.45,0a4.15,4.15,0,0,1-1.12-.15,4,4,0,0,1-1.36-.61,3.4,3.4,0,0,1-.69-.62,2.12,2.12,0,0,1-.32-.42l-.06-.08a3.27,3.27,0,0,1-.49-1.71v0a2.56,2.56,0,0,1,0-.39A3.82,3.82,0,0,1,614.8,187a3.19,3.19,0,0,1,.45,0l.45,0v3.58Z"/><ellipse class="cls-5" cx="608.07" cy="192.38" rx="4.04" ry="3.59"/><path class="cls-5" d="M610.31,187a3.29,3.29,0,0,1-.73,2.05,3.4,3.4,0,0,1-.88.81h0l-.18.12a4.43,4.43,0,0,1-1.49.54,4.56,4.56,0,0,1-.75.06h-.1a4.41,4.41,0,0,1-1.41-.26,3.86,3.86,0,0,1-1.94-1.47,3.31,3.31,0,0,1-.59-1.86Z"/><path class="cls-5" d="M614.8,187v0a3.75,3.75,0,0,1-3.28,3.5l-.31,0a3.29,3.29,0,0,1-.45,0,4.26,4.26,0,0,1-1.94-.45l-.3-.15a3.72,3.72,0,0,1-1.2-1.13,3.24,3.24,0,0,1-.59-1.86Z"/><path class="cls-5" d="M616,190.65a2.14,2.14,0,0,1-.3.39,4.2,4.2,0,0,1-3.14,1.34,3.19,3.19,0,0,1-.45,0,1.63,1.63,0,0,1-.31,0l-.1,0a3.93,3.93,0,0,1-2.88-2.16,1.59,1.59,0,0,1-.12-.27h0a3,3,0,0,1-.18-1v0a3.23,3.23,0,0,1,.55-1.79h6.63v3.61Z"/><rect class="cls-69" x="624" y="256.3" width="90" height="20.7"/><rect class="cls-70" x="624" y="187" width="90" height="69.3"/><ellipse class="cls-6" cx="668.55" cy="234.25" rx="44.55" ry="19.35"/><ellipse class="cls-71" cx="668.55" cy="233.35" rx="44.55" ry="19.35"/><rect class="cls-6" x="664.5" y="252.7" width="8.1" height="24.3"/><ellipse class="cls-72" cx="645.6" cy="228.85" rx="5.4" ry="2.25"/><polygon class="cls-73" points="651 228.4 640.2 228.4 638.4 210.4 652.8 210.4 651 228.4"/><ellipse class="cls-74" cx="645.6" cy="211.3" rx="7.2" ry="2.7"/><ellipse class="cls-35" cx="691.5" cy="237.85" rx="4.5" ry="1.35"/><polygon class="cls-35" points="696 238.3 687 238.3 684.3 228.4 698.7 228.4 696 238.3"/><ellipse class="cls-69" cx="691.5" cy="228.85" rx="7.2" ry="2.25"/><path class="cls-7" d="M697.8,229.3c0,1-3.74,1.91-6.3,1.8-2.83-.12-6.77-.84-6.3-1.8.32-.68,3.91-1.8,6.3-1.8S697.8,228.55,697.8,229.3Z"/><ellipse class="cls-69" cx="700.05" cy="233.8" rx="3.15" ry="3.6"/><ellipse class="cls-71" cx="700.17" cy="233.8" rx="2.37" ry="2.7"/><rect class="cls-5" x="353.87" y="414.78" width="36.47" height="54.22"/><rect class="cls-46" x="328.86" y="379.18" width="89.96" height="40.76"/><path class="cls-46" d="M358.86,469a471.09,471.09,0,0,0,8.95-50H328.86v50Z"/><path class="cls-46" d="M386.11,469a429.63,429.63,0,0,1-9.77-49.43h42.48V469Z"/><path class="cls-75" d="M369.86,420.64c0,5.84-2.71,10.63-6.05,10.63s-6.05-4.79-6.05-10.63,2.7-10.6,6.05-10.6S369.86,414.79,369.86,420.64ZM380,410c-3.35,0-6.06,4.75-6.06,10.6s2.71,10.63,6.06,10.63,6.06-4.79,6.06-10.63-2.72-10.59-6.06-10.59Z"/><path class="cls-76" d="M379.51,414.89c.11,14.74-.93,18.14-2.64,20.86-.78,1.24-2.94,4.69-5.92,4.63s-4.82-3.29-5.64-4.63c-2-3.14-2.61-6.47-2.82-20.43-.18-11.82.23-14.49,1.36-17.43.65-1.67,3.31-8.56,7.1-8.5,3.19.06,5.42,5,6.36,7.1C378.66,399.45,379.42,402.65,379.51,414.89Z"/><path class="cls-75" d="M377.87,434.62c1.15,3.11-2.25,9.63-6.6,9.63s-7.75-6.51-6.6-9.63c1-2.76,5.61-2.74,6.64-2.74S376.86,431.9,377.87,434.62Z"/><path class="cls-77" d="M371.23,444.25a16.79,16.79,0,0,1,0-6.24"/><path class="cls-78" d="M380,416c.11,14.75-.93,18.14-2.64,20.86-.78,1.25-2.94,4.69-5.92,4.63s-4.82-3.29-5.64-4.63c-2-3.14-2.61-6.46-2.82-20.43-.18-11.82.23-14.49,1.36-17.42.65-1.67,3.31-8.57,7.1-8.51,3.19.06,5.42,5,6.36,7.1C379.15,400.51,379.9,403.71,380,416Z"/><path class="cls-79" d="M378.36,435.69c1.15,3.11-2.25,9.62-6.6,9.62s-7.76-6.51-6.6-9.62c1-2.77,5.61-2.75,6.64-2.75S377.35,433,378.36,435.69Z"/><rect class="cls-80" x="426" y="187" width="90" height="90"/><path class="cls-81" d="M469.28,236.49s-19.16-13.32-20.53-7.87-5.41,32.21,4.17,47.66l17.13.72s3.4-22,2.16-23.76S480.4,250.09,469.28,236.49Z"/><path class="cls-82" d="M499.79,230.18s6,23.71,1.85,28.74S497.46,277,497.46,277H481.24a10.92,10.92,0,0,0,0-5.27c-.77-2.16-4.62-19.52-3.23-21.43l-3.6-3.29s.35-4.48-1.48-5,5.72-8,9.42-9.41,9.73-3.83,13.58-3.11Z"/><path class="cls-83" d="M449.83,224.11s48-3.07,48.64,0,1.38,6.29,1.38,6.29-15.4-3.38-27.23,13.67c0,0-9.05-18.34-24.18-13Z"/><path class="cls-82" d="M497.82,221.39v2.72s-29.95-3.36-48,0c0,0,4.17-16,4.17-17.59s-3.22-17.93-5.53-19.05c-.39-.19.56-.34,2.42-.47h40.55l-.68,4.79s.62,9.12,2.16,13S497.82,221.39,497.82,221.39Z"/><path class="cls-84" d="M470.4,191.61s2.88,13.52,2.25,18.19"/><path class="cls-84" d="M478.85,218.48s.3-1.91,3.09-1.91"/><path class="cls-84" d="M462.8,218.48c2.46-.16,1.54-2.25,3.24,0"/><path class="cls-84" d="M471.57,242.21s.8-12.62,6.38-16.65"/><path class="cls-84" d="M467,227.32s3.39,2.56,3.39,5.12"/><rect class="cls-85" x="329.27" y="187.32" width="89.73" height="89.68"/><rect class="cls-86" x="331.75" y="238.45" width="85.26" height="3.07"/><rect class="cls-87" x="333.96" y="191.42" width="80.39" height="47.99"/><rect class="cls-20" x="329.27" y="256.56" width="89.73" height="20.44"/><rect class="cls-5" x="391.97" y="237.97" width="2.91" height="0.88"/><rect class="cls-5" x="395.58" y="238.01" width="2.91" height="0.88"/><rect class="cls-23" x="399.15" y="236.54" width="6.23" height="2.55"/><rect class="cls-88" x="399.15" y="235.96" width="6.23" height="1.14"/><rect class="cls-21" x="374.07" y="263.92" width="40.36" height="13.08"/><rect class="cls-21" x="329.27" y="263.92" width="30.19" height="13.08"/><rect class="cls-89" x="427" y="379" width="90" height="90"/><g id="Fisk"><path class="cls-90" d="M447.48,420s-7.46,6.3-2.44,7.56S447.48,420,447.48,420Z"/><path class="cls-91" d="M447.5,420s-8.55.17-5.51,3.86S447.5,420,447.5,420Z"/><path class="cls-92" d="M494.47,440.34s-40.81-1.67-59.32-36.41a1.47,1.47,0,0,1-.16-.54c-.06-.72-.12-2.51.71-2.9,0,0,1.75,4.73,4.25,4.91,0,0-3.13-4-2.75-6.45a1.27,1.27,0,0,1,.81-1c1.58-.59,6.81-1.54,18.5,4.54C471,410,491.37,429.07,494.47,440.34Z"/><circle class="cls-5" cx="442.98" cy="401.58" r="2.29"/><circle cx="442.98" cy="401.58" r="0.68"/><path class="cls-90" d="M469.3,408.14s3.89-.74,5.64,1c0,0,1.2,1.92-4.08,3a19.16,19.16,0,0,0-3.14-2.52C465.51,408.12,469.3,408.14,469.3,408.14Z"/><path class="cls-91" d="M456.29,402.4s5.94-4.8,7.8-3a19.45,19.45,0,0,1,6.76,12.78S461,404.71,456.29,402.4Z"/><path class="cls-90" d="M494.66,440.13l19.11-8.28a.52.52,0,0,1,.55.88l-13.76,11.71a.53.53,0,0,0-.16.23l-5.51,15.65a.52.52,0,0,1-1-.18l.48-19.55A.51.51,0,0,1,494.66,440.13Z"/><path class="cls-93" d="M443.61,416.14l0-.05a.1.1,0,0,1,.05-.12h0a19.18,19.18,0,0,0,6.84-4.33,12.71,12.71,0,0,0,3-4.78,11.33,11.33,0,0,0,.52-5.46.09.09,0,0,1,.18,0,11.59,11.59,0,0,1-.52,5.56,13,13,0,0,1-3,4.85,19.44,19.44,0,0,1-6.91,4.38A.14.14,0,0,1,443.61,416.14Z"/><path class="cls-93" d="M450.86,413a.09.09,0,0,1,0-.13l0,0a3.9,3.9,0,0,0,2.45-2.28,2.93,2.93,0,0,0,.14-1.38.09.09,0,0,1,.07-.11.1.1,0,0,1,.11.08,2.91,2.91,0,0,1-.14,1.46A4,4,0,0,1,451,413,.09.09,0,0,1,450.86,413Z"/><path class="cls-93" d="M452.29,413.38l0,0a.09.09,0,0,1,.06-.12c2.46-.87,2-2.77,2-2.85a.09.09,0,0,1,.07-.11.08.08,0,0,1,.11.07s.49,2.14-2.14,3.07A.1.1,0,0,1,452.29,413.38Z"/></g><rect class="cls-68" x="426" y="91" width="90" height="90"/><circle class="cls-66" cx="448.41" cy="113.05" r="13.05"/><circle class="cls-66" cx="492.64" cy="123.9" r="6.7"/><circle class="cls-66" cx="469.6" cy="146.94" r="9.76"/><circle class="cls-66" cx="451.74" cy="166.51" r="8.1"/><circle class="cls-66" cx="440.26" cy="142.08" r="4.9"/><circle class="cls-66" cx="482.16" cy="110.44" r="8.19"/><circle class="cls-66" cx="499.44" cy="152.11" r="5.13"/><circle class="cls-66" cx="485.53" cy="171.23" r="6.16"/><circle class="cls-66" cx="506.37" cy="104.77" r="4.77"/><rect class="cls-94" x="624" y="283" width="90" height="90"/><rect class="cls-21" x="701.4" y="359.5" width="3.6" height="13.5"/><rect class="cls-21" x="662.7" y="359.5" width="3.6" height="13.5"/><rect class="cls-95" x="659.1" y="336.1" width="54.9" height="24.3" rx="6.16"/><rect class="cls-71" x="656.4" y="352.3" width="16.2" height="2.7" rx="0.52"/><path class="cls-95" d="M650.1,312.7h0a4.49,4.49,0,0,1,4.5,4.5v20.7a4.49,4.49,0,0,1-4.5,4.5h0a4.49,4.49,0,0,1-4.5-4.5V317.2A4.49,4.49,0,0,1,650.1,312.7Z"/><path class="cls-95" d="M678.9,313.6h0a4.49,4.49,0,0,1,4.5,4.5v20.7a4.49,4.49,0,0,1-4.5,4.5h0a4.49,4.49,0,0,1-4.5-4.5V318.1A4.49,4.49,0,0,1,678.9,313.6Z"/><path class="cls-96" d="M669.81,352.3H659.19a8.19,8.19,0,0,1-8.19-8.19V317.29c0-4.5,3.67-8.19,8.19-9.09h10.62c4.5.9,8.19,4.57,8.19,9.09v26.82A8.19,8.19,0,0,1,669.81,352.3Z"/><circle class="cls-97" cx="657.3" cy="324.4" r="1.8"/><circle class="cls-97" cx="670.8" cy="324.4" r="1.8"/><path class="cls-98" d="M660,344.2h9V355a2.7,2.7,0,0,1-2.7,2.7h-3.6A2.7,2.7,0,0,1,660,355V344.2Z"/><circle class="cls-20" cx="660" cy="343.3" r="4.5"/><circle class="cls-20" cx="669" cy="343.3" r="4.5"/><circle class="cls-99" cx="655.05" cy="341.95" r="0.45"/><circle class="cls-99" cx="654.15" cy="344.65" r="0.45"/><circle class="cls-99" cx="656.85" cy="344.65" r="0.45"/><circle class="cls-99" cx="657.75" cy="341.95" r="0.45"/><circle class="cls-99" cx="672.1" cy="343.79" r="0.45"/><circle class="cls-99" cx="673.1" cy="341.13" r="0.45"/><circle class="cls-99" cx="670.4" cy="341.01" r="0.45"/><circle class="cls-99" cx="669.4" cy="343.67" r="0.45"/><path class="cls-97" d="M669.4,334.79l-3.06,3a2.57,2.57,0,0,1-3.6-.06l-3-3.05"/><polygon class="cls-100" points="667.2 373 667.2 360.4 667.2 358.6 670.8 358.6 670.8 360.4 670.8 373 667.2 373"/><polygon class="cls-100" points="705.9 373 705.9 360.4 705.9 358.6 709.5 358.6 709.5 360.17 709.5 373 705.9 373"/><circle class="cls-5" cx="671.25" cy="353.65" r="0.45"/><circle class="cls-5" cx="669.45" cy="353.65" r="0.45"/><circle class="cls-5" cx="659.55" cy="353.65" r="0.45"/><circle class="cls-5" cx="657.75" cy="353.65" r="0.45"/><rect class="cls-37" x="329" y="283" width="90" height="90"/><path class="cls-15" d="M382.55,292.9h29.7a5,5,0,0,1,4.95,5h0a5,5,0,0,1-4.95,4.95h-29.7a5,5,0,0,1-4.95-4.95h0A5,5,0,0,1,382.55,292.9Z"/><path class="cls-69" d="M334.85,305.5h29.7a5,5,0,0,1,4.95,4.95h0a5,5,0,0,1-4.95,4.95h-29.7a5,5,0,0,1-5-4.95h0A5,5,0,0,1,334.85,305.5Z"/><path class="cls-69" d="M334.85,318.1h15.3a5,5,0,0,1,5,4.95h0a5,5,0,0,1-5,4.95h-15.3a5,5,0,0,1-5-4.95h0A5,5,0,0,1,334.85,318.1Z"/><path class="cls-15" d="M391.55,342.4h20.7a5,5,0,0,1,4.95,5h0a5,5,0,0,1-4.95,4.95h-20.7a5,5,0,0,1-4.95-4.95h0A5,5,0,0,1,391.55,342.4Z"/><path class="cls-69" d="M343,363.1h60.3a3.15,3.15,0,0,1,3.15,3.15h0a3.15,3.15,0,0,1-3.15,3.15H343a3.15,3.15,0,0,1-3.15-3.15h0A3.15,3.15,0,0,1,343,363.1Z"/><rect class="cls-7" x="329" y="283" width="90" height="7.2"/><path class="cls-15" d="M377.15,330.7h35.1a5,5,0,0,1,4.95,4.95h0a5,5,0,0,1-4.95,5h-35.1a5,5,0,0,1-4.95-5h0A5,5,0,0,1,377.15,330.7Z"/><path class="cls-7" d="M381.75,299.68c.13-2.8,3.6.07,4.5.37.1,0,.19-.06.26,0,.19-.15.37-.3.54-.46.9-1.17,2.3-1.5,4.26-1a.34.34,0,0,0,.48.11l0,0c.84-.7,7.2.73,8.48.81,1.61.11,1.8-.19,3.19-.57a1.83,1.83,0,0,0,.5-.5,1.68,1.68,0,0,1,1.91.79c.44.08.9.27,1.43.33s.9-.55,1.28-.61c2.7-.43,2.92-.44,5.23.3.41.14.59-.51.18-.64a17.53,17.53,0,0,0-4.88-1.3c-.2,0-.75.58-.63.56-2.89.39-2.57.75-3.83-.85a.34.34,0,0,0-.47,0,.21.21,0,0,0-.06.08c-1.76,2.44-9.13.62-11.25.35a16.72,16.72,0,0,0-3.67-.55c-1,.13-1.59,1.5-2.35,1.68-5.22,1.21-.56-1.88-3.23-2.09-2.12-.16-2.55,1.35-2.64,3.22a.34.34,0,0,0,.67,0Z"/><path class="cls-7" d="M333.7,311.44c.3-1.69,4.34.24,5.24,0s1-.54,1.65-.9c1.74-.82,2.16-.06,3.94.8a8.39,8.39,0,0,0,4.13,1,8.87,8.87,0,0,0,3.15-1.12c2.85-1.23,4,0,6.47,1.16,3.44,1.62,5.28-1.22,8.93-1a.35.35,0,0,0,.34-.35.33.33,0,0,0-.05-.16c-2.93-4.06-7.83.82-11.42.9-3.19.07-5.8-2.38-9-2.36a14.66,14.66,0,0,0-2.79.55,16.09,16.09,0,0,1-8.68-.12.34.34,0,0,0-.18.65c5.58,1.83,10.67-1.22,16.07.84,2,.77,3.68,1.41,5.84,1,2.38-.42,4.7-2.61,7.2-2.4,3.11.26-1,1.5-2,1.8-3.6,1.07-4-.43-6.74-1.55a3.93,3.93,0,0,0-3-.3c-3.35,1.12-.49,3.94-7.85.9a17.44,17.44,0,0,1-3.43-2.27.34.34,0,0,0-.46.12c-1.91,3.8-7-2.8-7.94,2.57-.08.42.58.6.65.18Z"/><path class="cls-7" d="M332.81,323.7c1.6.2,2.44-.9,4.32-.69a39.33,39.33,0,0,1,5.19.63c2.5.61,4.35,2.4,6.43-.13.27-.33-.21-.81-.48-.48-1.8,2.19-4.34,0-6.21-.33-1-.17-2,.1-2.94,0-1.41-.1-2.42-.67-3.82-.54-1,.1-1.12,1-2.5.9-.42-.06-.42.62,0,.67Z"/><path class="cls-7" d="M377.49,335.79c2.7,1.15,4.65.27,7.41-.31,3.7-.77,6.11,1,9.36,2.12a5.38,5.38,0,0,0,2.1.33c2.54-.1,4.93-1.49,7.55-1.57,2.44-.08,4.92,1.17,7.2,1.08,1.45-.06,2-.23,2.16-1.71a.32.32,0,0,0-.17-.29,4.27,4.27,0,0,0-3.7-.6c-1.35.25-2.59.9-3.93,1.22a23.73,23.73,0,0,1-6.3,0c-6.55-.24-12.82,1.66-19.35-.16-1.8-.49.28,0,.9,0,1.61.16,3.25.12,4.86.27,3.73.34,7.36,1.21,11.05,1.71,5.49.74,10.8-1.07,16.29-1.19.36,0,.47-.58.09-.66a64.49,64.49,0,0,0-21.6-.63c-.44.06-.26.71.18.65a62.19,62.19,0,0,1,14.81-.3c1,.1,7.52.58,3.38.43a22.93,22.93,0,0,0-5.15.73c-5.19,1-9.79-.1-14.91-.85a76.73,76.73,0,0,0-12.21-.76.34.34,0,0,0-.32.36.34.34,0,0,0,.23.31c5.85,1.72,11.08,1.47,17.1.9,3.18-.3,6.3.36,9.5.07.9-.08,6.57-2.35,6.3-.43.1-.9-7.78-.74-8.1-.71-3.4.44-5.4,1.75-8.87.58-1.87-.62-3.28-1.8-5.33-1.92-3.46-.24-6.78,2.23-10.28.73-.38-.17-.73.42-.33.59Z"/><path class="cls-7" d="M390,347.13a14.68,14.68,0,0,0,5.83-.15c1.8-.4,5.56-1.05,7.53-.14,1.1.49,1.53,1.54,2.89,1.87s7-2,7.46-.9c.16.39.82.21.66-.18-.35-.9-.48-1.19-1.45-1.46-1.71-.48-.57.05-1.12.06a23.36,23.36,0,0,1-4.41,1.94,10.79,10.79,0,0,1-3.91-2.12c-4.77-1.58-8.5,1.12-13.3.42-.43-.07-.61.58-.18.65Z"/><path class="cls-7" d="M343.12,366.61a.34.34,0,0,0,.28-.39.32.32,0,0,0-.28-.28.33.33,0,0,0-.28.39A.34.34,0,0,0,343.12,366.61Z"/><path class="cls-7" d="M345,366.61a.35.35,0,0,0,.28-.39.33.33,0,0,0-.28-.28.33.33,0,0,0-.28.39A.33.33,0,0,0,345,366.61Z"/><path class="cls-7" d="M347.14,366.61a.35.35,0,0,0,.29-.39.29.29,0,1,0-.57.11A.35.35,0,0,0,347.14,366.61Z"/><path class="cls-7" d="M349.06,366.61a.34.34,0,0,0,.28-.39.32.32,0,0,0-.28-.28.33.33,0,0,0-.28.39A.34.34,0,0,0,349.06,366.61Z"/></g></svg>
