<svg id="Layer_1" data-name="Layer 1" xmlns="http://www.w3.org/2000/svg" viewBox="0 0 1600 900"><defs><style>.cls-1{fill:#1f2532;}.cls-2{font-size:98px;}.cls-11,.cls-2{fill:#ff9206;}.cls-2,.cls-5{font-family:Futura-Bold, Futura;font-weight:700;}.cls-3{letter-spacing:-0.03em;}.cls-4{letter-spacing:-0.02em;}.cls-5{font-size:53px;fill:#fff;}.cls-6{letter-spacing:-0.03em;}.cls-7{letter-spacing:-0.02em;}.cls-8{letter-spacing:0em;}.cls-9{letter-spacing:0.01em;}.cls-10{letter-spacing:-0.02em;}.cls-11{font-size:64px;}.cls-12{letter-spacing:0.01em;}.cls-13{letter-spacing:0.01em;}.cls-14{letter-spacing:0.01em;}.cls-15{letter-spacing:0.01em;}.cls-16{letter-spacing:-0.02em;}.cls-17{letter-spacing:0.01em;}</style></defs><title>Levelcomplete</title><rect class="cls-1" x="0.5" y="0.5" width="1599" height="899"/><path d="M1599,1V899H1V1H1599m1-1H0V900H1600V0Z"/><text class="cls-2" transform="translate(504.33 222.14)">Game<tspan class="cls-3" x="315.56" y="0">o</tspan><tspan class="cls-4" x="381.61" y="0">v</tspan><tspan x="443.15" y="0">er!</tspan></text><text class="cls-5" transform="translate(324.74 310.06)">Tænk <tspan class="cls-6" x="170.5" y="0">o</tspan><tspan class="cls-7" x="206.22" y="0">v</tspan><tspan x="239.51" y="0">er h</tspan><tspan class="cls-7" x="351.65" y="0">v</tspan><tspan x="384.94" y="0">em du deler p</tspan><tspan class="cls-8" x="782.16" y="0">r</tspan><tspan class="cls-9" x="806.86" y="0">i</tspan><tspan class="cls-10" x="823.55" y="0">v</tspan><tspan x="856.79" y="0">a</tspan><tspan class="cls-9" x="893.94" y="0">t</tspan><tspan x="914.24" y="0">e </tspan><tspan x="285.03" y="63.6">billeder med! </tspan><tspan class="cls-11"><tspan x="-60.22" y="204">Bl</tspan><tspan class="cls-12" x="3.58" y="204">i</tspan><tspan x="23.74" y="204">v klo</tspan><tspan class="cls-13" x="196.22" y="204">g</tspan><tspan x="241.6" y="204">e</tspan><tspan class="cls-14" x="283" y="204">r</tspan><tspan x="313.21" y="204">e og </tspan><tspan class="cls-15" x="487.54" y="204">f</tspan><tspan x="513.27" y="204">å s</tspan><tspan class="cls-16" x="612.47" y="204">v</tspan><tspan x="652.6" y="204">ar på dine </tspan><tspan x="227.84" y="280.8">spø</tspan><tspan class="cls-17" x="350.08" y="280.8">r</tspan><tspan x="380.22" y="280.8">gsmål her</tspan></tspan></text></svg>
