<svg xmlns="http://www.w3.org/2000/svg" width="1920" height="1080" viewBox="0 0 1920 1080"><defs><style>.cls-1{fill:#009245;}.cls-2{fill:#fff;}</style></defs><title>kons_slet_1</title><g id="Layer_6" data-name="Layer 6"><rect class="cls-1" x="374.5" y="228" width="1171" height="624" rx="76.14"/><path class="cls-2" d="M633.67,410.23h18.4V391.31h12.74v49H652.07V420.11h-18.4v20.21H620.93v-49h12.74Z"/><path class="cls-2" d="M684.57,425.63q0,7.61,7.15,7.61a6.39,6.39,0,0,0,5.78-3.12h11.38q-3.45,11.44-17.23,11.44a22.75,22.75,0,0,1-7.73-1.27,17.11,17.11,0,0,1-6-3.61,16,16,0,0,1-3.87-5.59,18.6,18.6,0,0,1-1.37-7.28,20.8,20.8,0,0,1,1.3-7.51,15.74,15.74,0,0,1,3.71-5.68A16.43,16.43,0,0,1,683.5,407a22.09,22.09,0,0,1,7.7-1.27,21.63,21.63,0,0,1,7.6,1.27,15.44,15.44,0,0,1,5.72,3.67,16.13,16.13,0,0,1,3.58,5.89,23.35,23.35,0,0,1,1.23,7.83v1.23Zm13.78-6.82a7.06,7.06,0,0,0-2.41-4,7.47,7.47,0,0,0-8.87-.06,6.5,6.5,0,0,0-2.18,4Z"/><path class="cls-2" d="M716,407h11.76v5.46a13.56,13.56,0,0,1,4.62-4.58,12.33,12.33,0,0,1,6.37-1.6h1a7.81,7.81,0,0,1,1.26.13v11.25a11.18,11.18,0,0,0-5.07-1.17c-2.73,0-4.77.81-6.14,2.44s-2.05,4-2.05,7.11v14.3H716Z"/><path class="cls-2" d="M768.35,407h11.77v4.09a15.22,15.22,0,0,1,10.79-4.61,12.55,12.55,0,0,1,11.31,6.24,12.62,12.62,0,0,1,11.31-6.31,14,14,0,0,1,4.42.69,9.12,9.12,0,0,1,3.57,2.14,10.18,10.18,0,0,1,2.37,3.8,16.06,16.06,0,0,1,.88,5.66v21.64H813V423.88a19.76,19.76,0,0,0-.36-4.16,6.68,6.68,0,0,0-1-2.54A3.55,3.55,0,0,0,810,416a5.7,5.7,0,0,0-1.95-.33q-5.66,0-5.66,8.26v16.44H790.65V423.88a22,22,0,0,0-.33-4.19,7.84,7.84,0,0,0-.94-2.64,3.14,3.14,0,0,0-1.59-1.33,6.57,6.57,0,0,0-2.28-.36,6.43,6.43,0,0,0-2.08.33,3.71,3.71,0,0,0-1.72,1.27,6.78,6.78,0,0,0-1.17,2.59,18.21,18.21,0,0,0-.42,4.33v16.44H768.35Z"/><path class="cls-2" d="M858.57,407H870.4v33.34H858.57v-3.7a12.34,12.34,0,0,1-10.2,4.74,16.56,16.56,0,0,1-6.7-1.33,16.08,16.08,0,0,1-5.33-3.74,17.12,17.12,0,0,1-3.54-5.65,19.26,19.26,0,0,1-1.27-7.09,18.67,18.67,0,0,1,1.24-6.79,17.46,17.46,0,0,1,3.44-5.62,16.21,16.21,0,0,1,5.27-3.8,15.91,15.91,0,0,1,6.76-1.4,13.58,13.58,0,0,1,10.33,4.35Zm-16.64-12.81a6.51,6.51,0,0,1,2.7-5.52,12.15,12.15,0,0,1,7.44-2c3.25,0,5.74.69,7.48,2.05a7.23,7.23,0,0,1,0,11.11q-2.61,2.06-7.48,2t-7.47-2A6.69,6.69,0,0,1,841.93,394.17Zm1.82,29.38a7.79,7.79,0,0,0,2.18,5.46,7,7,0,0,0,2.4,1.63,7.79,7.79,0,0,0,3,.58,7.54,7.54,0,0,0,2.95-.58,7,7,0,0,0,2.41-1.63,8.32,8.32,0,0,0,1.62-2.4,7.06,7.06,0,0,0,.62-2.93,7.31,7.31,0,0,0-.62-3,8.2,8.2,0,0,0-1.62-2.43,7.13,7.13,0,0,0-2.41-1.63,7.54,7.54,0,0,0-2.95-.58,7.79,7.79,0,0,0-3,.58,7.19,7.19,0,0,0-2.4,1.63,8,8,0,0,0-1.59,2.37A7.11,7.11,0,0,0,843.75,423.55Zm4.42-29.38c0,2,1.28,3,3.84,3s4-1,4-2.92-1.32-2.93-4-2.93a4.56,4.56,0,0,0-2.8.78A2.49,2.49,0,0,0,848.17,394.17Z"/><path class="cls-2" d="M891.53,416.79v23.53H879.76V416.79h-3.9V407h3.9V397h11.77v10h6.69v9.81Z"/><path class="cls-2" d="M917.52,416.79v23.53H905.76V416.79h-3.9V407h3.9V397h11.76v10h6.7v9.81Z"/><path class="cls-2" d="M939.88,425.63q0,7.61,7.15,7.61a6.39,6.39,0,0,0,5.79-3.12h11.37q-3.44,11.44-17.22,11.44a22.77,22.77,0,0,1-7.74-1.27,17.2,17.2,0,0,1-6-3.61,16,16,0,0,1-3.87-5.59,18.6,18.6,0,0,1-1.36-7.28,20.58,20.58,0,0,1,1.3-7.51,15.72,15.72,0,0,1,3.7-5.68,16.61,16.61,0,0,1,5.82-3.61,22.13,22.13,0,0,1,7.7-1.27,21.69,21.69,0,0,1,7.61,1.27,15.52,15.52,0,0,1,5.72,3.67,16,16,0,0,1,3.57,5.89,23.1,23.1,0,0,1,1.24,7.83v1.23Zm13.78-6.82a7.1,7.1,0,0,0-2.4-4,7.47,7.47,0,0,0-8.87-.06,6.45,6.45,0,0,0-2.18,4Z"/><path class="cls-2" d="M1019.18,386.37H1031v53.95h-11.83v-3.7a12.34,12.34,0,0,1-10.2,4.74,16.25,16.25,0,0,1-6.7-1.36,16.61,16.61,0,0,1-5.33-3.77,17.17,17.17,0,0,1-3.54-5.66,19,19,0,0,1-1.27-7,19.3,19.3,0,0,1,1.2-6.79,17.07,17.07,0,0,1,3.42-5.62,16.14,16.14,0,0,1,12.09-5.2,13.58,13.58,0,0,1,10.33,4.35Zm-14.82,37.18a7.79,7.79,0,0,0,2.18,5.46,7,7,0,0,0,2.4,1.63,7.79,7.79,0,0,0,3,.58,7.54,7.54,0,0,0,2.95-.58,7,7,0,0,0,2.41-1.63,8.32,8.32,0,0,0,1.62-2.4,6.91,6.91,0,0,0,.62-2.93,7.14,7.14,0,0,0-.62-3,8.2,8.2,0,0,0-1.62-2.43,7.13,7.13,0,0,0-2.41-1.63,7.82,7.82,0,0,0-5.91,0,7.33,7.33,0,0,0-2.41,1.63,8.45,8.45,0,0,0-1.62,2.37A6.82,6.82,0,0,0,1004.36,423.55Z"/><path class="cls-2" d="M1050.77,407v18.78q0,6.18,6,6.18t6-6.18V407h11.77V428c0,4.5-1.49,7.89-4.46,10.14s-7.4,3.38-13.29,3.38-10.32-1.13-13.29-3.38S1039,432.54,1039,428V407Z"/><path class="cls-2" d="M1141.9,407v31.07a35.62,35.62,0,0,1-.32,5,21.59,21.59,0,0,1-.91,3.9,12.42,12.42,0,0,1-2.44,4,16.39,16.39,0,0,1-4,3.22,21.22,21.22,0,0,1-5.3,2.14,26.75,26.75,0,0,1-13.55-.19,19.46,19.46,0,0,1-5.69-2.7,15.74,15.74,0,0,1-4-4,13.29,13.29,0,0,1-2.08-5h13.26q1.23,3.31,5.58,3.32a7.5,7.5,0,0,0,5.69-2.08,8.07,8.07,0,0,0,2-5.79v-3.18a21.21,21.21,0,0,1-2.51,2.05,14.54,14.54,0,0,1-2.43,1.33,12.73,12.73,0,0,1-2.6.75,18.49,18.49,0,0,1-3,.22,17.08,17.08,0,0,1-6.57-1.23,15.2,15.2,0,0,1-8.55-8.74,18.82,18.82,0,0,1-1.2-6.86,19.1,19.1,0,0,1,1.3-7.12,18.5,18.5,0,0,1,3.54-5.72,16.53,16.53,0,0,1,5.33-3.84,16.15,16.15,0,0,1,6.73-1.39,12.94,12.94,0,0,1,10,4.42V407Zm-26.39,16.51a7.74,7.74,0,0,0,.59,3,7.92,7.92,0,0,0,1.59,2.44,7.16,7.16,0,0,0,2.4,1.62,7.76,7.76,0,0,0,3,.59,7.54,7.54,0,0,0,3-.59,7.21,7.21,0,0,0,2.41-1.62,8.38,8.38,0,0,0,1.62-2.44,7.45,7.45,0,0,0,0-5.95,8,8,0,0,0-1.65-2.4,7.52,7.52,0,0,0-2.44-1.63,7.42,7.42,0,0,0-2.89-.58,6.91,6.91,0,0,0-2.93.62,8.32,8.32,0,0,0-2.4,1.62,7.51,7.51,0,0,0-1.66,2.37A7.06,7.06,0,0,0,1115.51,423.49Z"/><path class="cls-2" d="M1161.27,425.63q0,7.61,7.15,7.61a6.38,6.38,0,0,0,5.78-3.12h11.38q-3.45,11.44-17.23,11.44a22.75,22.75,0,0,1-7.73-1.27,17.11,17.11,0,0,1-6-3.61,16,16,0,0,1-3.87-5.59,18.6,18.6,0,0,1-1.37-7.28,20.8,20.8,0,0,1,1.3-7.51,15.87,15.87,0,0,1,3.71-5.68,16.43,16.43,0,0,1,5.82-3.61,22.09,22.09,0,0,1,7.7-1.27,21.59,21.59,0,0,1,7.6,1.27,15.44,15.44,0,0,1,5.72,3.67,16,16,0,0,1,3.58,5.89,23.35,23.35,0,0,1,1.23,7.83v1.23Zm13.78-6.82a7.06,7.06,0,0,0-2.41-4,7.47,7.47,0,0,0-8.87-.06,6.5,6.5,0,0,0-2.18,4Z"/><path class="cls-2" d="M1192.73,407h11.76v5.46a13.56,13.56,0,0,1,4.62-4.58,12.33,12.33,0,0,1,6.37-1.6h1a7.81,7.81,0,0,1,1.26.13v11.25a11.18,11.18,0,0,0-5.07-1.17c-2.73,0-4.77.81-6.14,2.44s-2,4-2,7.11v14.3h-11.76Z"/><path class="cls-2" d="M1223,407h11.76v4.22a12.82,12.82,0,0,1,4.88-3.93,15.23,15.23,0,0,1,5.78-1,14.47,14.47,0,0,1,6,1.14,12,12,0,0,1,4.25,3.22,9.09,9.09,0,0,1,2,3.77,19.48,19.48,0,0,1,.52,4.74v21.19h-11.76V423.49a18,18,0,0,0-.36-4,5,5,0,0,0-1.27-2.44A4.47,4.47,0,0,0,1243,416a6.47,6.47,0,0,0-2.08-.33,5.81,5.81,0,0,0-4.58,1.79,7.37,7.37,0,0,0-1.6,5.1v17.81H1223Z"/><path class="cls-2" d="M1276.77,425.63q0,7.61,7.15,7.61a6.39,6.39,0,0,0,5.79-3.12h11.37q-3.43,11.44-17.22,11.44a22.77,22.77,0,0,1-7.74-1.27,17.2,17.2,0,0,1-6-3.61,16,16,0,0,1-3.87-5.59,18.6,18.6,0,0,1-1.36-7.28,20.58,20.58,0,0,1,1.3-7.51,15.72,15.72,0,0,1,3.7-5.68,16.43,16.43,0,0,1,5.82-3.61,22.09,22.09,0,0,1,7.7-1.27A21.69,21.69,0,0,1,1291,407a15.52,15.52,0,0,1,5.72,3.67,16,16,0,0,1,3.57,5.89,23.35,23.35,0,0,1,1.24,7.83v1.23Zm13.78-6.82a7.1,7.1,0,0,0-2.4-4,7.47,7.47,0,0,0-8.87-.06,6.41,6.41,0,0,0-2.18,4Z"/><path class="cls-2" d="M563.31,464.37h11.77V489.2a12.79,12.79,0,0,1,4.87-3.93,15.32,15.32,0,0,1,5.79-1q6.3,0,9.52,3.48t3.22,9.39v21.19H586.71V501.49a17.48,17.48,0,0,0-.39-4.1A4.71,4.71,0,0,0,585,495a5.52,5.52,0,0,0-3.77-1.37,5.82,5.82,0,0,0-4.58,1.79,7.42,7.42,0,0,0-1.59,5.1v17.81H563.31Z"/><path class="cls-2" d="M632.21,485H644v33.34H632.21v-3.7a12.34,12.34,0,0,1-10.2,4.74,16.56,16.56,0,0,1-6.7-1.33,16.08,16.08,0,0,1-5.33-3.74,17.12,17.12,0,0,1-3.54-5.65,19.26,19.26,0,0,1-1.27-7.09,18.67,18.67,0,0,1,1.24-6.79,17.46,17.46,0,0,1,3.44-5.62,16.21,16.21,0,0,1,5.27-3.8,15.91,15.91,0,0,1,6.76-1.4,13.58,13.58,0,0,1,10.33,4.35Zm-14.82,16.57a7.79,7.79,0,0,0,2.18,5.46,7,7,0,0,0,2.4,1.63,7.79,7.79,0,0,0,3,.58,7.54,7.54,0,0,0,3-.58,7,7,0,0,0,2.41-1.63,8.32,8.32,0,0,0,1.62-2.4,6.91,6.91,0,0,0,.62-2.93,7.14,7.14,0,0,0-.62-3,8.2,8.2,0,0,0-1.62-2.43,7.13,7.13,0,0,0-2.41-1.63,7.54,7.54,0,0,0-3-.58,7.79,7.79,0,0,0-3,.58,7.19,7.19,0,0,0-2.4,1.63,8,8,0,0,0-1.59,2.37A7.11,7.11,0,0,0,617.39,501.55Z"/><path class="cls-2" d="M661.92,485l7.93,17.09L677.91,485H691l-17.36,33.34h-7.86L648.66,485Z"/><path class="cls-2" d="M704.1,503.63q0,7.61,7.15,7.61a6.39,6.39,0,0,0,5.79-3.12h11.37q-3.45,11.45-17.22,11.44a22.77,22.77,0,0,1-7.74-1.27,17.2,17.2,0,0,1-6-3.61,16,16,0,0,1-3.87-5.59,18.6,18.6,0,0,1-1.36-7.28,20.58,20.58,0,0,1,1.3-7.51,15.72,15.72,0,0,1,3.7-5.68A16.43,16.43,0,0,1,703,485a22.09,22.09,0,0,1,7.7-1.27,21.69,21.69,0,0,1,7.61,1.27,15.52,15.52,0,0,1,5.72,3.67,16,16,0,0,1,3.57,5.89,23.35,23.35,0,0,1,1.24,7.83v1.23Zm13.78-6.82a7.1,7.1,0,0,0-2.4-4,7.48,7.48,0,0,0-8.88-.06,6.44,6.44,0,0,0-2.17,4Z"/><path class="cls-2" d="M783.4,464.37h11.83v54H783.4v-3.7a12.36,12.36,0,0,1-10.21,4.74A16.23,16.23,0,0,1,766.5,518a16.61,16.61,0,0,1-5.33-3.77,17.17,17.17,0,0,1-3.54-5.66,19,19,0,0,1-1.27-7,19.3,19.3,0,0,1,1.2-6.79,17,17,0,0,1,3.41-5.62,16.19,16.19,0,0,1,12.09-5.2,13.6,13.6,0,0,1,10.34,4.35Zm-14.82,37.18a7.79,7.79,0,0,0,.58,3,7.61,7.61,0,0,0,1.6,2.43,7,7,0,0,0,2.4,1.63,7.74,7.74,0,0,0,3,.58,7.58,7.58,0,0,0,3-.58,7.18,7.18,0,0,0,2.41-1.63,8.32,8.32,0,0,0,1.62-2.4,7.06,7.06,0,0,0,.62-2.93,7.31,7.31,0,0,0-.62-3,8.2,8.2,0,0,0-1.62-2.43,7.33,7.33,0,0,0-2.41-1.63,7.82,7.82,0,0,0-5.91,0,7.13,7.13,0,0,0-2.41,1.63,8.45,8.45,0,0,0-1.62,2.37A6.67,6.67,0,0,0,768.58,501.55Z"/><path class="cls-2" d="M813.82,503.63q0,7.61,7.15,7.61a6.38,6.38,0,0,0,5.78-3.12h11.38q-3.45,11.45-17.23,11.44a22.75,22.75,0,0,1-7.73-1.27,17.11,17.11,0,0,1-6-3.61,16,16,0,0,1-3.87-5.59,18.6,18.6,0,0,1-1.37-7.28,20.8,20.8,0,0,1,1.3-7.51,15.87,15.87,0,0,1,3.71-5.68,16.43,16.43,0,0,1,5.82-3.61,22.09,22.09,0,0,1,7.7-1.27,21.59,21.59,0,0,1,7.6,1.27,15.44,15.44,0,0,1,5.72,3.67,16,16,0,0,1,3.58,5.89,23.35,23.35,0,0,1,1.23,7.83v1.23Zm13.78-6.82a7.06,7.06,0,0,0-2.41-4,7.47,7.47,0,0,0-8.87-.06,6.5,6.5,0,0,0-2.18,4Z"/><path class="cls-2" d="M857,464.37v54H845.28v-54Z"/><path class="cls-2" d="M878.23,494.79v23.53H866.47V494.79h-3.9V485h3.9V475h11.76v10h6.7v9.81Z"/><path class="cls-2" d="M923.21,464.37v23.92a13.79,13.79,0,0,1,10.4-4.35,16.11,16.11,0,0,1,6.79,1.4,15.86,15.86,0,0,1,5.27,3.77,17.27,17.27,0,0,1,3.41,5.59,19.62,19.62,0,0,1,0,13.81,17.35,17.35,0,0,1-3.54,5.65,16.8,16.8,0,0,1-5.37,3.8,15.81,15.81,0,0,1-6.66,1.4,12.42,12.42,0,0,1-10.27-4.74v3.7H911.45v-54ZM938,501.75a7.58,7.58,0,0,0-.58-3,7.68,7.68,0,0,0-1.63-2.44,8,8,0,0,0-2.4-1.65,7.05,7.05,0,0,0-3-.62,7.37,7.37,0,0,0-2.93.58,7.27,7.27,0,0,0-2.37,1.63,8.42,8.42,0,0,0-1.63,2.43,7.59,7.59,0,0,0,0,5.89A7.12,7.12,0,0,0,925.1,507a8.42,8.42,0,0,0,2.43,1.63,7.59,7.59,0,0,0,5.89,0,7.12,7.12,0,0,0,2.37-1.63,8.32,8.32,0,0,0,1.62-2.4A6.73,6.73,0,0,0,938,501.75Z"/><path class="cls-2" d="M956.23,472.17a6.3,6.3,0,0,1,.52-2.56,6.72,6.72,0,0,1,1.43-2.12,7,7,0,0,1,2.11-1.43,6.61,6.61,0,0,1,5.14,0,7,7,0,0,1,2.11,1.43,6.72,6.72,0,0,1,1.43,2.12,6.59,6.59,0,0,1,0,5.13,6.76,6.76,0,0,1-3.54,3.54,6.61,6.61,0,0,1-5.14,0,6.76,6.76,0,0,1-3.54-3.54A6.35,6.35,0,0,1,956.23,472.17ZM968.78,485v33.34H957V485Z"/><path class="cls-2" d="M988.6,464.37v54H976.83v-54Z"/><path class="cls-2" d="M1008.42,464.37v54H996.66v-54Z"/><path class="cls-2" d="M1027.08,503.63q0,7.61,7.15,7.61a6.38,6.38,0,0,0,5.78-3.12h11.38q-3.45,11.45-17.23,11.44a22.75,22.75,0,0,1-7.73-1.27,17.11,17.11,0,0,1-6-3.61,16,16,0,0,1-3.87-5.59,18.6,18.6,0,0,1-1.37-7.28,20.8,20.8,0,0,1,1.3-7.51,15.74,15.74,0,0,1,3.71-5.68A16.43,16.43,0,0,1,1026,485a22.09,22.09,0,0,1,7.7-1.27,21.59,21.59,0,0,1,7.6,1.27,15.44,15.44,0,0,1,5.72,3.67,16,16,0,0,1,3.58,5.89,23.35,23.35,0,0,1,1.23,7.83v1.23Zm13.78-6.82a7.06,7.06,0,0,0-2.41-4,7.47,7.47,0,0,0-8.87-.06,6.5,6.5,0,0,0-2.18,4Z"/><path class="cls-2" d="M1084.28,464.37h11.83v54h-11.83v-3.7a12.37,12.37,0,0,1-10.21,4.74,16.23,16.23,0,0,1-6.69-1.36,16.5,16.5,0,0,1-5.33-3.77,17.17,17.17,0,0,1-3.54-5.66,19,19,0,0,1-1.27-7,19.3,19.3,0,0,1,1.2-6.79,17,17,0,0,1,3.41-5.62,16.19,16.19,0,0,1,12.09-5.2,13.6,13.6,0,0,1,10.34,4.35Zm-14.82,37.18a7.79,7.79,0,0,0,.58,3,7.61,7.61,0,0,0,1.6,2.43,7,7,0,0,0,2.4,1.63,7.74,7.74,0,0,0,3,.58,7.58,7.58,0,0,0,3-.58,7.18,7.18,0,0,0,2.41-1.63,8.32,8.32,0,0,0,1.62-2.4,7.06,7.06,0,0,0,.62-2.93,7.31,7.31,0,0,0-.62-3,8.2,8.2,0,0,0-1.62-2.43,7.33,7.33,0,0,0-2.41-1.63,7.82,7.82,0,0,0-5.91,0,7.13,7.13,0,0,0-2.41,1.63,8.45,8.45,0,0,0-1.62,2.37A6.67,6.67,0,0,0,1069.46,501.55Z"/><path class="cls-2" d="M1114.7,503.63q0,7.61,7.15,7.61a6.39,6.39,0,0,0,5.78-3.12H1139q-3.45,11.45-17.23,11.44a22.71,22.71,0,0,1-7.73-1.27,17.11,17.11,0,0,1-6-3.61,16,16,0,0,1-3.87-5.59,18.6,18.6,0,0,1-1.37-7.28,20.8,20.8,0,0,1,1.3-7.51,15.74,15.74,0,0,1,3.71-5.68,16.47,16.47,0,0,1,5.81-3.61,22.18,22.18,0,0,1,7.71-1.27,21.63,21.63,0,0,1,7.6,1.27,15.44,15.44,0,0,1,5.72,3.67,16.13,16.13,0,0,1,3.58,5.89,23.35,23.35,0,0,1,1.23,7.83v1.23Zm13.78-6.82a7.06,7.06,0,0,0-2.41-4,7.47,7.47,0,0,0-8.87-.06,6.5,6.5,0,0,0-2.18,4Z"/><path class="cls-2" d="M1159.74,494.79v23.53H1148V494.79h-3.9V485h3.9V475h11.76v10h6.7v9.81Z"/><path class="cls-2" d="M1174.5,505.91h11l-12,21.51H1166Z"/><path class="cls-2" d="M1215.05,485h11.77v4.09a15.24,15.24,0,0,1,10.79-4.61,12.55,12.55,0,0,1,11.31,6.24,12.62,12.62,0,0,1,11.31-6.31,14,14,0,0,1,4.42.69,9,9,0,0,1,3.57,2.14,10.33,10.33,0,0,1,2.38,3.8,16.31,16.31,0,0,1,.87,5.66v21.64h-11.76V501.88a19.76,19.76,0,0,0-.36-4.16,6.52,6.52,0,0,0-1-2.54,3.45,3.45,0,0,0-1.59-1.23,5.7,5.7,0,0,0-2-.33q-5.65,0-5.66,8.26v16.44h-11.76V501.88a22,22,0,0,0-.33-4.19,7.63,7.63,0,0,0-.94-2.64,3.14,3.14,0,0,0-1.59-1.33,6.57,6.57,0,0,0-2.28-.36,6.47,6.47,0,0,0-2.08.33,3.71,3.71,0,0,0-1.72,1.27,6.78,6.78,0,0,0-1.17,2.59,18.21,18.21,0,0,0-.42,4.33v16.44h-11.77Z"/><path class="cls-2" d="M1290.13,503.63q0,7.61,7.15,7.61a6.39,6.39,0,0,0,5.78-3.12h11.38q-3.45,11.45-17.23,11.44a22.75,22.75,0,0,1-7.73-1.27,17.11,17.11,0,0,1-6-3.61,16,16,0,0,1-3.87-5.59,18.6,18.6,0,0,1-1.37-7.28,20.8,20.8,0,0,1,1.3-7.51,15.74,15.74,0,0,1,3.71-5.68,16.43,16.43,0,0,1,5.82-3.61,22.09,22.09,0,0,1,7.7-1.27,21.59,21.59,0,0,1,7.6,1.27,15.44,15.44,0,0,1,5.72,3.67,16.13,16.13,0,0,1,3.58,5.89,23.35,23.35,0,0,1,1.23,7.83v1.23Zm13.78-6.82a7.06,7.06,0,0,0-2.41-4,7.47,7.47,0,0,0-8.87-.06,6.5,6.5,0,0,0-2.18,4Z"/><path class="cls-2" d="M1321.59,485h11.76v4.22a12.89,12.89,0,0,1,4.88-3.93,15.27,15.27,0,0,1,5.78-1,14.47,14.47,0,0,1,6,1.14,12,12,0,0,1,4.25,3.22,9.09,9.09,0,0,1,2,3.77,19.48,19.48,0,0,1,.52,4.74v21.19H1345V501.49a18,18,0,0,0-.36-4,5,5,0,0,0-1.27-2.44,4.47,4.47,0,0,0-1.75-1.1,6.47,6.47,0,0,0-2.08-.33,5.82,5.82,0,0,0-4.58,1.79,7.37,7.37,0,0,0-1.6,5.1v17.81h-11.76Z"/><path class="cls-2" d="M621.58,542.37h11.83v54H621.58v-3.7a12.34,12.34,0,0,1-10.2,4.74,16.25,16.25,0,0,1-6.7-1.36,16.72,16.72,0,0,1-5.33-3.77,17.5,17.5,0,0,1-3.54-5.66,19.85,19.85,0,0,1-.06-13.81,16.88,16.88,0,0,1,3.41-5.62,16.19,16.19,0,0,1,12.09-5.2,13.58,13.58,0,0,1,10.33,4.35Zm-14.82,37.18a7.79,7.79,0,0,0,2.18,5.46,7,7,0,0,0,2.41,1.63,7.7,7.7,0,0,0,3,.58,7.62,7.62,0,0,0,3-.58,7,7,0,0,0,2.4-1.63,8.55,8.55,0,0,0,1.63-2.4,7.06,7.06,0,0,0,.61-2.93,7.3,7.3,0,0,0-.61-3,8.42,8.42,0,0,0-1.63-2.43,7.19,7.19,0,0,0-2.4-1.63,7.84,7.84,0,0,0-5.92,0,7.19,7.19,0,0,0-2.4,1.63,8.28,8.28,0,0,0-1.63,2.37A6.82,6.82,0,0,0,606.76,579.55Z"/><path class="cls-2" d="M652,581.63q0,7.61,7.15,7.61a6.39,6.39,0,0,0,5.79-3.12h11.37q-3.43,11.43-17.22,11.44a22.77,22.77,0,0,1-7.74-1.27,17.2,17.2,0,0,1-6-3.61,16,16,0,0,1-3.87-5.59,18.6,18.6,0,0,1-1.36-7.28,20.58,20.58,0,0,1,1.3-7.51,15.72,15.72,0,0,1,3.7-5.68,16.61,16.61,0,0,1,5.82-3.61,22.13,22.13,0,0,1,7.7-1.27,21.69,21.69,0,0,1,7.61,1.27,15.52,15.52,0,0,1,5.72,3.67,16,16,0,0,1,3.57,5.88,23.16,23.16,0,0,1,1.24,7.84v1.23Zm13.78-6.82a7.1,7.1,0,0,0-2.4-4,6.79,6.79,0,0,0-4.42-1.49,6.68,6.68,0,0,0-4.45,1.43,6.43,6.43,0,0,0-2.18,4Z"/><path class="cls-2" d="M697.05,572.79v23.53H685.28V572.79h-3.9V563h3.9V553h11.77v10h6.69v9.81Z"/><path class="cls-2" d="M740.85,581.63q0,7.61,7.15,7.61a6.39,6.39,0,0,0,5.79-3.12h11.38q-3.45,11.43-17.23,11.44a22.67,22.67,0,0,1-7.73-1.27,17.15,17.15,0,0,1-6-3.61,15.88,15.88,0,0,1-3.86-5.59,18.6,18.6,0,0,1-1.37-7.28,20.58,20.58,0,0,1,1.3-7.51,15.85,15.85,0,0,1,3.7-5.68,16.61,16.61,0,0,1,5.82-3.61,22.13,22.13,0,0,1,7.7-1.27,21.65,21.65,0,0,1,7.61,1.27,15.52,15.52,0,0,1,5.72,3.67,16,16,0,0,1,3.57,5.88,23.16,23.16,0,0,1,1.24,7.84v1.23Zm13.78-6.82a7,7,0,0,0-2.4-4,6.77,6.77,0,0,0-4.42-1.49,6.7,6.7,0,0,0-4.45,1.43,6.43,6.43,0,0,0-2.18,4Z"/><path class="cls-2" d="M772.31,563h11.77v5.46a13.54,13.54,0,0,1,4.61-4.58,12.35,12.35,0,0,1,6.37-1.6h1a7.92,7.92,0,0,1,1.27.13v11.25a11.18,11.18,0,0,0-5.07-1.17q-4.1,0-6.14,2.43t-2,7.12v14.3H772.31Z"/><path class="cls-2" d="M823.86,550.17a6.3,6.3,0,0,1,.52-2.56,6.72,6.72,0,0,1,1.43-2.12,7,7,0,0,1,2.11-1.43,6.61,6.61,0,0,1,5.14,0,7,7,0,0,1,2.11,1.43,6.72,6.72,0,0,1,1.43,2.12,6.59,6.59,0,0,1,0,5.13,6.76,6.76,0,0,1-3.54,3.54,6.61,6.61,0,0,1-5.14,0,6.76,6.76,0,0,1-3.54-3.54A6.35,6.35,0,0,1,823.86,550.17ZM836.4,563v33.34H824.64V563Z"/><path class="cls-2" d="M856.23,542.37V575l12.35-12H884.7L868,578.38l17.68,17.94H869.16l-12.93-13.58v13.58H844.46v-54Z"/><path class="cls-2" d="M901.6,542.37V575L914,563h16.12l-16.71,15.4L931,596.32H914.53L901.6,582.74v13.58H889.83v-54Z"/><path class="cls-2" d="M943.78,581.63q0,7.61,7.15,7.61a6.39,6.39,0,0,0,5.79-3.12h11.37q-3.44,11.43-17.22,11.44a22.77,22.77,0,0,1-7.74-1.27,17.2,17.2,0,0,1-6-3.61,16,16,0,0,1-3.87-5.59,18.6,18.6,0,0,1-1.36-7.28,20.58,20.58,0,0,1,1.3-7.51,15.85,15.85,0,0,1,3.7-5.68,16.61,16.61,0,0,1,5.82-3.61,22.13,22.13,0,0,1,7.7-1.27A21.65,21.65,0,0,1,958,563a15.52,15.52,0,0,1,5.72,3.67,16,16,0,0,1,3.57,5.88,23.16,23.16,0,0,1,1.24,7.84v1.23Zm13.78-6.82a7.1,7.1,0,0,0-2.4-4,6.79,6.79,0,0,0-4.42-1.49,6.68,6.68,0,0,0-4.45,1.43,6.43,6.43,0,0,0-2.18,4Z"/><path class="cls-2" d="M1010.08,572.79v23.53H998.32V572.79h-4.23V563h4.23v-5a22.75,22.75,0,0,1,.78-6.63,11.76,11.76,0,0,1,2.08-3.87,15.3,15.3,0,0,1,3.34-3.08,16.32,16.32,0,0,1,4.13-2,14.3,14.3,0,0,1,4.36-.71,11.48,11.48,0,0,1,2.76.32,16.16,16.16,0,0,1,2.57.91v10.27a12.65,12.65,0,0,0-2.18-.87,7.37,7.37,0,0,0-2.11-.3,5.11,5.11,0,0,0-1.47.23,3.19,3.19,0,0,0-1.39.94,3.93,3.93,0,0,0-.88,2.05,22.64,22.64,0,0,0-.23,3.61V563h8.26v9.81Z"/><path class="cls-2" d="M1022,579.36a16.15,16.15,0,0,1,1.5-6.92,16.8,16.8,0,0,1,4.16-5.59,19.51,19.51,0,0,1,6.33-3.74,24.26,24.26,0,0,1,16,0,19.58,19.58,0,0,1,6.37,3.7,16.65,16.65,0,0,1,4.2,5.66,17.33,17.33,0,0,1,1.49,7.24,16.94,16.94,0,0,1-1.53,7.25,17.26,17.26,0,0,1-4.19,5.66,18.89,18.89,0,0,1-6.4,3.67,24.64,24.64,0,0,1-8.09,1.3,23.56,23.56,0,0,1-7.93-1.3,18.31,18.31,0,0,1-6.28-3.71,17.12,17.12,0,0,1-4.12-5.75A18,18,0,0,1,1022,579.36Zm12.42.13a7.61,7.61,0,0,0,.61,3.09,8.23,8.23,0,0,0,1.63,2.43,7,7,0,0,0,2.4,1.63,7.84,7.84,0,0,0,5.92,0,7,7,0,0,0,2.4-1.63,8.23,8.23,0,0,0,1.63-2.43,7.46,7.46,0,0,0,.62-3,7.23,7.23,0,0,0-.62-2.95,8.15,8.15,0,0,0-1.63-2.44,7,7,0,0,0-2.4-1.63,7.84,7.84,0,0,0-5.92,0,7,7,0,0,0-2.4,1.63,8.35,8.35,0,0,0-1.63,2.4A7.06,7.06,0,0,0,1034.46,579.49Z"/><path class="cls-2" d="M1068.84,563h11.77v5.46a13.45,13.45,0,0,1,4.61-4.58,12.33,12.33,0,0,1,6.37-1.6h1a7.92,7.92,0,0,1,1.27.13v11.25a11.18,11.18,0,0,0-5.07-1.17q-4.1,0-6.15,2.43t-2,7.12v14.3h-11.77Z"/><path class="cls-2" d="M1110.89,542.37V575l12.36-12h16.12l-16.71,15.4,17.68,17.94h-16.51l-12.94-13.58v13.58h-11.76v-54Z"/><path class="cls-2" d="M1153.08,581.63q0,7.61,7.15,7.61a6.4,6.4,0,0,0,5.79-3.12h11.37q-3.45,11.43-17.22,11.44a22.77,22.77,0,0,1-7.74-1.27,17.2,17.2,0,0,1-6-3.61,16,16,0,0,1-3.87-5.59,18.6,18.6,0,0,1-1.36-7.28,20.58,20.58,0,0,1,1.3-7.51,15.72,15.72,0,0,1,3.7-5.68A16.43,16.43,0,0,1,1152,563a22.09,22.09,0,0,1,7.7-1.27,21.69,21.69,0,0,1,7.61,1.27,15.52,15.52,0,0,1,5.72,3.67,16,16,0,0,1,3.57,5.88,23.41,23.41,0,0,1,1.24,7.84v1.23Zm13.78-6.82a7.1,7.1,0,0,0-2.4-4,6.79,6.79,0,0,0-4.42-1.49,6.71,6.71,0,0,0-4.46,1.43,6.42,6.42,0,0,0-2.17,4Z"/><path class="cls-2" d="M1184.54,563h11.76v5.46a13.56,13.56,0,0,1,4.62-4.58,12.33,12.33,0,0,1,6.37-1.6h1a7.7,7.7,0,0,1,1.26.13v11.25a11.18,11.18,0,0,0-5.07-1.17c-2.73,0-4.77.81-6.14,2.43s-2,4-2,7.12v14.3h-11.76Z"/><path class="cls-2" d="M1229.19,572.79v23.53h-11.76V572.79h-3.9V563h3.9V553h11.76v10h6.7v9.81Z"/><path class="cls-2" d="M1288.15,563H1300v33.34h-11.83v-3.7a12.37,12.37,0,0,1-10.21,4.74,16.51,16.51,0,0,1-6.69-1.33,16,16,0,0,1-5.33-3.74,17.12,17.12,0,0,1-3.54-5.65,19.26,19.26,0,0,1-1.27-7.09,18.84,18.84,0,0,1,1.23-6.79,17.48,17.48,0,0,1,3.45-5.62,16.28,16.28,0,0,1,5.26-3.8,15.94,15.94,0,0,1,6.76-1.4,13.6,13.6,0,0,1,10.34,4.35Zm-14.82,16.57a7.79,7.79,0,0,0,.58,3,7.61,7.61,0,0,0,1.6,2.43,7,7,0,0,0,2.4,1.63,7.74,7.74,0,0,0,3,.58,7.58,7.58,0,0,0,3-.58,7.18,7.18,0,0,0,2.41-1.63,8.32,8.32,0,0,0,1.62-2.4,7.06,7.06,0,0,0,.62-2.93,7.31,7.31,0,0,0-.62-3,8.2,8.2,0,0,0-1.62-2.43,7.33,7.33,0,0,0-2.41-1.63,7.58,7.58,0,0,0-3-.58,7.74,7.74,0,0,0-3,.58,7.19,7.19,0,0,0-2.4,1.63,7.8,7.8,0,0,0-1.6,2.37A7.11,7.11,0,0,0,1273.33,579.55Z"/><path class="cls-2" d="M1321.1,572.79v23.53h-11.76V572.79h-3.9V563h3.9V553h11.76v10h6.7v9.81Z"/><path class="cls-2" d="M812.23,649.56a13.72,13.72,0,0,0-6.37-1.69,4.79,4.79,0,0,0-2.63.65,2,2,0,0,0-1,1.75,2.24,2.24,0,0,0,.16.94,1.71,1.71,0,0,0,.72.69,5.9,5.9,0,0,0,1.62.58c.72.18,1.66.39,2.83.65a13.52,13.52,0,0,1,7.28,3.48,8.87,8.87,0,0,1,2.4,6.4,11.63,11.63,0,0,1-1.17,5.27,11.14,11.14,0,0,1-3.25,3.93,15.29,15.29,0,0,1-5,2.47,22.19,22.19,0,0,1-6.44.88,26.11,26.11,0,0,1-13.32-3.84l4.29-8.32q4.93,3.39,9.36,3.38a4.64,4.64,0,0,0,2.66-.71,2.13,2.13,0,0,0,1-1.82,2.94,2.94,0,0,0-.16-1.07,1.78,1.78,0,0,0-.68-.79,5.66,5.66,0,0,0-1.53-.64c-.67-.2-1.55-.4-2.63-.62q-5.46-1.11-7.64-3.28a8.16,8.16,0,0,1-2.18-6,11.92,11.92,0,0,1,1-5,10.53,10.53,0,0,1,3-3.8,13.91,13.91,0,0,1,4.72-2.4,21,21,0,0,1,6.14-.85,27.84,27.84,0,0,1,10.72,2.15Z"/><path class="cls-2" d="M835,620.37v54H823.21v-54Z"/><path class="cls-2" d="M853.63,659.63q0,7.61,7.15,7.61a6.39,6.39,0,0,0,5.79-3.12h11.37q-3.45,11.43-17.22,11.44a22.77,22.77,0,0,1-7.74-1.27,17.2,17.2,0,0,1-6-3.61,16,16,0,0,1-3.87-5.59,18.6,18.6,0,0,1-1.36-7.28,20.58,20.58,0,0,1,1.3-7.51,15.72,15.72,0,0,1,3.7-5.68,16.43,16.43,0,0,1,5.82-3.61,22.09,22.09,0,0,1,7.7-1.27,21.69,21.69,0,0,1,7.61,1.27,15.52,15.52,0,0,1,5.72,3.67,16,16,0,0,1,3.57,5.88,23.41,23.41,0,0,1,1.24,7.84v1.23Zm13.78-6.82a7.1,7.1,0,0,0-2.4-4,7.48,7.48,0,0,0-8.88-.06,6.46,6.46,0,0,0-2.17,4Z"/><path class="cls-2" d="M898.67,650.79v23.53H886.91V650.79H883V641h3.9V631h11.76v10h6.7v9.81Z"/><path class="cls-2" d="M924.67,650.79v23.53H912.91V650.79H909V641h3.9V631h11.76v10h6.7v9.81Z"/><path class="cls-2" d="M947,659.63q0,7.61,7.15,7.61a6.39,6.39,0,0,0,5.79-3.12h11.37q-3.45,11.43-17.22,11.44a22.77,22.77,0,0,1-7.74-1.27,17.2,17.2,0,0,1-6-3.61,16,16,0,0,1-3.87-5.59,18.6,18.6,0,0,1-1.36-7.28,20.58,20.58,0,0,1,1.3-7.51,15.72,15.72,0,0,1,3.7-5.68A16.52,16.52,0,0,1,946,641a22.09,22.09,0,0,1,7.7-1.27,21.69,21.69,0,0,1,7.61,1.27,15.52,15.52,0,0,1,5.72,3.67,16,16,0,0,1,3.57,5.88,23.41,23.41,0,0,1,1.24,7.84v1.23Zm13.78-6.82a7.1,7.1,0,0,0-2.4-4,7.48,7.48,0,0,0-8.88-.06,6.46,6.46,0,0,0-2.17,4Z"/><path class="cls-2" d="M1026.33,620.37h11.83v54h-11.83v-3.7a12.34,12.34,0,0,1-10.2,4.74,16.25,16.25,0,0,1-6.7-1.36,16.61,16.61,0,0,1-5.33-3.77,17.17,17.17,0,0,1-3.54-5.66,19,19,0,0,1-1.27-7,19.26,19.26,0,0,1,1.2-6.79,16.9,16.9,0,0,1,3.42-5.62,16.14,16.14,0,0,1,12.09-5.2,13.58,13.58,0,0,1,10.33,4.35Zm-14.82,37.18a7.79,7.79,0,0,0,2.18,5.46,7,7,0,0,0,2.4,1.63,7.75,7.75,0,0,0,3,.58,7.54,7.54,0,0,0,3-.58,7.09,7.09,0,0,0,2.41-1.63,8.32,8.32,0,0,0,1.62-2.4,7.06,7.06,0,0,0,.62-2.93,7.31,7.31,0,0,0-.62-3,8.2,8.2,0,0,0-1.62-2.43,7.23,7.23,0,0,0-2.41-1.63,7.82,7.82,0,0,0-5.91,0,7.23,7.23,0,0,0-2.41,1.63,8.45,8.45,0,0,0-1.62,2.37A6.82,6.82,0,0,0,1011.51,657.55Z"/><path class="cls-2" d="M1056.75,659.63q0,7.61,7.15,7.61a6.4,6.4,0,0,0,5.79-3.12h11.37q-3.45,11.43-17.23,11.44a22.75,22.75,0,0,1-7.73-1.27,17.2,17.2,0,0,1-6-3.61,16,16,0,0,1-3.87-5.59,18.6,18.6,0,0,1-1.36-7.28,20.58,20.58,0,0,1,1.3-7.51,15.72,15.72,0,0,1,3.7-5.68,16.43,16.43,0,0,1,5.82-3.61,22.09,22.09,0,0,1,7.7-1.27A21.69,21.69,0,0,1,1071,641a15.52,15.52,0,0,1,5.72,3.67,16,16,0,0,1,3.57,5.88,23.41,23.41,0,0,1,1.24,7.84v1.23Zm13.78-6.82a7.06,7.06,0,0,0-2.41-4,7.47,7.47,0,0,0-8.87-.06,6.42,6.42,0,0,0-2.17,4Z"/><path class="cls-2" d="M1101.79,650.79v23.53H1090V650.79h-3.9V641h3.9V631h11.76v10h6.7v9.81Z"/><path class="cls-2" d="M1113.75,668.08a7.63,7.63,0,0,1,.59-3,7.48,7.48,0,0,1,4.06-4.06,7.84,7.84,0,0,1,5.92,0,7.57,7.57,0,0,1,4.06,4.06,7.84,7.84,0,0,1,0,5.92,7.41,7.41,0,0,1-1.63,2.44,7.5,7.5,0,0,1-2.43,1.62,7.7,7.7,0,0,1-8.36-1.62,7.69,7.69,0,0,1-2.21-5.4Zm1.5-10.4V625.31h12.22v32.37Z"/></g></svg>
