<svg xmlns="http://www.w3.org/2000/svg" width="1920" height="1080" viewBox="0 0 1920 1080"><defs><style>.cls-1{fill:#009245;}.cls-2{fill:#fff;}</style></defs><title>kons_del_1</title><g id="Layer_2" data-name="Layer 2"><rect class="cls-1" x="374.5" y="228" width="1171" height="624" rx="76.14"/><path class="cls-2" d="M759.84,469.31v38.22h15.27v10.79h-28v-49Z"/><path class="cls-2" d="M779.79,472.17a6.3,6.3,0,0,1,.52-2.56,6.72,6.72,0,0,1,1.43-2.12,7,7,0,0,1,2.11-1.43,6.61,6.61,0,0,1,5.14,0,7,7,0,0,1,2.11,1.43,6.72,6.72,0,0,1,1.43,2.12,6.59,6.59,0,0,1,0,5.13,6.76,6.76,0,0,1-3.54,3.54,6.61,6.61,0,0,1-5.14,0,6.76,6.76,0,0,1-3.54-3.54A6.35,6.35,0,0,1,779.79,472.17ZM792.34,485v33.34H780.57V485Z"/><path class="cls-2" d="M837.71,485v31.07a34.07,34.07,0,0,1-.33,5,21.59,21.59,0,0,1-.91,3.9,12.15,12.15,0,0,1-2.44,4,16.15,16.15,0,0,1-4,3.22,21.22,21.22,0,0,1-5.3,2.14,25.05,25.05,0,0,1-6.4.78,24.78,24.78,0,0,1-7.15-1,19.34,19.34,0,0,1-5.69-2.7,15.62,15.62,0,0,1-4-4,13.45,13.45,0,0,1-2.08-5h13.26c.82,2.21,2.69,3.32,5.59,3.32a7.51,7.51,0,0,0,5.69-2.08,8.07,8.07,0,0,0,2-5.79v-3.18a21.17,21.17,0,0,1-2.5,2A14.62,14.62,0,0,1,821,518a12.37,12.37,0,0,1-2.6.75,18.49,18.49,0,0,1-3,.22,17.07,17.07,0,0,1-6.56-1.23,15.23,15.23,0,0,1-5.17-3.45A15.43,15.43,0,0,1,800.3,509a18.82,18.82,0,0,1-1.2-6.86,19.1,19.1,0,0,1,1.3-7.12,18.13,18.13,0,0,1,3.54-5.72,16.25,16.25,0,0,1,5.33-3.83,16,16,0,0,1,6.73-1.4,12.91,12.91,0,0,1,9.94,4.42V485Zm-26.39,16.51a7.74,7.74,0,0,0,.58,3,7.92,7.92,0,0,0,1.59,2.44,7.21,7.21,0,0,0,2.41,1.62,7.74,7.74,0,0,0,3,.59,7.59,7.59,0,0,0,3-.59,7.16,7.16,0,0,0,2.4-1.62,8.41,8.41,0,0,0,1.63-2.44,7.45,7.45,0,0,0,0-5.95,8.05,8.05,0,0,0-1.66-2.4,7.57,7.57,0,0,0-2.44-1.63,7.39,7.39,0,0,0-2.89-.58,6.87,6.87,0,0,0-2.92.62,8.37,8.37,0,0,0-2.41,1.62,7.67,7.67,0,0,0-1.66,2.37A7.06,7.06,0,0,0,811.32,501.49Z"/><path class="cls-2" d="M857.07,503.63q0,7.61,7.15,7.61a6.39,6.39,0,0,0,5.79-3.12h11.37q-3.43,11.45-17.22,11.44a22.52,22.52,0,0,1-7.74-1.27,17.2,17.2,0,0,1-6-3.61,16,16,0,0,1-3.87-5.59,18.6,18.6,0,0,1-1.36-7.28,20.49,20.49,0,0,1,1.3-7.5,15.8,15.8,0,0,1,3.7-5.69A16.61,16.61,0,0,1,856,485a22.13,22.13,0,0,1,7.7-1.27,21.65,21.65,0,0,1,7.61,1.27,15.52,15.52,0,0,1,5.72,3.67,16,16,0,0,1,3.57,5.89,23.1,23.1,0,0,1,1.24,7.83v1.23Zm13.78-6.82a7.1,7.1,0,0,0-2.4-4,7.47,7.47,0,0,0-8.87-.06,6.45,6.45,0,0,0-2.18,4Z"/><path class="cls-2" d="M922.4,535H910.63V485H922.4v3.7a12.41,12.41,0,0,1,10.27-4.74,15.84,15.84,0,0,1,6.66,1.4,16.8,16.8,0,0,1,5.36,3.8,17.31,17.31,0,0,1,3.55,5.65,19.11,19.11,0,0,1,1.26,7,18.55,18.55,0,0,1-1.26,6.89,18,18,0,0,1-3.51,5.59,16.38,16.38,0,0,1-5.3,3.77,16.08,16.08,0,0,1-6.63,1.36,13.89,13.89,0,0,1-10.4-4.29Zm14.82-33.21a8.15,8.15,0,0,0-.55-3,7.13,7.13,0,0,0-1.6-2.44,7.92,7.92,0,0,0-2.43-1.65,7.4,7.4,0,0,0-8.32,1.59,8,8,0,0,0-1.63,2.44,7.23,7.23,0,0,0-.62,2.95,7.37,7.37,0,0,0,.59,2.93,7.24,7.24,0,0,0,1.62,2.37,8.61,8.61,0,0,0,2.44,1.63A7.39,7.39,0,0,0,935,507a8.32,8.32,0,0,0,1.62-2.4A6.88,6.88,0,0,0,937.22,501.75Z"/><path class="cls-2" d="M956.2,485H968v5.46a13.56,13.56,0,0,1,4.62-4.58,12.33,12.33,0,0,1,6.37-1.6h1a7.81,7.81,0,0,1,1.26.13v11.25a11.18,11.18,0,0,0-5.07-1.17c-2.73,0-4.77.81-6.14,2.44s-2,4-2,7.11v14.3H956.2Z"/><path class="cls-2" d="M1018.6,503.57a7.58,7.58,0,0,0,2,5.49,7.31,7.31,0,0,0,5.5,2.11q4,0,5.39-3.12H1043a14.75,14.75,0,0,1-6,8.36,19.61,19.61,0,0,1-11.18,3q-10,0-13.2-6.5a16.85,16.85,0,0,1-13.65,6.3,20,20,0,0,1-5.59-.74,13.22,13.22,0,0,1-4.35-2.15,9.56,9.56,0,0,1-3.84-7.83,10.24,10.24,0,0,1,1-4.58,10,10,0,0,1,2.79-3.48,12.66,12.66,0,0,1,4.36-2.18,20.25,20.25,0,0,1,5.69-.75,23.54,23.54,0,0,1,8.58,1.76v-.91q0-6-8.06-6a34.18,34.18,0,0,0-9.17,1.88v-8.9a35.16,35.16,0,0,1,9.82-1.56,17,17,0,0,1,7.47,1.4,12.63,12.63,0,0,1,4.94,4.51q4.16-5.91,12.74-5.91,8.91,0,13.55,5t4.65,14.72Zm-22,4.09a3.2,3.2,0,0,0,1.43,2.73,6.32,6.32,0,0,0,3.83,1,8,8,0,0,0,4.16-1.07,3.08,3.08,0,0,0,1.82-2.63,3,3,0,0,0-1.85-2.54,8.88,8.88,0,0,0-4.39-1,6.28,6.28,0,0,0-3.64,1A2.94,2.94,0,0,0,996.63,507.66Zm35.88-10.92q-1.56-5.46-6.83-5.46-5,0-6.76,5.46Z"/><path class="cls-2" d="M1075.34,495.77a10.85,10.85,0,0,0-6.17-2.08,8.45,8.45,0,0,0-3.16.58,7.85,7.85,0,0,0-2.56,1.66,7.59,7.59,0,0,0-1.73,2.54,8.37,8.37,0,0,0-.61,3.28,8.25,8.25,0,0,0,.61,3.22,7.91,7.91,0,0,0,1.69,2.53,7.35,7.35,0,0,0,2.57,1.66,8.69,8.69,0,0,0,3.19.58,9.75,9.75,0,0,0,6.17-2.27v10a20.88,20.88,0,0,1-8.25,1.88,19.6,19.6,0,0,1-6.93-1.23,17.62,17.62,0,0,1-5.78-3.54,17.41,17.41,0,0,1-4-5.53,16.77,16.77,0,0,1-1.49-7.18,17.84,17.84,0,0,1,1.43-7.25,17.2,17.2,0,0,1,3.9-5.65,17.43,17.43,0,0,1,5.88-3.71,19.86,19.86,0,0,1,7.31-1.33,17.41,17.41,0,0,1,7.93,1.82Z"/><path class="cls-2" d="M1081.26,472.17a6.3,6.3,0,0,1,.52-2.56,6.56,6.56,0,0,1,1.43-2.12,6.85,6.85,0,0,1,2.11-1.43,6.59,6.59,0,0,1,5.13,0,7,7,0,0,1,2.12,1.43,6.89,6.89,0,0,1,1.43,2.12,6.59,6.59,0,0,1,0,5.13,6.85,6.85,0,0,1-1.43,2.11,6.67,6.67,0,0,1-2.12,1.43,6.59,6.59,0,0,1-5.13,0,6.76,6.76,0,0,1-3.54-3.54A6.35,6.35,0,0,1,1081.26,472.17ZM1093.8,485v33.34H1082V485Z"/><path class="cls-2" d="M1124,493.56a13.72,13.72,0,0,0-6.37-1.69,4.72,4.72,0,0,0-2.63.65,2,2,0,0,0-1,1.75,2.32,2.32,0,0,0,.16,1,1.76,1.76,0,0,0,.72.68,6,6,0,0,0,1.62.58c.72.18,1.66.39,2.83.65a13.48,13.48,0,0,1,7.28,3.48,8.87,8.87,0,0,1,2.4,6.4,11.5,11.5,0,0,1-1.17,5.27,11,11,0,0,1-3.25,3.93,15.29,15.29,0,0,1-5,2.47,22.12,22.12,0,0,1-6.43.88,26.14,26.14,0,0,1-13.33-3.84l4.29-8.32q4.93,3.39,9.36,3.38a4.69,4.69,0,0,0,2.67-.71,2.16,2.16,0,0,0,1-1.82,2.92,2.92,0,0,0-.17-1.07,1.65,1.65,0,0,0-.68-.78,5.33,5.33,0,0,0-1.53-.65c-.67-.2-1.55-.4-2.63-.62q-5.46-1.11-7.64-3.28a8.15,8.15,0,0,1-2.17-6,11.7,11.7,0,0,1,1-5,10.28,10.28,0,0,1,3-3.81,14,14,0,0,1,4.71-2.4,20.71,20.71,0,0,1,6.14-.85,27.93,27.93,0,0,1,10.73,2.15Z"/><path class="cls-2" d="M1135.79,512.08a7.62,7.62,0,0,1,13-5.39,7.44,7.44,0,0,1,1.62,2.44,7.62,7.62,0,0,1-10,10,7.44,7.44,0,0,1-2.44-1.62,7.57,7.57,0,0,1-2.21-5.4Zm1.49-10.4V469.31h12.22v32.37Z"/><path class="cls-2" d="M449.5,547.31h18.85a22.25,22.25,0,0,1,9.39,2,25.52,25.52,0,0,1,7.67,5.36,24.87,24.87,0,0,1,5.17,7.8,24,24,0,0,1,0,18.59,24.61,24.61,0,0,1-5.13,7.83,25.23,25.23,0,0,1-7.67,5.4,22.46,22.46,0,0,1-9.46,2H449.5Zm12.74,38.22h2.93a15.65,15.65,0,0,0,5.91-1,12.52,12.52,0,0,0,4.39-2.86,12.24,12.24,0,0,0,2.73-4.32,15.44,15.44,0,0,0,.94-5.49,15.08,15.08,0,0,0-1-5.46,12.29,12.29,0,0,0-7.15-7.22,15.75,15.75,0,0,0-5.85-1h-2.93Z"/><path class="cls-2" d="M511.25,563v18.78q0,6.18,6,6.18t6-6.18V563H535V584c0,4.5-1.49,7.89-4.46,10.14s-7.4,3.38-13.29,3.38-10.32-1.13-13.29-3.38-4.45-5.64-4.45-10.14V563Z"/><path class="cls-2" d="M565.07,542.37h11.76V567.2a12.89,12.89,0,0,1,4.88-3.93,15.27,15.27,0,0,1,5.78-1q6.32,0,9.53,3.48t3.21,9.39v21.19H588.47V579.49a17.48,17.48,0,0,0-.39-4.1,4.71,4.71,0,0,0-1.3-2.4,5.54,5.54,0,0,0-3.77-1.37,5.82,5.82,0,0,0-4.58,1.79,7.37,7.37,0,0,0-1.6,5.1v17.81H565.07Z"/><path class="cls-2" d="M634,563H645.8v33.34H634v-3.7a12.36,12.36,0,0,1-10.21,4.74,16.51,16.51,0,0,1-6.69-1.33,16,16,0,0,1-5.33-3.74,17,17,0,0,1-3.54-5.65,19.26,19.26,0,0,1-1.27-7.09,18.88,18.88,0,0,1,1.23-6.79,17.66,17.66,0,0,1,3.45-5.62,16.28,16.28,0,0,1,5.26-3.8,15.94,15.94,0,0,1,6.76-1.4A13.6,13.6,0,0,1,634,566.29Zm-14.82,16.57a7.79,7.79,0,0,0,.58,3,7.61,7.61,0,0,0,1.6,2.43,7,7,0,0,0,2.4,1.63,7.74,7.74,0,0,0,3,.58,7.58,7.58,0,0,0,3-.58,7.18,7.18,0,0,0,2.41-1.63,8.32,8.32,0,0,0,1.62-2.4,7.06,7.06,0,0,0,.62-2.93,7.23,7.23,0,0,0-.62-2.95,8.12,8.12,0,0,0-1.62-2.44,7.33,7.33,0,0,0-2.41-1.63,7.58,7.58,0,0,0-3-.58,7.74,7.74,0,0,0-3,.58,7.19,7.19,0,0,0-2.4,1.63,7.8,7.8,0,0,0-1.6,2.37A7.11,7.11,0,0,0,619.15,579.55Z"/><path class="cls-2" d="M653.79,563h11.77v5.46a13.45,13.45,0,0,1,4.61-4.58,12.35,12.35,0,0,1,6.37-1.6h1a7.92,7.92,0,0,1,1.27.13v11.25a11.18,11.18,0,0,0-5.07-1.17q-4.1,0-6.14,2.44T665.56,582v14.3H653.79Z"/><path class="cls-2" d="M706.12,563h11.76v5.46a13.56,13.56,0,0,1,4.62-4.58,12.33,12.33,0,0,1,6.37-1.6h1a7.81,7.81,0,0,1,1.26.13v11.25a11.18,11.18,0,0,0-5.07-1.17q-4.1,0-6.14,2.44t-2,7.11v14.3H706.12Z"/><path class="cls-2" d="M747.39,581.63q0,7.61,7.15,7.61a6.39,6.39,0,0,0,5.79-3.12H771.7q-3.45,11.45-17.22,11.44a22.52,22.52,0,0,1-7.74-1.27,17.2,17.2,0,0,1-6-3.61,16,16,0,0,1-3.87-5.59,18.6,18.6,0,0,1-1.36-7.28,20.49,20.49,0,0,1,1.3-7.5,15.67,15.67,0,0,1,3.7-5.69,16.43,16.43,0,0,1,5.82-3.61,22.09,22.09,0,0,1,7.7-1.27,21.69,21.69,0,0,1,7.61,1.27,15.52,15.52,0,0,1,5.72,3.67,16,16,0,0,1,3.57,5.89,23.35,23.35,0,0,1,1.24,7.83v1.23Zm13.78-6.82a7.1,7.1,0,0,0-2.4-4,7.48,7.48,0,0,0-8.88-.06,6.49,6.49,0,0,0-2.17,4Z"/><path class="cls-2" d="M792.44,572.79v23.53H780.67V572.79h-3.9V563h3.9V553h11.77v10h6.69v9.81Z"/><path class="cls-2" d="M838.78,572.79v23.53H827V572.79h-3.9V563H827V553h11.77v10h6.69v9.81Z"/><path class="cls-2" d="M850,550.17a6.47,6.47,0,0,1,.52-2.56,6.89,6.89,0,0,1,1.43-2.12,7,7,0,0,1,2.11-1.43,6.61,6.61,0,0,1,5.14,0,6.85,6.85,0,0,1,2.11,1.43,6.56,6.56,0,0,1,1.43,2.12,6.59,6.59,0,0,1,0,5.13,6.76,6.76,0,0,1-3.54,3.54,6.61,6.61,0,0,1-5.14,0,6.62,6.62,0,0,1-2.11-1.43,6.85,6.85,0,0,1-1.43-2.11A6.52,6.52,0,0,1,850,550.17ZM862.57,563v33.34H850.8V563Z"/><path class="cls-2" d="M882.39,542.37v54H870.63v-54Z"/><path class="cls-2" d="M938.29,563h11.83v33.34H938.29v-3.7a12.34,12.34,0,0,1-10.2,4.74,16.56,16.56,0,0,1-6.7-1.33,16.08,16.08,0,0,1-5.33-3.74,17,17,0,0,1-3.54-5.65,19.26,19.26,0,0,1-1.27-7.09,18.67,18.67,0,0,1,1.24-6.79,17.46,17.46,0,0,1,3.44-5.62,16.21,16.21,0,0,1,5.27-3.8,15.91,15.91,0,0,1,6.76-1.4,13.58,13.58,0,0,1,10.33,4.35Zm-14.82,16.57a7.79,7.79,0,0,0,2.18,5.46,7,7,0,0,0,2.4,1.63,7.79,7.79,0,0,0,3,.58,7.54,7.54,0,0,0,2.95-.58,7,7,0,0,0,2.41-1.63,8.32,8.32,0,0,0,1.62-2.4,6.91,6.91,0,0,0,.62-2.93,7.07,7.07,0,0,0-.62-2.95,8.12,8.12,0,0,0-1.62-2.44,7.13,7.13,0,0,0-2.41-1.63,7.54,7.54,0,0,0-2.95-.58,7.79,7.79,0,0,0-3,.58,7.19,7.19,0,0,0-2.4,1.63,8,8,0,0,0-1.59,2.37A7.11,7.11,0,0,0,923.47,579.55Z"/><path class="cls-2" d="M971.25,572.79v23.53H959.48V572.79h-3.9V563h3.9V553h11.77v10h6.69v9.81Z"/><path class="cls-2" d="M1030.2,542.37H1042v54H1030.2v-3.7a12.36,12.36,0,0,1-10.21,4.74,16.2,16.2,0,0,1-6.69-1.36,16.61,16.61,0,0,1-5.33-3.77,17.17,17.17,0,0,1-3.54-5.66,19,19,0,0,1-1.27-7,19.3,19.3,0,0,1,1.2-6.79,17,17,0,0,1,3.41-5.62,16.19,16.19,0,0,1,12.09-5.2,13.6,13.6,0,0,1,10.34,4.35Zm-14.82,37.18a7.79,7.79,0,0,0,.58,3,7.61,7.61,0,0,0,1.6,2.43,7,7,0,0,0,2.4,1.63,7.74,7.74,0,0,0,3,.58,7.58,7.58,0,0,0,3-.58,7.18,7.18,0,0,0,2.41-1.63,8.32,8.32,0,0,0,1.62-2.4,7.06,7.06,0,0,0,.62-2.93,7.23,7.23,0,0,0-.62-2.95,8.12,8.12,0,0,0-1.62-2.44,7.33,7.33,0,0,0-2.41-1.63,7.82,7.82,0,0,0-5.91,0,7.13,7.13,0,0,0-2.41,1.63,8.45,8.45,0,0,0-1.62,2.37A6.67,6.67,0,0,0,1015.38,579.55Z"/><path class="cls-2" d="M1060.62,581.63q0,7.61,7.15,7.61a6.38,6.38,0,0,0,5.78-3.12h11.38q-3.45,11.45-17.23,11.44a22.51,22.51,0,0,1-7.73-1.27,17.11,17.11,0,0,1-6-3.61,16,16,0,0,1-3.87-5.59,18.6,18.6,0,0,1-1.37-7.28,20.7,20.7,0,0,1,1.3-7.5,15.7,15.7,0,0,1,3.71-5.69,16.43,16.43,0,0,1,5.82-3.61,22.09,22.09,0,0,1,7.7-1.27,21.63,21.63,0,0,1,7.6,1.27,15.44,15.44,0,0,1,5.72,3.67,16,16,0,0,1,3.58,5.89,23.35,23.35,0,0,1,1.23,7.83v1.23Zm13.78-6.82a7.06,7.06,0,0,0-2.41-4,7.47,7.47,0,0,0-8.87-.06,6.5,6.5,0,0,0-2.18,4Z"/><path class="cls-2" d="M1103.84,542.37v54h-11.76v-54Z"/><path class="cls-2" d="M1122.5,581.63q0,7.61,7.15,7.61a6.39,6.39,0,0,0,5.78-3.12h11.38q-3.45,11.45-17.23,11.44a22.47,22.47,0,0,1-7.73-1.27,17.24,17.24,0,0,1-6-3.61,16.14,16.14,0,0,1-3.86-5.59,18.6,18.6,0,0,1-1.37-7.28,20.49,20.49,0,0,1,1.3-7.5,15.7,15.7,0,0,1,3.71-5.69,16.47,16.47,0,0,1,5.81-3.61,22.18,22.18,0,0,1,7.71-1.27,21.63,21.63,0,0,1,7.6,1.27,15.52,15.52,0,0,1,5.72,3.67,16.13,16.13,0,0,1,3.58,5.89,23.35,23.35,0,0,1,1.23,7.83v1.23Zm13.78-6.82a7.12,7.12,0,0,0-2.41-4,7.47,7.47,0,0,0-8.87-.06,6.45,6.45,0,0,0-2.18,4Z"/><path class="cls-2" d="M1187.82,542.37v23.92a13.79,13.79,0,0,1,10.4-4.35,16.11,16.11,0,0,1,6.79,1.4,15.86,15.86,0,0,1,5.27,3.77,17.27,17.27,0,0,1,3.41,5.59,19.62,19.62,0,0,1,0,13.81,17.35,17.35,0,0,1-3.54,5.65,17,17,0,0,1-5.37,3.81,16,16,0,0,1-6.66,1.39,12.42,12.42,0,0,1-10.27-4.74v3.7h-11.76v-54Zm14.82,37.38a7.58,7.58,0,0,0-.58-3,7.68,7.68,0,0,0-1.63-2.44,8,8,0,0,0-2.4-1.65,7.05,7.05,0,0,0-3-.62,7.37,7.37,0,0,0-2.93.58,7.27,7.27,0,0,0-2.37,1.63,8.34,8.34,0,0,0-1.63,2.44,7.22,7.22,0,0,0-.61,2.95,7.37,7.37,0,0,0,.58,2.93,7.12,7.12,0,0,0,1.63,2.37,8.42,8.42,0,0,0,2.43,1.63,7.59,7.59,0,0,0,5.89,0,7.12,7.12,0,0,0,2.37-1.63,8.32,8.32,0,0,0,1.62-2.4A6.88,6.88,0,0,0,1202.64,579.75Z"/><path class="cls-2" d="M1220.84,550.17a6.3,6.3,0,0,1,.52-2.56,6.72,6.72,0,0,1,1.43-2.12,7,7,0,0,1,2.11-1.43,6.61,6.61,0,0,1,5.14,0,7,7,0,0,1,2.11,1.43,6.72,6.72,0,0,1,1.43,2.12,6.59,6.59,0,0,1,0,5.13,6.76,6.76,0,0,1-3.54,3.54,6.61,6.61,0,0,1-5.14,0,6.76,6.76,0,0,1-3.54-3.54A6.35,6.35,0,0,1,1220.84,550.17ZM1233.38,563v33.34h-11.76V563Z"/><path class="cls-2" d="M1253.21,542.37v54h-11.77v-54Z"/><path class="cls-2" d="M1273,542.37v54h-11.76v-54Z"/><path class="cls-2" d="M1291.69,581.63q0,7.61,7.15,7.61a6.38,6.38,0,0,0,5.78-3.12H1316q-3.45,11.45-17.23,11.44a22.51,22.51,0,0,1-7.73-1.27,17.11,17.11,0,0,1-6-3.61,16,16,0,0,1-3.87-5.59,18.6,18.6,0,0,1-1.37-7.28,20.7,20.7,0,0,1,1.3-7.5,15.83,15.83,0,0,1,3.71-5.69,16.43,16.43,0,0,1,5.82-3.61,22.09,22.09,0,0,1,7.7-1.27,21.59,21.59,0,0,1,7.6,1.27,15.44,15.44,0,0,1,5.72,3.67,16,16,0,0,1,3.58,5.89,23.35,23.35,0,0,1,1.23,7.83v1.23Zm13.78-6.82a7.06,7.06,0,0,0-2.41-4,7.47,7.47,0,0,0-8.87-.06,6.5,6.5,0,0,0-2.18,4Z"/><path class="cls-2" d="M1348.89,542.37h11.83v54h-11.83v-3.7a12.37,12.37,0,0,1-10.21,4.74A16.2,16.2,0,0,1,1332,596a16.5,16.5,0,0,1-5.33-3.77,17.17,17.17,0,0,1-3.54-5.66,19,19,0,0,1-1.27-7,19.3,19.3,0,0,1,1.2-6.79,17,17,0,0,1,3.41-5.62,16.19,16.19,0,0,1,12.09-5.2,13.6,13.6,0,0,1,10.34,4.35Zm-14.82,37.18a7.79,7.79,0,0,0,.58,3,7.61,7.61,0,0,0,1.6,2.43,7,7,0,0,0,2.4,1.63,7.74,7.74,0,0,0,3,.58,7.58,7.58,0,0,0,3-.58A7.18,7.18,0,0,0,1347,585a8.32,8.32,0,0,0,1.62-2.4,7.06,7.06,0,0,0,.62-2.93,7.23,7.23,0,0,0-.62-2.95,8.12,8.12,0,0,0-1.62-2.44,7.33,7.33,0,0,0-2.41-1.63,7.82,7.82,0,0,0-5.91,0,7.13,7.13,0,0,0-2.41,1.63,8.45,8.45,0,0,0-1.62,2.37A6.67,6.67,0,0,0,1334.07,579.55Z"/><path class="cls-2" d="M1379.31,581.63q0,7.61,7.15,7.61a6.39,6.39,0,0,0,5.78-3.12h11.38q-3.45,11.45-17.23,11.44a22.51,22.51,0,0,1-7.73-1.27,17.11,17.11,0,0,1-6-3.61,16,16,0,0,1-3.87-5.59,18.6,18.6,0,0,1-1.37-7.28,20.7,20.7,0,0,1,1.3-7.5,15.7,15.7,0,0,1,3.71-5.69,16.43,16.43,0,0,1,5.82-3.61,22.09,22.09,0,0,1,7.7-1.27,21.63,21.63,0,0,1,7.6,1.27,15.52,15.52,0,0,1,5.72,3.67,16.13,16.13,0,0,1,3.58,5.89,23.35,23.35,0,0,1,1.23,7.83v1.23Zm13.78-6.82a7.06,7.06,0,0,0-2.41-4,7.47,7.47,0,0,0-8.87-.06,6.5,6.5,0,0,0-2.18,4Z"/><path class="cls-2" d="M1424.35,572.79v23.53h-11.76V572.79h-3.9V563h3.9V553h11.76v10h6.7v9.81Z"/><path class="cls-2" d="M1434.88,590.08a7.54,7.54,0,0,1,.59-3,7.44,7.44,0,0,1,1.62-2.44,7.66,7.66,0,0,1,10.79,0,7.57,7.57,0,0,1,2.21,5.39,7.61,7.61,0,1,1-15.21,0Z"/></g></svg>
