<svg xmlns="http://www.w3.org/2000/svg" width="1920" height="1080" viewBox="0 0 1920 1080"><defs><style>.cls-1{fill:#009245;}.cls-2{fill:#fff;}</style></defs><title>kons_slet_3</title><g id="Layer_8" data-name="Layer 8"><rect class="cls-1" x="374.5" y="228" width="1171" height="624" rx="76.14"/><path class="cls-2" d="M855.42,479.32H842.68v-49H863q8.25,0,12.64,4.29T880,446.69q0,7.8-4.39,12.09T863,463.07h-7.54Zm0-26.52h4.22q7,0,7-6.11t-7-6.11h-4.22Z"/><path class="cls-2" d="M885.64,446h11.77v5.46a13.45,13.45,0,0,1,4.61-4.58,12.33,12.33,0,0,1,6.37-1.6h1a7.92,7.92,0,0,1,1.27.13v11.25a11.18,11.18,0,0,0-5.07-1.17q-4.1,0-6.15,2.44t-2,7.11v14.3H885.64Z"/><path class="cls-2" d="M948,464.57a7.54,7.54,0,0,0,2.05,5.49,7.27,7.27,0,0,0,5.49,2.11q4,0,5.4-3.12h11.44a14.76,14.76,0,0,1-6,8.36,19.61,19.61,0,0,1-11.18,3q-10,0-13.19-6.5a16.85,16.85,0,0,1-13.65,6.3,20,20,0,0,1-5.59-.74,13.27,13.27,0,0,1-4.36-2.15,10,10,0,0,1-2.83-3.38,9.68,9.68,0,0,1-1-4.45,10,10,0,0,1,3.8-8.06,12.52,12.52,0,0,1,4.35-2.18,20.3,20.3,0,0,1,5.69-.75,23.54,23.54,0,0,1,8.58,1.76v-.91q0-6-8.06-6a34.13,34.13,0,0,0-9.16,1.88v-8.9a35.1,35.1,0,0,1,9.81-1.56,17,17,0,0,1,7.48,1.4,12.7,12.7,0,0,1,4.94,4.51q4.15-5.91,12.74-5.91,8.89,0,13.55,5t4.65,14.72Zm-22,4.09a3.22,3.22,0,0,0,1.43,2.73,6.34,6.34,0,0,0,3.84,1,8,8,0,0,0,4.16-1.07,3.09,3.09,0,0,0,1.82-2.63,3,3,0,0,0-1.86-2.54,8.81,8.81,0,0,0-4.38-1,6.28,6.28,0,0,0-3.64,1A3,3,0,0,0,926.07,468.66ZM962,457.74q-1.56-5.46-6.82-5.46-5,0-6.76,5.46Z"/><path class="cls-2" d="M1004.79,456.77a10.88,10.88,0,0,0-6.18-2.08,8.36,8.36,0,0,0-3.15.58,7.73,7.73,0,0,0-2.57,1.66,7.52,7.52,0,0,0-1.72,2.53,8.46,8.46,0,0,0-.62,3.29,8.17,8.17,0,0,0,.62,3.21,7.69,7.69,0,0,0,1.69,2.54,7.4,7.4,0,0,0,2.57,1.66,8.59,8.59,0,0,0,3.18.58,9.78,9.78,0,0,0,6.18-2.27v10a21,21,0,0,1-8.26,1.88,19.54,19.54,0,0,1-6.92-1.23,17.84,17.84,0,0,1-5.79-3.54,17.23,17.23,0,0,1-4-5.53,16.78,16.78,0,0,1-1.5-7.18,18,18,0,0,1,1.43-7.25,17.35,17.35,0,0,1,3.9-5.66,17.76,17.76,0,0,1,5.88-3.7,20,20,0,0,1,7.32-1.33,17.41,17.41,0,0,1,7.93,1.82Z"/><path class="cls-2" d="M1010.7,433.17a6.3,6.3,0,0,1,.52-2.56,6.72,6.72,0,0,1,1.43-2.12,7,7,0,0,1,2.11-1.43,6.61,6.61,0,0,1,5.14,0,7,7,0,0,1,2.11,1.43,6.72,6.72,0,0,1,1.43,2.12,6.59,6.59,0,0,1,0,5.13,6.76,6.76,0,0,1-3.54,3.54,6.61,6.61,0,0,1-5.14,0,6.76,6.76,0,0,1-3.54-3.54A6.35,6.35,0,0,1,1010.7,433.17ZM1023.24,446v33.34h-11.76V446Z"/><path class="cls-2" d="M1053.4,454.56a13.69,13.69,0,0,0-6.37-1.69,4.72,4.72,0,0,0-2.63.65,2,2,0,0,0-1,1.75,2.22,2.22,0,0,0,.17.94,1.62,1.62,0,0,0,.71.69,6,6,0,0,0,1.63.58c.71.18,1.65.39,2.82.65a13.48,13.48,0,0,1,7.28,3.48,8.83,8.83,0,0,1,2.41,6.4,11.63,11.63,0,0,1-1.17,5.27,11.14,11.14,0,0,1-3.25,3.93,15.44,15.44,0,0,1-5,2.47,22.12,22.12,0,0,1-6.43.88,26.14,26.14,0,0,1-13.33-3.84l4.29-8.32q5,3.39,9.37,3.38a4.64,4.64,0,0,0,2.66-.71,2.16,2.16,0,0,0,1-1.82,3.18,3.18,0,0,0-.16-1.07,1.74,1.74,0,0,0-.69-.79,5.43,5.43,0,0,0-1.52-.64c-.67-.2-1.55-.4-2.64-.62q-5.46-1.11-7.63-3.28a8.12,8.12,0,0,1-2.18-6,11.92,11.92,0,0,1,1-5,10.43,10.43,0,0,1,3-3.8,14,14,0,0,1,4.71-2.4,21,21,0,0,1,6.14-.85,27.89,27.89,0,0,1,10.73,2.15Z"/><path class="cls-2" d="M1063.8,473.08a7.63,7.63,0,0,1,.59-3,7.5,7.5,0,0,1,1.62-2.43,7.68,7.68,0,0,1,2.44-1.63,7.64,7.64,0,0,1,8.35,1.63,7.37,7.37,0,0,1,1.63,2.43,7.84,7.84,0,0,1,0,5.92,7.41,7.41,0,0,1-1.63,2.44,7.5,7.5,0,0,1-2.43,1.62,7.7,7.7,0,0,1-8.36-1.62,7.69,7.69,0,0,1-2.21-5.4Z"/><path class="cls-2" d="M465.42,520.86a15.43,15.43,0,0,0-4.16-2.5,10.87,10.87,0,0,0-4-.82,6.55,6.55,0,0,0-4,1.17,3.65,3.65,0,0,0-1.56,3.06,3,3,0,0,0,.78,2.14,6.92,6.92,0,0,0,2.05,1.47,18.59,18.59,0,0,0,2.86,1.07c1.06.3,2.11.63,3.15,1q6.24,2.08,9.14,5.56a13.76,13.76,0,0,1,2.89,9.07,17.52,17.52,0,0,1-1.27,6.82,14.3,14.3,0,0,1-3.7,5.24,17.32,17.32,0,0,1-6,3.38,25,25,0,0,1-8,1.2,29.5,29.5,0,0,1-17.23-5.53l5.46-10.27a22,22,0,0,0,5.66,3.77,13.46,13.46,0,0,0,5.52,1.24,6.62,6.62,0,0,0,4.65-1.43,4.43,4.43,0,0,0,1.14-5.17,4.19,4.19,0,0,0-1.3-1.5,10.79,10.79,0,0,0-2.37-1.26c-1-.39-2.16-.83-3.55-1.3-1.64-.52-3.26-1.1-4.84-1.72a15.22,15.22,0,0,1-4.22-2.51,11.47,11.47,0,0,1-3-3.93,13.85,13.85,0,0,1-1.14-6,17.4,17.4,0,0,1,1.2-6.6,14.69,14.69,0,0,1,3.38-5.07,15,15,0,0,1,5.33-3.28,20.13,20.13,0,0,1,7-1.17,30.48,30.48,0,0,1,7.61,1,33.34,33.34,0,0,1,7.6,3Z"/><path class="cls-2" d="M479.4,524h11.76v4.22a12.89,12.89,0,0,1,4.88-3.93,15.27,15.27,0,0,1,5.78-1,14.47,14.47,0,0,1,6,1.14,12,12,0,0,1,4.25,3.22,9.09,9.09,0,0,1,1.95,3.77,19.48,19.48,0,0,1,.52,4.74v21.19H502.8V540.49a18,18,0,0,0-.36-4,5,5,0,0,0-1.27-2.44,4.47,4.47,0,0,0-1.75-1.1,6.43,6.43,0,0,0-2.08-.33,5.82,5.82,0,0,0-4.58,1.79,7.37,7.37,0,0,0-1.6,5.1v17.81H479.4Z"/><path class="cls-2" d="M548.3,524h11.83v33.34H548.3v-3.7a12.37,12.37,0,0,1-10.21,4.74A16.51,16.51,0,0,1,531.4,557a16,16,0,0,1-5.33-3.74,17.12,17.12,0,0,1-3.54-5.65,19.26,19.26,0,0,1-1.27-7.09,18.88,18.88,0,0,1,1.23-6.79,17.48,17.48,0,0,1,3.45-5.62,16.28,16.28,0,0,1,5.26-3.8,15.94,15.94,0,0,1,6.76-1.4,13.6,13.6,0,0,1,10.34,4.35Zm-14.82,16.57a7.79,7.79,0,0,0,.58,3,7.61,7.61,0,0,0,1.6,2.43,7,7,0,0,0,2.4,1.63,7.74,7.74,0,0,0,3,.58,7.58,7.58,0,0,0,3-.58,7.18,7.18,0,0,0,2.41-1.63,8.32,8.32,0,0,0,1.62-2.4,7.06,7.06,0,0,0,.62-2.93,7.31,7.31,0,0,0-.62-3,8.2,8.2,0,0,0-1.62-2.43,7.33,7.33,0,0,0-2.41-1.63,7.58,7.58,0,0,0-3-.58,7.74,7.74,0,0,0-3,.58,7.19,7.19,0,0,0-2.4,1.63,7.8,7.8,0,0,0-1.6,2.37A7.11,7.11,0,0,0,533.48,540.55Z"/><path class="cls-2" d="M579.89,503.37V536l12.35-12h16.12l-16.71,15.4,17.68,17.94H592.82l-12.93-13.58v13.58H568.12v-54Z"/><path class="cls-2" d="M634.81,511.17a6.3,6.3,0,0,1,.52-2.56,6.72,6.72,0,0,1,1.43-2.12,7,7,0,0,1,2.11-1.43,6.61,6.61,0,0,1,5.14,0,7,7,0,0,1,2.11,1.43,6.72,6.72,0,0,1,1.43,2.12,6.59,6.59,0,0,1,0,5.13,6.76,6.76,0,0,1-3.54,3.54,6.61,6.61,0,0,1-5.14,0,6.76,6.76,0,0,1-3.54-3.54A6.35,6.35,0,0,1,634.81,511.17ZM647.36,524v33.34H635.59V524Z"/><path class="cls-2" d="M699.62,532.56a13.72,13.72,0,0,0-6.37-1.69,4.76,4.76,0,0,0-2.64.65,2,2,0,0,0-1,1.75,2.24,2.24,0,0,0,.16.94,1.74,1.74,0,0,0,.71.69,6,6,0,0,0,1.63.58c.71.18,1.66.39,2.83.65a13.52,13.52,0,0,1,7.28,3.48,8.87,8.87,0,0,1,2.4,6.4,11.63,11.63,0,0,1-1.17,5.27,11.14,11.14,0,0,1-3.25,3.93,15.39,15.39,0,0,1-5,2.47,22.19,22.19,0,0,1-6.44.88,26.08,26.08,0,0,1-13.32-3.84l4.29-8.32q4.93,3.39,9.36,3.38a4.64,4.64,0,0,0,2.66-.71,2.16,2.16,0,0,0,1-1.82,2.94,2.94,0,0,0-.16-1.07,1.78,1.78,0,0,0-.68-.79,5.66,5.66,0,0,0-1.53-.64c-.67-.2-1.55-.4-2.63-.62q-5.46-1.11-7.64-3.28a8.16,8.16,0,0,1-2.18-6,11.92,11.92,0,0,1,1-5,10.43,10.43,0,0,1,3-3.8,14,14,0,0,1,4.71-2.4,21.07,21.07,0,0,1,6.15-.85,27.88,27.88,0,0,1,10.72,2.15Z"/><path class="cls-2" d="M724.64,533.79v23.53H712.88V533.79H709V524h3.91V514h11.76v10h6.69v9.81Z"/><path class="cls-2" d="M747,542.63q0,7.61,7.15,7.61a6.38,6.38,0,0,0,5.78-3.12h11.38q-3.45,11.45-17.23,11.44a22.75,22.75,0,0,1-7.73-1.27,17.11,17.11,0,0,1-6-3.61,16,16,0,0,1-3.87-5.59,18.6,18.6,0,0,1-1.37-7.28,20.8,20.8,0,0,1,1.3-7.51,15.74,15.74,0,0,1,3.71-5.68,16.43,16.43,0,0,1,5.82-3.61,22.09,22.09,0,0,1,7.7-1.27,21.59,21.59,0,0,1,7.6,1.27,15.44,15.44,0,0,1,5.72,3.67,16,16,0,0,1,3.58,5.89,23.35,23.35,0,0,1,1.23,7.83v1.23Zm13.78-6.82a7.06,7.06,0,0,0-2.41-4,7.47,7.47,0,0,0-8.87-.06,6.5,6.5,0,0,0-2.18,4Z"/><path class="cls-2" d="M804.2,503.37H816v54H804.2v-3.7A12.37,12.37,0,0,1,794,558.36,16.2,16.2,0,0,1,787.3,557a16.5,16.5,0,0,1-5.33-3.77,17.17,17.17,0,0,1-3.54-5.66,19,19,0,0,1-1.27-7,19.3,19.3,0,0,1,1.2-6.79,17,17,0,0,1,3.41-5.62,16.19,16.19,0,0,1,12.09-5.2,13.6,13.6,0,0,1,10.34,4.35Zm-14.82,37.18a7.72,7.72,0,0,0,2.17,5.46,7.18,7.18,0,0,0,2.41,1.63,7.74,7.74,0,0,0,3,.58,7.58,7.58,0,0,0,3-.58,7.18,7.18,0,0,0,2.41-1.63,8.32,8.32,0,0,0,1.62-2.4,7.06,7.06,0,0,0,.62-2.93,7.31,7.31,0,0,0-.62-3,8.2,8.2,0,0,0-1.62-2.43,7.33,7.33,0,0,0-2.41-1.63,7.82,7.82,0,0,0-5.91,0,7.13,7.13,0,0,0-2.41,1.63,8.45,8.45,0,0,0-1.62,2.37A6.67,6.67,0,0,0,789.38,540.55Z"/><path class="cls-2" d="M834.62,542.63q0,7.61,7.15,7.61a6.39,6.39,0,0,0,5.78-3.12h11.38q-3.45,11.45-17.23,11.44a22.71,22.71,0,0,1-7.73-1.27,17.24,17.24,0,0,1-6-3.61,16.14,16.14,0,0,1-3.86-5.59,18.6,18.6,0,0,1-1.37-7.28,20.58,20.58,0,0,1,1.3-7.51,15.74,15.74,0,0,1,3.71-5.68,16.47,16.47,0,0,1,5.81-3.61,22.18,22.18,0,0,1,7.71-1.27,21.63,21.63,0,0,1,7.6,1.27,15.52,15.52,0,0,1,5.72,3.67,16.13,16.13,0,0,1,3.58,5.89,23.35,23.35,0,0,1,1.23,7.83v1.23Zm13.78-6.82a7.06,7.06,0,0,0-2.41-4,7.47,7.47,0,0,0-8.87-.06,6.45,6.45,0,0,0-2.18,4Z"/><path class="cls-2" d="M879.66,533.79v23.53H867.9V533.79H864V524h3.9V514h11.76v10h6.7v9.81Z"/><path class="cls-2" d="M912.87,524h11.77v4.09a15.24,15.24,0,0,1,10.79-4.61,12.55,12.55,0,0,1,11.31,6.24,12.62,12.62,0,0,1,11.31-6.31,14,14,0,0,1,4.42.69,9,9,0,0,1,3.57,2.14,10.33,10.33,0,0,1,2.38,3.8,16.31,16.31,0,0,1,.87,5.66v21.64H957.53V540.88a19.76,19.76,0,0,0-.36-4.16,6.52,6.52,0,0,0-1-2.54,3.45,3.45,0,0,0-1.59-1.23,5.7,5.7,0,0,0-1.95-.33q-5.65,0-5.66,8.26v16.44H935.17V540.88a22,22,0,0,0-.33-4.19,7.63,7.63,0,0,0-.94-2.64,3.14,3.14,0,0,0-1.59-1.33,6.57,6.57,0,0,0-2.28-.36,6.47,6.47,0,0,0-2.08.33,3.71,3.71,0,0,0-1.72,1.27,6.78,6.78,0,0,0-1.17,2.59,18.21,18.21,0,0,0-.42,4.33v16.44H912.87Z"/><path class="cls-2" d="M988,542.63q0,7.61,7.15,7.61a6.39,6.39,0,0,0,5.78-3.12h11.38q-3.45,11.45-17.23,11.44a22.75,22.75,0,0,1-7.73-1.27,17.11,17.11,0,0,1-6-3.61,16,16,0,0,1-3.87-5.59,18.6,18.6,0,0,1-1.37-7.28,20.8,20.8,0,0,1,1.3-7.51,15.87,15.87,0,0,1,3.71-5.68,16.43,16.43,0,0,1,5.82-3.61,22.09,22.09,0,0,1,7.7-1.27,21.63,21.63,0,0,1,7.6,1.27,15.44,15.44,0,0,1,5.72,3.67,16.13,16.13,0,0,1,3.58,5.89,23.35,23.35,0,0,1,1.23,7.83v1.23Zm13.78-6.82a7.06,7.06,0,0,0-2.41-4,7.47,7.47,0,0,0-8.87-.06,6.5,6.5,0,0,0-2.18,4Z"/><path class="cls-2" d="M1045.15,503.37H1057v54h-11.83v-3.7a12.37,12.37,0,0,1-10.21,4.74,16.2,16.2,0,0,1-6.69-1.36,16.5,16.5,0,0,1-5.33-3.77,17.17,17.17,0,0,1-3.54-5.66,19,19,0,0,1-1.27-7,19.3,19.3,0,0,1,1.2-6.79,17,17,0,0,1,3.41-5.62,16.19,16.19,0,0,1,12.09-5.2,13.6,13.6,0,0,1,10.34,4.35Zm-14.82,37.18a7.72,7.72,0,0,0,2.17,5.46,7.18,7.18,0,0,0,2.41,1.63,7.74,7.74,0,0,0,3,.58,7.58,7.58,0,0,0,3-.58,7,7,0,0,0,2.4-1.63,8.15,8.15,0,0,0,1.63-2.4,7.06,7.06,0,0,0,.62-2.93,7.31,7.31,0,0,0-.62-3,8,8,0,0,0-1.63-2.43,7.19,7.19,0,0,0-2.4-1.63,7.84,7.84,0,0,0-5.92,0,7.19,7.19,0,0,0-2.4,1.63,8.45,8.45,0,0,0-1.62,2.37A6.67,6.67,0,0,0,1030.33,540.55Z"/><path class="cls-2" d="M1100.92,557.32h-12.74v-49h20.28q8.25,0,12.64,4.29t4.39,12.09q0,7.8-4.39,12.09t-12.64,4.29h-7.54Zm0-26.52h4.22q7,0,7-6.11t-7-6.11h-4.22Z"/><path class="cls-2" d="M1131.14,524h11.77v5.46a13.45,13.45,0,0,1,4.61-4.58,12.33,12.33,0,0,1,6.37-1.6h1a7.92,7.92,0,0,1,1.27.13v11.25a11.18,11.18,0,0,0-5.07-1.17q-4.1,0-6.15,2.44t-2,7.11v14.3h-11.77Z"/><path class="cls-2" d="M1160.65,511.17a6.3,6.3,0,0,1,.52-2.56,6.72,6.72,0,0,1,1.43-2.12,7,7,0,0,1,2.11-1.43,6.61,6.61,0,0,1,5.14,0,7,7,0,0,1,2.11,1.43,6.72,6.72,0,0,1,1.43,2.12,6.59,6.59,0,0,1,0,5.13,6.76,6.76,0,0,1-3.54,3.54,6.61,6.61,0,0,1-5.14,0,6.76,6.76,0,0,1-3.54-3.54A6.35,6.35,0,0,1,1160.65,511.17ZM1173.2,524v33.34h-11.77V524Z"/><path class="cls-2" d="M1191.13,524l7.93,17.09,8.06-17.09h13.13l-17.35,33.34H1195L1177.88,524Z"/><path class="cls-2" d="M1248.4,524h11.83v33.34H1248.4v-3.7a12.36,12.36,0,0,1-10.21,4.74,16.55,16.55,0,0,1-6.69-1.33,16.08,16.08,0,0,1-5.33-3.74,17.12,17.12,0,0,1-3.54-5.65,19.26,19.26,0,0,1-1.27-7.09,18.88,18.88,0,0,1,1.23-6.79,17.66,17.66,0,0,1,3.45-5.62,16.28,16.28,0,0,1,5.26-3.8,15.94,15.94,0,0,1,6.76-1.4,13.6,13.6,0,0,1,10.34,4.35Zm-14.82,16.57a7.79,7.79,0,0,0,.58,3,7.61,7.61,0,0,0,1.6,2.43,7,7,0,0,0,2.4,1.63,7.74,7.74,0,0,0,3,.58,7.58,7.58,0,0,0,3-.58,7.09,7.09,0,0,0,2.41-1.63,8.32,8.32,0,0,0,1.62-2.4,7.06,7.06,0,0,0,.62-2.93,7.31,7.31,0,0,0-.62-3,8.2,8.2,0,0,0-1.62-2.43,7.23,7.23,0,0,0-2.41-1.63,7.58,7.58,0,0,0-3-.58,7.74,7.74,0,0,0-3,.58,7.19,7.19,0,0,0-2.4,1.63,7.8,7.8,0,0,0-1.6,2.37A7.11,7.11,0,0,0,1233.58,540.55Z"/><path class="cls-2" d="M1281.35,533.79v23.53h-11.76V533.79h-3.9V524h3.9V514h11.76v10h6.7v9.81Z"/><path class="cls-2" d="M1342.58,520.86a15.59,15.59,0,0,0-4.16-2.5,10.87,10.87,0,0,0-4-.82,6.55,6.55,0,0,0-4,1.17,3.65,3.65,0,0,0-1.56,3.06,3,3,0,0,0,.78,2.14,6.79,6.79,0,0,0,2.05,1.47,18.2,18.2,0,0,0,2.86,1.07c1.06.3,2.11.63,3.15,1q6.24,2.08,9.13,5.56a13.71,13.71,0,0,1,2.9,9.07,17.71,17.71,0,0,1-1.27,6.82,14.32,14.32,0,0,1-3.71,5.24,17.13,17.13,0,0,1-6,3.38,24.9,24.9,0,0,1-8,1.2,29.5,29.5,0,0,1-17.23-5.53l5.46-10.27a22,22,0,0,0,5.66,3.77,13.46,13.46,0,0,0,5.52,1.24,6.62,6.62,0,0,0,4.65-1.43,4.43,4.43,0,0,0,1.14-5.17,4.29,4.29,0,0,0-1.3-1.5,10.66,10.66,0,0,0-2.38-1.26c-1-.39-2.15-.83-3.54-1.3-1.65-.52-3.26-1.1-4.84-1.72a15.42,15.42,0,0,1-4.23-2.51,11.72,11.72,0,0,1-3-3.93,14,14,0,0,1-1.13-6,17.4,17.4,0,0,1,1.2-6.6,14.69,14.69,0,0,1,3.38-5.07,15,15,0,0,1,5.33-3.28,20.13,20.13,0,0,1,7-1.17,30.54,30.54,0,0,1,7.61,1,33.52,33.52,0,0,1,7.6,3Z"/><path class="cls-2" d="M1356.56,524h11.76v4.22a12.82,12.82,0,0,1,4.88-3.93,15.23,15.23,0,0,1,5.78-1,14.47,14.47,0,0,1,6,1.14,12,12,0,0,1,4.25,3.22,9.09,9.09,0,0,1,2,3.77,19.48,19.48,0,0,1,.52,4.74v21.19H1380V540.49a18,18,0,0,0-.36-4,5,5,0,0,0-1.27-2.44,4.47,4.47,0,0,0-1.75-1.1,6.47,6.47,0,0,0-2.08-.33,5.81,5.81,0,0,0-4.58,1.79,7.37,7.37,0,0,0-1.6,5.1v17.81h-11.76Z"/><path class="cls-2" d="M1425.46,524h11.83v33.34h-11.83v-3.7a12.37,12.37,0,0,1-10.21,4.74,16.48,16.48,0,0,1-6.69-1.33,16,16,0,0,1-5.33-3.74,17.31,17.31,0,0,1-3.55-5.65,19.46,19.46,0,0,1-1.26-7.09,18.88,18.88,0,0,1,1.23-6.79,17.31,17.31,0,0,1,3.45-5.62,16.17,16.17,0,0,1,5.26-3.8,15.94,15.94,0,0,1,6.76-1.4,13.6,13.6,0,0,1,10.34,4.35Zm-14.82,16.57a7.72,7.72,0,0,0,2.17,5.46,7.18,7.18,0,0,0,2.41,1.63,7.74,7.74,0,0,0,3,.58,7.58,7.58,0,0,0,3-.58,7,7,0,0,0,2.4-1.63,8.15,8.15,0,0,0,1.63-2.4,7.06,7.06,0,0,0,.62-2.93,7.31,7.31,0,0,0-.62-3,8,8,0,0,0-1.63-2.43,7.19,7.19,0,0,0-2.4-1.63,7.58,7.58,0,0,0-3-.58,7.74,7.74,0,0,0-3,.58,7.33,7.33,0,0,0-2.41,1.63,8,8,0,0,0-1.59,2.37A7.11,7.11,0,0,0,1410.64,540.55Z"/><path class="cls-2" d="M1457.05,503.37V536l12.35-12h16.12l-16.71,15.4,17.68,17.94H1470l-12.93-13.58v13.58h-11.77v-54Z"/><path class="cls-2" d="M457.75,581.37h11.77V606.2a12.87,12.87,0,0,1,4.87-3.93,15.32,15.32,0,0,1,5.79-1q6.3,0,9.52,3.48t3.22,9.39v21.19H481.15V618.49a17.48,17.48,0,0,0-.39-4.1,4.71,4.71,0,0,0-1.3-2.4,5.51,5.51,0,0,0-3.76-1.37,5.83,5.83,0,0,0-4.59,1.79,7.42,7.42,0,0,0-1.59,5.1v17.81H457.75Z"/><path class="cls-2" d="M510.14,602l7.93,17.09L526.13,602h13.13l-17.35,33.34H514L496.88,602Z"/><path class="cls-2" d="M542.51,589.17a6.47,6.47,0,0,1,.52-2.56,6.7,6.7,0,0,1,3.55-3.55,6.59,6.59,0,0,1,5.13,0,6.85,6.85,0,0,1,2.11,1.43,6.56,6.56,0,0,1,1.43,2.12,6.59,6.59,0,0,1,0,5.13,6.76,6.76,0,0,1-3.54,3.54,6.59,6.59,0,0,1-5.13,0,6.56,6.56,0,0,1-2.12-1.43,6.85,6.85,0,0,1-1.43-2.11A6.52,6.52,0,0,1,542.51,589.17ZM555.06,602v33.34H543.29V602Z"/><path class="cls-2" d="M585.22,610.56a13.72,13.72,0,0,0-6.37-1.69,4.85,4.85,0,0,0-2.64.65,2,2,0,0,0-1,1.75,2.24,2.24,0,0,0,.16.94,1.71,1.71,0,0,0,.72.69,5.9,5.9,0,0,0,1.62.58c.72.18,1.66.39,2.83.65a13.52,13.52,0,0,1,7.28,3.48,8.87,8.87,0,0,1,2.4,6.4,11.63,11.63,0,0,1-1.17,5.27,11.14,11.14,0,0,1-3.25,3.93,15.29,15.29,0,0,1-5,2.47,22.19,22.19,0,0,1-6.44.88A26.11,26.11,0,0,1,561,632.72l4.29-8.32q4.93,3.39,9.36,3.38a4.64,4.64,0,0,0,2.66-.71,2.16,2.16,0,0,0,1-1.82,2.94,2.94,0,0,0-.16-1.07,1.78,1.78,0,0,0-.68-.79,5.66,5.66,0,0,0-1.53-.64c-.67-.2-1.55-.4-2.63-.62q-5.46-1.11-7.64-3.28a8.16,8.16,0,0,1-2.18-6,11.92,11.92,0,0,1,1-5,10.53,10.53,0,0,1,3-3.8,13.91,13.91,0,0,1,4.72-2.4,21,21,0,0,1,6.14-.85,27.88,27.88,0,0,1,10.72,2.15Z"/><path class="cls-2" d="M644,581.37h11.83v54H644v-3.7a12.34,12.34,0,0,1-10.2,4.74,16.25,16.25,0,0,1-6.7-1.36,16.61,16.61,0,0,1-5.33-3.77,17.17,17.17,0,0,1-3.54-5.66,19,19,0,0,1-1.27-7,19.26,19.26,0,0,1,1.2-6.79,17.07,17.07,0,0,1,3.42-5.62,16.14,16.14,0,0,1,12.09-5.2A13.58,13.58,0,0,1,644,605.29Zm-14.82,37.18A7.79,7.79,0,0,0,631.4,624a7,7,0,0,0,2.4,1.63,7.79,7.79,0,0,0,3,.58,7.54,7.54,0,0,0,2.95-.58,7.09,7.09,0,0,0,2.41-1.63,8.32,8.32,0,0,0,1.62-2.4,7.06,7.06,0,0,0,.62-2.93,7.31,7.31,0,0,0-.62-3,8.2,8.2,0,0,0-1.62-2.43,7.23,7.23,0,0,0-2.41-1.63,7.82,7.82,0,0,0-5.91,0,7.23,7.23,0,0,0-2.41,1.63,8.45,8.45,0,0,0-1.62,2.37A6.82,6.82,0,0,0,629.22,618.55Z"/><path class="cls-2" d="M675.63,602v18.78q0,6.18,6,6.18t6-6.18V602h11.77V623c0,4.5-1.49,7.89-4.46,10.14s-7.4,3.38-13.29,3.38-10.32-1.13-13.29-3.38-4.45-5.64-4.45-10.14V602Z"/><path class="cls-2" d="M751.55,610.56a13.72,13.72,0,0,0-6.37-1.69,4.81,4.81,0,0,0-2.63.65,2,2,0,0,0-1,1.75,2.24,2.24,0,0,0,.16.94,1.71,1.71,0,0,0,.72.69,6,6,0,0,0,1.62.58c.72.18,1.66.39,2.83.65a13.48,13.48,0,0,1,7.28,3.48,8.87,8.87,0,0,1,2.4,6.4,11.5,11.5,0,0,1-1.17,5.27,11,11,0,0,1-3.25,3.93,15.29,15.29,0,0,1-5,2.47,22.12,22.12,0,0,1-6.43.88,26.14,26.14,0,0,1-13.33-3.84l4.29-8.32q4.94,3.39,9.36,3.38a4.69,4.69,0,0,0,2.67-.71,2.15,2.15,0,0,0,1-1.82,2.94,2.94,0,0,0-.16-1.07,1.72,1.72,0,0,0-.68-.79,5.66,5.66,0,0,0-1.53-.64c-.67-.2-1.55-.4-2.63-.62q-5.46-1.11-7.64-3.28a8.16,8.16,0,0,1-2.18-6,11.78,11.78,0,0,1,1.05-5,10.32,10.32,0,0,1,3-3.8,13.77,13.77,0,0,1,4.71-2.4,21,21,0,0,1,6.14-.85,27.93,27.93,0,0,1,10.73,2.15Z"/><path class="cls-2" d="M773.13,620.63q0,7.61,7.15,7.61a6.38,6.38,0,0,0,5.78-3.12h11.38q-3.45,11.43-17.23,11.44a22.75,22.75,0,0,1-7.73-1.27,17.11,17.11,0,0,1-6-3.61,16,16,0,0,1-3.87-5.59,18.6,18.6,0,0,1-1.37-7.28,20.8,20.8,0,0,1,1.3-7.51,15.87,15.87,0,0,1,3.71-5.68,16.43,16.43,0,0,1,5.82-3.61,22.09,22.09,0,0,1,7.7-1.27,21.59,21.59,0,0,1,7.6,1.27,15.44,15.44,0,0,1,5.72,3.67,16,16,0,0,1,3.58,5.88,23.41,23.41,0,0,1,1.23,7.84v1.23Zm13.78-6.82a7.06,7.06,0,0,0-2.41-4,7.47,7.47,0,0,0-8.87-.06,6.42,6.42,0,0,0-2.17,4Z"/><path class="cls-2" d="M816.35,581.37v54H804.59v-54Z"/><path class="cls-2" d="M834.29,602l7.93,17.09L850.28,602h13.13l-17.35,33.34h-7.87L821,602Z"/><path class="cls-2" d="M889.54,581.37h11.77V606.2a12.79,12.79,0,0,1,4.87-3.93,15.32,15.32,0,0,1,5.79-1q6.3,0,9.52,3.48t3.22,9.39v21.19H912.94V618.49a17.48,17.48,0,0,0-.39-4.1,4.71,4.71,0,0,0-1.3-2.4,5.52,5.52,0,0,0-3.77-1.37,5.82,5.82,0,0,0-4.58,1.79,7.42,7.42,0,0,0-1.59,5.1v17.81H889.54Z"/><path class="cls-2" d="M958.44,602h11.83v33.34H958.44v-3.7a12.34,12.34,0,0,1-10.2,4.74,16.56,16.56,0,0,1-6.7-1.33,16.08,16.08,0,0,1-5.33-3.74,17.12,17.12,0,0,1-3.54-5.65,19.26,19.26,0,0,1-1.27-7.09,18.63,18.63,0,0,1,1.24-6.79,17.46,17.46,0,0,1,3.44-5.62,16.21,16.21,0,0,1,5.27-3.8,15.91,15.91,0,0,1,6.76-1.4,13.58,13.58,0,0,1,10.33,4.35Zm-14.82,16.57A7.79,7.79,0,0,0,945.8,624a7,7,0,0,0,2.4,1.63,7.75,7.75,0,0,0,3,.58,7.54,7.54,0,0,0,2.95-.58,7,7,0,0,0,2.41-1.63,8.32,8.32,0,0,0,1.62-2.4,7.06,7.06,0,0,0,.62-2.93,7.31,7.31,0,0,0-.62-3,8.2,8.2,0,0,0-1.62-2.43,7.13,7.13,0,0,0-2.41-1.63,7.54,7.54,0,0,0-2.95-.58,7.75,7.75,0,0,0-3,.58,7.19,7.19,0,0,0-2.4,1.63,8,8,0,0,0-1.59,2.37A7.11,7.11,0,0,0,943.62,618.55Z"/><path class="cls-2" d="M978.27,602H990v5.46a13.56,13.56,0,0,1,4.62-4.58,12.3,12.3,0,0,1,6.37-1.6h1a7.92,7.92,0,0,1,1.27.13v11.25a11.18,11.18,0,0,0-5.07-1.17q-4.1,0-6.14,2.43T990,621v14.3H978.27Z"/><path class="cls-2" d="M1039.82,602l7.93,17.09,8.06-17.09h13.13l-17.36,33.34h-7.86L1026.56,602Z"/><path class="cls-2" d="M1105.14,620.57a7.58,7.58,0,0,0,2,5.49,7.3,7.3,0,0,0,5.49,2.11q4,0,5.4-3.12h11.44a14.71,14.71,0,0,1-6,8.35,19.52,19.52,0,0,1-11.18,3q-10,0-13.19-6.5a16.85,16.85,0,0,1-13.65,6.3,19.63,19.63,0,0,1-5.59-.75,13.16,13.16,0,0,1-4.36-2.14,9.84,9.84,0,0,1-2.82-3.38,9.59,9.59,0,0,1-1-4.45,10.06,10.06,0,0,1,3.8-8.06,12.4,12.4,0,0,1,4.36-2.18,20.18,20.18,0,0,1,5.68-.75,23.54,23.54,0,0,1,8.58,1.76v-.91q0-6-8-6a34.18,34.18,0,0,0-9.17,1.88v-8.9a35.1,35.1,0,0,1,9.81-1.56,17,17,0,0,1,7.48,1.4,12.63,12.63,0,0,1,4.94,4.51q4.15-5.91,12.74-5.91,8.91,0,13.55,5t4.65,14.72Zm-22,4.09a3.22,3.22,0,0,0,1.43,2.73,6.38,6.38,0,0,0,3.84,1,8,8,0,0,0,4.16-1.07,3.09,3.09,0,0,0,1.82-2.63,3,3,0,0,0-1.85-2.54,8.88,8.88,0,0,0-4.39-1,6.28,6.28,0,0,0-3.64,1A3,3,0,0,0,1083.17,624.66Zm35.88-10.92q-1.56-5.46-6.82-5.46-5,0-6.76,5.46Z"/><path class="cls-2" d="M1136.73,602h11.77v5.46a13.45,13.45,0,0,1,4.61-4.58,12.35,12.35,0,0,1,6.37-1.6h1a7.92,7.92,0,0,1,1.27.13v11.25a11.18,11.18,0,0,0-5.07-1.17q-4.1,0-6.14,2.43t-2,7.12v14.3h-11.77Z"/><path class="cls-2" d="M1178,620.63q0,7.61,7.15,7.61a6.39,6.39,0,0,0,5.78-3.12h11.38q-3.45,11.43-17.23,11.44a22.75,22.75,0,0,1-7.73-1.27,17.24,17.24,0,0,1-6-3.61,16.14,16.14,0,0,1-3.86-5.59,18.6,18.6,0,0,1-1.37-7.28,20.58,20.58,0,0,1,1.3-7.51,15.74,15.74,0,0,1,3.71-5.68,16.43,16.43,0,0,1,5.82-3.61,22.09,22.09,0,0,1,7.7-1.27,21.63,21.63,0,0,1,7.6,1.27,15.44,15.44,0,0,1,5.72,3.67,16.17,16.17,0,0,1,3.58,5.88,23.41,23.41,0,0,1,1.23,7.84v1.23Zm13.78-6.82a7.06,7.06,0,0,0-2.41-4,7.47,7.47,0,0,0-8.87-.06,6.43,6.43,0,0,0-2.18,4Z"/><path class="cls-2" d="M1223.05,611.79v23.53h-11.76V611.79h-3.9V602h3.9V592h11.76v10h6.7v9.81Z"/><path class="cls-2" d="M1268,602v18.78q0,6.18,6,6.18t6-6.18V602h11.76V623c0,4.5-1.48,7.89-4.45,10.14s-7.4,3.38-13.29,3.38-10.32-1.13-13.29-3.38-4.46-5.64-4.46-10.14V602Z"/><path class="cls-2" d="M1325.49,581.37h11.83v54h-11.83v-3.7a12.37,12.37,0,0,1-10.21,4.74,16.2,16.2,0,0,1-6.69-1.36,16.61,16.61,0,0,1-5.33-3.77,17.17,17.17,0,0,1-3.54-5.66,19,19,0,0,1-1.27-7,19.26,19.26,0,0,1,1.2-6.79,17,17,0,0,1,3.41-5.62,16.19,16.19,0,0,1,12.09-5.2,13.6,13.6,0,0,1,10.34,4.35Zm-14.82,37.18a7.79,7.79,0,0,0,.58,3,7.61,7.61,0,0,0,1.6,2.43,7,7,0,0,0,2.4,1.63,7.74,7.74,0,0,0,3,.58,7.58,7.58,0,0,0,3-.58,7.18,7.18,0,0,0,2.41-1.63,8.32,8.32,0,0,0,1.62-2.4,7.06,7.06,0,0,0,.62-2.93,7.31,7.31,0,0,0-.62-3,8.2,8.2,0,0,0-1.62-2.43,7.33,7.33,0,0,0-2.41-1.63,7.82,7.82,0,0,0-5.91,0,7.13,7.13,0,0,0-2.41,1.63,8.45,8.45,0,0,0-1.62,2.37A6.67,6.67,0,0,0,1310.67,618.55Z"/><path class="cls-2" d="M1367.41,610.56a13.69,13.69,0,0,0-6.37-1.69,4.81,4.81,0,0,0-2.63.65,2,2,0,0,0-1,1.75,2.22,2.22,0,0,0,.17.94,1.62,1.62,0,0,0,.71.69,6,6,0,0,0,1.63.58c.71.18,1.65.39,2.82.65a13.48,13.48,0,0,1,7.28,3.48,8.83,8.83,0,0,1,2.41,6.4,11.63,11.63,0,0,1-1.17,5.27,11.25,11.25,0,0,1-3.25,3.93,15.44,15.44,0,0,1-5,2.47,22.12,22.12,0,0,1-6.43.88,26.14,26.14,0,0,1-13.33-3.84l4.29-8.32q4.95,3.39,9.36,3.38a4.67,4.67,0,0,0,2.67-.71,2.16,2.16,0,0,0,1-1.82,3.18,3.18,0,0,0-.16-1.07,1.74,1.74,0,0,0-.69-.79,5.43,5.43,0,0,0-1.52-.64c-.68-.2-1.55-.4-2.64-.62q-5.46-1.11-7.63-3.28a8.12,8.12,0,0,1-2.18-6,11.77,11.77,0,0,1,1-5,10.43,10.43,0,0,1,3-3.8,14,14,0,0,1,4.71-2.4,21,21,0,0,1,6.14-.85,27.89,27.89,0,0,1,10.73,2.15Z"/><path class="cls-2" d="M1404.14,602H1416v33.34h-11.83v-3.7a12.37,12.37,0,0,1-10.21,4.74,16.48,16.48,0,0,1-6.69-1.33,16,16,0,0,1-5.33-3.74,17.31,17.31,0,0,1-3.55-5.65,19.46,19.46,0,0,1-1.26-7.09,18.84,18.84,0,0,1,1.23-6.79,17.48,17.48,0,0,1,3.45-5.62,16.17,16.17,0,0,1,5.26-3.8,15.94,15.94,0,0,1,6.76-1.4,13.6,13.6,0,0,1,10.34,4.35Zm-14.82,16.57a7.79,7.79,0,0,0,.58,3,7.61,7.61,0,0,0,1.6,2.43,7,7,0,0,0,2.4,1.63,7.74,7.74,0,0,0,3,.58,7.58,7.58,0,0,0,3-.58,7.18,7.18,0,0,0,2.41-1.63,8.32,8.32,0,0,0,1.62-2.4,7.06,7.06,0,0,0,.62-2.93,7.31,7.31,0,0,0-.62-3,8.2,8.2,0,0,0-1.62-2.43,7.33,7.33,0,0,0-2.41-1.63,7.58,7.58,0,0,0-3-.58,7.74,7.74,0,0,0-3,.58,7.19,7.19,0,0,0-2.4,1.63,7.8,7.8,0,0,0-1.6,2.37A7.11,7.11,0,0,0,1389.32,618.55Z"/><path class="cls-2" d="M1437.09,611.79v23.53h-11.76V611.79h-3.9V602h3.9V592h11.76v10h6.7v9.81Z"/><path class="cls-2" d="M1447.62,629.08a7.63,7.63,0,0,1,.59-3,7.5,7.5,0,0,1,1.62-2.43,7.41,7.41,0,0,1,2.44-1.63,7.82,7.82,0,0,1,5.91,0,7.41,7.41,0,0,1,2.44,1.63,7.53,7.53,0,0,1,1.63,2.43,7.67,7.67,0,0,1-1.63,8.36,7.61,7.61,0,0,1-13-5.4Z"/></g></svg>
