<svg xmlns="http://www.w3.org/2000/svg" width="1920" height="1080" viewBox="0 0 1920 1080"><defs><style>.cls-1{fill:#c1272d;}.cls-2{fill:#fff;}</style></defs><title>kons_del_4</title><g id="Layer_5" data-name="Layer 5"><rect class="cls-1" x="374.5" y="228" width="1171" height="624" rx="76.14"/><path class="cls-2" d="M880.64,479.32v-49h12.74l23.53,30v-30h12.67v49H916.91l-23.53-30v30Z"/><path class="cls-2" d="M950.12,464.63q0,7.61,7.15,7.61a6.39,6.39,0,0,0,5.79-3.12h11.37q-3.45,11.44-17.22,11.44a22.52,22.52,0,0,1-7.74-1.27,17.2,17.2,0,0,1-6-3.61,16,16,0,0,1-3.87-5.59,18.6,18.6,0,0,1-1.36-7.28,20.49,20.49,0,0,1,1.3-7.5,15.67,15.67,0,0,1,3.7-5.69,16.43,16.43,0,0,1,5.82-3.61,22.09,22.09,0,0,1,7.7-1.27,21.69,21.69,0,0,1,7.61,1.27,15.52,15.52,0,0,1,5.72,3.67,16,16,0,0,1,3.57,5.89,23.35,23.35,0,0,1,1.24,7.83v1.23Zm13.78-6.82a7.1,7.1,0,0,0-2.4-4,7.48,7.48,0,0,0-8.88-.06,6.44,6.44,0,0,0-2.17,4Z"/><path class="cls-2" d="M980.8,433.17a6.3,6.3,0,0,1,.52-2.56,6.72,6.72,0,0,1,1.43-2.12,7,7,0,0,1,2.11-1.43,6.61,6.61,0,0,1,5.14,0,7,7,0,0,1,2.11,1.43,6.72,6.72,0,0,1,1.43,2.12,6.59,6.59,0,0,1,0,5.13,6.76,6.76,0,0,1-3.54,3.54,6.61,6.61,0,0,1-5.14,0,6.76,6.76,0,0,1-3.54-3.54A6.35,6.35,0,0,1,980.8,433.17ZM993.34,446v50H981.58V446Z"/><path class="cls-2" d="M1002.25,473.08a7.62,7.62,0,0,1,13-5.39,7.62,7.62,0,0,1,1.63,2.44,7.66,7.66,0,0,1-1.63,8.35,7.69,7.69,0,0,1-8.35,1.62,7.44,7.44,0,0,1-2.44-1.62,7.57,7.57,0,0,1-2.21-5.4Zm1.49-10.4V430.31H1016v32.37Z"/><path class="cls-2" d="M478.91,527.23h18.4V508.31h12.74v49H497.31V537.11h-18.4v20.21H466.17v-49h12.74Z"/><path class="cls-2" d="M531,524v18.78q0,6.18,6,6.18t6-6.18V524H554.7V545c0,4.5-1.48,7.89-4.45,10.14s-7.4,3.38-13.29,3.38-10.33-1.13-13.3-3.38-4.45-5.64-4.45-10.14V524Z"/><path class="cls-2" d="M584.8,532.56a13.72,13.72,0,0,0-6.37-1.69,4.74,4.74,0,0,0-2.64.65,2,2,0,0,0-1,1.75,2.32,2.32,0,0,0,.16,1,1.73,1.73,0,0,0,.71.68,6,6,0,0,0,1.63.58c.71.18,1.66.39,2.83.65a13.52,13.52,0,0,1,7.28,3.48,8.87,8.87,0,0,1,2.4,6.4,11.63,11.63,0,0,1-1.17,5.27,11.14,11.14,0,0,1-3.25,3.93,15.39,15.39,0,0,1-5,2.47,22.19,22.19,0,0,1-6.44.88,26.08,26.08,0,0,1-13.32-3.84l4.29-8.32q4.94,3.39,9.36,3.38a4.64,4.64,0,0,0,2.66-.71,2.15,2.15,0,0,0,1-1.82,3,3,0,0,0-.16-1.07,1.71,1.71,0,0,0-.68-.78,5.33,5.33,0,0,0-1.53-.65c-.67-.2-1.55-.4-2.63-.62q-5.46-1.11-7.64-3.28a8.16,8.16,0,0,1-2.18-6,11.84,11.84,0,0,1,1-5,10.38,10.38,0,0,1,3-3.81,14,14,0,0,1,4.71-2.4,20.73,20.73,0,0,1,6.15-.85,27.88,27.88,0,0,1,10.72,2.15Z"/><path class="cls-2" d="M607.54,503.37V536l12.35-12H636l-16.71,15.4L637,557.32H620.48l-12.94-13.58v13.58H595.78v-54Z"/><path class="cls-2" d="M689,524h11.83v33.34H689v-3.7a12.35,12.35,0,0,1-10.2,4.74,16.56,16.56,0,0,1-6.7-1.33,16.08,16.08,0,0,1-5.33-3.74,17,17,0,0,1-3.54-5.65,19.26,19.26,0,0,1-1.27-7.09,18.88,18.88,0,0,1,1.23-6.79,17.66,17.66,0,0,1,3.45-5.62,16.28,16.28,0,0,1,5.26-3.8,15.94,15.94,0,0,1,6.76-1.4A13.6,13.6,0,0,1,689,527.29Zm-14.82,16.57a8,8,0,0,0,.58,3,7.61,7.61,0,0,0,1.6,2.43,7,7,0,0,0,2.4,1.63,7.75,7.75,0,0,0,3,.58,7.57,7.57,0,0,0,3-.58,7.18,7.18,0,0,0,2.41-1.63,8.32,8.32,0,0,0,1.62-2.4,7.06,7.06,0,0,0,.62-2.93,7.23,7.23,0,0,0-.62-2.95,8.12,8.12,0,0,0-1.62-2.44,7.33,7.33,0,0,0-2.41-1.63,7.57,7.57,0,0,0-3-.58,7.75,7.75,0,0,0-3,.58,7.19,7.19,0,0,0-2.4,1.63,7.8,7.8,0,0,0-1.6,2.37A7.28,7.28,0,0,0,674.17,540.55Z"/><path class="cls-2" d="M720.58,503.37v54H708.81v-54Z"/><path class="cls-2" d="M741.77,533.79v23.53H730V533.79h-3.9V524H730V514h11.77v10h6.69v9.81Z"/><path class="cls-2" d="M753,511.17a6.47,6.47,0,0,1,.52-2.56,6.89,6.89,0,0,1,1.43-2.12,7,7,0,0,1,2.11-1.43,6.61,6.61,0,0,1,5.14,0,7,7,0,0,1,2.11,1.43,6.72,6.72,0,0,1,1.43,2.12,6.59,6.59,0,0,1,0,5.13,6.76,6.76,0,0,1-3.54,3.54,6.61,6.61,0,0,1-5.14,0,6.62,6.62,0,0,1-2.11-1.43,6.85,6.85,0,0,1-1.43-2.11A6.52,6.52,0,0,1,753,511.17ZM765.56,524v33.34H753.79V524Z"/><path class="cls-2" d="M799.36,503.37h11.83v54H799.36v-3.7a12.37,12.37,0,0,1-10.21,4.74,16.17,16.17,0,0,1-6.69-1.36,16.5,16.5,0,0,1-5.33-3.77,17.36,17.36,0,0,1-3.55-5.66,20,20,0,0,1-.06-13.81,17,17,0,0,1,3.41-5.62,16.19,16.19,0,0,1,12.09-5.2,13.6,13.6,0,0,1,10.34,4.35Zm-14.82,37.18a7.72,7.72,0,0,0,2.17,5.46,7.18,7.18,0,0,0,2.41,1.63,7.74,7.74,0,0,0,3,.58,7.58,7.58,0,0,0,3-.58,7,7,0,0,0,2.4-1.63,8.15,8.15,0,0,0,1.63-2.4,7.06,7.06,0,0,0,.62-2.93,7.23,7.23,0,0,0-.62-2.95,8,8,0,0,0-1.63-2.44,7.19,7.19,0,0,0-2.4-1.63,7.84,7.84,0,0,0-5.92,0,7.19,7.19,0,0,0-2.4,1.63,8.7,8.7,0,0,0-1.63,2.37A6.81,6.81,0,0,0,784.54,540.55Z"/><path class="cls-2" d="M867,524h11.83v33.34H867v-3.7a12.34,12.34,0,0,1-10.2,4.74,16.56,16.56,0,0,1-6.7-1.33,16.08,16.08,0,0,1-5.33-3.74,17,17,0,0,1-3.54-5.65,19.26,19.26,0,0,1-1.27-7.09,18.67,18.67,0,0,1,1.24-6.79,17.46,17.46,0,0,1,3.44-5.62,16.21,16.21,0,0,1,5.27-3.8,15.91,15.91,0,0,1,6.76-1.4A13.58,13.58,0,0,1,867,527.29ZM852.2,540.55a7.79,7.79,0,0,0,2.18,5.46,7,7,0,0,0,2.4,1.63,7.75,7.75,0,0,0,3,.58,7.54,7.54,0,0,0,3-.58,7,7,0,0,0,2.41-1.63,8.32,8.32,0,0,0,1.62-2.4,6.91,6.91,0,0,0,.62-2.93,7.07,7.07,0,0,0-.62-2.95,8.12,8.12,0,0,0-1.62-2.44,7.13,7.13,0,0,0-2.41-1.63,7.54,7.54,0,0,0-3-.58,7.75,7.75,0,0,0-3,.58,7.19,7.19,0,0,0-2.4,1.63,8,8,0,0,0-1.59,2.37A7.11,7.11,0,0,0,852.2,540.55Z"/><path class="cls-2" d="M900,533.79v23.53H888.21V533.79h-3.9V524h3.9V514H900v10h6.7v9.81Z"/><path class="cls-2" d="M945.93,533.79v23.53H934.16V533.79h-4.22V524h4.22v-5a22.75,22.75,0,0,1,.78-6.63,12,12,0,0,1,2.08-3.86,14.92,14.92,0,0,1,3.35-3.09,16.32,16.32,0,0,1,4.13-2,14.24,14.24,0,0,1,4.35-.71,11.51,11.51,0,0,1,2.77.32,16.05,16.05,0,0,1,2.56.91v10.27a12.58,12.58,0,0,0-2.17-.87,7.44,7.44,0,0,0-2.12-.3,5.1,5.1,0,0,0-1.46.23,3.21,3.21,0,0,0-1.4.94,4,4,0,0,0-.87,2.05,21.52,21.52,0,0,0-.23,3.61V524h8.25v9.81Z"/><path class="cls-2" d="M985.06,524h11.83v33.34H985.06v-3.7a12.37,12.37,0,0,1-10.21,4.74,16.51,16.51,0,0,1-6.69-1.33,16,16,0,0,1-5.33-3.74,17,17,0,0,1-3.54-5.65,19.26,19.26,0,0,1-1.27-7.09,18.88,18.88,0,0,1,1.23-6.79,17.48,17.48,0,0,1,3.45-5.62,16.28,16.28,0,0,1,5.26-3.8,15.94,15.94,0,0,1,6.76-1.4,13.6,13.6,0,0,1,10.34,4.35Zm-16.64-12.81a6.51,6.51,0,0,1,2.7-5.52,12.18,12.18,0,0,1,7.44-2c3.25,0,5.74.69,7.47,2.05a7.24,7.24,0,0,1,0,11.12q-2.6,2-7.47,2t-7.48-2A6.68,6.68,0,0,1,968.42,511.17Zm1.82,29.38a7.79,7.79,0,0,0,.58,3,7.61,7.61,0,0,0,1.6,2.43,7,7,0,0,0,2.4,1.63,7.74,7.74,0,0,0,3,.58,7.58,7.58,0,0,0,3-.58,7.18,7.18,0,0,0,2.41-1.63,8.32,8.32,0,0,0,1.62-2.4,7.06,7.06,0,0,0,.62-2.93,7.23,7.23,0,0,0-.62-2.95,8.12,8.12,0,0,0-1.62-2.44,7.33,7.33,0,0,0-2.41-1.63,7.58,7.58,0,0,0-3-.58,7.74,7.74,0,0,0-3,.58,7.19,7.19,0,0,0-2.4,1.63,7.8,7.8,0,0,0-1.6,2.37A7.11,7.11,0,0,0,970.24,540.55Zm4.42-29.38c0,2,1.28,3,3.83,3s4-1,4-2.92-1.33-2.93-4-2.93a4.53,4.53,0,0,0-2.79.78A2.46,2.46,0,0,0,974.66,511.17Z"/><path class="cls-2" d="M1040.11,533.79v23.53h-11.76V533.79h-3.9V524h3.9V514h11.76v10h6.7v9.81Z"/><path class="cls-2" d="M1051.36,511.17a6.3,6.3,0,0,1,.52-2.56,6.69,6.69,0,0,1,1.42-2.12,7,7,0,0,1,2.12-1.43,6.59,6.59,0,0,1,5.13,0,7,7,0,0,1,2.12,1.43,6.89,6.89,0,0,1,1.43,2.12,6.59,6.59,0,0,1,0,5.13,6.85,6.85,0,0,1-1.43,2.11,6.67,6.67,0,0,1-2.12,1.43,6.59,6.59,0,0,1-5.13,0,6.67,6.67,0,0,1-3.54-3.54A6.35,6.35,0,0,1,1051.36,511.17ZM1063.9,524v33.34h-11.77V524Z"/><path class="cls-2" d="M1083.72,503.37v54H1072v-54Z"/><path class="cls-2" d="M1103.55,503.37v54h-11.77v-54Z"/><path class="cls-2" d="M1137.35,524h11.83v33.34h-11.83v-3.7a12.37,12.37,0,0,1-10.21,4.74,16.51,16.51,0,0,1-6.69-1.33,16,16,0,0,1-5.33-3.74,17,17,0,0,1-3.54-5.65,19.26,19.26,0,0,1-1.27-7.09,18.88,18.88,0,0,1,1.23-6.79,17.66,17.66,0,0,1,3.45-5.62,16.28,16.28,0,0,1,5.26-3.8,15.94,15.94,0,0,1,6.76-1.4,13.6,13.6,0,0,1,10.34,4.35Zm-14.82,16.57a7.79,7.79,0,0,0,.58,3,7.61,7.61,0,0,0,1.6,2.43,7,7,0,0,0,2.4,1.63,7.74,7.74,0,0,0,3,.58,7.58,7.58,0,0,0,3-.58,7.18,7.18,0,0,0,2.41-1.63,8.32,8.32,0,0,0,1.62-2.4,7.06,7.06,0,0,0,.62-2.93,7.23,7.23,0,0,0-.62-2.95,8.12,8.12,0,0,0-1.62-2.44,7.33,7.33,0,0,0-2.41-1.63,7.58,7.58,0,0,0-3-.58,7.74,7.74,0,0,0-3,.58,7.19,7.19,0,0,0-2.4,1.63,7.8,7.8,0,0,0-1.6,2.37A7.11,7.11,0,0,0,1122.53,540.55Z"/><path class="cls-2" d="M1182.91,503.37h11.83v54h-11.83v-3.7a12.34,12.34,0,0,1-10.2,4.74A16.25,16.25,0,0,1,1166,557a16.72,16.72,0,0,1-5.33-3.77,17.5,17.5,0,0,1-3.54-5.66,19.85,19.85,0,0,1-.06-13.81,16.88,16.88,0,0,1,3.41-5.62,16.19,16.19,0,0,1,12.09-5.2,13.58,13.58,0,0,1,10.33,4.35Zm-14.82,37.18a7.79,7.79,0,0,0,2.18,5.46,7,7,0,0,0,2.41,1.63,7.7,7.7,0,0,0,3,.58,7.62,7.62,0,0,0,3-.58,7,7,0,0,0,2.4-1.63,8.55,8.55,0,0,0,1.63-2.4,7.06,7.06,0,0,0,.61-2.93,7.22,7.22,0,0,0-.61-2.95,8.34,8.34,0,0,0-1.63-2.44,7.19,7.19,0,0,0-2.4-1.63,7.84,7.84,0,0,0-5.92,0,7.19,7.19,0,0,0-2.4,1.63,8.28,8.28,0,0,0-1.63,2.37A6.82,6.82,0,0,0,1168.09,540.55Z"/><path class="cls-2" d="M1213.33,542.63q0,7.61,7.15,7.61a6.39,6.39,0,0,0,5.79-3.12h11.37q-3.45,11.45-17.22,11.44a22.52,22.52,0,0,1-7.74-1.27,17.2,17.2,0,0,1-6-3.61,16,16,0,0,1-3.87-5.59,18.6,18.6,0,0,1-1.36-7.28,20.49,20.49,0,0,1,1.3-7.5,15.67,15.67,0,0,1,3.7-5.69,16.43,16.43,0,0,1,5.82-3.61,22.13,22.13,0,0,1,7.7-1.27,21.69,21.69,0,0,1,7.61,1.27,15.52,15.52,0,0,1,5.72,3.67,16,16,0,0,1,3.57,5.89,23.35,23.35,0,0,1,1.24,7.83v1.23Zm13.78-6.82a7.1,7.1,0,0,0-2.4-4,7.48,7.48,0,0,0-8.88-.06,6.49,6.49,0,0,0-2.17,4Z"/><path class="cls-2" d="M1256.56,503.37v54h-11.77v-54Z"/><path class="cls-2" d="M1286.72,532.56a13.72,13.72,0,0,0-6.37-1.69,4.74,4.74,0,0,0-2.64.65,2,2,0,0,0-1,1.75,2.32,2.32,0,0,0,.16,1,1.73,1.73,0,0,0,.71.68,6,6,0,0,0,1.63.58c.71.18,1.66.39,2.83.65a13.52,13.52,0,0,1,7.28,3.48,8.87,8.87,0,0,1,2.4,6.4,11.63,11.63,0,0,1-1.17,5.27,11.14,11.14,0,0,1-3.25,3.93,15.39,15.39,0,0,1-5,2.47,22.19,22.19,0,0,1-6.44.88,26.08,26.08,0,0,1-13.32-3.84l4.29-8.32q4.93,3.39,9.36,3.38a4.64,4.64,0,0,0,2.66-.71,2.15,2.15,0,0,0,1-1.82,3,3,0,0,0-.16-1.07,1.71,1.71,0,0,0-.68-.78,5.33,5.33,0,0,0-1.53-.65c-.67-.2-1.55-.4-2.63-.62q-5.46-1.11-7.64-3.28a8.16,8.16,0,0,1-2.18-6,11.84,11.84,0,0,1,1-5,10.38,10.38,0,0,1,3-3.81,14,14,0,0,1,4.71-2.4,20.73,20.73,0,0,1,6.15-.85,27.88,27.88,0,0,1,10.72,2.15Z"/><path class="cls-2" d="M1308.29,542.63q0,7.61,7.16,7.61a6.39,6.39,0,0,0,5.78-3.12h11.37q-3.43,11.45-17.22,11.44a22.56,22.56,0,0,1-7.74-1.27,17.2,17.2,0,0,1-6-3.61,16,16,0,0,1-3.87-5.59,18.6,18.6,0,0,1-1.36-7.28,20.49,20.49,0,0,1,1.3-7.5,15.7,15.7,0,0,1,3.71-5.69,16.47,16.47,0,0,1,5.81-3.61,22.13,22.13,0,0,1,7.7-1.27,21.65,21.65,0,0,1,7.61,1.27,15.52,15.52,0,0,1,5.72,3.67,16.13,16.13,0,0,1,3.58,5.89,23.35,23.35,0,0,1,1.23,7.83v1.23Zm13.79-6.82a7.17,7.17,0,0,0-2.41-4,7.47,7.47,0,0,0-8.87-.06,6.45,6.45,0,0,0-2.18,4Z"/><path class="cls-2" d="M1374.59,533.79v23.53h-11.76V533.79h-4.23V524h4.23v-5a22.75,22.75,0,0,1,.78-6.63,11.8,11.8,0,0,1,2.08-3.86,14.71,14.71,0,0,1,3.35-3.09,16.1,16.1,0,0,1,4.12-2,14.35,14.35,0,0,1,4.36-.71,11.36,11.36,0,0,1,2.76.32,16.16,16.16,0,0,1,2.57.91v10.27a12.65,12.65,0,0,0-2.18-.87,7.32,7.32,0,0,0-2.11-.3,5,5,0,0,0-1.46.23,3.16,3.16,0,0,0-1.4.94,4,4,0,0,0-.88,2.05,22.64,22.64,0,0,0-.23,3.61V524h8.26v9.81Z"/><path class="cls-2" d="M1384.21,554.66l4.94-3.77a18.71,18.71,0,0,1-3.18-10.4,17.49,17.49,0,0,1,1.33-6.79,16.23,16.23,0,0,1,3.93-5.66,19.26,19.26,0,0,1,6.41-3.87,24.55,24.55,0,0,1,8.67-1.43,23.42,23.42,0,0,1,12.81,3.77l5.52-4.35,3.45,4.35-4.94,4.23A16.58,16.58,0,0,1,1426,540a20.42,20.42,0,0,1-1.37,7.64,16.22,16.22,0,0,1-4,5.85,18.07,18.07,0,0,1-6.37,3.77,25.93,25.93,0,0,1-8.58,1.33q-8,0-12.61-3.84l-5.46,4.16Zm26.13-20.35a8.4,8.4,0,0,0-2-1,6.52,6.52,0,0,0-2-.32,8.36,8.36,0,0,0-5.65,2.18,7.64,7.64,0,0,0-1.76,2.37,6.92,6.92,0,0,0-.65,3,9.68,9.68,0,0,0,.72,3.18ZM1402,547a6.47,6.47,0,0,0,3.9,1.23,7.67,7.67,0,0,0,3.06-.61,8.49,8.49,0,0,0,2.47-1.63,7.84,7.84,0,0,0,1.66-2.37,7.06,7.06,0,0,0,.61-2.93,7.93,7.93,0,0,0-.58-2.73Z"/><path class="cls-2" d="M1432.77,524h11.76v5.46a13.56,13.56,0,0,1,4.62-4.58,12.33,12.33,0,0,1,6.37-1.6h1a7.81,7.81,0,0,1,1.26.13v11.25a11.18,11.18,0,0,0-5.07-1.17c-2.73,0-4.77.81-6.14,2.44s-2,4-2,7.11v14.3h-11.76Z"/><path class="cls-2" d="M660.45,581.37h11.83v54H660.45v-3.7a12.34,12.34,0,0,1-10.2,4.74,16.25,16.25,0,0,1-6.7-1.36,16.72,16.72,0,0,1-5.33-3.77,17.4,17.4,0,0,1-3.54-5.66,19.85,19.85,0,0,1-.06-13.81,16.88,16.88,0,0,1,3.41-5.62,16.19,16.19,0,0,1,12.09-5.2,13.58,13.58,0,0,1,10.33,4.35Zm-14.82,37.18a7.79,7.79,0,0,0,2.18,5.46,7,7,0,0,0,2.41,1.63,7.7,7.7,0,0,0,3,.58,7.62,7.62,0,0,0,3-.58,7,7,0,0,0,2.4-1.63,8.55,8.55,0,0,0,1.63-2.4,7.06,7.06,0,0,0,.61-2.93,7.22,7.22,0,0,0-.61-2.95,8.34,8.34,0,0,0-1.63-2.44,7.19,7.19,0,0,0-2.4-1.63,7.84,7.84,0,0,0-5.92,0,7.19,7.19,0,0,0-2.4,1.63,8.28,8.28,0,0,0-1.63,2.37A6.82,6.82,0,0,0,645.63,618.55Z"/><path class="cls-2" d="M692,602v18.78q0,6.18,6,6.18t6-6.18V602h11.77V623q0,6.76-4.45,10.14T698,636.56q-8.84,0-13.29-3.38T680.28,623V602Z"/><path class="cls-2" d="M771.6,581.37h11.83v54H771.6v-3.7a12.34,12.34,0,0,1-10.2,4.74,16.25,16.25,0,0,1-6.7-1.36,16.61,16.61,0,0,1-5.33-3.77,17.07,17.07,0,0,1-3.54-5.66,19,19,0,0,1-1.27-7,19.3,19.3,0,0,1,1.2-6.79,17.07,17.07,0,0,1,3.42-5.62,16.14,16.14,0,0,1,12.09-5.2,13.58,13.58,0,0,1,10.33,4.35Zm-14.82,37.18A7.79,7.79,0,0,0,759,624a7,7,0,0,0,2.41,1.63,7.7,7.7,0,0,0,3,.58,7.54,7.54,0,0,0,3-.58,7,7,0,0,0,2.41-1.63,8.55,8.55,0,0,0,1.63-2.4,7.06,7.06,0,0,0,.61-2.93,7.22,7.22,0,0,0-.61-2.95,8.34,8.34,0,0,0-1.63-2.44,7.13,7.13,0,0,0-2.41-1.63,7.82,7.82,0,0,0-5.91,0,7.33,7.33,0,0,0-2.41,1.63,8.45,8.45,0,0,0-1.62,2.37A6.82,6.82,0,0,0,756.78,618.55Z"/><path class="cls-2" d="M802,620.63q0,7.61,7.15,7.61a6.39,6.39,0,0,0,5.79-3.12h11.37q-3.45,11.45-17.22,11.44a22.52,22.52,0,0,1-7.74-1.27,17.2,17.2,0,0,1-6-3.61,16,16,0,0,1-3.87-5.59,18.6,18.6,0,0,1-1.36-7.28,20.49,20.49,0,0,1,1.3-7.5,15.67,15.67,0,0,1,3.7-5.69A16.43,16.43,0,0,1,801,602a22.09,22.09,0,0,1,7.7-1.27,21.69,21.69,0,0,1,7.61,1.27,15.52,15.52,0,0,1,5.72,3.67,16,16,0,0,1,3.57,5.89,23.35,23.35,0,0,1,1.24,7.83v1.23Zm13.78-6.82a7.1,7.1,0,0,0-2.4-4,7.48,7.48,0,0,0-8.88-.06,6.49,6.49,0,0,0-2.17,4Z"/><path class="cls-2" d="M845.25,581.37v54H833.48v-54Z"/><path class="cls-2" d="M863.9,620.63q0,7.61,7.15,7.61a6.36,6.36,0,0,0,5.78-3.12h11.38q-3.45,11.45-17.23,11.44a22.51,22.51,0,0,1-7.73-1.27,17.2,17.2,0,0,1-6-3.61,16,16,0,0,1-3.87-5.59,18.6,18.6,0,0,1-1.37-7.28,20.7,20.7,0,0,1,1.3-7.5,15.83,15.83,0,0,1,3.71-5.69,16.43,16.43,0,0,1,5.82-3.61,22.09,22.09,0,0,1,7.7-1.27,21.59,21.59,0,0,1,7.6,1.27,15.56,15.56,0,0,1,5.73,3.67,16,16,0,0,1,3.57,5.89,23.35,23.35,0,0,1,1.24,7.83v1.23Zm13.78-6.82a7.1,7.1,0,0,0-2.4-4,7.48,7.48,0,0,0-8.88-.06,6.5,6.5,0,0,0-2.18,4Z"/><path class="cls-2" d="M895.36,602h11.76v5.46a13.56,13.56,0,0,1,4.62-4.58,12.33,12.33,0,0,1,6.37-1.6h1a7.81,7.81,0,0,1,1.26.13v11.25a11.18,11.18,0,0,0-5.07-1.17c-2.73,0-4.77.81-6.14,2.44s-2,4-2,7.11v14.3H895.36Z"/><path class="cls-2" d="M958.28,620.63q0,7.61,7.15,7.61a6.38,6.38,0,0,0,5.78-3.12h11.38q-3.45,11.45-17.23,11.44a22.51,22.51,0,0,1-7.73-1.27,17.11,17.11,0,0,1-6-3.61,16,16,0,0,1-3.87-5.59,18.6,18.6,0,0,1-1.37-7.28,20.7,20.7,0,0,1,1.3-7.5,15.83,15.83,0,0,1,3.71-5.69,16.43,16.43,0,0,1,5.82-3.61,22.09,22.09,0,0,1,7.7-1.27,21.63,21.63,0,0,1,7.6,1.27,15.44,15.44,0,0,1,5.72,3.67,16,16,0,0,1,3.58,5.89A23.35,23.35,0,0,1,983,619.4v1.23Zm13.78-6.82a7.06,7.06,0,0,0-2.41-4,7.47,7.47,0,0,0-8.87-.06,6.5,6.5,0,0,0-2.18,4Z"/><path class="cls-2" d="M1003.32,611.79v23.53H991.56V611.79h-3.9V602h3.9V592h11.76v10h6.7v9.81Z"/><path class="cls-2" d="M1048.3,581.37v23.92a13.79,13.79,0,0,1,10.4-4.35,16.15,16.15,0,0,1,6.79,1.4,15.86,15.86,0,0,1,5.27,3.77,17.27,17.27,0,0,1,3.41,5.59,19.62,19.62,0,0,1,0,13.81,17.35,17.35,0,0,1-3.54,5.65,17,17,0,0,1-5.37,3.81,16,16,0,0,1-6.66,1.39,12.42,12.42,0,0,1-10.27-4.74v3.7h-11.76v-54Zm14.82,37.38a7.58,7.58,0,0,0-.58-3,7.68,7.68,0,0,0-1.63-2.44,8,8,0,0,0-2.4-1.65,7.05,7.05,0,0,0-3-.62,7.37,7.37,0,0,0-2.93.58,7.27,7.27,0,0,0-2.37,1.63,8.15,8.15,0,0,0-1.63,2.44,7.22,7.22,0,0,0-.61,2.95,7.37,7.37,0,0,0,.58,2.93,7.12,7.12,0,0,0,1.63,2.37,8.42,8.42,0,0,0,2.43,1.63,7.26,7.26,0,0,0,3,.61,7.37,7.37,0,0,0,2.93-.58,7.12,7.12,0,0,0,2.37-1.63,8.32,8.32,0,0,0,1.62-2.4A6.88,6.88,0,0,0,1063.12,618.75Z"/><path class="cls-2" d="M1081.32,589.17a6.3,6.3,0,0,1,.52-2.56,6.72,6.72,0,0,1,1.43-2.12,7,7,0,0,1,2.11-1.43,6.61,6.61,0,0,1,5.14,0,7,7,0,0,1,2.11,1.43,6.72,6.72,0,0,1,1.43,2.12,6.59,6.59,0,0,1,0,5.13,6.76,6.76,0,0,1-3.54,3.54,6.61,6.61,0,0,1-5.14,0,6.76,6.76,0,0,1-3.54-3.54A6.35,6.35,0,0,1,1081.32,589.17ZM1093.87,602v33.34H1082.1V602Z"/><path class="cls-2" d="M1113.69,581.37v54h-11.77v-54Z"/><path class="cls-2" d="M1133.51,581.37v54h-11.76v-54Z"/><path class="cls-2" d="M1152.17,620.63q0,7.61,7.15,7.61a6.38,6.38,0,0,0,5.78-3.12h11.38q-3.45,11.45-17.23,11.44a22.51,22.51,0,0,1-7.73-1.27,17.11,17.11,0,0,1-6-3.61,16,16,0,0,1-3.87-5.59,18.6,18.6,0,0,1-1.37-7.28,20.7,20.7,0,0,1,1.3-7.5,15.83,15.83,0,0,1,3.71-5.69,16.43,16.43,0,0,1,5.82-3.61,22.09,22.09,0,0,1,7.7-1.27,21.59,21.59,0,0,1,7.6,1.27,15.44,15.44,0,0,1,5.72,3.67,16,16,0,0,1,3.58,5.89,23.35,23.35,0,0,1,1.23,7.83v1.23Zm13.78-6.82a7.06,7.06,0,0,0-2.41-4,7.47,7.47,0,0,0-8.87-.06,6.5,6.5,0,0,0-2.18,4Z"/><path class="cls-2" d="M1209.37,581.37h11.83v54h-11.83v-3.7a12.37,12.37,0,0,1-10.21,4.74,16.2,16.2,0,0,1-6.69-1.36,16.5,16.5,0,0,1-5.33-3.77,17.07,17.07,0,0,1-3.54-5.66,19,19,0,0,1-1.27-7,19.3,19.3,0,0,1,1.2-6.79,17,17,0,0,1,3.41-5.62,16.19,16.19,0,0,1,12.09-5.2,13.6,13.6,0,0,1,10.34,4.35Zm-14.82,37.18a7.79,7.79,0,0,0,.58,3,7.61,7.61,0,0,0,1.6,2.43,7,7,0,0,0,2.4,1.63,7.74,7.74,0,0,0,3,.58,7.58,7.58,0,0,0,3-.58,7.18,7.18,0,0,0,2.41-1.63,8.32,8.32,0,0,0,1.62-2.4,7.06,7.06,0,0,0,.62-2.93,7.23,7.23,0,0,0-.62-2.95,8.12,8.12,0,0,0-1.62-2.44,7.33,7.33,0,0,0-2.41-1.63,7.82,7.82,0,0,0-5.91,0,7.13,7.13,0,0,0-2.41,1.63,8.45,8.45,0,0,0-1.62,2.37A6.67,6.67,0,0,0,1194.55,618.55Z"/><path class="cls-2" d="M1239.79,620.63q0,7.61,7.15,7.61a6.39,6.39,0,0,0,5.78-3.12h11.38q-3.45,11.45-17.23,11.44a22.47,22.47,0,0,1-7.73-1.27,17.24,17.24,0,0,1-6-3.61,16.14,16.14,0,0,1-3.86-5.59,18.6,18.6,0,0,1-1.37-7.28,20.7,20.7,0,0,1,1.3-7.5,15.7,15.7,0,0,1,3.71-5.69,16.47,16.47,0,0,1,5.81-3.61,22.18,22.18,0,0,1,7.71-1.27A21.63,21.63,0,0,1,1254,602a15.44,15.44,0,0,1,5.72,3.67,16.13,16.13,0,0,1,3.58,5.89,23.35,23.35,0,0,1,1.23,7.83v1.23Zm13.78-6.82a7.06,7.06,0,0,0-2.41-4,7.47,7.47,0,0,0-8.87-.06,6.5,6.5,0,0,0-2.18,4Z"/><path class="cls-2" d="M1270.66,629.08a7.54,7.54,0,0,1,.59-3,7.44,7.44,0,0,1,1.62-2.44,7.73,7.73,0,0,1,8.35-1.63,7.55,7.55,0,0,1,4.65,7,7.57,7.57,0,0,1-2.21,5.4,7.44,7.44,0,0,1-2.44,1.62,7.6,7.6,0,0,1-10.56-7Z"/></g></svg>
