<svg id="Layer_1" data-name="Layer 1" xmlns="http://www.w3.org/2000/svg" width="1920" height="1080" viewBox="0 0 1920 1080"><defs><style>.cls-1{fill:#009245;}.cls-2{fill:#fff;}</style></defs><title>kons_slet_4</title><rect class="cls-1" x="374.5" y="228" width="1171" height="624" rx="76.14"/><path class="cls-2" d="M815.83,479.32v-49h12.74l23.53,30v-30h12.68v49H852.1l-23.53-30v30Z"/><path class="cls-2" d="M885.32,464.63q0,7.61,7.15,7.61a6.39,6.39,0,0,0,5.78-3.12h11.38q-3.45,11.44-17.23,11.44a22.71,22.71,0,0,1-7.73-1.27,17.24,17.24,0,0,1-6-3.61,16,16,0,0,1-3.86-5.59,18.6,18.6,0,0,1-1.37-7.28,20.58,20.58,0,0,1,1.3-7.51,15.74,15.74,0,0,1,3.71-5.68,16.47,16.47,0,0,1,5.81-3.61,22.18,22.18,0,0,1,7.71-1.27,21.63,21.63,0,0,1,7.6,1.27,15.52,15.52,0,0,1,5.72,3.67,16.13,16.13,0,0,1,3.58,5.89,23.35,23.35,0,0,1,1.23,7.83v1.23Zm13.78-6.82a7.12,7.12,0,0,0-2.41-4,7.47,7.47,0,0,0-8.87-.06,6.45,6.45,0,0,0-2.18,4Z"/><path class="cls-2" d="M916.78,446h11.76v4.09a15.24,15.24,0,0,1,10.79-4.61,12.55,12.55,0,0,1,11.31,6.24A12.62,12.62,0,0,1,962,445.39a14,14,0,0,1,4.42.69,9.09,9.09,0,0,1,3.58,2.14,10.44,10.44,0,0,1,2.37,3.8,16.29,16.29,0,0,1,.88,5.66v21.64H961.43V462.88a19.76,19.76,0,0,0-.36-4.16,6.52,6.52,0,0,0-1-2.54,3.45,3.45,0,0,0-1.59-1.23,5.7,5.7,0,0,0-2-.33q-5.65,0-5.66,8.26v16.44H939.07V462.88a23.15,23.15,0,0,0-.32-4.2,7.85,7.85,0,0,0-1-2.63,3.14,3.14,0,0,0-1.59-1.33,6.55,6.55,0,0,0-2.27-.36,6.39,6.39,0,0,0-2.08.33,3.73,3.73,0,0,0-1.73,1.27,6.78,6.78,0,0,0-1.17,2.59,18.21,18.21,0,0,0-.42,4.33v16.44H916.78Z"/><path class="cls-2" d="M993,425.37v53.95H981.25V425.37Z"/><path class="cls-2" d="M1000.3,433.17a6.3,6.3,0,0,1,.52-2.56,6.72,6.72,0,0,1,1.43-2.12,7,7,0,0,1,2.11-1.43,6.61,6.61,0,0,1,5.14,0,7,7,0,0,1,2.11,1.43,6.72,6.72,0,0,1,1.43,2.12,6.59,6.59,0,0,1,0,5.13,6.76,6.76,0,0,1-3.54,3.54,6.61,6.61,0,0,1-5.14,0,6.76,6.76,0,0,1-3.54-3.54A6.35,6.35,0,0,1,1000.3,433.17ZM1012.84,446v33.34h-11.76V446Z"/><path class="cls-2" d="M1058.21,446v31.07a34.17,34.17,0,0,1-.32,5,21.59,21.59,0,0,1-.91,3.9,12.25,12.25,0,0,1-2.44,4,16.44,16.44,0,0,1-4,3.22,21.14,21.14,0,0,1-5.29,2.14,25.13,25.13,0,0,1-6.41.78,24.83,24.83,0,0,1-7.15-1,19.4,19.4,0,0,1-5.68-2.7,15.62,15.62,0,0,1-4-4,13.45,13.45,0,0,1-2.08-5h13.26c.82,2.21,2.69,3.32,5.59,3.32a7.53,7.53,0,0,0,5.69-2.08,8.07,8.07,0,0,0,2-5.79v-3.18a21.17,21.17,0,0,1-2.5,2.05,15,15,0,0,1-2.44,1.33,12.37,12.37,0,0,1-2.6.75,18.49,18.49,0,0,1-3,.22,17.16,17.16,0,0,1-6.57-1.23,15.23,15.23,0,0,1-8.54-8.74,18.61,18.61,0,0,1-1.21-6.86,19.3,19.3,0,0,1,1.3-7.12,18.23,18.23,0,0,1,3.55-5.72,16.27,16.27,0,0,1,5.33-3.84,16.1,16.1,0,0,1,6.72-1.39,12.92,12.92,0,0,1,10,4.42V446Zm-26.39,16.51a7.74,7.74,0,0,0,.59,3A7.92,7.92,0,0,0,1034,468a7.11,7.11,0,0,0,2.41,1.62,7.71,7.71,0,0,0,3,.59,7.63,7.63,0,0,0,3-.59,7.16,7.16,0,0,0,2.4-1.62,8.61,8.61,0,0,0,1.63-2.44,7.56,7.56,0,0,0,0-5.95,8.24,8.24,0,0,0-1.66-2.4,7.52,7.52,0,0,0-2.44-1.63,7.42,7.42,0,0,0-2.89-.58,6.91,6.91,0,0,0-2.93.62,8.32,8.32,0,0,0-2.4,1.62,7.51,7.51,0,0,0-1.66,2.37A7.06,7.06,0,0,0,1031.82,462.49Z"/><path class="cls-2" d="M1067.05,473.08a7.63,7.63,0,0,1,.59-3,7.5,7.5,0,0,1,1.62-2.43,7.68,7.68,0,0,1,2.44-1.63,7.64,7.64,0,0,1,8.35,1.63,7.37,7.37,0,0,1,1.63,2.43,7.84,7.84,0,0,1,0,5.92,7.41,7.41,0,0,1-1.63,2.44,7.5,7.5,0,0,1-2.43,1.62,7.7,7.7,0,0,1-8.36-1.62,7.69,7.69,0,0,1-2.21-5.4Zm1.5-10.4V430.31h12.22v32.37Z"/><path class="cls-2" d="M597.3,520.86a15.43,15.43,0,0,0-4.16-2.5,10.87,10.87,0,0,0-4-.82,6.55,6.55,0,0,0-4,1.17,3.65,3.65,0,0,0-1.56,3.06,3,3,0,0,0,.78,2.14,6.92,6.92,0,0,0,2.05,1.47,18.59,18.59,0,0,0,2.86,1.07c1.06.3,2.11.63,3.15,1q6.24,2.08,9.14,5.56a13.76,13.76,0,0,1,2.89,9.07,17.52,17.52,0,0,1-1.27,6.82,14.3,14.3,0,0,1-3.7,5.24,17.32,17.32,0,0,1-6,3.38,25,25,0,0,1-8,1.2,29.5,29.5,0,0,1-17.23-5.53l5.46-10.27a22,22,0,0,0,5.66,3.77,13.46,13.46,0,0,0,5.52,1.24,6.62,6.62,0,0,0,4.65-1.43,4.43,4.43,0,0,0,1.14-5.17,4.29,4.29,0,0,0-1.3-1.5,10.79,10.79,0,0,0-2.37-1.26c-1-.39-2.16-.83-3.55-1.3-1.64-.52-3.26-1.1-4.84-1.73a15,15,0,0,1-4.22-2.5,11.47,11.47,0,0,1-3-3.93,13.85,13.85,0,0,1-1.14-6,17.4,17.4,0,0,1,1.2-6.6,14.69,14.69,0,0,1,3.38-5.07,15,15,0,0,1,5.33-3.28,20.13,20.13,0,0,1,7-1.17,30.54,30.54,0,0,1,7.61,1,33.34,33.34,0,0,1,7.6,3Z"/><path class="cls-2" d="M623,574H611.28V524H623v3.7a12.43,12.43,0,0,1,10.27-4.74,16,16,0,0,1,6.67,1.39,17,17,0,0,1,8.9,9.46,18.91,18.91,0,0,1,1.27,7,18.39,18.39,0,0,1-1.27,6.89,17.65,17.65,0,0,1-3.51,5.59,16.07,16.07,0,0,1-11.93,5.13,13.9,13.9,0,0,1-10.4-4.29Zm14.82-33.21a7.94,7.94,0,0,0-.55-3,7.26,7.26,0,0,0-1.59-2.44,8.08,8.08,0,0,0-2.44-1.65,7.26,7.26,0,0,0-3-.62,7.37,7.37,0,0,0-2.93.58,7.12,7.12,0,0,0-2.37,1.63,8.2,8.2,0,0,0-1.62,2.43,7.14,7.14,0,0,0-.62,3,7.37,7.37,0,0,0,.58,2.93,7.12,7.12,0,0,0,1.63,2.37,8.34,8.34,0,0,0,2.44,1.63,7.22,7.22,0,0,0,3,.61,7.37,7.37,0,0,0,2.93-.58,7.12,7.12,0,0,0,2.37-1.63,8.55,8.55,0,0,0,1.63-2.4A6.87,6.87,0,0,0,637.86,540.75Z"/><path class="cls-2" d="M653.79,554.66l4.94-3.77a18.64,18.64,0,0,1-3.19-10.4,17.5,17.5,0,0,1,1.34-6.79,16,16,0,0,1,3.93-5.66,19.11,19.11,0,0,1,6.4-3.87,24.65,24.65,0,0,1,8.68-1.43,23.39,23.39,0,0,1,12.8,3.77l5.53-4.35,3.44,4.35-4.94,4.23a16.5,16.5,0,0,1,2.86,9.23,20.42,20.42,0,0,1-1.36,7.64,16.12,16.12,0,0,1-4,5.85,17.82,17.82,0,0,1-6.37,3.76,25.59,25.59,0,0,1-8.58,1.34q-8,0-12.61-3.84l-5.46,4.16Zm26.13-20.35a8.64,8.64,0,0,0-2-1,6.5,6.5,0,0,0-2-.32,8.24,8.24,0,0,0-3.09.58,8.54,8.54,0,0,0-2.57,1.59,7.77,7.77,0,0,0-1.75,2.38,6.78,6.78,0,0,0-.65,3,9.63,9.63,0,0,0,.71,3.18ZM671.6,547a6.43,6.43,0,0,0,3.9,1.23,7.62,7.62,0,0,0,3-.61A8.23,8.23,0,0,0,681,546a7.67,7.67,0,0,0,1.66-2.37,7.06,7.06,0,0,0,.62-2.93,8,8,0,0,0-.59-2.73Z"/><path class="cls-2" d="M702.34,524h11.77v5.46a13.45,13.45,0,0,1,4.61-4.58,12.33,12.33,0,0,1,6.37-1.6h1a7.92,7.92,0,0,1,1.27.13v11.25a11.18,11.18,0,0,0-5.07-1.17q-4.09,0-6.15,2.44t-2,7.11v14.3H702.34Z"/><path class="cls-2" d="M770.27,524v31.07a34.07,34.07,0,0,1-.33,5A21.59,21.59,0,0,1,769,564a12.25,12.25,0,0,1-2.44,4,16.38,16.38,0,0,1-4,3.22,21.22,21.22,0,0,1-5.3,2.14,25.05,25.05,0,0,1-6.4.78,24.78,24.78,0,0,1-7.15-1,19.34,19.34,0,0,1-5.69-2.7,15.62,15.62,0,0,1-4-4,13.45,13.45,0,0,1-2.08-5h13.26c.82,2.21,2.69,3.32,5.59,3.32a7.51,7.51,0,0,0,5.69-2.08,8.07,8.07,0,0,0,2-5.79v-3.18a21.17,21.17,0,0,1-2.5,2,14.62,14.62,0,0,1-2.44,1.33,12.37,12.37,0,0,1-2.6.75,18.49,18.49,0,0,1-3,.22,17.07,17.07,0,0,1-6.56-1.23,15.23,15.23,0,0,1-5.17-3.45,15.43,15.43,0,0,1-3.38-5.29,18.82,18.82,0,0,1-1.2-6.86A19.1,19.1,0,0,1,733,534a18,18,0,0,1,3.54-5.72,16.1,16.1,0,0,1,12.06-5.23,12.91,12.91,0,0,1,9.94,4.42V524Zm-26.39,16.51a7.74,7.74,0,0,0,.58,3,7.92,7.92,0,0,0,1.59,2.44,7.31,7.31,0,0,0,2.41,1.62,7.74,7.74,0,0,0,3,.59,7.59,7.59,0,0,0,3-.59,7.16,7.16,0,0,0,2.4-1.62,8.21,8.21,0,0,0,1.63-2.44,7.45,7.45,0,0,0,0-6,8.05,8.05,0,0,0-1.66-2.4,7.31,7.31,0,0,0-2.44-1.63,7.39,7.39,0,0,0-2.89-.58,6.87,6.87,0,0,0-2.92.62,8.37,8.37,0,0,0-2.41,1.62,7.84,7.84,0,0,0-1.66,2.37A7.06,7.06,0,0,0,743.88,540.49Z"/><path class="cls-2" d="M826.1,503.37h11.83v54H826.1v-3.7a12.34,12.34,0,0,1-10.2,4.74,16.25,16.25,0,0,1-6.7-1.36,16.61,16.61,0,0,1-5.33-3.77,17.17,17.17,0,0,1-3.54-5.66,19,19,0,0,1-1.27-7,19.3,19.3,0,0,1,1.2-6.79,16.9,16.9,0,0,1,3.42-5.62,16,16,0,0,1,12.09-5.2,13.58,13.58,0,0,1,10.33,4.35Zm-14.82,37.18a7.79,7.79,0,0,0,2.18,5.46,7,7,0,0,0,2.4,1.63,7.75,7.75,0,0,0,3,.58,7.54,7.54,0,0,0,3-.58,7,7,0,0,0,2.41-1.63,8.32,8.32,0,0,0,1.62-2.4,6.91,6.91,0,0,0,.62-2.93,7.14,7.14,0,0,0-.62-3,8.2,8.2,0,0,0-1.62-2.43,7,7,0,0,0-2.41-1.63,7.82,7.82,0,0,0-5.91,0,7.18,7.18,0,0,0-2.41,1.63,8.45,8.45,0,0,0-1.62,2.37A6.82,6.82,0,0,0,811.28,540.55Z"/><path class="cls-2" d="M845.14,511.17a6.31,6.31,0,0,1,.53-2.56,6.56,6.56,0,0,1,1.43-2.12,6.85,6.85,0,0,1,2.11-1.43,6.59,6.59,0,0,1,5.13,0,7,7,0,0,1,2.12,1.43,6.69,6.69,0,0,1,1.42,2.12,6.59,6.59,0,0,1,0,5.13,6.67,6.67,0,0,1-3.54,3.54,6.59,6.59,0,0,1-5.13,0,6.76,6.76,0,0,1-3.54-3.54A6.36,6.36,0,0,1,845.14,511.17ZM857.69,524v33.34H845.92V524Z"/><path class="cls-2" d="M865.75,524h11.76v4.22a12.89,12.89,0,0,1,4.88-3.93,15.27,15.27,0,0,1,5.78-1,14.47,14.47,0,0,1,6,1.14,12,12,0,0,1,4.26,3.22,9.18,9.18,0,0,1,1.94,3.77,19.43,19.43,0,0,1,.52,4.74v21.19H889.15V540.49a18,18,0,0,0-.36-4,5,5,0,0,0-1.26-2.44,4.57,4.57,0,0,0-1.76-1.1,6.43,6.43,0,0,0-2.08-.33,5.82,5.82,0,0,0-4.58,1.79,7.37,7.37,0,0,0-1.6,5.1v17.81H865.75Z"/><path class="cls-2" d="M940.24,524l7.93,17.09L956.23,524h13.13L952,557.32h-7.86L927,524Z"/><path class="cls-2" d="M982.42,542.63q0,7.61,7.15,7.61a6.39,6.39,0,0,0,5.79-3.12h11.37q-3.43,11.45-17.22,11.44a22.77,22.77,0,0,1-7.74-1.27,17.2,17.2,0,0,1-6-3.61,16,16,0,0,1-3.87-5.59,18.6,18.6,0,0,1-1.36-7.28,20.58,20.58,0,0,1,1.3-7.51,15.85,15.85,0,0,1,3.7-5.68,16.61,16.61,0,0,1,5.82-3.61,22.13,22.13,0,0,1,7.7-1.27,21.65,21.65,0,0,1,7.61,1.27,15.52,15.52,0,0,1,5.72,3.67,16,16,0,0,1,3.57,5.89,23.1,23.1,0,0,1,1.24,7.83v1.23Zm13.78-6.82a7.1,7.1,0,0,0-2.4-4,7.47,7.47,0,0,0-8.87-.06,6.45,6.45,0,0,0-2.18,4Z"/><path class="cls-2" d="M1013.88,524h11.77v4.22a12.87,12.87,0,0,1,4.87-3.93,15.32,15.32,0,0,1,5.79-1,14.42,14.42,0,0,1,6,1.14,12,12,0,0,1,4.26,3.22,9.33,9.33,0,0,1,2,3.77,19.43,19.43,0,0,1,.52,4.74v21.19h-11.77V540.49a18.73,18.73,0,0,0-.35-4,5,5,0,0,0-1.27-2.44,4.5,4.5,0,0,0-1.76-1.1,6.43,6.43,0,0,0-2.08-.33,5.82,5.82,0,0,0-4.58,1.79,7.42,7.42,0,0,0-1.59,5.1v17.81h-11.77Z"/><path class="cls-2" d="M1077.84,540.36a16.23,16.23,0,0,1,1.5-6.93,17,17,0,0,1,4.16-5.59,19.78,19.78,0,0,1,6.33-3.73,24.26,24.26,0,0,1,16,0,19.48,19.48,0,0,1,6.37,3.7,16.71,16.71,0,0,1,4.2,5.65,17.41,17.41,0,0,1,1.49,7.25,16.92,16.92,0,0,1-5.72,12.9,18.75,18.75,0,0,1-6.4,3.68,24.64,24.64,0,0,1-8.09,1.3,23.56,23.56,0,0,1-7.93-1.3,18.31,18.31,0,0,1-6.28-3.71,17.12,17.12,0,0,1-4.12-5.75A18,18,0,0,1,1077.84,540.36Zm12.42.13a7.45,7.45,0,0,0,.62,3.09,8.2,8.2,0,0,0,1.62,2.43,7,7,0,0,0,2.4,1.63,7.84,7.84,0,0,0,5.92,0,7,7,0,0,0,2.4-1.63,8,8,0,0,0,1.63-2.43,7.46,7.46,0,0,0,.62-3,7.31,7.31,0,0,0-.62-3,8,8,0,0,0-1.63-2.43,7,7,0,0,0-2.4-1.63,7.84,7.84,0,0,0-5.92,0,7,7,0,0,0-2.4,1.63,8.32,8.32,0,0,0-1.62,2.4A6.91,6.91,0,0,0,1090.26,540.49Z"/><path class="cls-2" d="M1124.64,524h11.77v4.09a15.22,15.22,0,0,1,10.79-4.61,12.55,12.55,0,0,1,11.31,6.24,12.62,12.62,0,0,1,11.31-6.31,14,14,0,0,1,4.42.69,9.12,9.12,0,0,1,3.57,2.14,10.18,10.18,0,0,1,2.37,3.8,16.06,16.06,0,0,1,.88,5.66v21.64H1169.3V540.88a19.76,19.76,0,0,0-.36-4.16,6.68,6.68,0,0,0-1-2.54,3.55,3.55,0,0,0-1.59-1.23,5.7,5.7,0,0,0-2-.33q-5.65,0-5.66,8.26v16.44h-11.76V540.88a22.17,22.17,0,0,0-.33-4.2,7.86,7.86,0,0,0-.94-2.63,3.14,3.14,0,0,0-1.59-1.33,6.57,6.57,0,0,0-2.28-.36,6.43,6.43,0,0,0-2.08.33A3.71,3.71,0,0,0,1138,534a6.78,6.78,0,0,0-1.17,2.59,18.21,18.21,0,0,0-.42,4.33v16.44h-11.77Z"/><path class="cls-2" d="M1223,503.37v54h-11.77v-54Z"/><path class="cls-2" d="M1229.75,540.36a16.22,16.22,0,0,1,1.49-6.93,17.14,17.14,0,0,1,4.16-5.59,19.82,19.82,0,0,1,6.34-3.73,22.87,22.87,0,0,1,8-1.37,23.17,23.17,0,0,1,8,1.34,19.58,19.58,0,0,1,6.37,3.7,16.68,16.68,0,0,1,4.19,5.65,17.26,17.26,0,0,1,1.5,7.25,16.94,16.94,0,0,1-1.53,7.25,17.15,17.15,0,0,1-4.2,5.65,18.65,18.65,0,0,1-6.4,3.68,24.64,24.64,0,0,1-8.09,1.3,23.6,23.6,0,0,1-7.93-1.3,18.17,18.17,0,0,1-6.27-3.71,17.15,17.15,0,0,1-4.13-5.75A18,18,0,0,1,1229.75,540.36Zm12.41.13a7.61,7.61,0,0,0,.62,3.09,8.2,8.2,0,0,0,1.62,2.43,7.09,7.09,0,0,0,2.41,1.63,7.82,7.82,0,0,0,5.91,0,7.09,7.09,0,0,0,2.41-1.63,8.2,8.2,0,0,0,1.62-2.43,7.46,7.46,0,0,0,.62-3,7.31,7.31,0,0,0-.62-3,8.2,8.2,0,0,0-1.62-2.43,7.09,7.09,0,0,0-2.41-1.63,7.82,7.82,0,0,0-5.91,0,7.09,7.09,0,0,0-2.41,1.63,8.32,8.32,0,0,0-1.62,2.4A7.06,7.06,0,0,0,1242.16,540.49Z"/><path class="cls-2" d="M1284.09,524l7.93,17.09,8.06-17.09h13.13l-17.36,33.34H1288L1270.83,524Z"/><path class="cls-2" d="M1318.21,544.91h11l-12,21.51h-7.54Z"/><path class="cls-2" d="M617.91,611.79v23.53H606.15V611.79h-4.23V602h4.23v-5a22.75,22.75,0,0,1,.78-6.63,11.76,11.76,0,0,1,2.08-3.87,14.84,14.84,0,0,1,3.34-3.08,16.32,16.32,0,0,1,4.13-2,14.3,14.3,0,0,1,4.36-.71,11.48,11.48,0,0,1,2.76.32,16.51,16.51,0,0,1,2.57.91v10.27a12.65,12.65,0,0,0-2.18-.87,7.37,7.37,0,0,0-2.11-.3,5.11,5.11,0,0,0-1.47.23,3.13,3.13,0,0,0-1.39.94,3.93,3.93,0,0,0-.88,2.05,22.64,22.64,0,0,0-.23,3.61V602h8.26v9.81Z"/><path class="cls-2" d="M627.53,632.66l4.94-3.77a18.71,18.71,0,0,1-3.18-10.4,17.58,17.58,0,0,1,1.33-6.8,16.28,16.28,0,0,1,3.93-5.65,19.21,19.21,0,0,1,6.4-3.87,24.65,24.65,0,0,1,8.68-1.43,23.45,23.45,0,0,1,12.81,3.77l5.52-4.35,3.45,4.35-4.95,4.23a16.51,16.51,0,0,1,2.87,9.23A20.37,20.37,0,0,1,668,625.6a16.18,16.18,0,0,1-4,5.86,17.87,17.87,0,0,1-6.38,3.76,25.59,25.59,0,0,1-8.58,1.34q-8,0-12.6-3.84L631,636.88Zm26.13-20.35a8.45,8.45,0,0,0-2-1,6.46,6.46,0,0,0-2-.32,8.28,8.28,0,0,0-3.09.58,8.54,8.54,0,0,0-2.57,1.59,7.77,7.77,0,0,0-1.75,2.38,6.89,6.89,0,0,0-.65,3,9.68,9.68,0,0,0,.72,3.18ZM645.34,625a6.47,6.47,0,0,0,3.9,1.23,7.46,7.46,0,0,0,3-.62,8.19,8.19,0,0,0,2.48-1.62,7.64,7.64,0,0,0,1.65-2.37,7.06,7.06,0,0,0,.62-2.93,7.93,7.93,0,0,0-.58-2.73Z"/><path class="cls-2" d="M676.08,602h11.77v5.46a13.57,13.57,0,0,1,4.61-4.59,12.47,12.47,0,0,1,6.37-1.59h1a7.92,7.92,0,0,1,1.27.13v11.25a11.18,11.18,0,0,0-5.07-1.17q-4.1,0-6.14,2.43t-2,7.12v14.3H676.08Z"/><path class="cls-2" d="M754.15,581.37H766v54H754.15v-3.7a12.36,12.36,0,0,1-10.21,4.74,16.23,16.23,0,0,1-6.69-1.36,16.61,16.61,0,0,1-5.33-3.77,17.17,17.17,0,0,1-3.54-5.66,19,19,0,0,1-1.27-7,19.26,19.26,0,0,1,1.2-6.79,17,17,0,0,1,3.41-5.62,16.09,16.09,0,0,1,12.09-5.2,13.6,13.6,0,0,1,10.34,4.35Zm-14.82,37.18a7.79,7.79,0,0,0,.58,3,7.61,7.61,0,0,0,1.6,2.43,7,7,0,0,0,2.4,1.63,7.74,7.74,0,0,0,3,.58,7.58,7.58,0,0,0,3-.58A7.18,7.18,0,0,0,752.3,624a8.32,8.32,0,0,0,1.62-2.4,7.06,7.06,0,0,0,.62-2.93,7.31,7.31,0,0,0-.62-3,8.2,8.2,0,0,0-1.62-2.43,7.18,7.18,0,0,0-2.41-1.63,7.82,7.82,0,0,0-5.91,0,7,7,0,0,0-2.41,1.63,8.45,8.45,0,0,0-1.62,2.37A6.82,6.82,0,0,0,739.33,618.55Z"/><path class="cls-2" d="M785.74,602v18.78q0,6.18,6,6.18t6-6.18V602h11.76V623q0,6.75-4.45,10.14t-13.29,3.38c-5.89,0-10.33-1.13-13.29-3.38S774,627.54,774,623V602Z"/><path class="cls-2" d="M865.3,581.37h11.83v54H865.3v-3.7a12.37,12.37,0,0,1-10.21,4.74A16.2,16.2,0,0,1,848.4,635a16.5,16.5,0,0,1-5.33-3.77,17.17,17.17,0,0,1-3.54-5.66,19,19,0,0,1-1.27-7,19.26,19.26,0,0,1,1.2-6.79,17,17,0,0,1,3.41-5.62,16.09,16.09,0,0,1,12.09-5.2,13.6,13.6,0,0,1,10.34,4.35Zm-14.82,37.18a7.79,7.79,0,0,0,.58,3,7.61,7.61,0,0,0,1.6,2.43,7,7,0,0,0,2.4,1.63,7.74,7.74,0,0,0,3,.58,7.58,7.58,0,0,0,3-.58,7.18,7.18,0,0,0,2.41-1.63,8.32,8.32,0,0,0,1.62-2.4,7.06,7.06,0,0,0,.62-2.93,7.31,7.31,0,0,0-.62-3,8.2,8.2,0,0,0-1.62-2.43,7.18,7.18,0,0,0-2.41-1.63,7.84,7.84,0,0,0-5.92,0,7,7,0,0,0-2.4,1.63,8.45,8.45,0,0,0-1.62,2.37A6.67,6.67,0,0,0,850.48,618.55Z"/><path class="cls-2" d="M895.72,620.63q0,7.61,7.15,7.61a6.39,6.39,0,0,0,5.78-3.12H920q-3.45,11.43-17.23,11.44a22.71,22.71,0,0,1-7.73-1.27,17.4,17.4,0,0,1-6-3.61,16.14,16.14,0,0,1-3.86-5.59,18.6,18.6,0,0,1-1.37-7.28,20.58,20.58,0,0,1,1.3-7.51,15.74,15.74,0,0,1,3.71-5.68,16.33,16.33,0,0,1,5.81-3.61,22.18,22.18,0,0,1,7.71-1.27A21.63,21.63,0,0,1,910,602a15.31,15.31,0,0,1,5.72,3.67,16.17,16.17,0,0,1,3.58,5.88,23.41,23.41,0,0,1,1.23,7.84v1.23Zm13.78-6.82a7.12,7.12,0,0,0-2.41-4,6.77,6.77,0,0,0-4.42-1.49,6.7,6.7,0,0,0-4.45,1.43,6.43,6.43,0,0,0-2.18,4Z"/><path class="cls-2" d="M938.94,581.37v54H927.18v-54Z"/><path class="cls-2" d="M957.6,620.63q0,7.61,7.15,7.61a6.39,6.39,0,0,0,5.78-3.12h11.38q-3.45,11.43-17.23,11.44a22.71,22.71,0,0,1-7.73-1.27,17.4,17.4,0,0,1-6-3.61,16,16,0,0,1-3.86-5.59,18.6,18.6,0,0,1-1.37-7.28,20.58,20.58,0,0,1,1.3-7.51,15.74,15.74,0,0,1,3.71-5.68,16.33,16.33,0,0,1,5.81-3.61,22.18,22.18,0,0,1,7.71-1.27,21.63,21.63,0,0,1,7.6,1.27,15.39,15.39,0,0,1,5.72,3.67,16,16,0,0,1,3.57,5.88,23.16,23.16,0,0,1,1.24,7.84v1.23Zm13.78-6.82a7.12,7.12,0,0,0-2.41-4,6.77,6.77,0,0,0-4.42-1.49,6.7,6.7,0,0,0-4.45,1.43,6.43,6.43,0,0,0-2.18,4Z"/><path class="cls-2" d="M989.05,602h11.77v5.46a13.59,13.59,0,0,1,4.62-4.59,12.38,12.38,0,0,1,6.36-1.59h1a7.92,7.92,0,0,1,1.27.13v11.25a11.18,11.18,0,0,0-5.07-1.17q-4.1,0-6.14,2.43t-2,7.12v14.3H989.05Z"/><path class="cls-2" d="M1053.14,581.37v23.92a13.81,13.81,0,0,1,10.4-4.35,16.08,16.08,0,0,1,12.06,5.16,17.49,17.49,0,0,1,3.41,5.59,19.65,19.65,0,0,1,0,13.82,17.12,17.12,0,0,1-3.54,5.65,16.87,16.87,0,0,1-5.36,3.8,15.86,15.86,0,0,1-6.67,1.4,12.43,12.43,0,0,1-10.27-4.74v3.7h-11.76v-54ZM1068,618.75a7.57,7.57,0,0,0-2.21-5.4,8.24,8.24,0,0,0-2.4-1.66,7.2,7.2,0,0,0-3-.61,7.37,7.37,0,0,0-2.93.58,7.12,7.12,0,0,0-2.37,1.63,8.2,8.2,0,0,0-1.62,2.43A7.35,7.35,0,0,0,1055,624a8.25,8.25,0,0,0,2.44,1.62,7.07,7.07,0,0,0,3,.62,7.37,7.37,0,0,0,2.93-.58,7.12,7.12,0,0,0,2.37-1.63,8.55,8.55,0,0,0,1.63-2.4A6.9,6.9,0,0,0,1068,618.75Z"/><path class="cls-2" d="M1086.16,589.17a6.56,6.56,0,0,1,.52-2.57,7,7,0,0,1,1.43-2.11,6.89,6.89,0,0,1,2.12-1.43,6.59,6.59,0,0,1,5.13,0,6.85,6.85,0,0,1,2.11,1.43,6.62,6.62,0,0,1,1.43,2.11,6.61,6.61,0,0,1,0,5.14,6.76,6.76,0,0,1-3.54,3.54,6.59,6.59,0,0,1-5.13,0,6.56,6.56,0,0,1-2.12-1.43,6.85,6.85,0,0,1-1.43-2.11A6.52,6.52,0,0,1,1086.16,589.17ZM1098.71,602v33.34h-11.77V602Z"/><path class="cls-2" d="M1118.53,581.37v54h-11.76v-54Z"/><path class="cls-2" d="M1138.36,581.37v54h-11.77v-54Z"/><path class="cls-2" d="M1157,620.63q0,7.61,7.15,7.61a6.39,6.39,0,0,0,5.79-3.12h11.37q-3.43,11.43-17.22,11.44a22.77,22.77,0,0,1-7.74-1.27,17.35,17.35,0,0,1-6-3.61,16,16,0,0,1-3.87-5.59,18.6,18.6,0,0,1-1.36-7.28,20.58,20.58,0,0,1,1.3-7.51,15.72,15.72,0,0,1,3.7-5.68,16.29,16.29,0,0,1,5.82-3.61,22.09,22.09,0,0,1,7.7-1.27,21.69,21.69,0,0,1,7.61,1.27,15.39,15.39,0,0,1,5.72,3.67,16,16,0,0,1,3.57,5.88,23.16,23.16,0,0,1,1.24,7.84v1.23Zm13.78-6.82a7.1,7.1,0,0,0-2.4-4,7.48,7.48,0,0,0-8.88-.06,6.46,6.46,0,0,0-2.17,4Z"/><path class="cls-2" d="M1214.21,581.37H1226v54h-11.83v-3.7a12.34,12.34,0,0,1-10.2,4.74,16.25,16.25,0,0,1-6.7-1.36,16.61,16.61,0,0,1-5.33-3.77,17.17,17.17,0,0,1-3.54-5.66,19,19,0,0,1-1.27-7,19.26,19.26,0,0,1,1.2-6.79,17.07,17.07,0,0,1,3.42-5.62,16,16,0,0,1,12.09-5.2,13.58,13.58,0,0,1,10.33,4.35Zm-14.82,37.18a7.79,7.79,0,0,0,2.18,5.46,7,7,0,0,0,2.4,1.63,7.79,7.79,0,0,0,3,.58,7.54,7.54,0,0,0,3-.58,7.09,7.09,0,0,0,2.41-1.63,8.32,8.32,0,0,0,1.62-2.4,7.06,7.06,0,0,0,.62-2.93,7.31,7.31,0,0,0-.62-3,8.2,8.2,0,0,0-1.62-2.43,7.09,7.09,0,0,0-2.41-1.63,7.82,7.82,0,0,0-5.91,0,7.09,7.09,0,0,0-2.41,1.63,8.45,8.45,0,0,0-1.62,2.37A6.82,6.82,0,0,0,1199.39,618.55Z"/><path class="cls-2" d="M1244.63,620.63q0,7.61,7.15,7.61a6.39,6.39,0,0,0,5.79-3.12h11.37q-3.45,11.43-17.22,11.44a22.77,22.77,0,0,1-7.74-1.27,17.35,17.35,0,0,1-6-3.61,16,16,0,0,1-3.87-5.59,18.6,18.6,0,0,1-1.36-7.28,20.58,20.58,0,0,1,1.3-7.51,15.72,15.72,0,0,1,3.7-5.68,16.29,16.29,0,0,1,5.82-3.61,22.09,22.09,0,0,1,7.7-1.27,21.69,21.69,0,0,1,7.61,1.27,15.39,15.39,0,0,1,5.72,3.67,16,16,0,0,1,3.57,5.88,23.41,23.41,0,0,1,1.24,7.84v1.23Zm13.78-6.82a7.1,7.1,0,0,0-2.4-4,7.48,7.48,0,0,0-8.88-.06,6.42,6.42,0,0,0-2.17,4Z"/><path class="cls-2" d="M1289.67,611.79v23.53h-11.76V611.79H1274V602h3.9V592h11.76v10h6.7v9.81Z"/><path class="cls-2" d="M1300.2,629.08a7.63,7.63,0,0,1,.59-3,7.48,7.48,0,0,1,4.06-4.06,7.84,7.84,0,0,1,5.92,0,7.57,7.57,0,0,1,4.06,4.06,7.84,7.84,0,0,1,0,5.92,7.48,7.48,0,0,1-4.06,4.06,7.6,7.6,0,0,1-10.57-7Z"/></svg>
