<svg xmlns="http://www.w3.org/2000/svg" width="1920" height="1080" viewBox="0 0 1920 1080"><defs><style>.cls-1{fill:#c1272d;}.cls-2{fill:#fff;}</style></defs><title>kons_del_2</title><g id="Layer_3" data-name="Layer 3"><rect class="cls-1" x="374.5" y="228" width="1171" height="624" rx="76.14"/><path class="cls-2" d="M753,430.31v49H740.24v-49Z"/><path class="cls-2" d="M773.91,425.37V458l12.35-12h16.12l-16.71,15.4,17.68,17.94H786.84l-12.93-13.58v13.58H762.14V425.37Z"/><path class="cls-2" d="M819.28,425.37V458l12.35-12h16.12L831,461.38l17.68,17.94H832.21l-12.93-13.58v13.58H807.51V425.37Z"/><path class="cls-2" d="M861.46,464.63q0,7.61,7.15,7.61a6.39,6.39,0,0,0,5.79-3.12h11.37q-3.43,11.44-17.22,11.44a22.52,22.52,0,0,1-7.74-1.27,17.2,17.2,0,0,1-6-3.61,16,16,0,0,1-3.87-5.59,18.6,18.6,0,0,1-1.36-7.28,20.49,20.49,0,0,1,1.3-7.5,15.67,15.67,0,0,1,3.7-5.69,16.61,16.61,0,0,1,5.82-3.61,22.13,22.13,0,0,1,7.7-1.27A21.69,21.69,0,0,1,875.7,446a15.52,15.52,0,0,1,5.72,3.67,16,16,0,0,1,3.57,5.89,23.1,23.1,0,0,1,1.24,7.83v1.23Zm13.78-6.82a7.1,7.1,0,0,0-2.4-4,7.48,7.48,0,0,0-8.88-.06,6.49,6.49,0,0,0-2.17,4Z"/><path class="cls-2" d="M914.24,433.17a6.3,6.3,0,0,1,.52-2.56,6.72,6.72,0,0,1,1.43-2.12,7,7,0,0,1,2.11-1.43,6.61,6.61,0,0,1,5.14,0,7,7,0,0,1,2.11,1.43,6.72,6.72,0,0,1,1.43,2.12,6.59,6.59,0,0,1,0,5.13,6.76,6.76,0,0,1-3.54,3.54,6.61,6.61,0,0,1-5.14,0,6.76,6.76,0,0,1-3.54-3.54A6.35,6.35,0,0,1,914.24,433.17ZM926.79,446v33.34H915V446Z"/><path class="cls-2" d="M955.65,462.36a16.15,16.15,0,0,1,1.49-6.92,16.93,16.93,0,0,1,4.16-5.59,19.67,19.67,0,0,1,6.34-3.74,22.87,22.87,0,0,1,8-1.37,23.13,23.13,0,0,1,8,1.34,19.58,19.58,0,0,1,6.37,3.7,16.62,16.62,0,0,1,4.19,5.66,17.18,17.18,0,0,1,1.5,7.24,16.94,16.94,0,0,1-1.53,7.25,17.4,17.4,0,0,1-4.19,5.66,18.94,18.94,0,0,1-6.41,3.67,24.64,24.64,0,0,1-8.09,1.3,23.6,23.6,0,0,1-7.93-1.3,18.17,18.17,0,0,1-6.27-3.71,17.15,17.15,0,0,1-4.13-5.75A18,18,0,0,1,955.65,462.36Zm12.41.13a7.61,7.61,0,0,0,.62,3.09A8.2,8.2,0,0,0,970.3,468a7.09,7.09,0,0,0,2.41,1.63,7.82,7.82,0,0,0,5.91,0A7.09,7.09,0,0,0,981,468a8.2,8.2,0,0,0,1.62-2.43,7.46,7.46,0,0,0,.62-3,7.23,7.23,0,0,0-.62-2.95,8.12,8.12,0,0,0-1.62-2.44,7.23,7.23,0,0,0-2.41-1.63,7.82,7.82,0,0,0-5.91,0,7.23,7.23,0,0,0-2.41,1.63,8.32,8.32,0,0,0-1.62,2.4A7.06,7.06,0,0,0,968.06,462.49Z"/><path class="cls-2" d="M1002.45,446h11.76v5.46a13.47,13.47,0,0,1,4.62-4.58,12.33,12.33,0,0,1,6.37-1.6h1a7.92,7.92,0,0,1,1.27.13v11.25a11.18,11.18,0,0,0-5.07-1.17q-4.1,0-6.14,2.44t-2,7.11v14.3h-11.76Z"/><path class="cls-2" d="M1058.86,425.37h11.83v53.95h-11.83v-3.7a12.34,12.34,0,0,1-10.2,4.74A16.25,16.25,0,0,1,1042,479a16.72,16.72,0,0,1-5.33-3.77,17.5,17.5,0,0,1-3.54-5.66,19.85,19.85,0,0,1-.06-13.81,17,17,0,0,1,3.41-5.62,16.19,16.19,0,0,1,12.09-5.2,13.58,13.58,0,0,1,10.33,4.35ZM1044,462.55a7.79,7.79,0,0,0,2.18,5.46,7,7,0,0,0,2.41,1.63,7.74,7.74,0,0,0,3,.58,7.62,7.62,0,0,0,3-.58A7,7,0,0,0,1057,468a8.55,8.55,0,0,0,1.63-2.4,7.06,7.06,0,0,0,.61-2.93,7.22,7.22,0,0,0-.61-2.95,8.34,8.34,0,0,0-1.63-2.44,7.19,7.19,0,0,0-2.4-1.63,7.84,7.84,0,0,0-5.92,0,7.19,7.19,0,0,0-2.4,1.63,8.28,8.28,0,0,0-1.63,2.37A6.82,6.82,0,0,0,1044,462.55Z"/><path class="cls-2" d="M1089.28,464.63q0,7.61,7.15,7.61a6.39,6.39,0,0,0,5.79-3.12h11.37q-3.43,11.44-17.22,11.44a22.52,22.52,0,0,1-7.74-1.27,17.2,17.2,0,0,1-6-3.61,16,16,0,0,1-3.87-5.59,18.6,18.6,0,0,1-1.36-7.28,20.49,20.49,0,0,1,1.3-7.5,15.8,15.8,0,0,1,3.7-5.69,16.61,16.61,0,0,1,5.82-3.61,22.13,22.13,0,0,1,7.7-1.27,21.65,21.65,0,0,1,7.61,1.27,15.52,15.52,0,0,1,5.72,3.67,16,16,0,0,1,3.57,5.89,23.1,23.1,0,0,1,1.24,7.83v1.23Zm13.78-6.82a7.1,7.1,0,0,0-2.4-4,7.47,7.47,0,0,0-8.87-.06,6.45,6.45,0,0,0-2.18,4Z"/><path class="cls-2" d="M1120.74,446h11.77v4.22a12.87,12.87,0,0,1,4.87-3.93,15.32,15.32,0,0,1,5.79-1,14.42,14.42,0,0,1,6,1.14,12,12,0,0,1,4.26,3.22,9.33,9.33,0,0,1,2,3.77,19.93,19.93,0,0,1,.52,4.74v21.19h-11.77V462.49a18.73,18.73,0,0,0-.35-4,5,5,0,0,0-1.27-2.44,4.5,4.5,0,0,0-1.76-1.1,6.43,6.43,0,0,0-2.08-.33,5.82,5.82,0,0,0-4.58,1.79,7.42,7.42,0,0,0-1.59,5.1v17.81h-11.77Z"/><path class="cls-2" d="M1164.75,473.08a7.54,7.54,0,0,1,.58-2.95,7.31,7.31,0,0,1,1.63-2.44,7.53,7.53,0,0,1,2.43-1.63,7.67,7.67,0,0,1,8.36,1.63,7.44,7.44,0,0,1,1.62,2.44,7.69,7.69,0,0,1-1.62,8.35,7.71,7.71,0,0,1-8.36,1.62,7.5,7.5,0,0,1-2.43-1.62,7.41,7.41,0,0,1-1.63-2.44A7.58,7.58,0,0,1,1164.75,473.08Zm1.49-10.4V430.31h12.22v32.37Z"/><path class="cls-2" d="M573.19,508.31H592a22.1,22.1,0,0,1,9.39,2,25.39,25.39,0,0,1,7.67,5.36,24.87,24.87,0,0,1,5.17,7.8,24,24,0,0,1,0,18.59,24.61,24.61,0,0,1-5.13,7.83,25.41,25.41,0,0,1-7.67,5.4,22.46,22.46,0,0,1-9.46,2H573.19Zm12.74,38.22h2.93a15.65,15.65,0,0,0,5.91-1,12.52,12.52,0,0,0,4.39-2.86,12.24,12.24,0,0,0,2.73-4.32,15.44,15.44,0,0,0,.94-5.49,15.08,15.08,0,0,0-1-5.46,12.55,12.55,0,0,0-2.77-4.36,12.76,12.76,0,0,0-4.38-2.86,15.75,15.75,0,0,0-5.85-1h-2.93Z"/><path class="cls-2" d="M634.94,524v18.78q0,6.18,6,6.18t6-6.18V524h11.77V545q0,6.75-4.46,10.14t-13.29,3.38q-8.83,0-13.29-3.38T623.18,545V524Z"/><path class="cls-2" d="M688.76,503.37h11.76V528.2a12.89,12.89,0,0,1,4.88-3.93,15.27,15.27,0,0,1,5.78-1q6.32,0,9.53,3.48t3.21,9.39v21.19H712.16V540.49a17.48,17.48,0,0,0-.39-4.1,4.71,4.71,0,0,0-1.3-2.4,5.54,5.54,0,0,0-3.77-1.37,5.82,5.82,0,0,0-4.58,1.79,7.37,7.37,0,0,0-1.6,5.1v17.81H688.76Z"/><path class="cls-2" d="M757.66,524h11.83v33.34H757.66v-3.7a12.36,12.36,0,0,1-10.21,4.74,16.51,16.51,0,0,1-6.69-1.33,16.08,16.08,0,0,1-5.33-3.74,17.12,17.12,0,0,1-3.54-5.65,19.26,19.26,0,0,1-1.27-7.09,18.88,18.88,0,0,1,1.23-6.79,17.66,17.66,0,0,1,3.45-5.62,16.28,16.28,0,0,1,5.26-3.8,15.94,15.94,0,0,1,6.76-1.4,13.6,13.6,0,0,1,10.34,4.35Zm-14.82,16.57a7.79,7.79,0,0,0,.58,3A7.61,7.61,0,0,0,745,546a7,7,0,0,0,2.4,1.63,7.74,7.74,0,0,0,3,.58,7.58,7.58,0,0,0,3-.58,7.18,7.18,0,0,0,2.41-1.63,8.32,8.32,0,0,0,1.62-2.4,7.06,7.06,0,0,0,.62-2.93,7.23,7.23,0,0,0-.62-2.95,8.12,8.12,0,0,0-1.62-2.44,7.33,7.33,0,0,0-2.41-1.63,7.58,7.58,0,0,0-3-.58,7.74,7.74,0,0,0-3,.58,7.19,7.19,0,0,0-2.4,1.63,7.8,7.8,0,0,0-1.6,2.37A7.11,7.11,0,0,0,742.84,540.55Z"/><path class="cls-2" d="M777.48,524h11.77v5.46a13.45,13.45,0,0,1,4.61-4.58,12.35,12.35,0,0,1,6.37-1.6h1a7.92,7.92,0,0,1,1.27.13v11.25a11.18,11.18,0,0,0-5.07-1.17q-4.1,0-6.14,2.44t-2,7.11v14.3H777.48Z"/><path class="cls-2" d="M829,511.17a6.3,6.3,0,0,1,.52-2.56,6.56,6.56,0,0,1,1.43-2.12,6.85,6.85,0,0,1,2.11-1.43,6.59,6.59,0,0,1,5.13,0,6.7,6.7,0,0,1,3.55,3.55,6.59,6.59,0,0,1,0,5.13,6.85,6.85,0,0,1-1.43,2.11,6.56,6.56,0,0,1-2.12,1.43,6.59,6.59,0,0,1-5.13,0,6.76,6.76,0,0,1-3.54-3.54A6.35,6.35,0,0,1,829,511.17ZM841.57,524v33.34H829.81V524Z"/><path class="cls-2" d="M861.4,503.37V536l12.35-12h16.12l-16.71,15.4,17.68,17.94H874.33L861.4,543.74v13.58H849.63v-54Z"/><path class="cls-2" d="M906.77,503.37V536l12.35-12h16.12l-16.71,15.4,17.68,17.94H919.7l-12.93-13.58v13.58H895v-54Z"/><path class="cls-2" d="M949,542.63q0,7.61,7.15,7.61a6.39,6.39,0,0,0,5.79-3.12h11.37q-3.45,11.45-17.22,11.44a22.77,22.77,0,0,1-7.74-1.27,17.2,17.2,0,0,1-6-3.61,16,16,0,0,1-3.87-5.59,18.6,18.6,0,0,1-1.36-7.28,20.49,20.49,0,0,1,1.3-7.5,15.67,15.67,0,0,1,3.7-5.69,16.52,16.52,0,0,1,5.82-3.61,22.13,22.13,0,0,1,7.7-1.27,21.69,21.69,0,0,1,7.61,1.27,15.52,15.52,0,0,1,5.72,3.67,16,16,0,0,1,3.57,5.89,23.35,23.35,0,0,1,1.24,7.83v1.23Zm13.78-6.82a7.1,7.1,0,0,0-2.4-4,7.47,7.47,0,0,0-8.87-.06,6.45,6.45,0,0,0-2.18,4Z"/><path class="cls-2" d="M1015.25,533.79v23.53h-11.76V533.79h-4.23V524h4.23v-5a22.75,22.75,0,0,1,.78-6.63,11.61,11.61,0,0,1,2.08-3.86,14.87,14.87,0,0,1,3.34-3.09,16.32,16.32,0,0,1,4.13-2,14.3,14.3,0,0,1,4.36-.71,11.48,11.48,0,0,1,2.76.32,16.51,16.51,0,0,1,2.57.91v10.27a12.65,12.65,0,0,0-2.18-.87,7.37,7.37,0,0,0-2.11-.3,5.11,5.11,0,0,0-1.47.23,3.19,3.19,0,0,0-1.39.94,3.93,3.93,0,0,0-.88,2.05,22.64,22.64,0,0,0-.23,3.61V524h8.26v9.81Z"/><path class="cls-2" d="M1054.38,524h11.83v33.34h-11.83v-3.7a12.36,12.36,0,0,1-10.21,4.74,16.55,16.55,0,0,1-6.69-1.33,16.08,16.08,0,0,1-5.33-3.74,17.12,17.12,0,0,1-3.54-5.65,19.26,19.26,0,0,1-1.27-7.09,18.67,18.67,0,0,1,1.24-6.79,17.46,17.46,0,0,1,3.44-5.62,16.21,16.21,0,0,1,5.27-3.8,15.9,15.9,0,0,1,6.75-1.4,13.58,13.58,0,0,1,10.34,4.35Zm-16.64-12.81a6.51,6.51,0,0,1,2.7-5.52,12.22,12.22,0,0,1,7.44-2c3.25,0,5.74.69,7.48,2.05a7.24,7.24,0,0,1,0,11.12q-2.61,2-7.48,2t-7.47-2A6.69,6.69,0,0,1,1037.74,511.17Zm1.82,29.38a7.62,7.62,0,0,0,.59,3,7.75,7.75,0,0,0,1.59,2.43,7,7,0,0,0,2.4,1.63,7.75,7.75,0,0,0,3,.58,7.54,7.54,0,0,0,2.95-.58,7.09,7.09,0,0,0,2.41-1.63,8.32,8.32,0,0,0,1.62-2.4,7.06,7.06,0,0,0,.62-2.93,7.23,7.23,0,0,0-.62-2.95,8.12,8.12,0,0,0-1.62-2.44,7.23,7.23,0,0,0-2.41-1.63,7.54,7.54,0,0,0-2.95-.58,7.75,7.75,0,0,0-3,.58,7.19,7.19,0,0,0-2.4,1.63,8,8,0,0,0-1.59,2.37A7,7,0,0,0,1039.56,540.55Zm4.42-29.38c0,2,1.28,3,3.84,3s4-1,4-2.92-1.32-2.93-4-2.93a4.56,4.56,0,0,0-2.8.78A2.49,2.49,0,0,0,1044,511.17Z"/><path class="cls-2" d="M1084.8,542.63q0,7.61,7.15,7.61a6.38,6.38,0,0,0,5.78-3.12h11.38q-3.45,11.45-17.23,11.44a22.75,22.75,0,0,1-7.73-1.27,17.11,17.11,0,0,1-6-3.61,16,16,0,0,1-3.87-5.59,18.6,18.6,0,0,1-1.37-7.28,20.7,20.7,0,0,1,1.3-7.5,15.83,15.83,0,0,1,3.71-5.69,16.43,16.43,0,0,1,5.82-3.61,22.09,22.09,0,0,1,7.7-1.27A21.59,21.59,0,0,1,1099,524a15.44,15.44,0,0,1,5.72,3.67,16,16,0,0,1,3.58,5.89,23.35,23.35,0,0,1,1.23,7.83v1.23Zm13.78-6.82a7.06,7.06,0,0,0-2.41-4,7.47,7.47,0,0,0-8.87-.06,6.5,6.5,0,0,0-2.18,4Z"/><path class="cls-2" d="M1129.84,533.79v23.53h-11.76V533.79h-3.9V524h3.9V514h11.76v10h6.7v9.81Z"/><path class="cls-2" d="M1174.82,503.37v54h-11.76v-54Z"/><path class="cls-2" d="M1181.58,540.36a16.15,16.15,0,0,1,1.5-6.92,16.8,16.8,0,0,1,4.16-5.59,19.51,19.51,0,0,1,6.33-3.74,24.26,24.26,0,0,1,16,0,19.58,19.58,0,0,1,6.37,3.7,16.65,16.65,0,0,1,4.2,5.66,17.33,17.33,0,0,1,1.49,7.24,16.92,16.92,0,0,1-5.72,12.9,18.75,18.75,0,0,1-6.4,3.68,24.64,24.64,0,0,1-8.09,1.3,23.56,23.56,0,0,1-7.93-1.3,18.31,18.31,0,0,1-6.28-3.71,17.12,17.12,0,0,1-4.12-5.75A18,18,0,0,1,1181.58,540.36Zm12.42.13a7.61,7.61,0,0,0,.61,3.09,8.42,8.42,0,0,0,1.63,2.43,7,7,0,0,0,2.4,1.63,7.84,7.84,0,0,0,5.92,0A7,7,0,0,0,1207,546a8.23,8.23,0,0,0,1.63-2.43,7.46,7.46,0,0,0,.62-3,7.23,7.23,0,0,0-.62-2.95,8.15,8.15,0,0,0-1.63-2.44,7.19,7.19,0,0,0-2.4-1.63,7.84,7.84,0,0,0-5.92,0,7.19,7.19,0,0,0-2.4,1.63,8.55,8.55,0,0,0-1.63,2.4A7.06,7.06,0,0,0,1194,540.49Z"/><path class="cls-2" d="M1235.92,524l7.93,17.09,8.06-17.09H1265l-17.35,33.34h-7.87L1222.66,524Z"/><path class="cls-2" d="M1304.3,533.79v23.53h-11.76V533.79h-3.9V524h3.9V514h11.76v10h6.7v9.81Z"/><path class="cls-2" d="M1315.54,511.17a6.47,6.47,0,0,1,.52-2.56,6.79,6.79,0,0,1,3.55-3.55,6.59,6.59,0,0,1,5.13,0,6.85,6.85,0,0,1,2.11,1.43,6.75,6.75,0,0,1,1.44,2.12,6.71,6.71,0,0,1,0,5.13,6.7,6.7,0,0,1-1.44,2.11,6.51,6.51,0,0,1-2.11,1.43,6.58,6.58,0,0,1-7.24-1.43,6.7,6.7,0,0,1-1.44-2.11A6.52,6.52,0,0,1,1315.54,511.17ZM1328.09,524v33.34h-11.76V524Z"/><path class="cls-2" d="M1347.91,503.37v54h-11.76v-54Z"/><path class="cls-2" d="M706.21,602H718v33.34H706.21v-3.7a12.34,12.34,0,0,1-10.2,4.74,16.56,16.56,0,0,1-6.7-1.33,16.18,16.18,0,0,1-5.33-3.74,17.46,17.46,0,0,1-3.54-5.65,19.47,19.47,0,0,1-1.27-7.09,18.63,18.63,0,0,1,1.24-6.79,17.46,17.46,0,0,1,3.44-5.62,16.35,16.35,0,0,1,5.27-3.81,16.06,16.06,0,0,1,6.76-1.39,13.58,13.58,0,0,1,10.33,4.35Zm-14.82,16.57a7.79,7.79,0,0,0,2.18,5.46,7,7,0,0,0,2.41,1.63,7.7,7.7,0,0,0,3,.58,7.62,7.62,0,0,0,3-.58,7,7,0,0,0,2.4-1.63,8.55,8.55,0,0,0,1.63-2.4,7.06,7.06,0,0,0,.61-2.93,7.3,7.3,0,0,0-.61-3,8.42,8.42,0,0,0-1.63-2.43,7,7,0,0,0-2.4-1.63,7.62,7.62,0,0,0-3-.58,7.7,7.7,0,0,0-3,.58,7,7,0,0,0-2.41,1.63,8,8,0,0,0-1.59,2.37A7.11,7.11,0,0,0,691.39,618.55Z"/><path class="cls-2" d="M739.17,611.79v23.53H727.4V611.79h-3.9V602h3.9V592h11.77v10h6.69v9.81Z"/><path class="cls-2" d="M798.12,581.37H810v54H798.12v-3.7a12.34,12.34,0,0,1-10.2,4.74,16.25,16.25,0,0,1-6.7-1.36,16.61,16.61,0,0,1-5.33-3.77,17.17,17.17,0,0,1-3.54-5.66,19,19,0,0,1-1.27-7,19.26,19.26,0,0,1,1.2-6.79,16.9,16.9,0,0,1,3.42-5.62,16,16,0,0,1,12.09-5.2,13.58,13.58,0,0,1,10.33,4.35ZM783.3,618.55a7.79,7.79,0,0,0,2.18,5.46,7,7,0,0,0,2.4,1.63,7.79,7.79,0,0,0,3,.58,7.54,7.54,0,0,0,3-.58,7.09,7.09,0,0,0,2.41-1.63,8.32,8.32,0,0,0,1.62-2.4,7.06,7.06,0,0,0,.62-2.93,7.31,7.31,0,0,0-.62-3,8.2,8.2,0,0,0-1.62-2.43,7.09,7.09,0,0,0-2.41-1.63,7.82,7.82,0,0,0-5.91,0,7.09,7.09,0,0,0-2.41,1.63,8.45,8.45,0,0,0-1.62,2.37A6.82,6.82,0,0,0,783.3,618.55Z"/><path class="cls-2" d="M828.54,620.63q0,7.61,7.15,7.61a6.4,6.4,0,0,0,5.79-3.12h11.37q-3.45,11.43-17.23,11.44a22.75,22.75,0,0,1-7.73-1.27,17.35,17.35,0,0,1-6-3.61,16,16,0,0,1-3.87-5.59,18.6,18.6,0,0,1-1.36-7.28,20.58,20.58,0,0,1,1.3-7.51,15.72,15.72,0,0,1,3.7-5.68,16.29,16.29,0,0,1,5.82-3.61,22.09,22.09,0,0,1,7.7-1.27,21.69,21.69,0,0,1,7.61,1.27,15.39,15.39,0,0,1,5.72,3.67,16,16,0,0,1,3.57,5.88,23.41,23.41,0,0,1,1.24,7.84v1.23Zm13.78-6.82a7.1,7.1,0,0,0-2.4-4,6.79,6.79,0,0,0-4.42-1.49,6.71,6.71,0,0,0-4.46,1.43,6.42,6.42,0,0,0-2.17,4Z"/><path class="cls-2" d="M871.76,581.37v54H860v-54Z"/><path class="cls-2" d="M890.42,620.63q0,7.61,7.15,7.61a6.38,6.38,0,0,0,5.78-3.12h11.38q-3.45,11.43-17.23,11.44a22.75,22.75,0,0,1-7.73-1.27,17.26,17.26,0,0,1-6-3.61,16,16,0,0,1-3.87-5.59,18.6,18.6,0,0,1-1.37-7.28,20.8,20.8,0,0,1,1.3-7.51,15.87,15.87,0,0,1,3.71-5.68,16.29,16.29,0,0,1,5.82-3.61,22.09,22.09,0,0,1,7.7-1.27,21.59,21.59,0,0,1,7.6,1.27,15.31,15.31,0,0,1,5.72,3.67,16,16,0,0,1,3.58,5.88,23.41,23.41,0,0,1,1.23,7.84v1.23Zm13.78-6.82a7.06,7.06,0,0,0-2.41-4,7.47,7.47,0,0,0-8.87-.06,6.47,6.47,0,0,0-2.18,4Z"/><path class="cls-2" d="M955.74,581.37v23.92a13.81,13.81,0,0,1,10.4-4.35,16.08,16.08,0,0,1,12.06,5.16,17.49,17.49,0,0,1,3.41,5.59,19.65,19.65,0,0,1,0,13.82,17.29,17.29,0,0,1-3.54,5.65,16.87,16.87,0,0,1-5.36,3.8,15.86,15.86,0,0,1-6.67,1.4,12.43,12.43,0,0,1-10.27-4.74v3.7H944v-54Zm14.82,37.38a7.57,7.57,0,0,0-2.21-5.4,8.24,8.24,0,0,0-2.4-1.66,7.2,7.2,0,0,0-3-.61,7.37,7.37,0,0,0-2.93.58,7.12,7.12,0,0,0-2.37,1.63,8.2,8.2,0,0,0-1.62,2.43,7.14,7.14,0,0,0-.62,3,7.37,7.37,0,0,0,.58,2.93,7.12,7.12,0,0,0,1.63,2.37,8.12,8.12,0,0,0,2.44,1.62,7.07,7.07,0,0,0,2.95.62,7.37,7.37,0,0,0,2.93-.58,7.12,7.12,0,0,0,2.37-1.63,8.55,8.55,0,0,0,1.63-2.4A6.9,6.9,0,0,0,970.56,618.75Z"/><path class="cls-2" d="M988.76,589.17a6.56,6.56,0,0,1,.52-2.57,7,7,0,0,1,1.43-2.11,6.89,6.89,0,0,1,2.12-1.43,6.59,6.59,0,0,1,5.13,0,7,7,0,0,1,2.11,1.43,6.62,6.62,0,0,1,1.43,2.11,6.61,6.61,0,0,1,0,5.14,6.51,6.51,0,0,1-1.43,2.11,6.62,6.62,0,0,1-2.11,1.43,6.59,6.59,0,0,1-5.13,0,6.56,6.56,0,0,1-2.12-1.43,6.85,6.85,0,0,1-1.43-2.11A6.52,6.52,0,0,1,988.76,589.17ZM1001.31,602v33.34H989.54V602Z"/><path class="cls-2" d="M1021.13,581.37v54h-11.76v-54Z"/><path class="cls-2" d="M1041,581.37v54h-11.77v-54Z"/><path class="cls-2" d="M1059.61,620.63q0,7.61,7.15,7.61a6.39,6.39,0,0,0,5.79-3.12h11.37q-3.45,11.43-17.22,11.44a22.77,22.77,0,0,1-7.74-1.27,17.35,17.35,0,0,1-6-3.61,16,16,0,0,1-3.87-5.59,18.6,18.6,0,0,1-1.36-7.28,20.58,20.58,0,0,1,1.3-7.51,15.72,15.72,0,0,1,3.7-5.68,16.29,16.29,0,0,1,5.82-3.61,22.09,22.09,0,0,1,7.7-1.27,21.69,21.69,0,0,1,7.61,1.27,15.39,15.39,0,0,1,5.72,3.67,16,16,0,0,1,3.57,5.88,23.41,23.41,0,0,1,1.24,7.84v1.23Zm13.78-6.82a7.1,7.1,0,0,0-2.4-4,7.48,7.48,0,0,0-8.88-.06,6.42,6.42,0,0,0-2.17,4Z"/><path class="cls-2" d="M1116.81,581.37h11.83v54h-11.83v-3.7a12.34,12.34,0,0,1-10.2,4.74,16.25,16.25,0,0,1-6.7-1.36,16.61,16.61,0,0,1-5.33-3.77,17.17,17.17,0,0,1-3.54-5.66,19,19,0,0,1-1.27-7,19.26,19.26,0,0,1,1.2-6.79,16.9,16.9,0,0,1,3.42-5.62,16.11,16.11,0,0,1,5.29-3.81,16.31,16.31,0,0,1,6.8-1.39,13.58,13.58,0,0,1,10.33,4.35ZM1102,618.55a7.79,7.79,0,0,0,.59,3,7.58,7.58,0,0,0,1.59,2.43,7,7,0,0,0,2.4,1.63,7.75,7.75,0,0,0,3,.58,7.54,7.54,0,0,0,3-.58A7.09,7.09,0,0,0,1115,624a8.32,8.32,0,0,0,1.62-2.4,7.06,7.06,0,0,0,.62-2.93,7.31,7.31,0,0,0-.62-3,8.2,8.2,0,0,0-1.62-2.43,7.09,7.09,0,0,0-2.41-1.63,7.82,7.82,0,0,0-5.91,0,7.09,7.09,0,0,0-2.41,1.63,8.45,8.45,0,0,0-1.62,2.37A6.82,6.82,0,0,0,1102,618.55Z"/><path class="cls-2" d="M1147.23,620.63q0,7.61,7.15,7.61a6.4,6.4,0,0,0,5.79-3.12h11.37q-3.45,11.43-17.23,11.44a22.75,22.75,0,0,1-7.73-1.27,17.35,17.35,0,0,1-6-3.61,16,16,0,0,1-3.87-5.59,18.6,18.6,0,0,1-1.37-7.28,20.8,20.8,0,0,1,1.3-7.51,15.87,15.87,0,0,1,3.71-5.68,16.29,16.29,0,0,1,5.82-3.61,22.09,22.09,0,0,1,7.7-1.27,21.59,21.59,0,0,1,7.6,1.27,15.31,15.31,0,0,1,5.72,3.67,15.9,15.9,0,0,1,3.58,5.88,23.41,23.41,0,0,1,1.24,7.84v1.23Zm13.78-6.82a7.06,7.06,0,0,0-2.41-4,7.47,7.47,0,0,0-8.87-.06,6.47,6.47,0,0,0-2.18,4Z"/><path class="cls-2" d="M1192.27,611.79v23.53h-11.76V611.79h-3.9V602h3.9V592h11.76v10h6.7v9.81Z"/><path class="cls-2" d="M1202.8,629.08a7.63,7.63,0,0,1,.59-3,7.48,7.48,0,0,1,4.06-4.06,7.82,7.82,0,0,1,5.91,0,7.54,7.54,0,0,1,4.07,4.06,7.84,7.84,0,0,1,0,5.92,7.52,7.52,0,0,1-1.63,2.44,7.44,7.44,0,0,1-2.44,1.62,7.7,7.7,0,0,1-5.91,0,7.58,7.58,0,0,1-4.65-7Z"/></g></svg>
