<svg xmlns="http://www.w3.org/2000/svg" width="1920" height="1080" viewBox="0 0 1920 1080"><defs><style>.cls-1{fill:#009245;}.cls-2{fill:#fff;}</style></defs><title>kons_slet_2</title><g id="Layer_7" data-name="Layer 7"><rect class="cls-1" x="374.5" y="228" width="1171" height="624" rx="76.14"/><path class="cls-2" d="M780.67,449.23h18.39V430.31H811.8v49H799.06V459.11H780.67v20.21H767.93v-49h12.74Z"/><path class="cls-2" d="M831.56,464.63q0,7.61,7.15,7.61a6.39,6.39,0,0,0,5.79-3.12h11.37q-3.43,11.44-17.22,11.44a22.77,22.77,0,0,1-7.74-1.27,17.2,17.2,0,0,1-6-3.61,16,16,0,0,1-3.87-5.59,18.6,18.6,0,0,1-1.36-7.28,20.58,20.58,0,0,1,1.3-7.51,15.72,15.72,0,0,1,3.7-5.68,16.52,16.52,0,0,1,5.82-3.61,22.13,22.13,0,0,1,7.7-1.27A21.69,21.69,0,0,1,845.8,446a15.52,15.52,0,0,1,5.72,3.67,16,16,0,0,1,3.57,5.89,23.1,23.1,0,0,1,1.24,7.83v1.23Zm13.78-6.82a7.1,7.1,0,0,0-2.4-4,7.47,7.47,0,0,0-8.87-.06,6.45,6.45,0,0,0-2.18,4Z"/><path class="cls-2" d="M874.79,425.37v53.95H863V425.37Z"/><path class="cls-2" d="M896,455.79v23.53H884.21V455.79h-3.9V446h3.9V436H896v10h6.69v9.81Z"/><path class="cls-2" d="M929.19,446H941v5.46a13.45,13.45,0,0,1,4.61-4.58,12.33,12.33,0,0,1,6.37-1.6h1a7.92,7.92,0,0,1,1.27.13v11.25a11.18,11.18,0,0,0-5.07-1.17q-4.1,0-6.15,2.44T941,465v14.3H929.19Z"/><path class="cls-2" d="M958.7,433.17a6.3,6.3,0,0,1,.52-2.56,6.72,6.72,0,0,1,1.43-2.12,7,7,0,0,1,2.11-1.43,6.61,6.61,0,0,1,5.14,0,7,7,0,0,1,2.11,1.43,6.72,6.72,0,0,1,1.43,2.12,6.59,6.59,0,0,1,0,5.13,6.76,6.76,0,0,1-3.54,3.54,6.61,6.61,0,0,1-5.14,0,6.76,6.76,0,0,1-3.54-3.54A6.35,6.35,0,0,1,958.7,433.17ZM971.24,446v33.34H959.48V446Z"/><path class="cls-2" d="M1016.61,446v31.07a34.17,34.17,0,0,1-.32,5,21.59,21.59,0,0,1-.91,3.9,12.25,12.25,0,0,1-2.44,4,16.21,16.21,0,0,1-4,3.22,21.14,21.14,0,0,1-5.29,2.14,25.13,25.13,0,0,1-6.41.78,24.83,24.83,0,0,1-7.15-1,19.4,19.4,0,0,1-5.68-2.7,15.62,15.62,0,0,1-4-4,13.45,13.45,0,0,1-2.08-5h13.26c.82,2.21,2.69,3.32,5.59,3.32a7.53,7.53,0,0,0,5.69-2.08,8.07,8.07,0,0,0,2-5.79v-3.18a21.17,21.17,0,0,1-2.5,2.05,15,15,0,0,1-2.44,1.33,12.37,12.37,0,0,1-2.6.75,18.49,18.49,0,0,1-3,.22,17.16,17.16,0,0,1-6.57-1.23,15.23,15.23,0,0,1-8.54-8.74,18.61,18.61,0,0,1-1.21-6.86,19.3,19.3,0,0,1,1.3-7.12,18.34,18.34,0,0,1,3.55-5.72,16.42,16.42,0,0,1,5.33-3.84,16.1,16.1,0,0,1,6.72-1.39,12.92,12.92,0,0,1,10,4.42V446Zm-26.39,16.51a7.74,7.74,0,0,0,.59,3A7.92,7.92,0,0,0,992.4,468a7.21,7.21,0,0,0,2.41,1.62,7.74,7.74,0,0,0,3,.59,7.63,7.63,0,0,0,3-.59,7.16,7.16,0,0,0,2.4-1.62,8.61,8.61,0,0,0,1.63-2.44,7.56,7.56,0,0,0,0-5.95,8.24,8.24,0,0,0-1.66-2.4,7.57,7.57,0,0,0-5.33-2.21,6.91,6.91,0,0,0-2.93.62,8.32,8.32,0,0,0-2.4,1.62,7.67,7.67,0,0,0-1.66,2.37A7.06,7.06,0,0,0,990.22,462.49Z"/><path class="cls-2" d="M1037.74,455.79v23.53H1026V455.79h-3.9V446h3.9V436h11.77v10h6.69v9.81Z"/><path class="cls-2" d="M1049,433.17a6.47,6.47,0,0,1,.52-2.56,6.89,6.89,0,0,1,1.43-2.12,7,7,0,0,1,2.11-1.43,6.61,6.61,0,0,1,5.14,0,6.85,6.85,0,0,1,2.11,1.43,6.56,6.56,0,0,1,1.43,2.12,6.59,6.59,0,0,1,0,5.13,6.76,6.76,0,0,1-3.54,3.54,6.61,6.61,0,0,1-5.14,0,6.62,6.62,0,0,1-2.11-1.43,6.85,6.85,0,0,1-1.43-2.11A6.52,6.52,0,0,1,1049,433.17ZM1061.53,446v33.34h-11.77V446Z"/><path class="cls-2" d="M1106.9,446v31.07a34.07,34.07,0,0,1-.33,5,21.59,21.59,0,0,1-.91,3.9,12.25,12.25,0,0,1-2.44,4,16.15,16.15,0,0,1-4,3.22,21.22,21.22,0,0,1-5.3,2.14,25.05,25.05,0,0,1-6.4.78,24.78,24.78,0,0,1-7.15-1,19.34,19.34,0,0,1-5.69-2.7,15.62,15.62,0,0,1-4-4,13.45,13.45,0,0,1-2.08-5h13.26c.82,2.21,2.69,3.32,5.59,3.32a7.51,7.51,0,0,0,5.69-2.08,8.07,8.07,0,0,0,2-5.79v-3.18a21.17,21.17,0,0,1-2.5,2.05,14.62,14.62,0,0,1-2.44,1.33,12.37,12.37,0,0,1-2.6.75,18.49,18.49,0,0,1-3,.22,17.07,17.07,0,0,1-6.56-1.23,15.23,15.23,0,0,1-5.17-3.45,15.43,15.43,0,0,1-3.38-5.29,18.82,18.82,0,0,1-1.2-6.86,19.1,19.1,0,0,1,1.3-7.12,18.13,18.13,0,0,1,3.54-5.72,16.42,16.42,0,0,1,5.33-3.84,16.15,16.15,0,0,1,6.73-1.39,12.91,12.91,0,0,1,9.94,4.42V446Zm-26.39,16.51a7.74,7.74,0,0,0,.58,3,7.92,7.92,0,0,0,1.59,2.44,7.31,7.31,0,0,0,2.41,1.62,7.74,7.74,0,0,0,3,.59,7.59,7.59,0,0,0,3-.59,7.16,7.16,0,0,0,2.4-1.62,8.21,8.21,0,0,0,1.63-2.44,7.45,7.45,0,0,0,0-5.95,8.05,8.05,0,0,0-1.66-2.4,7.31,7.31,0,0,0-2.44-1.63,7.39,7.39,0,0,0-2.89-.58,6.87,6.87,0,0,0-2.92.62,8.37,8.37,0,0,0-2.41,1.62,7.84,7.84,0,0,0-1.66,2.37A7.06,7.06,0,0,0,1080.51,462.49Z"/><path class="cls-2" d="M1128,455.79v23.53h-11.76V455.79h-3.9V446h3.9V436H1128v10h6.7v9.81Z"/><path class="cls-2" d="M1138.55,473.08a7.81,7.81,0,0,1,.58-3,7.69,7.69,0,0,1,1.63-2.43,7.59,7.59,0,1,1,0,10.79,7.57,7.57,0,0,1-2.21-5.4Z"/><path class="cls-2" d="M441.44,508.31h18.85a22.13,22.13,0,0,1,9.39,2,25.52,25.52,0,0,1,7.67,5.36,24.87,24.87,0,0,1,5.17,7.8,24.1,24.1,0,0,1,0,18.59,24.78,24.78,0,0,1-5.13,7.83,25.41,25.41,0,0,1-7.67,5.4,22.46,22.46,0,0,1-9.46,2H441.44Zm12.74,38.22h2.92a15.7,15.7,0,0,0,5.92-1,12.61,12.61,0,0,0,4.39-2.86,12.24,12.24,0,0,0,2.73-4.32,15.66,15.66,0,0,0,.94-5.49,15.08,15.08,0,0,0-1-5.46,12.21,12.21,0,0,0-7.15-7.22,15.68,15.68,0,0,0-5.85-1h-2.92Z"/><path class="cls-2" d="M503.19,524v18.78q0,6.18,6,6.18t6-6.18V524h11.76V545c0,4.5-1.48,7.89-4.45,10.14s-7.4,3.38-13.29,3.38-10.33-1.13-13.29-3.38-4.46-5.64-4.46-10.14V524Z"/><path class="cls-2" d="M557,503.37h11.76V528.2a12.89,12.89,0,0,1,4.88-3.93,15.23,15.23,0,0,1,5.78-1q6.3,0,9.53,3.48t3.21,9.39v21.19H580.41V540.49a17.48,17.48,0,0,0-.39-4.1,4.78,4.78,0,0,0-1.3-2.4,5.54,5.54,0,0,0-3.77-1.37,5.81,5.81,0,0,0-4.58,1.79,7.37,7.37,0,0,0-1.6,5.1v17.81H557Z"/><path class="cls-2" d="M625.91,524h11.83v33.34H625.91v-3.7a12.37,12.37,0,0,1-10.21,4.74A16.48,16.48,0,0,1,609,557a16,16,0,0,1-5.33-3.74,17.31,17.31,0,0,1-3.55-5.65,19.46,19.46,0,0,1-1.26-7.09,18.88,18.88,0,0,1,1.23-6.79,17.31,17.31,0,0,1,3.45-5.62,16.17,16.17,0,0,1,5.26-3.8,15.94,15.94,0,0,1,6.76-1.4,13.6,13.6,0,0,1,10.34,4.35Zm-14.82,16.57a7.72,7.72,0,0,0,2.17,5.46,7.18,7.18,0,0,0,2.41,1.63,7.74,7.74,0,0,0,3,.58,7.58,7.58,0,0,0,3-.58,7,7,0,0,0,2.4-1.63,8.35,8.35,0,0,0,1.63-2.4,7.06,7.06,0,0,0,.62-2.93,7.31,7.31,0,0,0-.62-3,8.23,8.23,0,0,0-1.63-2.43,7.19,7.19,0,0,0-2.4-1.63,7.58,7.58,0,0,0-3-.58,7.74,7.74,0,0,0-3,.58,7.33,7.33,0,0,0-2.41,1.63,8,8,0,0,0-1.59,2.37A7.11,7.11,0,0,0,611.09,540.55Z"/><path class="cls-2" d="M645.73,524H657.5v5.46a13.45,13.45,0,0,1,4.61-4.58,12.33,12.33,0,0,1,6.37-1.6h1a7.92,7.92,0,0,1,1.27.13v11.25a11.18,11.18,0,0,0-5.07-1.17q-4.1,0-6.15,2.44t-2,7.11v14.3H645.73Z"/><path class="cls-2" d="M697.28,511.17a6.46,6.46,0,0,1,.51-2.56,6.89,6.89,0,0,1,1.43-2.12,7,7,0,0,1,2.12-1.43,6.59,6.59,0,0,1,5.13,0,6.85,6.85,0,0,1,2.11,1.43,6.75,6.75,0,0,1,1.44,2.12,6.59,6.59,0,0,1,0,5.13,6.7,6.7,0,0,1-1.44,2.11,6.51,6.51,0,0,1-2.11,1.43,6.59,6.59,0,0,1-5.13,0,6.67,6.67,0,0,1-2.12-1.43,6.85,6.85,0,0,1-1.43-2.11A6.51,6.51,0,0,1,697.28,511.17ZM709.82,524v33.34H698.05V524Z"/><path class="cls-2" d="M729.64,503.37V536L742,524h16.13l-16.71,15.4,17.68,17.94H742.58l-12.94-13.58v13.58H717.88v-54Z"/><path class="cls-2" d="M775,503.37V536l12.35-12h16.12l-16.7,15.4,17.68,17.94H788L775,543.74v13.58H763.25v-54Z"/><path class="cls-2" d="M817.2,542.63q0,7.61,7.15,7.61a6.38,6.38,0,0,0,5.78-3.12h11.38q-3.45,11.45-17.22,11.44a22.77,22.77,0,0,1-7.74-1.27,17.2,17.2,0,0,1-6-3.61,16,16,0,0,1-3.87-5.59,18.6,18.6,0,0,1-1.37-7.28,20.8,20.8,0,0,1,1.3-7.51,15.87,15.87,0,0,1,3.71-5.68,16.43,16.43,0,0,1,5.82-3.61,22.09,22.09,0,0,1,7.7-1.27,21.59,21.59,0,0,1,7.6,1.27,15.44,15.44,0,0,1,5.72,3.67,16,16,0,0,1,3.58,5.89A23.35,23.35,0,0,1,842,541.4v1.23ZM831,535.81a7.06,7.06,0,0,0-2.41-4,7.47,7.47,0,0,0-8.87-.06,6.44,6.44,0,0,0-2.17,4Z"/><path class="cls-2" d="M883.5,533.79v23.53H871.73V533.79h-4.22V524h4.22v-5a22.75,22.75,0,0,1,.78-6.63,12.14,12.14,0,0,1,2.08-3.87,15.11,15.11,0,0,1,3.35-3.08,16.32,16.32,0,0,1,4.13-2,14.24,14.24,0,0,1,4.35-.71,11.51,11.51,0,0,1,2.77.32,16.05,16.05,0,0,1,2.56.91v10.27a12.58,12.58,0,0,0-2.17-.87,7.44,7.44,0,0,0-2.12-.3,5.1,5.1,0,0,0-1.46.23,3.21,3.21,0,0,0-1.4.94,4,4,0,0,0-.87,2.05,21.52,21.52,0,0,0-.23,3.61V524h8.25v9.81Z"/><path class="cls-2" d="M922.63,524h11.83v33.34H922.63v-3.7a12.37,12.37,0,0,1-10.21,4.74,16.51,16.51,0,0,1-6.69-1.33,16,16,0,0,1-5.33-3.74,17.12,17.12,0,0,1-3.54-5.65,19.26,19.26,0,0,1-1.27-7.09,18.88,18.88,0,0,1,1.23-6.79,17.31,17.31,0,0,1,3.45-5.62,16.28,16.28,0,0,1,5.26-3.8,15.94,15.94,0,0,1,6.76-1.4,13.6,13.6,0,0,1,10.34,4.35ZM906,511.17a6.51,6.51,0,0,1,2.7-5.52q2.68-2,7.44-2c3.25,0,5.74.69,7.47,2.05a7.23,7.23,0,0,1,0,11.11q-2.6,2.06-7.47,2.05t-7.48-2A6.71,6.71,0,0,1,906,511.17Zm1.82,29.38A7.72,7.72,0,0,0,910,546a7.18,7.18,0,0,0,2.41,1.63,7.74,7.74,0,0,0,3,.58,7.58,7.58,0,0,0,3-.58,7.18,7.18,0,0,0,2.41-1.63,8.32,8.32,0,0,0,1.62-2.4,7.06,7.06,0,0,0,.62-2.93,7.31,7.31,0,0,0-.62-3,8.2,8.2,0,0,0-1.62-2.43,7.33,7.33,0,0,0-2.41-1.63,7.58,7.58,0,0,0-3-.58,7.74,7.74,0,0,0-3,.58,7.33,7.33,0,0,0-2.41,1.63,8,8,0,0,0-1.59,2.37A7.11,7.11,0,0,0,907.81,540.55Zm4.42-29.38c0,2,1.27,3,3.83,3s4-1,4-2.92-1.32-2.93-4-2.93a4.53,4.53,0,0,0-2.79.78A2.46,2.46,0,0,0,912.23,511.17Z"/><path class="cls-2" d="M953.05,542.63q0,7.61,7.15,7.61a6.39,6.39,0,0,0,5.78-3.12h11.38q-3.45,11.45-17.23,11.44a22.71,22.71,0,0,1-7.73-1.27,17.24,17.24,0,0,1-6-3.61,16.14,16.14,0,0,1-3.86-5.59,18.6,18.6,0,0,1-1.37-7.28,20.58,20.58,0,0,1,1.3-7.51,15.74,15.74,0,0,1,3.71-5.68A16.47,16.47,0,0,1,952,524a22.18,22.18,0,0,1,7.71-1.27,21.63,21.63,0,0,1,7.6,1.27,15.44,15.44,0,0,1,5.72,3.67,16.13,16.13,0,0,1,3.58,5.89,23.35,23.35,0,0,1,1.23,7.83v1.23Zm13.78-6.82a7.12,7.12,0,0,0-2.41-4,7.47,7.47,0,0,0-8.87-.06,6.45,6.45,0,0,0-2.18,4Z"/><path class="cls-2" d="M998.09,533.79v23.53H986.33V533.79h-3.9V524h3.9V514h11.76v10h6.7v9.81Z"/><path class="cls-2" d="M1043.07,503.37v54H1031.3v-54Z"/><path class="cls-2" d="M1049.83,540.36a16.29,16.29,0,0,1,1.49-6.92,17.07,17.07,0,0,1,4.16-5.59,19.67,19.67,0,0,1,6.34-3.74,24.26,24.26,0,0,1,16,0,19.58,19.58,0,0,1,6.37,3.7,16.49,16.49,0,0,1,4.19,5.66,17.18,17.18,0,0,1,1.5,7.24,16.94,16.94,0,0,1-1.53,7.25,17.4,17.4,0,0,1-4.19,5.66,18.89,18.89,0,0,1-6.4,3.67,24.7,24.7,0,0,1-8.1,1.3,23.6,23.6,0,0,1-7.93-1.3,18.36,18.36,0,0,1-6.27-3.71,17.29,17.29,0,0,1-4.13-5.75A18.14,18.14,0,0,1,1049.83,540.36Zm12.41.13a7.61,7.61,0,0,0,.62,3.09,8,8,0,0,0,1.63,2.43,7,7,0,0,0,2.4,1.63,7.84,7.84,0,0,0,5.92,0,7,7,0,0,0,2.4-1.63,8.42,8.42,0,0,0,1.63-2.43,7.46,7.46,0,0,0,.61-3,7.22,7.22,0,0,0-.61-2.95,8.34,8.34,0,0,0-1.63-2.44,7,7,0,0,0-2.4-1.63,7.84,7.84,0,0,0-5.92,0,7,7,0,0,0-2.4,1.63,8.15,8.15,0,0,0-1.63,2.4A7.06,7.06,0,0,0,1062.24,540.49Z"/><path class="cls-2" d="M1104.17,524l7.93,17.09,8.06-17.09h13.13l-17.36,33.34h-7.86L1090.91,524Z"/><path class="cls-2" d="M1172.55,533.79v23.53h-11.77V533.79h-3.9V524h3.9V514h11.77v10h6.69v9.81Z"/><path class="cls-2" d="M1183.79,511.17a6.3,6.3,0,0,1,.52-2.56,6.72,6.72,0,0,1,1.43-2.12,7,7,0,0,1,2.11-1.43,6.61,6.61,0,0,1,5.14,0,7,7,0,0,1,2.11,1.43,6.72,6.72,0,0,1,1.43,2.12,6.59,6.59,0,0,1,0,5.13,6.76,6.76,0,0,1-3.54,3.54,6.61,6.61,0,0,1-5.14,0,6.76,6.76,0,0,1-3.54-3.54A6.35,6.35,0,0,1,1183.79,511.17ZM1196.34,524v33.34h-11.77V524Z"/><path class="cls-2" d="M1216.16,503.37v54H1204.4v-54Z"/><path class="cls-2" d="M1272.06,524h11.83v33.34h-11.83v-3.7a12.34,12.34,0,0,1-10.2,4.74,16.56,16.56,0,0,1-6.7-1.33,16.08,16.08,0,0,1-5.33-3.74,17.12,17.12,0,0,1-3.54-5.65,19.26,19.26,0,0,1-1.27-7.09,18.67,18.67,0,0,1,1.24-6.79,17.46,17.46,0,0,1,3.44-5.62,16.21,16.21,0,0,1,5.27-3.8,15.91,15.91,0,0,1,6.76-1.4,13.58,13.58,0,0,1,10.33,4.35Zm-14.82,16.57a7.79,7.79,0,0,0,2.18,5.46,7,7,0,0,0,2.4,1.63,7.75,7.75,0,0,0,3,.58,7.54,7.54,0,0,0,3-.58,7.09,7.09,0,0,0,2.41-1.63,8.32,8.32,0,0,0,1.62-2.4,7.06,7.06,0,0,0,.62-2.93,7.31,7.31,0,0,0-.62-3,8.2,8.2,0,0,0-1.62-2.43,7.23,7.23,0,0,0-2.41-1.63,7.54,7.54,0,0,0-3-.58,7.75,7.75,0,0,0-3,.58,7.19,7.19,0,0,0-2.4,1.63,8,8,0,0,0-1.59,2.37A7.11,7.11,0,0,0,1257.24,540.55Z"/><path class="cls-2" d="M1305,533.79v23.53h-11.77V533.79h-3.9V524h3.9V514H1305v10h6.69v9.81Z"/><path class="cls-2" d="M1364,503.37h11.83v54H1364v-3.7a12.36,12.36,0,0,1-10.21,4.74,16.23,16.23,0,0,1-6.69-1.36,16.61,16.61,0,0,1-5.33-3.77,17.17,17.17,0,0,1-3.54-5.66,19,19,0,0,1-1.27-7,19.3,19.3,0,0,1,1.2-6.79,17,17,0,0,1,3.41-5.62,16.19,16.19,0,0,1,12.09-5.2,13.6,13.6,0,0,1,10.34,4.35Zm-14.82,37.18a7.79,7.79,0,0,0,.58,3,7.61,7.61,0,0,0,1.6,2.43,7,7,0,0,0,2.4,1.63,7.74,7.74,0,0,0,3,.58,7.58,7.58,0,0,0,3-.58,7.18,7.18,0,0,0,2.41-1.63,8.32,8.32,0,0,0,1.62-2.4,7.06,7.06,0,0,0,.62-2.93,7.31,7.31,0,0,0-.62-3,8.2,8.2,0,0,0-1.62-2.43,7.33,7.33,0,0,0-2.41-1.63,7.82,7.82,0,0,0-5.91,0,7.13,7.13,0,0,0-2.41,1.63,8.45,8.45,0,0,0-1.62,2.37A6.67,6.67,0,0,0,1349.15,540.55Z"/><path class="cls-2" d="M1394.39,542.63q0,7.61,7.15,7.61a6.39,6.39,0,0,0,5.78-3.12h11.38q-3.45,11.45-17.23,11.44a22.75,22.75,0,0,1-7.73-1.27,17.11,17.11,0,0,1-6-3.61,16,16,0,0,1-3.87-5.59,18.6,18.6,0,0,1-1.37-7.28,20.8,20.8,0,0,1,1.3-7.51,15.74,15.74,0,0,1,3.71-5.68,16.43,16.43,0,0,1,5.82-3.61,22.09,22.09,0,0,1,7.7-1.27,21.63,21.63,0,0,1,7.6,1.27,15.44,15.44,0,0,1,5.72,3.67,16.13,16.13,0,0,1,3.58,5.89,23.35,23.35,0,0,1,1.23,7.83v1.23Zm13.78-6.82a7.06,7.06,0,0,0-2.41-4,7.47,7.47,0,0,0-8.87-.06,6.5,6.5,0,0,0-2.18,4Z"/><path class="cls-2" d="M1437.61,503.37v54h-11.76v-54Z"/><path class="cls-2" d="M1456.27,542.63q0,7.61,7.15,7.61a6.39,6.39,0,0,0,5.78-3.12h11.38q-3.45,11.45-17.23,11.44a22.75,22.75,0,0,1-7.73-1.27,17.11,17.11,0,0,1-6-3.61,16,16,0,0,1-3.87-5.59,18.6,18.6,0,0,1-1.37-7.28,20.58,20.58,0,0,1,1.3-7.51,15.74,15.74,0,0,1,3.71-5.68,16.43,16.43,0,0,1,5.82-3.61,22.09,22.09,0,0,1,7.7-1.27,21.63,21.63,0,0,1,7.6,1.27,15.52,15.52,0,0,1,5.72,3.67,16.13,16.13,0,0,1,3.58,5.89,23.35,23.35,0,0,1,1.23,7.83v1.23Zm13.78-6.82a7.06,7.06,0,0,0-2.41-4,7.47,7.47,0,0,0-8.87-.06,6.45,6.45,0,0,0-2.18,4Z"/><path class="cls-2" d="M833.58,581.37v23.92a13.79,13.79,0,0,1,10.4-4.35,16.15,16.15,0,0,1,6.79,1.4,16,16,0,0,1,5.27,3.77,17.45,17.45,0,0,1,3.41,5.59,19.77,19.77,0,0,1,0,13.81,17.21,17.21,0,0,1-3.55,5.65,16.65,16.65,0,0,1-5.36,3.8,15.84,15.84,0,0,1-6.66,1.4,12.41,12.41,0,0,1-10.27-4.74v3.7H821.81v-54Zm14.82,37.38a7.69,7.69,0,0,0-2.21-5.4,8.2,8.2,0,0,0-2.41-1.65,7,7,0,0,0-3-.62,7.25,7.25,0,0,0-5.29,2.21,8,8,0,0,0-1.63,2.43,7.4,7.4,0,0,0,1.59,8.26,8.61,8.61,0,0,0,2.44,1.63,7.39,7.39,0,0,0,8.26-1.6,8.32,8.32,0,0,0,1.62-2.4A6.91,6.91,0,0,0,848.4,618.75Z"/><path class="cls-2" d="M866.6,589.17a6.3,6.3,0,0,1,.52-2.56,6.56,6.56,0,0,1,1.43-2.12,6.85,6.85,0,0,1,2.11-1.43,6.59,6.59,0,0,1,5.13,0,6.7,6.7,0,0,1,3.55,3.55,6.59,6.59,0,0,1,0,5.13,6.85,6.85,0,0,1-1.43,2.11,6.56,6.56,0,0,1-2.12,1.43,6.59,6.59,0,0,1-5.13,0,6.76,6.76,0,0,1-3.54-3.54A6.35,6.35,0,0,1,866.6,589.17ZM879.14,602v33.34H867.38V602Z"/><path class="cls-2" d="M899,581.37v54H887.2v-54Z"/><path class="cls-2" d="M918.79,581.37v54H907v-54Z"/><path class="cls-2" d="M937.45,620.63q0,7.61,7.15,7.61a6.39,6.39,0,0,0,5.78-3.12h11.38q-3.45,11.43-17.23,11.44a22.71,22.71,0,0,1-7.73-1.27,17.24,17.24,0,0,1-6-3.61,16.14,16.14,0,0,1-3.86-5.59,18.6,18.6,0,0,1-1.37-7.28,20.58,20.58,0,0,1,1.3-7.51,15.74,15.74,0,0,1,3.71-5.68,16.47,16.47,0,0,1,5.81-3.61,22.18,22.18,0,0,1,7.71-1.27,21.63,21.63,0,0,1,7.6,1.27,15.52,15.52,0,0,1,5.72,3.67,16.17,16.17,0,0,1,3.58,5.88,23.41,23.41,0,0,1,1.23,7.84v1.23Zm13.78-6.82a7.12,7.12,0,0,0-2.41-4,6.77,6.77,0,0,0-4.42-1.49,6.7,6.7,0,0,0-4.45,1.43,6.43,6.43,0,0,0-2.18,4Z"/><path class="cls-2" d="M994.64,581.37h11.83v54H994.64v-3.7a12.34,12.34,0,0,1-10.2,4.74,16.17,16.17,0,0,1-6.69-1.36,16.5,16.5,0,0,1-5.33-3.77,17.36,17.36,0,0,1-3.55-5.66,20,20,0,0,1-.06-13.81,17,17,0,0,1,3.41-5.62,16.19,16.19,0,0,1,12.09-5.2,13.56,13.56,0,0,1,10.33,4.35Zm-14.81,37.18A7.72,7.72,0,0,0,982,624a7,7,0,0,0,2.41,1.63,7.74,7.74,0,0,0,3,.58,7.58,7.58,0,0,0,3-.58,7,7,0,0,0,2.4-1.63,8.35,8.35,0,0,0,1.63-2.4,7.06,7.06,0,0,0,.62-2.93,7.31,7.31,0,0,0-.62-3,8.23,8.23,0,0,0-1.63-2.43,7.19,7.19,0,0,0-2.4-1.63,7.84,7.84,0,0,0-5.92,0,7.19,7.19,0,0,0-2.4,1.63,8.28,8.28,0,0,0-1.63,2.37A6.81,6.81,0,0,0,979.83,618.55Z"/><path class="cls-2" d="M1025.06,620.63q0,7.61,7.15,7.61a6.39,6.39,0,0,0,5.79-3.12h11.37q-3.43,11.43-17.22,11.44a22.77,22.77,0,0,1-7.74-1.27,17.2,17.2,0,0,1-6-3.61,16,16,0,0,1-3.87-5.59,18.6,18.6,0,0,1-1.36-7.28,20.58,20.58,0,0,1,1.3-7.51,15.85,15.85,0,0,1,3.7-5.68A16.61,16.61,0,0,1,1024,602a22.13,22.13,0,0,1,7.7-1.27,21.69,21.69,0,0,1,7.61,1.27,15.52,15.52,0,0,1,5.72,3.67,16,16,0,0,1,3.57,5.88,23.16,23.16,0,0,1,1.24,7.84v1.23Zm13.78-6.82a7.1,7.1,0,0,0-2.4-4,6.79,6.79,0,0,0-4.42-1.49,6.68,6.68,0,0,0-4.45,1.43,6.43,6.43,0,0,0-2.18,4Z"/><path class="cls-2" d="M1070.11,611.79v23.53h-11.77V611.79h-3.9V602h3.9V592h11.77v10h6.69v9.81Z"/><path class="cls-2" d="M1082.07,629.08a7.62,7.62,0,0,1,.58-3,7.57,7.57,0,0,1,4.06-4.06,7.67,7.67,0,0,1,8.36,1.63,7.5,7.5,0,0,1,1.62,2.43,7.72,7.72,0,0,1,0,5.92,7.54,7.54,0,0,1-1.62,2.44,7.71,7.71,0,0,1-8.36,1.62,7.5,7.5,0,0,1-2.43-1.62,7.41,7.41,0,0,1-1.63-2.44A7.58,7.58,0,0,1,1082.07,629.08Zm1.49-10.4V586.31h12.22v32.37Z"/></g></svg>
