<svg xmlns="http://www.w3.org/2000/svg" width="1920" height="1080" viewBox="0 0 1920 1080"><defs><style>.cls-1{fill:#c1272d;}.cls-2{fill:#fff;}</style></defs><title>kons_del_3</title><g id="Layer_4" data-name="Layer 4"><rect class="cls-1" x="374.5" y="228" width="1171" height="624" rx="76.14"/><path class="cls-2" d="M843.59,402.1H828.25v8.19h14v10.79h-14v19.24H815.51v-49h28.08Z"/><path class="cls-2" d="M848.27,423.36a16.15,16.15,0,0,1,1.49-6.92,16.93,16.93,0,0,1,4.16-5.59,19.67,19.67,0,0,1,6.34-3.74,22.87,22.87,0,0,1,8-1.37,23.13,23.13,0,0,1,8,1.34,19.58,19.58,0,0,1,6.37,3.7,16.62,16.62,0,0,1,4.19,5.66,17.18,17.18,0,0,1,1.5,7.24,16.94,16.94,0,0,1-1.53,7.25,17.4,17.4,0,0,1-4.19,5.66,18.84,18.84,0,0,1-6.41,3.67,24.64,24.64,0,0,1-8.09,1.3,23.6,23.6,0,0,1-7.93-1.3,18.17,18.17,0,0,1-6.27-3.71,17.15,17.15,0,0,1-4.13-5.75A18,18,0,0,1,848.27,423.36Zm12.41.13a7.61,7.61,0,0,0,.62,3.09,8.2,8.2,0,0,0,1.62,2.43,7.18,7.18,0,0,0,2.41,1.63,7.82,7.82,0,0,0,5.91,0,7,7,0,0,0,2.41-1.63,8.2,8.2,0,0,0,1.62-2.43,7.3,7.3,0,0,0,.62-3,7.07,7.07,0,0,0-.62-2.95,8.12,8.12,0,0,0-1.62-2.44,7.13,7.13,0,0,0-2.41-1.63,7.82,7.82,0,0,0-5.91,0,7.33,7.33,0,0,0-2.41,1.63,8.32,8.32,0,0,0-1.62,2.4A7.06,7.06,0,0,0,860.68,423.49Z"/><path class="cls-2" d="M895.07,407h11.76v5.46a13.56,13.56,0,0,1,4.62-4.58,12.33,12.33,0,0,1,6.37-1.6h1a7.92,7.92,0,0,1,1.27.13v11.25a11.18,11.18,0,0,0-5.07-1.17q-4.1,0-6.14,2.44t-2,7.11v14.3H895.07Z"/><path class="cls-2" d="M937.12,386.37V419l12.35-12h16.12l-16.7,15.4,17.68,17.94H950.06l-12.94-13.58v13.58H925.36V386.37Z"/><path class="cls-2" d="M979.31,425.63q0,7.61,7.15,7.61a6.39,6.39,0,0,0,5.78-3.12h11.38q-3.45,11.44-17.23,11.44a22.47,22.47,0,0,1-7.73-1.27,17.24,17.24,0,0,1-6-3.61,16,16,0,0,1-3.86-5.59,18.6,18.6,0,0,1-1.37-7.28,20.49,20.49,0,0,1,1.3-7.5,15.7,15.7,0,0,1,3.71-5.69,16.47,16.47,0,0,1,5.81-3.61,22.18,22.18,0,0,1,7.71-1.27,21.63,21.63,0,0,1,7.6,1.27,15.52,15.52,0,0,1,5.72,3.67,16.13,16.13,0,0,1,3.58,5.89,23.35,23.35,0,0,1,1.23,7.83v1.23Zm13.78-6.82a7.12,7.12,0,0,0-2.41-4,7.47,7.47,0,0,0-8.87-.06,6.45,6.45,0,0,0-2.18,4Z"/><path class="cls-2" d="M1010.77,407h11.76v5.46a13.56,13.56,0,0,1,4.62-4.58,12.3,12.3,0,0,1,6.37-1.6h1a7.92,7.92,0,0,1,1.27.13v11.25a11.18,11.18,0,0,0-5.07-1.17q-4.1,0-6.14,2.44t-2,7.11v14.3h-11.76Z"/><path class="cls-2" d="M1055.42,416.79v23.53h-11.77V416.79h-3.9V407h3.9V397h11.77v10h6.69v9.81Z"/><path class="cls-2" d="M1067.38,434.08a7.54,7.54,0,0,1,.58-2.95,7.31,7.31,0,0,1,1.63-2.44,7.57,7.57,0,0,1,5.39-2.21,7.58,7.58,0,0,1,3,.58,7.68,7.68,0,0,1,2.44,1.63,7.44,7.44,0,0,1,1.62,2.44,7.69,7.69,0,0,1-1.62,8.35,7.69,7.69,0,0,1-5.4,2.21,7.54,7.54,0,0,1-3-.59A7.46,7.46,0,0,1,1068,437,7.58,7.58,0,0,1,1067.38,434.08Zm1.49-10.4V391.31h12.22v32.37Z"/><path class="cls-2" d="M523.4,469.31h18.85a22.1,22.1,0,0,1,9.39,2,25.39,25.39,0,0,1,7.67,5.36,24.87,24.87,0,0,1,5.17,7.8,23.65,23.65,0,0,1,1.89,9.33,24,24,0,0,1-1.85,9.26,24.81,24.81,0,0,1-5.14,7.83,25.23,25.23,0,0,1-7.67,5.4,22.43,22.43,0,0,1-9.46,2H523.4Zm12.74,38.22h2.93a15.65,15.65,0,0,0,5.91-1,12.52,12.52,0,0,0,4.39-2.86,12.24,12.24,0,0,0,2.73-4.32,15.44,15.44,0,0,0,.94-5.49,15.08,15.08,0,0,0-1-5.46A12.55,12.55,0,0,0,549.3,484a12.76,12.76,0,0,0-4.38-2.86,15.75,15.75,0,0,0-5.85-1h-2.93Z"/><path class="cls-2" d="M584,503.63q0,7.61,7.15,7.61a6.39,6.39,0,0,0,5.79-3.12h11.37q-3.43,11.45-17.22,11.44a22.52,22.52,0,0,1-7.74-1.27,17.2,17.2,0,0,1-6-3.61,16,16,0,0,1-3.87-5.59,18.6,18.6,0,0,1-1.36-7.28,20.49,20.49,0,0,1,1.3-7.5,15.67,15.67,0,0,1,3.7-5.69,16.52,16.52,0,0,1,5.82-3.61,22.13,22.13,0,0,1,7.7-1.27,21.69,21.69,0,0,1,7.61,1.27,15.52,15.52,0,0,1,5.72,3.67,16,16,0,0,1,3.57,5.89,23.35,23.35,0,0,1,1.24,7.83v1.23Zm13.78-6.82a7.1,7.1,0,0,0-2.4-4,7.48,7.48,0,0,0-8.88-.06,6.49,6.49,0,0,0-2.17,4Z"/><path class="cls-2" d="M627.21,464.37v54H615.44v-54Z"/><path class="cls-2" d="M683.11,485h11.83v33.34H683.11v-3.7a12.37,12.37,0,0,1-10.21,4.74,16.48,16.48,0,0,1-6.69-1.33,16,16,0,0,1-5.33-3.74,17.21,17.21,0,0,1-3.55-5.65,19.46,19.46,0,0,1-1.26-7.09,18.88,18.88,0,0,1,1.23-6.79,17.31,17.31,0,0,1,3.45-5.62,16.17,16.17,0,0,1,5.26-3.8,15.94,15.94,0,0,1,6.76-1.4,13.6,13.6,0,0,1,10.34,4.35Zm-14.82,16.57a7.72,7.72,0,0,0,2.17,5.46,7.09,7.09,0,0,0,2.41,1.63,7.74,7.74,0,0,0,3,.58,7.58,7.58,0,0,0,3-.58,7,7,0,0,0,2.4-1.63,8.35,8.35,0,0,0,1.63-2.4,7.06,7.06,0,0,0,.62-2.93,7.23,7.23,0,0,0-.62-2.95,8.15,8.15,0,0,0-1.63-2.44,7.19,7.19,0,0,0-2.4-1.63,7.58,7.58,0,0,0-3-.58,7.74,7.74,0,0,0-3,.58,7.23,7.23,0,0,0-2.41,1.63,8,8,0,0,0-1.59,2.37A7.11,7.11,0,0,0,668.29,501.55Z"/><path class="cls-2" d="M714.7,464.37v54H702.93v-54Z"/><path class="cls-2" d="M748.49,464.37h11.83v54H748.49v-3.7a12.34,12.34,0,0,1-10.2,4.74,16.25,16.25,0,0,1-6.7-1.36,16.72,16.72,0,0,1-5.33-3.77,17.5,17.5,0,0,1-3.54-5.66,20,20,0,0,1-.06-13.81,17,17,0,0,1,3.41-5.62,16.19,16.19,0,0,1,12.09-5.2,13.58,13.58,0,0,1,10.33,4.35Zm-14.82,37.18a7.79,7.79,0,0,0,2.18,5.46,7,7,0,0,0,2.41,1.63,7.74,7.74,0,0,0,3,.58,7.62,7.62,0,0,0,3-.58,7,7,0,0,0,2.4-1.63,8.35,8.35,0,0,0,1.63-2.4,7.06,7.06,0,0,0,.61-2.93,7.22,7.22,0,0,0-.61-2.95,8.15,8.15,0,0,0-1.63-2.44,7.19,7.19,0,0,0-2.4-1.63,7.84,7.84,0,0,0-5.92,0,7.19,7.19,0,0,0-2.4,1.63,8.28,8.28,0,0,0-1.63,2.37A6.82,6.82,0,0,0,733.67,501.55Z"/><path class="cls-2" d="M768.32,485h11.76v5.46a13.56,13.56,0,0,1,4.62-4.58,12.33,12.33,0,0,1,6.37-1.6h1a7.81,7.81,0,0,1,1.26.13v11.25a11.18,11.18,0,0,0-5.07-1.17c-2.73,0-4.77.81-6.14,2.44s-2,4-2,7.11v14.3H768.32Z"/><path class="cls-2" d="M797.83,472.17a6.3,6.3,0,0,1,.52-2.56,6.56,6.56,0,0,1,1.43-2.12,6.85,6.85,0,0,1,2.11-1.43,6.61,6.61,0,0,1,5.14,0,7,7,0,0,1,2.11,1.43,6.89,6.89,0,0,1,1.43,2.12,6.59,6.59,0,0,1,0,5.13,6.85,6.85,0,0,1-1.43,2.11,6.62,6.62,0,0,1-2.11,1.43,6.61,6.61,0,0,1-5.14,0,6.76,6.76,0,0,1-3.54-3.54A6.35,6.35,0,0,1,797.83,472.17ZM810.37,485v33.34H798.61V485Z"/><path class="cls-2" d="M855.74,485v31.07a35.62,35.62,0,0,1-.32,5,21.59,21.59,0,0,1-.91,3.9,12.15,12.15,0,0,1-2.44,4,16.39,16.39,0,0,1-4,3.22,21.14,21.14,0,0,1-5.29,2.14,25.13,25.13,0,0,1-6.41.78,24.83,24.83,0,0,1-7.15-1,19.4,19.4,0,0,1-5.68-2.7,15.62,15.62,0,0,1-4-4,13.29,13.29,0,0,1-2.08-5h13.26q1.23,3.31,5.59,3.32a7.53,7.53,0,0,0,5.69-2.08,8.07,8.07,0,0,0,2-5.79v-3.18a20.43,20.43,0,0,1-2.51,2A14.54,14.54,0,0,1,839,518a12.55,12.55,0,0,1-2.6.75,18.49,18.49,0,0,1-3,.22,17.12,17.12,0,0,1-6.57-1.23,15.15,15.15,0,0,1-8.54-8.74,18.61,18.61,0,0,1-1.21-6.86,19.3,19.3,0,0,1,1.3-7.12A18.5,18.5,0,0,1,822,489.3a16.46,16.46,0,0,1,5.33-3.83,16,16,0,0,1,6.73-1.4,12.92,12.92,0,0,1,10,4.42V485Zm-26.39,16.51a7.74,7.74,0,0,0,.59,3,7.92,7.92,0,0,0,1.59,2.44,7.11,7.11,0,0,0,2.41,1.62,7.71,7.71,0,0,0,3,.59,7.63,7.63,0,0,0,3-.59,7.16,7.16,0,0,0,2.4-1.62,8.61,8.61,0,0,0,1.63-2.44,7.56,7.56,0,0,0,0-5.95,8.24,8.24,0,0,0-1.66-2.4,7.68,7.68,0,0,0-2.44-1.63A7.42,7.42,0,0,0,837,494a6.91,6.91,0,0,0-2.93.62,8.32,8.32,0,0,0-2.4,1.62,7.51,7.51,0,0,0-1.66,2.37A7.06,7.06,0,0,0,829.35,501.49Z"/><path class="cls-2" d="M896.43,503.63q0,7.61,7.15,7.61a6.39,6.39,0,0,0,5.79-3.12h11.37q-3.45,11.45-17.22,11.44a22.52,22.52,0,0,1-7.74-1.27,17.2,17.2,0,0,1-6-3.61,16,16,0,0,1-3.87-5.59,18.6,18.6,0,0,1-1.36-7.28,20.49,20.49,0,0,1,1.3-7.5,15.67,15.67,0,0,1,3.7-5.69,16.43,16.43,0,0,1,5.82-3.61,22.09,22.09,0,0,1,7.7-1.27,21.69,21.69,0,0,1,7.61,1.27,15.52,15.52,0,0,1,5.72,3.67,16,16,0,0,1,3.57,5.89,23.35,23.35,0,0,1,1.24,7.83v1.23Zm13.78-6.82a7.1,7.1,0,0,0-2.4-4,7.48,7.48,0,0,0-8.88-.06,6.49,6.49,0,0,0-2.17,4Z"/><path class="cls-2" d="M941.48,494.79v23.53H929.71V494.79h-3.9V485h3.9V475h11.77v10h6.69v9.81Z"/><path class="cls-2" d="M986.45,464.37v23.92a13.81,13.81,0,0,1,10.4-4.35,16.19,16.19,0,0,1,6.8,1.4,15.92,15.92,0,0,1,5.26,3.77,17.27,17.27,0,0,1,3.41,5.59,19.62,19.62,0,0,1,0,13.81,17,17,0,0,1-8.9,9.46,16,16,0,0,1-6.67,1.39,12.43,12.43,0,0,1-10.27-4.74v3.7H974.69v-54Zm14.82,37.38a7.57,7.57,0,0,0-2.21-5.4,8,8,0,0,0-2.4-1.65,7.05,7.05,0,0,0-3-.62,7.37,7.37,0,0,0-2.93.58,7.27,7.27,0,0,0-2.37,1.63,8.12,8.12,0,0,0-1.62,2.44,7.07,7.07,0,0,0-.62,2.95,7.37,7.37,0,0,0,.58,2.93,7.27,7.27,0,0,0,1.63,2.37,8.34,8.34,0,0,0,2.44,1.63,7.22,7.22,0,0,0,3,.61,7.37,7.37,0,0,0,2.93-.58A7.12,7.12,0,0,0,999,507a8.55,8.55,0,0,0,1.63-2.4A6.87,6.87,0,0,0,1001.27,501.75Z"/><path class="cls-2" d="M1019.47,472.17a6.47,6.47,0,0,1,.52-2.56,6.7,6.7,0,0,1,3.55-3.55,6.59,6.59,0,0,1,5.13,0,6.85,6.85,0,0,1,2.11,1.43,6.56,6.56,0,0,1,1.43,2.12,6.59,6.59,0,0,1,0,5.13,6.76,6.76,0,0,1-3.54,3.54,6.59,6.59,0,0,1-5.13,0,6.56,6.56,0,0,1-2.12-1.43,6.85,6.85,0,0,1-1.43-2.11A6.52,6.52,0,0,1,1019.47,472.17ZM1032,485v33.34h-11.77V485Z"/><path class="cls-2" d="M1051.84,464.37v54h-11.76v-54Z"/><path class="cls-2" d="M1071.67,464.37v54H1059.9v-54Z"/><path class="cls-2" d="M1090.32,503.63q0,7.61,7.15,7.61a6.39,6.39,0,0,0,5.79-3.12h11.37q-3.45,11.45-17.22,11.44a22.52,22.52,0,0,1-7.74-1.27,17.2,17.2,0,0,1-6-3.61,16,16,0,0,1-3.87-5.59,18.6,18.6,0,0,1-1.36-7.28,20.49,20.49,0,0,1,1.3-7.5,15.67,15.67,0,0,1,3.7-5.69,16.52,16.52,0,0,1,5.82-3.61,22.09,22.09,0,0,1,7.7-1.27,21.69,21.69,0,0,1,7.61,1.27,15.52,15.52,0,0,1,5.72,3.67,16,16,0,0,1,3.57,5.89,23.35,23.35,0,0,1,1.24,7.83v1.23Zm13.78-6.82a7.1,7.1,0,0,0-2.4-4,7.48,7.48,0,0,0-8.88-.06,6.49,6.49,0,0,0-2.17,4Z"/><path class="cls-2" d="M1147.52,464.37h11.83v54h-11.83v-3.7a12.34,12.34,0,0,1-10.2,4.74,16.25,16.25,0,0,1-6.7-1.36,16.61,16.61,0,0,1-5.33-3.77,17.17,17.17,0,0,1-3.54-5.66,19,19,0,0,1-1.27-7,19.3,19.3,0,0,1,1.2-6.79,16.9,16.9,0,0,1,3.42-5.62,16.14,16.14,0,0,1,12.09-5.2,13.58,13.58,0,0,1,10.33,4.35Zm-14.82,37.18a7.79,7.79,0,0,0,2.18,5.46,7,7,0,0,0,2.4,1.63,7.75,7.75,0,0,0,3,.58,7.54,7.54,0,0,0,3-.58,7,7,0,0,0,2.41-1.63,8.32,8.32,0,0,0,1.62-2.4,6.91,6.91,0,0,0,.62-2.93,7.07,7.07,0,0,0-.62-2.95,8.12,8.12,0,0,0-1.62-2.44,7.13,7.13,0,0,0-2.41-1.63,7.82,7.82,0,0,0-5.91,0,7.33,7.33,0,0,0-2.41,1.63,8.45,8.45,0,0,0-1.62,2.37A6.82,6.82,0,0,0,1132.7,501.55Z"/><path class="cls-2" d="M1177.94,503.63q0,7.61,7.15,7.61a6.39,6.39,0,0,0,5.79-3.12h11.37q-3.45,11.45-17.22,11.44a22.52,22.52,0,0,1-7.74-1.27,17.2,17.2,0,0,1-6-3.61,16,16,0,0,1-3.87-5.59,18.6,18.6,0,0,1-1.37-7.28,20.49,20.49,0,0,1,1.31-7.5,15.67,15.67,0,0,1,3.7-5.69,16.43,16.43,0,0,1,5.82-3.61,22.09,22.09,0,0,1,7.7-1.27,21.69,21.69,0,0,1,7.61,1.27,15.52,15.52,0,0,1,5.72,3.67,16,16,0,0,1,3.57,5.89,23.35,23.35,0,0,1,1.24,7.83v1.23Zm13.78-6.82a7.1,7.1,0,0,0-2.4-4,7.48,7.48,0,0,0-8.88-.06,6.44,6.44,0,0,0-2.17,4Z"/><path class="cls-2" d="M1243.26,485v18.78q0,6.18,6,6.18t6-6.18V485H1267V506c0,4.5-1.49,7.89-4.45,10.14s-7.4,3.38-13.3,3.38-10.32-1.13-13.29-3.38-4.45-5.64-4.45-10.14V485Z"/><path class="cls-2" d="M1300.72,464.37h11.83v54h-11.83v-3.7a12.34,12.34,0,0,1-10.2,4.74,16.25,16.25,0,0,1-6.7-1.36,16.72,16.72,0,0,1-5.33-3.77,17.5,17.5,0,0,1-3.54-5.66,19.85,19.85,0,0,1-.06-13.81,16.88,16.88,0,0,1,3.41-5.62,16.19,16.19,0,0,1,12.09-5.2,13.58,13.58,0,0,1,10.33,4.35Zm-14.82,37.18a7.79,7.79,0,0,0,2.18,5.46,7,7,0,0,0,2.41,1.63,7.74,7.74,0,0,0,3,.58,7.62,7.62,0,0,0,3-.58,7,7,0,0,0,2.4-1.63,8.55,8.55,0,0,0,1.63-2.4,7.06,7.06,0,0,0,.61-2.93,7.22,7.22,0,0,0-.61-2.95,8.34,8.34,0,0,0-1.63-2.44,7.19,7.19,0,0,0-2.4-1.63,7.84,7.84,0,0,0-5.92,0,7.19,7.19,0,0,0-2.4,1.63,8.28,8.28,0,0,0-1.63,2.37A6.82,6.82,0,0,0,1285.9,501.55Z"/><path class="cls-2" d="M1331.14,503.63q0,7.61,7.15,7.61a6.39,6.39,0,0,0,5.79-3.12h11.37q-3.43,11.45-17.22,11.44a22.52,22.52,0,0,1-7.74-1.27,17.2,17.2,0,0,1-6-3.61,16,16,0,0,1-3.87-5.59,18.6,18.6,0,0,1-1.36-7.28,20.49,20.49,0,0,1,1.3-7.5,15.67,15.67,0,0,1,3.7-5.69,16.52,16.52,0,0,1,5.82-3.61,22.13,22.13,0,0,1,7.7-1.27,21.69,21.69,0,0,1,7.61,1.27,15.52,15.52,0,0,1,5.72,3.67,16,16,0,0,1,3.57,5.89,23.1,23.1,0,0,1,1.24,7.83v1.23Zm13.78-6.82a7.1,7.1,0,0,0-2.4-4,7.47,7.47,0,0,0-8.87-.06,6.45,6.45,0,0,0-2.18,4Z"/><path class="cls-2" d="M1362.6,485h11.77v4.22a12.87,12.87,0,0,1,4.87-3.93,15.32,15.32,0,0,1,5.79-1,14.42,14.42,0,0,1,6,1.14,12,12,0,0,1,4.26,3.22,9.33,9.33,0,0,1,2,3.77,19.93,19.93,0,0,1,.52,4.74v21.19H1386V501.49a18,18,0,0,0-.36-4,5,5,0,0,0-1.26-2.44,4.5,4.5,0,0,0-1.76-1.1,6.43,6.43,0,0,0-2.08-.33,5.82,5.82,0,0,0-4.58,1.79,7.42,7.42,0,0,0-1.59,5.1v17.81H1362.6Z"/><path class="cls-2" d="M444.14,572.79v23.53H432.37V572.79h-3.9V563h3.9V553h11.77v10h6.69v9.81Z"/><path class="cls-2" d="M455.38,550.17a6.3,6.3,0,0,1,.52-2.56,6.72,6.72,0,0,1,1.43-2.12,7,7,0,0,1,2.11-1.43,6.61,6.61,0,0,1,5.14,0,7,7,0,0,1,2.11,1.43,6.72,6.72,0,0,1,1.43,2.12,6.59,6.59,0,0,1,0,5.13,6.76,6.76,0,0,1-3.54,3.54,6.61,6.61,0,0,1-5.14,0,6.76,6.76,0,0,1-3.54-3.54A6.35,6.35,0,0,1,455.38,550.17ZM467.92,563v33.34H456.16V563Z"/><path class="cls-2" d="M487.75,542.37v54H476v-54Z"/><path class="cls-2" d="M507.57,542.37v54H495.81v-54Z"/><path class="cls-2" d="M541.37,563H553.2v33.34H541.37v-3.7a12.34,12.34,0,0,1-10.2,4.74,16.56,16.56,0,0,1-6.7-1.33,16.18,16.18,0,0,1-5.33-3.74,17.18,17.18,0,0,1-3.54-5.65,19.47,19.47,0,0,1-1.27-7.09,18.67,18.67,0,0,1,1.24-6.79,17.46,17.46,0,0,1,3.44-5.62,16.32,16.32,0,0,1,5.27-3.8,15.91,15.91,0,0,1,6.76-1.4,13.58,13.58,0,0,1,10.33,4.35Zm-14.82,16.57a7.79,7.79,0,0,0,2.18,5.46,7,7,0,0,0,2.41,1.63,7.7,7.7,0,0,0,3,.58,7.62,7.62,0,0,0,3-.58,7,7,0,0,0,2.4-1.63,8.55,8.55,0,0,0,1.63-2.4,7.06,7.06,0,0,0,.61-2.93,7.22,7.22,0,0,0-.61-2.95,8.34,8.34,0,0,0-1.63-2.44,7.19,7.19,0,0,0-2.4-1.63,7.62,7.62,0,0,0-3-.58,7.7,7.7,0,0,0-3,.58,7.13,7.13,0,0,0-2.41,1.63,8,8,0,0,0-1.59,2.37A7.11,7.11,0,0,0,526.55,579.55Z"/><path class="cls-2" d="M586.94,542.37h11.83v54H586.94v-3.7a12.37,12.37,0,0,1-10.21,4.74A16.17,16.17,0,0,1,570,596a16.5,16.5,0,0,1-5.33-3.77,17.07,17.07,0,0,1-3.54-5.66,19,19,0,0,1-1.27-7,19.3,19.3,0,0,1,1.2-6.79,17,17,0,0,1,3.41-5.62,16.19,16.19,0,0,1,12.09-5.2,13.6,13.6,0,0,1,10.34,4.35Zm-14.82,37.18a7.72,7.72,0,0,0,2.17,5.46,7.18,7.18,0,0,0,2.41,1.63,7.74,7.74,0,0,0,3,.58,7.58,7.58,0,0,0,3-.58,7,7,0,0,0,2.4-1.63,8.15,8.15,0,0,0,1.63-2.4,7.06,7.06,0,0,0,.62-2.93,7.23,7.23,0,0,0-.62-2.95,8,8,0,0,0-1.63-2.44,7.19,7.19,0,0,0-2.4-1.63,7.82,7.82,0,0,0-5.91,0,7.13,7.13,0,0,0-2.41,1.63,8.7,8.7,0,0,0-1.63,2.37A6.81,6.81,0,0,0,572.12,579.55Z"/><path class="cls-2" d="M617.36,581.63q0,7.61,7.15,7.61a6.39,6.39,0,0,0,5.78-3.12h11.38q-3.45,11.45-17.23,11.44a22.47,22.47,0,0,1-7.73-1.27,17.24,17.24,0,0,1-6-3.61,16.14,16.14,0,0,1-3.86-5.59,18.6,18.6,0,0,1-1.37-7.28,20.49,20.49,0,0,1,1.3-7.5,15.7,15.7,0,0,1,3.71-5.69,16.43,16.43,0,0,1,5.82-3.61,22.09,22.09,0,0,1,7.7-1.27,21.63,21.63,0,0,1,7.6,1.27,15.52,15.52,0,0,1,5.72,3.67,16.13,16.13,0,0,1,3.58,5.89,23.35,23.35,0,0,1,1.23,7.83v1.23Zm13.78-6.82a7.06,7.06,0,0,0-2.41-4,7.47,7.47,0,0,0-8.87-.06,6.45,6.45,0,0,0-2.18,4Z"/><path class="cls-2" d="M660.58,542.37v54H648.82v-54Z"/><path class="cls-2" d="M690.74,571.56a13.72,13.72,0,0,0-6.37-1.69,4.81,4.81,0,0,0-2.63.65,2,2,0,0,0-1,1.75,2.32,2.32,0,0,0,.16,1,1.76,1.76,0,0,0,.72.68,6,6,0,0,0,1.62.58c.72.18,1.66.39,2.83.65a13.48,13.48,0,0,1,7.28,3.48,8.87,8.87,0,0,1,2.41,6.4,11.63,11.63,0,0,1-1.17,5.27,11.36,11.36,0,0,1-3.25,3.93,15.44,15.44,0,0,1-5,2.47,22.14,22.14,0,0,1-6.44.88,26.14,26.14,0,0,1-13.32-3.84l4.29-8.32q4.93,3.39,9.36,3.38a4.62,4.62,0,0,0,2.67-.71,2.15,2.15,0,0,0,1-1.82,3,3,0,0,0-.17-1.07,1.65,1.65,0,0,0-.68-.78,5.33,5.33,0,0,0-1.53-.65c-.67-.2-1.55-.4-2.63-.62q-5.46-1.11-7.64-3.28a8.15,8.15,0,0,1-2.17-6,11.84,11.84,0,0,1,1-5,10.59,10.59,0,0,1,3-3.81,14.1,14.1,0,0,1,4.72-2.4,21,21,0,0,1,6.14-.85,27.93,27.93,0,0,1,10.73,2.15Z"/><path class="cls-2" d="M712.32,581.63q0,7.61,7.15,7.61a6.36,6.36,0,0,0,5.78-3.12h11.38q-3.45,11.45-17.23,11.44a22.51,22.51,0,0,1-7.73-1.27,17.2,17.2,0,0,1-6-3.61,16,16,0,0,1-3.87-5.59,18.6,18.6,0,0,1-1.37-7.28,20.7,20.7,0,0,1,1.3-7.5,15.83,15.83,0,0,1,3.71-5.69,16.43,16.43,0,0,1,5.82-3.61,22.09,22.09,0,0,1,7.7-1.27,21.59,21.59,0,0,1,7.6,1.27,15.56,15.56,0,0,1,5.73,3.67,16.11,16.11,0,0,1,3.57,5.89,23.35,23.35,0,0,1,1.23,7.83v1.23Zm13.78-6.82a7.1,7.1,0,0,0-2.4-4,7.48,7.48,0,0,0-8.88-.06,6.5,6.5,0,0,0-2.18,4Z"/><path class="cls-2" d="M747.42,583.91h11.05l-12,21.51H739Z"/><path class="cls-2" d="M786.68,579.36a16.29,16.29,0,0,1,1.49-6.92,17.07,17.07,0,0,1,4.16-5.59,19.67,19.67,0,0,1,6.34-3.74,22.87,22.87,0,0,1,8-1.37,23.13,23.13,0,0,1,8,1.34,19.58,19.58,0,0,1,6.37,3.7,16.49,16.49,0,0,1,4.19,5.66,17.18,17.18,0,0,1,1.5,7.24,16.94,16.94,0,0,1-1.53,7.25,17.4,17.4,0,0,1-4.19,5.66,18.89,18.89,0,0,1-6.4,3.67,24.7,24.7,0,0,1-8.1,1.3,23.6,23.6,0,0,1-7.93-1.3,18.36,18.36,0,0,1-6.27-3.71,17.29,17.29,0,0,1-4.13-5.75A18.14,18.14,0,0,1,786.68,579.36Zm12.41.13a7.61,7.61,0,0,0,.62,3.09,8,8,0,0,0,1.63,2.43,7,7,0,0,0,2.4,1.63,7.84,7.84,0,0,0,5.92,0,7,7,0,0,0,2.4-1.63,8.42,8.42,0,0,0,1.63-2.43,7.46,7.46,0,0,0,.61-3,7.22,7.22,0,0,0-.61-2.95,8.34,8.34,0,0,0-1.63-2.44,7.19,7.19,0,0,0-2.4-1.63,7.84,7.84,0,0,0-5.92,0,7.19,7.19,0,0,0-2.4,1.63,8.15,8.15,0,0,0-1.63,2.4A7.06,7.06,0,0,0,799.09,579.49Z"/><path class="cls-2" d="M870.79,563v31.07a34.07,34.07,0,0,1-.33,5,20.77,20.77,0,0,1-.91,3.9,12.29,12.29,0,0,1-2.43,4,16.39,16.39,0,0,1-4,3.22,21.22,21.22,0,0,1-5.3,2.14,25.05,25.05,0,0,1-6.4.78,24.78,24.78,0,0,1-7.15-1,19.46,19.46,0,0,1-5.69-2.7,15.78,15.78,0,0,1-4-4,13.45,13.45,0,0,1-2.08-5h13.26q1.25,3.31,5.59,3.32a7.51,7.51,0,0,0,5.69-2.08,8.07,8.07,0,0,0,2-5.79v-3.18a20.39,20.39,0,0,1-2.5,2,14.24,14.24,0,0,1-2.44,1.33,12.37,12.37,0,0,1-2.6.75,18.4,18.4,0,0,1-3,.22,17.07,17.07,0,0,1-6.56-1.23,15.23,15.23,0,0,1-5.17-3.45,15.43,15.43,0,0,1-3.38-5.29,18.82,18.82,0,0,1-1.2-6.86,19.1,19.1,0,0,1,1.3-7.12A18.31,18.31,0,0,1,837,567.3a16.35,16.35,0,0,1,5.33-3.83,16,16,0,0,1,6.73-1.4,12.9,12.9,0,0,1,9.94,4.42V563ZM844.4,579.49a7.74,7.74,0,0,0,.58,3,7.65,7.65,0,0,0,1.6,2.44,7.16,7.16,0,0,0,2.4,1.62,7.74,7.74,0,0,0,3,.59,7.59,7.59,0,0,0,3-.59,7.31,7.31,0,0,0,2.41-1.62,8.25,8.25,0,0,0,1.62-2.44,7.45,7.45,0,0,0,0-6,7.87,7.87,0,0,0-1.66-2.4A7.53,7.53,0,0,0,852,572a6.87,6.87,0,0,0-2.92.62,8.5,8.5,0,0,0-2.41,1.62,7.64,7.64,0,0,0-1.65,2.37A6.91,6.91,0,0,0,844.4,579.49Z"/><path class="cls-2" d="M900.88,571.56a13.72,13.72,0,0,0-6.37-1.69,4.81,4.81,0,0,0-2.63.65,2,2,0,0,0-1,1.75,2.31,2.31,0,0,0,.17,1,1.66,1.66,0,0,0,.71.68,6,6,0,0,0,1.63.58c.71.18,1.65.39,2.82.65a13.48,13.48,0,0,1,7.28,3.48,8.87,8.87,0,0,1,2.41,6.4,11.63,11.63,0,0,1-1.17,5.27,11.25,11.25,0,0,1-3.25,3.93,15.44,15.44,0,0,1-5,2.47,22.12,22.12,0,0,1-6.43.88,26.14,26.14,0,0,1-13.33-3.84L881,585.4q4.95,3.39,9.36,3.38a4.6,4.6,0,0,0,2.67-.71,2.15,2.15,0,0,0,1-1.82,3,3,0,0,0-.17-1.07,1.6,1.6,0,0,0-.68-.78,5.13,5.13,0,0,0-1.52-.65c-.68-.2-1.56-.4-2.64-.62q-5.46-1.11-7.63-3.28a8.12,8.12,0,0,1-2.18-6,11.7,11.7,0,0,1,1-5,10.38,10.38,0,0,1,3-3.81,14,14,0,0,1,4.71-2.4,21,21,0,0,1,6.14-.85,27.93,27.93,0,0,1,10.73,2.15Z"/><path class="cls-2" d="M937.61,563h11.83v33.34H937.61v-3.7a12.37,12.37,0,0,1-10.21,4.74,16.48,16.48,0,0,1-6.69-1.33,16,16,0,0,1-5.33-3.74,17.21,17.21,0,0,1-3.55-5.65,19.46,19.46,0,0,1-1.26-7.09,18.88,18.88,0,0,1,1.23-6.79,17.31,17.31,0,0,1,3.45-5.62,16.17,16.17,0,0,1,5.26-3.8,15.94,15.94,0,0,1,6.76-1.4,13.6,13.6,0,0,1,10.34,4.35ZM921,550.17a6.52,6.52,0,0,1,2.69-5.52,12.23,12.23,0,0,1,7.45-2c3.25,0,5.74.69,7.47,2a7.24,7.24,0,0,1,0,11.12q-2.6,2-7.47,2t-7.48-2A6.67,6.67,0,0,1,921,550.17Zm1.82,29.38A7.72,7.72,0,0,0,925,585a7.18,7.18,0,0,0,2.41,1.63,7.74,7.74,0,0,0,3,.58,7.58,7.58,0,0,0,3-.58,7,7,0,0,0,2.4-1.63,8.15,8.15,0,0,0,1.63-2.4,7.06,7.06,0,0,0,.62-2.93,7.23,7.23,0,0,0-.62-2.95,8,8,0,0,0-1.63-2.44,7.19,7.19,0,0,0-2.4-1.63,7.58,7.58,0,0,0-3-.58,7.74,7.74,0,0,0-3,.58,7.33,7.33,0,0,0-2.41,1.63,8,8,0,0,0-1.59,2.37A7.11,7.11,0,0,0,922.79,579.55Zm4.42-29.38c0,2,1.27,3,3.83,3s4-1,4-2.92-1.33-2.93-4-2.93a4.53,4.53,0,0,0-2.79.78A2.46,2.46,0,0,0,927.21,550.17Z"/><path class="cls-2" d="M1001.63,571.56a13.72,13.72,0,0,0-6.37-1.69,4.81,4.81,0,0,0-2.63.65,2,2,0,0,0-1,1.75,2.32,2.32,0,0,0,.16,1,1.76,1.76,0,0,0,.72.68,6,6,0,0,0,1.62.58c.72.18,1.66.39,2.83.65a13.48,13.48,0,0,1,7.28,3.48,8.87,8.87,0,0,1,2.41,6.4,11.63,11.63,0,0,1-1.17,5.27,11.25,11.25,0,0,1-3.25,3.93,15.44,15.44,0,0,1-5,2.47,22.12,22.12,0,0,1-6.43.88,26.14,26.14,0,0,1-13.33-3.84l4.29-8.32q4.93,3.39,9.36,3.38a4.62,4.62,0,0,0,2.67-.71,2.15,2.15,0,0,0,1-1.82,3,3,0,0,0-.17-1.07,1.6,1.6,0,0,0-.68-.78,5.21,5.21,0,0,0-1.53-.65c-.67-.2-1.55-.4-2.63-.62-3.64-.74-6.18-1.83-7.64-3.28a8.15,8.15,0,0,1-2.17-6,11.7,11.7,0,0,1,1-5,10.38,10.38,0,0,1,3-3.81,14,14,0,0,1,4.71-2.4,21,21,0,0,1,6.14-.85,27.93,27.93,0,0,1,10.73,2.15Z"/><path class="cls-2" d="M1023.21,581.63q0,7.61,7.15,7.61a6.38,6.38,0,0,0,5.78-3.12h11.38q-3.45,11.45-17.23,11.44a22.51,22.51,0,0,1-7.73-1.27,17.11,17.11,0,0,1-6-3.61,16,16,0,0,1-3.87-5.59,18.6,18.6,0,0,1-1.37-7.28,20.49,20.49,0,0,1,1.31-7.5,15.67,15.67,0,0,1,3.7-5.69,16.43,16.43,0,0,1,5.82-3.61,22.09,22.09,0,0,1,7.7-1.27,21.69,21.69,0,0,1,7.61,1.27,15.52,15.52,0,0,1,5.72,3.67,16.11,16.11,0,0,1,3.57,5.89,23.35,23.35,0,0,1,1.23,7.83v1.23Zm13.78-6.82a7.06,7.06,0,0,0-2.41-4,7.47,7.47,0,0,0-8.87-.06,6.44,6.44,0,0,0-2.17,4Z"/><path class="cls-2" d="M1066.43,542.37v54h-11.76v-54Z"/><path class="cls-2" d="M1084.37,563l7.93,17.09,8.06-17.09h13.13l-17.35,33.34h-7.87L1071.11,563Z"/><path class="cls-2" d="M1114.53,579.36a16.15,16.15,0,0,1,1.5-6.92,16.93,16.93,0,0,1,4.16-5.59,19.56,19.56,0,0,1,6.34-3.74,22.81,22.81,0,0,1,8-1.37,23.19,23.19,0,0,1,8,1.34,19.68,19.68,0,0,1,6.37,3.7,16.75,16.75,0,0,1,4.19,5.66,17.32,17.32,0,0,1-4.23,20.15,18.79,18.79,0,0,1-6.4,3.67,24.64,24.64,0,0,1-8.09,1.3,23.6,23.6,0,0,1-7.93-1.3,18.17,18.17,0,0,1-6.27-3.71,17.15,17.15,0,0,1-4.13-5.75A18,18,0,0,1,1114.53,579.36Zm12.42.13a7.45,7.45,0,0,0,.62,3.09,8.2,8.2,0,0,0,1.62,2.43,7,7,0,0,0,2.41,1.63,7.82,7.82,0,0,0,5.91,0,7.18,7.18,0,0,0,2.41-1.63,8.2,8.2,0,0,0,1.62-2.43,7.46,7.46,0,0,0,.62-3,7.23,7.23,0,0,0-.62-2.95,8.12,8.12,0,0,0-1.62-2.44,7.33,7.33,0,0,0-2.41-1.63,7.82,7.82,0,0,0-5.91,0,7.13,7.13,0,0,0-2.41,1.63,8.32,8.32,0,0,0-1.62,2.4A6.91,6.91,0,0,0,1127,579.49Z"/><path class="cls-2" d="M1161.33,563h11.77v4.09a15.22,15.22,0,0,1,10.79-4.61,12.55,12.55,0,0,1,11.31,6.24,12.62,12.62,0,0,1,11.31-6.31,14,14,0,0,1,4.42.69,9.05,9.05,0,0,1,3.57,2.14,10.33,10.33,0,0,1,2.38,3.8,16.31,16.31,0,0,1,.87,5.66v21.64H1206V579.88a19.76,19.76,0,0,0-.36-4.16,6.59,6.59,0,0,0-1-2.54A3.45,3.45,0,0,0,1203,572a5.7,5.7,0,0,0-2-.33q-5.65,0-5.66,8.26v16.44h-11.76V579.88a22,22,0,0,0-.33-4.19,7.63,7.63,0,0,0-.94-2.64,3.14,3.14,0,0,0-1.59-1.33,6.57,6.57,0,0,0-2.28-.36,6.47,6.47,0,0,0-2.08.33,3.71,3.71,0,0,0-1.72,1.27,6.76,6.76,0,0,0-1.17,2.6,18.07,18.07,0,0,0-.42,4.32v16.44h-11.77Z"/><path class="cls-2" d="M1273.65,542.37h11.83v54h-11.83v-3.7a12.34,12.34,0,0,1-10.2,4.74,16.25,16.25,0,0,1-6.7-1.36,16.61,16.61,0,0,1-5.33-3.77,17.23,17.23,0,0,1-3.54-5.66,19.85,19.85,0,0,1-.06-13.81,16.88,16.88,0,0,1,3.41-5.62,16.19,16.19,0,0,1,12.09-5.2,13.58,13.58,0,0,1,10.33,4.35Zm-14.82,37.18A7.79,7.79,0,0,0,1261,585a7,7,0,0,0,2.41,1.63,7.7,7.7,0,0,0,3,.58,7.62,7.62,0,0,0,3-.58,7,7,0,0,0,2.4-1.63,8.55,8.55,0,0,0,1.63-2.4,7.06,7.06,0,0,0,.61-2.93,7.22,7.22,0,0,0-.61-2.95,8.34,8.34,0,0,0-1.63-2.44,7.19,7.19,0,0,0-2.4-1.63,7.84,7.84,0,0,0-5.92,0,7.19,7.19,0,0,0-2.4,1.63,8.28,8.28,0,0,0-1.63,2.37A6.82,6.82,0,0,0,1258.83,579.55Z"/><path class="cls-2" d="M1305.24,563v18.78q0,6.18,6,6.18t6-6.18V563H1329V584q0,6.76-4.46,10.14c-3,2.25-7.39,3.38-13.29,3.38s-10.32-1.13-13.29-3.38-4.45-5.63-4.45-10.14V563Z"/><path class="cls-2" d="M1381.16,571.56a13.72,13.72,0,0,0-6.37-1.69,4.81,4.81,0,0,0-2.63.65,2,2,0,0,0-1,1.75,2.5,2.5,0,0,0,.16,1,1.76,1.76,0,0,0,.72.68,6,6,0,0,0,1.62.58c.72.18,1.66.39,2.83.65a13.48,13.48,0,0,1,7.28,3.48,8.87,8.87,0,0,1,2.41,6.4,11.63,11.63,0,0,1-1.17,5.27,11.36,11.36,0,0,1-3.25,3.93,15.44,15.44,0,0,1-5,2.47,22.12,22.12,0,0,1-6.43.88,26.14,26.14,0,0,1-13.33-3.84l4.29-8.32q4.93,3.39,9.36,3.38a4.56,4.56,0,0,0,2.66-.71,2.13,2.13,0,0,0,1-1.82,3,3,0,0,0-.17-1.07,1.65,1.65,0,0,0-.68-.78,5.33,5.33,0,0,0-1.53-.65c-.67-.2-1.55-.4-2.63-.62q-5.46-1.11-7.64-3.28a8.15,8.15,0,0,1-2.17-6,11.7,11.7,0,0,1,1-5,10.46,10.46,0,0,1,3-3.81,14.1,14.1,0,0,1,4.72-2.4,21,21,0,0,1,6.14-.85,27.84,27.84,0,0,1,10.72,2.15Z"/><path class="cls-2" d="M1402.74,581.63q0,7.61,7.15,7.61a6.39,6.39,0,0,0,5.79-3.12h11.37q-3.45,11.45-17.22,11.44a22.52,22.52,0,0,1-7.74-1.27,17.2,17.2,0,0,1-6-3.61,16,16,0,0,1-3.87-5.59,18.6,18.6,0,0,1-1.36-7.28,20.49,20.49,0,0,1,1.3-7.5,15.67,15.67,0,0,1,3.7-5.69,16.43,16.43,0,0,1,5.82-3.61,22.09,22.09,0,0,1,7.7-1.27A21.69,21.69,0,0,1,1417,563a15.6,15.6,0,0,1,5.72,3.67,16,16,0,0,1,3.57,5.89,23.35,23.35,0,0,1,1.24,7.83v1.23Zm13.78-6.82a7.1,7.1,0,0,0-2.4-4,7.48,7.48,0,0,0-8.88-.06,6.44,6.44,0,0,0-2.17,4Z"/><path class="cls-2" d="M1446,542.37v54H1434.2v-54Z"/><path class="cls-2" d="M1463.9,563l7.93,17.09,8.06-17.09H1493l-17.35,33.34h-7.87L1450.64,563Z"/><path class="cls-2" d="M673.65,620.37h11.76V645.2a12.89,12.89,0,0,1,4.88-3.93,15.23,15.23,0,0,1,5.78-1q6.31,0,9.53,3.48t3.21,9.39v21.19H697.05V657.49a17.48,17.48,0,0,0-.39-4.1,4.78,4.78,0,0,0-1.3-2.4,5.54,5.54,0,0,0-3.77-1.37,5.81,5.81,0,0,0-4.58,1.79,7.37,7.37,0,0,0-1.6,5.1v17.81H673.65Z"/><path class="cls-2" d="M742.55,641h11.83v33.34H742.55v-3.7a12.37,12.37,0,0,1-10.21,4.74,16.48,16.48,0,0,1-6.69-1.33,16,16,0,0,1-5.33-3.74,17.21,17.21,0,0,1-3.55-5.65,19.46,19.46,0,0,1-1.26-7.09,18.88,18.88,0,0,1,1.23-6.79,17.31,17.31,0,0,1,3.45-5.62,16.17,16.17,0,0,1,5.26-3.8,15.94,15.94,0,0,1,6.76-1.4,13.6,13.6,0,0,1,10.34,4.35Zm-14.82,16.57A7.72,7.72,0,0,0,729.9,663a7.18,7.18,0,0,0,2.41,1.63,7.74,7.74,0,0,0,3,.58,7.58,7.58,0,0,0,3-.58,7,7,0,0,0,2.4-1.63,8.15,8.15,0,0,0,1.63-2.4,7.06,7.06,0,0,0,.62-2.93,7.23,7.23,0,0,0-.62-2.95,8,8,0,0,0-1.63-2.44,7.19,7.19,0,0,0-2.4-1.63,7.58,7.58,0,0,0-3-.58,7.74,7.74,0,0,0-3,.58,7.33,7.33,0,0,0-2.41,1.63,8,8,0,0,0-1.59,2.37A7.11,7.11,0,0,0,727.73,657.55Z"/><path class="cls-2" d="M762.37,641h11.77v5.46a13.45,13.45,0,0,1,4.61-4.58,12.33,12.33,0,0,1,6.37-1.6h1a7.92,7.92,0,0,1,1.27.13v11.25a11.18,11.18,0,0,0-5.07-1.17q-4.1,0-6.15,2.44t-2,7.11v14.3H762.37Z"/><path class="cls-2" d="M823.93,641l7.93,17.09L839.92,641H853l-17.35,33.34h-7.86L810.67,641Z"/><path class="cls-2" d="M889.25,659.57a7.54,7.54,0,0,0,2,5.49,7.27,7.27,0,0,0,5.49,2.11q4,0,5.4-3.12h11.43a14.75,14.75,0,0,1-6,8.36,19.61,19.61,0,0,1-11.18,3q-10,0-13.19-6.5a16.86,16.86,0,0,1-13.66,6.3,20.06,20.06,0,0,1-5.59-.74,13.31,13.31,0,0,1-4.35-2.15,9.87,9.87,0,0,1-2.83-3.38,9.68,9.68,0,0,1-1-4.45,10.23,10.23,0,0,1,1-4.58,10,10,0,0,1,2.8-3.48,12.52,12.52,0,0,1,4.35-2.18,20.25,20.25,0,0,1,5.69-.75,23.54,23.54,0,0,1,8.58,1.76v-.91q0-6-8.06-6a34.18,34.18,0,0,0-9.17,1.88v-8.9a35.22,35.22,0,0,1,9.82-1.56,17,17,0,0,1,7.48,1.4,12.7,12.7,0,0,1,4.94,4.51q4.15-5.91,12.74-5.91,8.89,0,13.55,5t4.64,14.72Zm-22,4.09a3.22,3.22,0,0,0,1.43,2.73,6.32,6.32,0,0,0,3.83,1,8,8,0,0,0,4.17-1.07,3.08,3.08,0,0,0,1.82-2.63,3,3,0,0,0-1.86-2.54,8.84,8.84,0,0,0-4.38-1,6.31,6.31,0,0,0-3.65,1A2.94,2.94,0,0,0,867.28,663.66Zm35.88-10.92q-1.56-5.46-6.83-5.46-5,0-6.76,5.46Z"/><path class="cls-2" d="M920.84,641H932.6v5.46a13.56,13.56,0,0,1,4.62-4.58,12.33,12.33,0,0,1,6.37-1.6h1a7.81,7.81,0,0,1,1.26.13v11.25a11.18,11.18,0,0,0-5.07-1.17c-2.73,0-4.77.81-6.14,2.44s-2,4-2,7.11v14.3H920.84Z"/><path class="cls-2" d="M962.11,659.63q0,7.61,7.15,7.61a6.39,6.39,0,0,0,5.79-3.12h11.37Q983,675.57,969.2,675.56a22.52,22.52,0,0,1-7.74-1.27,17.2,17.2,0,0,1-6-3.61,16,16,0,0,1-3.87-5.59,18.6,18.6,0,0,1-1.36-7.28,20.49,20.49,0,0,1,1.3-7.5,15.67,15.67,0,0,1,3.7-5.69A16.61,16.61,0,0,1,961,641a22.13,22.13,0,0,1,7.7-1.27,21.69,21.69,0,0,1,7.61,1.27,15.52,15.52,0,0,1,5.72,3.67,16,16,0,0,1,3.57,5.89,23.1,23.1,0,0,1,1.24,7.83v1.23Zm13.78-6.82a7.1,7.1,0,0,0-2.4-4,7.47,7.47,0,0,0-8.87-.06,6.45,6.45,0,0,0-2.18,4Z"/><path class="cls-2" d="M1007.16,650.79v23.53H995.39V650.79h-3.9V641h3.9V631h11.77v10h6.69v9.81Z"/><path class="cls-2" d="M1052.14,641v18.78q0,6.18,6,6.18t6-6.18V641h11.76V662q0,6.76-4.45,10.14t-13.29,3.38q-8.85,0-13.3-3.38T1040.37,662V641Z"/><path class="cls-2" d="M1109.6,620.37h11.83v54H1109.6v-3.7a12.37,12.37,0,0,1-10.21,4.74,16.17,16.17,0,0,1-6.69-1.36,16.5,16.5,0,0,1-5.33-3.77,17.25,17.25,0,0,1-3.55-5.66,19.85,19.85,0,0,1-.06-13.81,17,17,0,0,1,3.41-5.62,16.19,16.19,0,0,1,12.09-5.2,13.6,13.6,0,0,1,10.34,4.35Zm-14.82,37.18A7.72,7.72,0,0,0,1097,663a7.09,7.09,0,0,0,2.41,1.63,7.74,7.74,0,0,0,3,.58,7.58,7.58,0,0,0,3-.58,7,7,0,0,0,2.4-1.63,8.35,8.35,0,0,0,1.63-2.4,7.06,7.06,0,0,0,.62-2.93,7.23,7.23,0,0,0-.62-2.95,8.15,8.15,0,0,0-1.63-2.44,7.19,7.19,0,0,0-2.4-1.63,7.84,7.84,0,0,0-5.92,0,7.19,7.19,0,0,0-2.4,1.63,8.48,8.48,0,0,0-1.63,2.37A6.81,6.81,0,0,0,1094.78,657.55Z"/><path class="cls-2" d="M1151.52,649.56a13.72,13.72,0,0,0-6.37-1.69,4.81,4.81,0,0,0-2.63.65,2,2,0,0,0-1,1.75,2.32,2.32,0,0,0,.16,1,1.76,1.76,0,0,0,.72.68,5.9,5.9,0,0,0,1.62.58c.72.18,1.66.39,2.83.65a13.48,13.48,0,0,1,7.28,3.48,8.87,8.87,0,0,1,2.4,6.4,11.63,11.63,0,0,1-1.17,5.27,11.14,11.14,0,0,1-3.25,3.93,15.29,15.29,0,0,1-5,2.47,22.19,22.19,0,0,1-6.44.88,26.11,26.11,0,0,1-13.32-3.84l4.29-8.32q4.93,3.39,9.36,3.38a4.56,4.56,0,0,0,2.66-.71,2.12,2.12,0,0,0,1-1.82,3,3,0,0,0-.16-1.07,1.65,1.65,0,0,0-.68-.78,5.33,5.33,0,0,0-1.53-.65c-.67-.2-1.55-.4-2.63-.62q-5.46-1.11-7.64-3.28a8.16,8.16,0,0,1-2.18-6,11.84,11.84,0,0,1,1-5,10.48,10.48,0,0,1,3-3.81,13.91,13.91,0,0,1,4.72-2.4,21,21,0,0,1,6.14-.85,27.84,27.84,0,0,1,10.72,2.15Z"/><path class="cls-2" d="M1188.24,641h11.83v33.34h-11.83v-3.7a12.34,12.34,0,0,1-10.2,4.74,16.56,16.56,0,0,1-6.7-1.33,16.18,16.18,0,0,1-5.33-3.74,17.35,17.35,0,0,1-3.54-5.65,19.47,19.47,0,0,1-1.27-7.09,18.89,18.89,0,0,1,1.24-6.79,17.46,17.46,0,0,1,3.44-5.62,16.32,16.32,0,0,1,5.27-3.8,15.94,15.94,0,0,1,6.76-1.4,13.58,13.58,0,0,1,10.33,4.35Zm-14.82,16.57a7.79,7.79,0,0,0,2.18,5.46,7,7,0,0,0,2.41,1.63,7.74,7.74,0,0,0,3,.58,7.62,7.62,0,0,0,3-.58,7,7,0,0,0,2.4-1.63,8.55,8.55,0,0,0,1.63-2.4,7.06,7.06,0,0,0,.61-2.93,7.22,7.22,0,0,0-.61-2.95,8.34,8.34,0,0,0-1.63-2.44,7.19,7.19,0,0,0-2.4-1.63,7.62,7.62,0,0,0-3-.58,7.74,7.74,0,0,0-3,.58,7.13,7.13,0,0,0-2.41,1.63,8,8,0,0,0-1.59,2.37A7.11,7.11,0,0,0,1173.42,657.55Z"/><path class="cls-2" d="M1221.2,650.79v23.53h-11.77V650.79h-3.9V641h3.9V631h11.77v10h6.69v9.81Z"/><path class="cls-2" d="M1231.73,668.08a7.54,7.54,0,0,1,.58-3,7.31,7.31,0,0,1,1.63-2.44,7.53,7.53,0,0,1,2.43-1.63,7.67,7.67,0,0,1,8.36,1.63,7.44,7.44,0,0,1,1.62,2.44,7.69,7.69,0,0,1-1.62,8.35,7.71,7.71,0,0,1-8.36,1.62,7.5,7.5,0,0,1-2.43-1.62,7.41,7.41,0,0,1-1.63-2.44A7.58,7.58,0,0,1,1231.73,668.08Z"/></g></svg>
