<svg id="Layer_1" data-name="Layer 1" xmlns="http://www.w3.org/2000/svg" width="402" height="136" viewBox="0 0 402 136"><defs><style>.cls-1{fill:#00031f;opacity:0.52;}.cls-2{fill:#ff9206;}.cls-3{fill:#fff;}</style></defs><title>RESTART</title><rect class="cls-1" x="15" y="12" width="376" height="122" rx="60.71"/><rect class="cls-2" x="11.56" y="5" width="376" height="122" rx="60.71"/><path class="cls-3" d="M64.49,70.3v11H55.84V48h13.8a11.49,11.49,0,0,1,8.45,3,10.34,10.34,0,0,1,3.1,8.1c0,2.65-.35,5.75-3,8.3s-5.7,2.9-8.3,2.9Zm0-7h2.9a5.65,5.65,0,0,0,3.65-1,3.82,3.82,0,0,0,1.1-3,4,4,0,0,0-1-3,5.08,5.08,0,0,0-3.7-1.2h-3Z"/><path class="cls-3" d="M99.29,48c2.5,0,5.7.4,8.15,3a11,11,0,0,1,2.85,7.5,9.62,9.62,0,0,1-2.65,7,9.34,9.34,0,0,1-4.6,2.3l10.45,13.65H102.74l-8.3-12.8v12.8H85.79V48ZM94.44,63h1.65a6.5,6.5,0,0,0,4.2-1.35,4.15,4.15,0,0,0,1.1-2.8,3.93,3.93,0,0,0-1.15-2.8,5.87,5.87,0,0,0-4.15-1.3H94.44Z"/><path class="cls-3" d="M149.19,54.15a17.16,17.16,0,0,1,3.55,10.5,17.45,17.45,0,0,1-5.25,12.5c-3.2,3.1-7.5,4.95-13.15,4.95A19.51,19.51,0,0,1,124,79.3l-4.4,4.4-4.45-4.2,4.35-4.3a16.08,16.08,0,0,1-3.55-10.45,17.19,17.19,0,0,1,5.25-12.55,18.87,18.87,0,0,1,13.15-5,19.34,19.34,0,0,1,10.35,2.8l4.4-4.4,4.45,4.2Zm-10.85,2.5a7.61,7.61,0,0,0-4-1,9.32,9.32,0,0,0-6.75,2.65,9.18,9.18,0,0,0-2.65,6.55,8,8,0,0,0,1,4.1Zm-8,16.05a7.8,7.8,0,0,0,4,1A9.1,9.1,0,0,0,141,71.1a9,9,0,0,0,2.7-6.4,7.88,7.88,0,0,0-1.1-4.25Z"/><path class="cls-3" d="M163.24,48l8,20.3,8.1-20.3h9.4l-14.2,33.35h-6.75L153.79,48Z"/><path class="cls-3" d="M212.54,48V81.35h-8.65V48Z"/><path class="cls-3" d="M235.54,62.45h17.2c0,6.6-1.35,11.3-5.35,15-3.5,3.25-7.5,4.2-11.75,4.2-6,0-10.1-2.2-12.8-5a16.81,16.81,0,0,1-4.8-12,17.38,17.38,0,0,1,5-12.5c2.75-2.75,7.05-4.9,13-4.9a17.83,17.83,0,0,1,9,2.25,16.34,16.34,0,0,1,5.95,6.85l-8.25,3.4a8.16,8.16,0,0,0-2.4-3.35,7,7,0,0,0-4.65-1.65,8.06,8.06,0,0,0-5.7,2.3A11.25,11.25,0,0,0,227,64.7a10.43,10.43,0,0,0,2.65,7.2,7.89,7.89,0,0,0,6.1,2.55,7.14,7.14,0,0,0,4.8-1.55,5.93,5.93,0,0,0,2-3.7h-7.1Z"/><path class="cls-3" d="M277.19,55.35h-10.3V60.9h9.75v7.35h-9.75V74h10.3v7.35H258.24V48h18.95Z"/><path class="cls-3" d="M282.69,81.35V48h8.65l16,20.4V48h8.65V81.35h-8.65l-16-20.4v20.4Z"/><path class="cls-3" d="M328.64,69.8V61.7a6.06,6.06,0,0,0,1.7.25A6.86,6.86,0,0,0,335,60.3a4,4,0,0,0,1.15-2.75,3.41,3.41,0,0,0-.85-2.35,3.28,3.28,0,0,0-2.4-1,2.85,2.85,0,0,0-2.15.85,3.62,3.62,0,0,0-.9,2.5h-8.8a10.76,10.76,0,0,1,3-7.1,12,12,0,0,1,8.7-3.25,12.48,12.48,0,0,1,8.85,3.25,9.76,9.76,0,0,1,3.15,7.15,9.65,9.65,0,0,1-2.4,6.3,10.59,10.59,0,0,1-5.6,3.2V69.8Zm.65,10.75a5.07,5.07,0,0,1,0-7.3,5,5,0,0,1,3.6-1.55,5.28,5.28,0,0,1,3.75,1.6,5.19,5.19,0,0,1-.05,7.25,5.12,5.12,0,0,1-3.65,1.55A5.07,5.07,0,0,1,329.29,80.55Z"/></svg>
