<svg id="Layer_1" data-name="Layer 1" xmlns="http://www.w3.org/2000/svg" viewBox="0 0 413 699"><defs><style>.cls-1{fill:#e6e6e6;}.cls-1,.cls-10,.cls-3,.cls-4,.cls-7,.cls-8,.cls-9{stroke:#000;}.cls-1,.cls-10,.cls-12,.cls-16,.cls-18,.cls-2,.cls-3,.cls-4,.cls-5,.cls-7,.cls-8,.cls-9{stroke-miterlimit:10;}.cls-2,.cls-6{fill:#7dc5df;}.cls-2{stroke:#fff;stroke-width:4px;}.cls-3{fill:#8c6239;}.cls-4,.cls-5{fill:#2f323e;}.cls-5{stroke:#7dc5df;}.cls-12,.cls-5{stroke-width:2px;}.cls-7{fill:#42210b;}.cls-13,.cls-18,.cls-8{fill:#fdc59a;}.cls-9{fill:#754c24;}.cls-11{fill:#fff;}.cls-12,.cls-16{fill:none;}.cls-12{stroke:#42210b;}.cls-14{fill:#d3a585;}.cls-15{fill:#f4b0e4;}.cls-16{stroke:#d3a585;}.cls-17{fill:#c48e7e;}.cls-18{stroke:#93745f;}</style></defs><title>Artboard 3</title><rect class="cls-1" x="1.5" y="-2.5" width="412" height="698"/><rect class="cls-1" x="0.5" y="0.5" width="412" height="698"/><rect class="cls-2" x="40" y="35" width="333" height="240"/><rect class="cls-3" x="0.5" y="645.5" width="412" height="55"/><rect class="cls-4" x="253.5" y="483" width="146.5" height="162.5"/><rect class="cls-5" x="266.77" y="504.17" width="117" height="47.27"/><rect class="cls-5" x="266.77" y="578.04" width="117" height="47.27"/><rect class="cls-6" x="311.02" y="521.9" width="25.56" height="8.86" rx="4.43"/><rect class="cls-6" x="308.07" y="597.73" width="25.56" height="8.86" rx="4.43"/><path class="cls-7" d="M258.76,63.65s46.77-1.3,54.56,22,11.69,42.69,15.59,64.68S339.3,271.93,351,274.52s-48.07,3.88-48.07,3.88l11.69-31s7.79-14.23,5.2-22-1.3-15.53-31.18-22l-45.47-1.29c.35,1.45-34.17,10.18-35.08,14.23-1.7,7.58-6.5-9.06-6.5-9.06s6.5-77.62,10.4-81.5,2.59-25.87,9.09-36.22S239.27,66.23,258.76,63.65Z"/><path class="cls-8" d="M60,398.71l11.7-148.77L70.42,365.71,80.81,665.85s-4.59-5.17-16.28,7.77-8.44,13.58-8.44,13.58,1.3,2.59,9.09,3.88,16.89,0,16.89,0l22.09-14.23,1.29-59.51,13-129.37,7.79-115.13L134,508.67s3.89,71.15,5.19,99.61,7.8,67.28,7.8,67.28l23.38,15.52s20.79,2.59,24.69-1.29,0-10.35,0-10.35S180.81,665.21,166.51,660l2.6-45.28s6.5-106.08,6.5-117.72,3.9-76.33,3.9-76.33l2.59-56.92,2.6-112.55,32.48,54.33L188.6,381.89s-22.09,20.7-19.49,25.87,0,11.65,19.49,19.41S212,402.59,212,402.59L249.66,303c3.67-.6-49.2-94.73-50.67-98.32-2.18-5.37-42.87-12.94-45.47-12.94s-9.09-7.76-9.09-7.76L161.32,171l10.39-18.11s2.6-19.41,5.2-23.29,2.6-10.35,2.6-10.35-1.3-14.23-5.2-11.64-3.9,7.76-3.9,7.76-1.3-11.64-10.39-25.87-14.29-14.23-14.29-14.23-22.09,14.23-37.68,16.82-29.88-3.88-29.88-3.88l1.3,34.92-1.3,6.47a22.44,22.44,0,0,0-3.9-5.17c-2.59-2.59-6.49,0-6.49,0s0,11.64,1.3,15.52,9.09,5.18,9.09,5.18c3.9,24.58,31.18,36.22,32.48,38.81s-7.79,6.47-7.79,6.47-46.77,7.76-49.37,22S34,297.8,31.4,347l-2.6,49.16V420.7c5.2,9.06,1.3,6.47,7.8,10.35s9.09-1.29,9.09-1.29L41.8,418.11s1.29-9.05,2.59-9.05,5.2,6.47,3.9,9.05,2.6,6.47,2.6,6.47,3.9,1.3,3.9-1.29S60,401.3,60,398.71Z"/><path class="cls-9" d="M178.07,108.36s4-31.78-7.66-51.18-11.69-15.53-24.68-22-33.78-1.29-42.87,0S82.07,48.12,82.07,48.12C65.18,64.94,67.78,83.05,67.78,83.05l1.3,41.4s2.11-2.29,3.65-1.14,4,0,6,5.08S80.58,118,80.58,118L79.47,88.23s19.49,6.46,26,5.17S147,75.29,147,75.29a10.06,10.06,0,0,1,3.89,1.29c2.6,1.3,10.4,12.94,10.4,12.94s9.31,16.06,9.85,22.91l.46,2.36s.08-5.87,1.38-5.87c0,0,2.08-1.72,3.64-1.51l1.56.22"/><ellipse class="cls-10" cx="100.26" cy="124.45" rx="5.2" ry="6.47"/><ellipse class="cls-10" cx="150.92" cy="116.69" rx="5.2" ry="6.47"/><path class="cls-11" d="M143.78,147.09c1.29,2.09-5.35,11.65-14.29,12.29-8.69.62-16.52-7.4-15.59-9.7.65-1.61,5.28.31,15.59-.65C139.1,148.13,142.94,145.72,143.78,147.09Z"/><path class="cls-12" d="M107.4,109.57s-11.69-9-19.48,2.59"/><path class="cls-12" d="M159.37,102.87s-11.69-9.85-19.49,2.82"/><ellipse class="cls-10" cx="244.46" cy="142.56" rx="5.2" ry="6.47"/><ellipse class="cls-10" cx="293.83" cy="146.44" rx="5.2" ry="6.47"/><path class="cls-11" d="M251.7,169.08c-1.3,2.1,5.35,11.65,14.29,12.29,8.69.62,16.51-7.4,15.59-9.7-.65-1.61-5.29.31-15.59-.65C256.37,170.12,252.54,167.72,251.7,169.08Z"/><ellipse class="cls-13" cx="269.15" cy="160.02" rx="5.85" ry="3.88"/><ellipse class="cls-14" cx="126.24" cy="135.44" rx="5.85" ry="3.88"/><path class="cls-8" d="M188,253.24s-11.72,11.57-13,18,7.79,19.41,7.79,19.41l23.39,25.87,10.39,20.7,2.6,2.59s9.1-1.3,13-7.77,2.6-10.35,2.6-10.35l-14.29-18.11Z"/><path class="cls-8" d="M209.39,220.18s-1.3-10.35,16.89-12.94c0,0,14.29-6.46,22.08-5.17l5.2-7.76s-23.39-12.94-24.69-19.41-5.19-9.05-6.49-20.7c0,0-7.8-2.58-9.1-10.35s2.6-10.35,2.6-10.35,5.2-2.58,7.8,0S251,94.69,251,94.69s41.57,46.58,61.06,50.46c0,0,3.9-3.88,6.5-2.59,0,0,3.89,0,3.89,2.59s1.3-1.3,0,11.64-9.09,6.47-9.09,6.47-2.6,15.52-9.09,20.7-20.79,11.64-20.79,11.64,1.3,7.76,5.2,9.06,28.58,6.47,33.77,11.64,11.7,20.7,11.7,20.7,5.19,14.23,5.19,23.28,2.6,42.7,2.6,42.7l2.6,71.15v18.11l2.6,20.7s-1.3,10.35-3.9,11.64-5.2,5.18-9.09,2.59a5.74,5.74,0,0,1-2.6-6.47l2.6-6.47-1.3-10.35h-3.9l-1.3,10.35s-2.6,3.88-3.9,2.59-1.3-14.23-1.3-14.23l1.3-5.17V391l-2.59-46.58-1.3-49.16-9.1-51.74s6.5,19.4-1.3,28.46-9.09,36.22-9.09,36.22,7.79,32.34,7.79,40.11-5.19,124.19-5.19,124.19l-1.3,29.75s2.6,38.81,0,56.93-6.5,49.15-6.5,49.15l-3.9,41.4s7.8,18.11,6.5,25.88-14.29,11.64-14.29,11.64-11.69-2.59-11.69-9.06,2.6-29.75,2.6-29.75l-2.6-42.69,2.6-78.92L271.75,444l-5.2-88L264,446.57l-1.3,29.76,1.3,45.28-5.19,84.09,1.29,42.69s6.5,19.4,3.9,28.46-13,10.35-13,10.35-11.69-5.18-11.69-9.06,3.9-29.75,3.9-29.75l-3.9-45.28-5.2-78.91L228.87,444l-2.59-91.85s0-29.76,6.49-40.11S209.39,220.18,209.39,220.18Z"/><ellipse class="cls-10" cx="245.76" cy="142.56" rx="5.2" ry="6.47"/><ellipse class="cls-10" cx="294.33" cy="142.46" rx="5.2" ry="6.47" transform="translate(-4.9 10.61) rotate(-2.05)"/><path class="cls-11" d="M254.3,163.91c-1.3,2.09,5.35,11.65,14.29,12.29,8.68.62,16.51-7.41,15.59-9.71-.65-1.61-5.29.32-15.59-.64C259,165,255.14,162.54,254.3,163.91Z"/><ellipse class="cls-14" cx="269.15" cy="156.14" rx="5.85" ry="3.88"/><ellipse class="cls-15" cx="237.97" cy="152.26" rx="8.44" ry="3.88"/><ellipse class="cls-15" cx="299.03" cy="152.26" rx="8.44" ry="3.88"/><path class="cls-12" d="M254.21,131.33s-11.69-9.85-19.49,2.82"/><path class="cls-12" d="M282,131.48s4.31-1.83,5.4-1.13"/><ellipse class="cls-14" cx="157.42" cy="247.99" rx="5.85" ry="3.88"/><ellipse class="cls-14" cx="100.26" cy="247.99" rx="5.85" ry="3.88"/><path class="cls-16" d="M271.75,253.82c1.66,28.09,30.34,27.58,39,15.52"/><path class="cls-16" d="M265.25,253.82c1,28.57-30.95,25.89-39,16.17"/><ellipse class="cls-17" cx="241.87" cy="264.81" rx="5.85" ry="3.88"/><ellipse class="cls-17" cx="295.13" cy="264.81" rx="5.85" ry="3.88"/><path class="cls-18" d="M278.24,340.49c0,2.59-11.82,20.1-11.82,20.1l-11.56-24"/><path class="cls-16" d="M126.24,257.7c-15.11,5.77-37.51,1.88-59.76-12.94"/><path class="cls-16" d="M127.54,221.47c-13.64-6.4-35.82-18.11-58.46-7.76"/><path class="cls-16" d="M135.33,221.47c13.65-6.4,35.82-18.11,58.47-7.76"/><path class="cls-16" d="M137.93,257.7c17.25,6.6,36.62,2.77,53.27-14.23"/><line class="cls-16" x1="130.14" y1="264.17" x2="127.54" y2="348.26"/><ellipse class="cls-18" cx="114.55" cy="341.8" rx="11.69" ry="14.29"/><path class="cls-18" d="M123.64,376.88V386"/><ellipse class="cls-18" cx="134.04" cy="341.8" rx="11.69" ry="14.29"/><path class="cls-18" d="M134.69,350.57c3.48,16.08,1.2,20.3-.65,22.41a11.9,11.9,0,0,1-9.75,3.9c-4.8-.48-7.7-4.23-8.44-5.2-1.77-2.28-4.37-7.08-1.95-21.11.78-4.51,4.55-26.31,10.39-26.31C129,324.26,131.87,337.58,134.69,350.57Z"/><path class="cls-18" d="M134.39,372.54c0,7.06-4.59,12.78-10.24,12.78s-10.25-5.72-10.25-12.78S134.39,365.49,134.39,372.54Z"/><path class="cls-18" d="M123.64,383.37a9,9,0,0,0,0-5.19,8.58,8.58,0,0,0-1.3-2.6"/><ellipse class="cls-14" cx="266.07" cy="313.75" rx="1.75" ry="3.52"/><ellipse class="cls-14" cx="128.85" cy="306.59" rx="1.75" ry="3.52"/></svg>
