<svg id="Layer_1" data-name="Layer 1" xmlns="http://www.w3.org/2000/svg" viewBox="0 0 413 699"><defs><style>.cls-1{fill:#e6e6e6;}.cls-1,.cls-2,.cls-3,.cls-4,.cls-5,.cls-8{stroke:#000;}.cls-1,.cls-11,.cls-12,.cls-14,.cls-15,.cls-16,.cls-2,.cls-3,.cls-4,.cls-5,.cls-6,.cls-8,.cls-9{stroke-miterlimit:10;}.cls-2{fill:#fbb03b;}.cls-3{fill:#fdc59a;}.cls-5{fill:#8c6239;}.cls-16,.cls-6,.cls-8{fill:none;}.cls-6{stroke:#8c6239;}.cls-11,.cls-16,.cls-6,.cls-8{stroke-width:2px;}.cls-7{fill:#d3a585;}.cls-9{fill:#7dc5df;stroke:#999;}.cls-10{fill:#f4b0e4;}.cls-11,.cls-13{fill:#fff;}.cls-11{stroke:#ff7bac;}.cls-12{fill:#ff7bac;stroke:#ed1e79;}.cls-14{fill:#f39031;stroke:#1e2431;}.cls-15{fill:#2e3f68;stroke:#2f323e;}.cls-16{stroke:#ff931e;}</style></defs><title>Artboard 2</title><rect class="cls-1" x="0.5" y="0.5" width="412" height="698"/><path class="cls-2" d="M111.07,25s77.78-2.26,90.75,38.47,19.44,74.68,25.93,113.15S245,389.35,264.48,393.88s-80,6.79-80,6.79L204,346.36s13-24.9,8.64-38.47-2.16-27.16-51.85-38.47l-75.63-2.27c.59,2.54-56.83,17.81-58.34,24.9C24,305.3,16,276.21,16,276.21S26.8,140.43,33.29,133.64s4.32-45.26,15.12-63.36S78.66,29.55,111.07,25Z"/><path class="cls-3" d="M183.43,495.49,60.68,494.31s0-48.58,10.66-65.48S35.29,276.19,35.29,276.19,30.83,262,60.68,257.75c0,0,23.45-10.56,36.24-8.45l8.53-12.67S67.08,215.5,64.94,204.94s-8.53-14.78-10.66-33.79c0,0-12.79-4.23-14.92-16.9s4.26-16.9,4.26-16.9,8.53-4.22,12.79,0S101.19,74,101.19,74s68.23,76,100.21,82.37c0,0,6.39-6.33,10.66-4.22,0,0,6.39,0,6.39,4.22s2.14-2.11,0,19-14.92,10.56-14.92,10.56-4.27,25.35-14.93,33.8-34.11,19-34.11,19,2.13,12.67,8.53,14.78,46.91,10.56,55.43,19,19.19,33.8,19.19,33.8,8.53,23.23,8.53,38,4.27,69.71,4.27,69.71l4.26,116.16v29.57l4.26,33.8s-2.13,16.89-6.39,19S244,621,237.64,616.81a9.35,9.35,0,0,1-4.26-10.56l4.26-10.56-2.13-16.9h-6.4L227,595.69s-4.26,6.34-6.39,4.22-2.14-23.23-2.14-23.23l2.14-8.45V557.67l-4.27-76-2.13-80.26-14.93-84.48s10.67,31.68-2.13,46.46-14.92,59.14-14.92,59.14Z"/><path class="cls-4" d="M93,282.17c19.46,0,44.83-19.14,80.19,39.19,29.13,48.07,19.12,195.1,19.12,195.1H5.62S-20.34,380.21-.58,341C23.16,293.85,20,300.52,23.16,293.85,24.8,290.4,39.32,278.16,54.92,278,69.5,277.86,85,282.17,93,282.17Z"/><path class="cls-3" d="M124,704.9l-103.28-1s0-42.48,9-57.25S-.66,513.13-.66,513.13-4.41,500.69,20.71,497c0,0,19.73-9.24,30.49-7.39l7.18-11.08S26.09,460.06,24.3,450.82s-7.18-12.93-9-29.55c0,0-10.77-3.69-12.56-14.77s3.59-14.78,3.59-14.78,7.17-3.69,10.76,0,37.67-55.41,37.67-55.41,57.41,66.49,84.32,72c0,0,5.38-5.54,9-3.69,0,0,5.38,0,5.38,3.69s1.79-1.84,0,16.63-12.56,9.23-12.56,9.23-3.59,22.16-12.56,29.55-28.7,16.63-28.7,16.63,1.79,11.08,7.18,12.92,39.46,9.24,46.64,16.63,16.14,29.55,16.14,29.55,7.18,20.32,7.18,33.25,3.59,60.95,3.59,60.95L184,735.26v25.86l3.59,29.55s-1.79,14.78-5.38,16.62S175,814.68,169.6,811a8.36,8.36,0,0,1-3.59-9.24l3.59-9.23-1.79-14.78h-5.38l-1.8,14.78s-3.59,5.54-5.38,3.69-1.79-20.31-1.79-20.31l1.79-7.39v-9.24l-3.59-66.49-1.79-70.19-12.56-73.88s9,27.71-1.79,40.64S123,641.06,123,641.06Z"/><path class="cls-3" d="M230.78,523.63l16.4-212.25-1.77,165.17L260,904.75s-6.43-7.38-22.82,11.08-11.84,19.38-11.84,19.38,1.82,3.69,12.75,5.54,23.68,0,23.68,0l31-20.31,1.82-84.9L312.75,651l10.93-164.26,10.93,193.79s5.46,101.51,7.28,142.11,10.93,96,10.93,96l32.79,22.15s29.14,3.69,34.61-1.85,0-14.76,0-14.76-20-20.31-40.08-27.69l3.65-64.6s9.1-151.34,9.1-168S398.36,555,398.36,555L402,473.8l3.64-160.58,45.54,77.52-40.07,108.9s-31,29.53-27.32,36.91,0,16.61,27.32,27.68,32.79-35.06,32.79-35.06l52.82-142.12c5.14-.85-69-135.15-71-140.27-3.06-7.65-60.11-18.46-63.75-18.46s-12.75-11.07-12.75-11.07l23.68-18.46L387.43,173s3.64-27.69,7.29-33.23S398.36,125,398.36,125s-1.82-20.3-7.29-16.61-5.46,11.07-5.46,11.07S383.79,102.82,371,82.52s-20-20.3-20-20.3-31,20.3-52.82,24-41.9-5.54-41.9-5.54l1.82,49.84-1.82,9.22a31.85,31.85,0,0,0-5.46-7.38c-3.64-3.69-9.11,0-9.11,0s0,16.61,1.82,22.15,12.75,7.38,12.75,7.38c5.47,35.07,43.72,51.68,45.54,55.37s-10.93,9.23-10.93,9.23-65.57,11.07-69.22,31.38-27.32,121.81-31,191.94l-3.64,70.14V555c7.28,12.91,1.82,9.22,10.92,14.76s12.76-1.85,12.76-1.85l-5.47-16.61s1.82-12.92,3.64-12.92,7.29,9.23,5.47,12.92,3.64,9.23,3.64,9.23,5.47,1.85,5.47-1.84S230.78,527.32,230.78,523.63Z"/><path class="cls-5" d="M333.5,78.5s24.28,5.16,51,36c24.73,28.55,9.14,0,14-3,0,0,6-98-75-101s-84,61-84,61l2,66c1.46,6.06,109.43-21.22,92-59"/><ellipse class="cls-4" cx="364.09" cy="128.23" rx="7.82" ry="9.73"/><ellipse class="cls-4" cx="307.09" cy="128.23" rx="7.82" ry="9.73"/><path class="cls-6" d="M380.86,111.36s-14.91-15.76-27.92.86"/><ellipse class="cls-7" cx="336.66" cy="152.5" rx="10.34" ry="5.5"/><path class="cls-8" d="M310.16,178.41s24.71,25.58,46.15-1.28"/><polygon class="cls-9" points="401 488 246 488 247 310 212 307 223 253 236 242 261 232 290.31 225.23 328 244 360 228 383 231 413 240 413 326 406 312 401 488"/><ellipse class="cls-4" cx="82.09" cy="147.23" rx="7.82" ry="9.73"/><ellipse class="cls-4" cx="161.09" cy="147.23" rx="7.82" ry="9.73"/><ellipse class="cls-7" cx="118.66" cy="177.5" rx="10.34" ry="5.5"/><ellipse class="cls-10" cx="171.51" cy="163.71" rx="10.49" ry="5.29"/><ellipse class="cls-10" cx="67.51" cy="162.71" rx="10.49" ry="5.29"/><path class="cls-11" d="M90.93,193.2c-2.37,3.86,9.84,21.42,26.27,22.6,16,1.14,30.36-13.61,28.66-17.84-1.19-3-9.71.58-28.66-1.19C99.53,195.12,92.48,190.7,90.93,193.2Z"/><path class="cls-12" d="M160,303l-34-15c-3.66,0-11.59-4.49-19-6-6-1.21-21.5,2.44-21.5-.5L82,280l-39.83.21L41,266c0-6.6,30.4-14,37-14l20.6,12,52.4,2,20-11c6.6,0,39,7.4,39,14l-7,27.17L206,328l-15,50c0,3.28-.12-16.53-7-36C177.05,322.33,163.32,303,160,303Z"/><ellipse class="cls-4" cx="108.09" cy="399.23" rx="7.82" ry="9.73"/><ellipse class="cls-4" cx="41.09" cy="399.23" rx="7.82" ry="9.73"/><ellipse class="cls-7" cx="67.66" cy="424.5" rx="10.34" ry="5.5"/><path class="cls-13" d="M44.89,444.59c-2,3.24,8.28,18,22.1,19,13.44,1,25.55-11.45,24.12-15-1-2.49-8.17.49-24.12-1C52.12,446.2,46.19,442.48,44.89,444.59Z"/><path class="cls-14" d="M124,698H11c-53.29.54-16.41-5.35-12-12V514c0-6.6,2.4-14,9-14l33-10,24,19h38l9-14c6.6,0,44,11.4,44,18l-9.54,47.29-18,54.52L128,663v19C128,688.6,130.6,698,124,698Z"/><polygon class="cls-15" points="391.5 698.5 328.5 698.5 323.5 561.5 312.5 698.5 252.5 698.5 251.5 654.5 246.5 487.5 282.36 487.5 312.5 487.5 333.24 487.5 357.52 487.5 401.5 487.5 392.5 666.5 391.5 698.5"/><path class="cls-16" d="M73.21,129.48c-4.75,5.26,3.52-13.93,20.79-.79"/><path class="cls-16" d="M144,129c7-5,8.05-4.6,8.05-4.6"/><path class="cls-8" d="M118.86,381.36s-14.91-15.76-27.92.86"/><path class="cls-8" d="M124.86,370.36s-14.91-15.76-27.92.86"/><path class="cls-8" d="M54.86,380.36S40,364.6,26.94,381.22"/></svg>
