<svg id="Layer_1" data-name="Layer 1" xmlns="http://www.w3.org/2000/svg" viewBox="0 0 413 699"><defs><style>.cls-1{fill:#b0dded;}.cls-1,.cls-2,.cls-3,.cls-4,.cls-5{stroke:#000;}.cls-1,.cls-12,.cls-14,.cls-15,.cls-16,.cls-2,.cls-3,.cls-4,.cls-5,.cls-7,.cls-9{stroke-miterlimit:10;}.cls-2{fill:#6fb212;}.cls-3{fill:#42210b;}.cls-10,.cls-4,.cls-9{fill:#fdc59a;}.cls-6{fill:#fff;}.cls-16,.cls-7{fill:none;}.cls-7{stroke:#42210b;stroke-width:2px;}.cls-8{fill:#d3a585;}.cls-9{stroke:#93745f;}.cls-11{fill:#f4b0e4;}.cls-12{fill:#7dc5df;stroke:#bdccd4;}.cls-13{fill:#669fad;}.cls-14{fill:#3c4256;stroke:#999;}.cls-15{fill:#fcee21;stroke:#ff0;}.cls-16{stroke:#fcee21;stroke-width:5px;}</style></defs><title>Artboard 4</title><rect class="cls-1" x="0.5" y="-1.5" width="412" height="698"/><rect class="cls-2" x="0.5" y="396.5" width="412" height="295"/><path class="cls-3" d="M406,220.49c0,67.1-48.4,106-106.81,106s-104.69-38.91-104.69-106S241.85,99,300.25,99,406,153.39,406,220.49Z"/><path class="cls-4" d="M403.08,601.05s-34.95,29.1-30.84,36.38,0,16.36,30.84,27.28S385.5,536.5,385.5,536.5"/><path class="cls-4" d="M419.53,351.88c-3.45-7.54-67.85-18.19-72-18.19s-14.39-10.91-14.39-10.91l26.73-18.19,16.45-25.46s4.11-27.29,8.22-32.74,4.11-14.55,4.11-14.55-2.05-20-8.22-16.37-6.17,10.91-6.17,10.91S372.24,210,357.85,190s-22.61-20-22.61-20-34.95,20-59.62,23.64-47.29-5.45-47.29-5.45l2,49.1-2,9.1a32,32,0,0,0-6.17-7.28c-4.11-3.63-10.28,0-10.28,0s0,16.37,2.06,21.83,14.39,7.27,14.39,7.27c6.17,34.56,49.34,50.93,51.4,54.57s-12.34,9.09-12.34,9.09-74,10.91-78.12,30.92-30.84,120-35,189.15l-4.12,69.12v34.55c8.23,12.73,2.06,9.1,12.34,14.55s14.39-1.82,14.39-1.82L170.76,652s2.06-12.74,4.11-12.74,8.23,9.1,6.17,12.74,4.11,9.09,4.11,9.09,6.17,1.82,6.17-1.82,8.23-30.92,8.23-34.56l18.5-209.16-2,162.78,16.45,422s-7.26-7.26-25.77,10.92-13.36,19.1-13.36,19.1,2.05,3.64,14.39,5.46,26.73,0,26.73,0l34.95-20,2.05-83.66,20.56-181.88L304.4,588.32l12.33,191s6.17,100,8.23,140.05,12.33,94.57,12.33,94.57l37,21.83s32.9,3.64,39.06-1.82,0-14.55,0-14.55-22.61-20-45.23-27.28l4.11-63.66s10.28-149.14,10.28-165.51,6.17-107.31,6.17-107.31l4.11-80,4.12-158.24"/><ellipse class="cls-5" cx="267.89" cy="233.97" rx="9.61" ry="9.47"/><ellipse class="cls-5" cx="343.46" cy="228.2" rx="8.22" ry="9.09"/><path class="cls-6" d="M332.15,270.94c2.05,2.95-8.47,16.38-22.61,17.28-13.75.87-26.14-10.41-24.67-13.64,1-2.26,8.36.44,24.67-.91C324.75,272.41,330.82,269,332.15,270.94Z"/><path class="cls-7" d="M276.56,217s-14.48-11.63-24.14,3.32"/><path class="cls-7" d="M356.82,208.78s-18.5-13.86-30.83,4"/><ellipse class="cls-8" cx="303.03" cy="253.88" rx="15.55" ry="6.15"/><path class="cls-9" d="M300.31,609.66V622"/><path class="cls-5" d="M109.45,185.42S187,183.18,200,223.6s19.39,74.12,25.86,112.31S243.08,547,262.48,551.52s-79.75,6.74-79.75,6.74l19.4-53.9s12.93-24.71,8.62-38.19S208.6,439.22,159,428l-75.44-2.24c.59,2.52-56.69,17.67-58.2,24.7C22.56,463.6,14.6,434.73,14.6,434.73S25.38,300,31.85,293.23s4.31-44.92,15.09-62.89S77.11,189.91,109.45,185.42Z"/><ellipse class="cls-5" cx="85.74" cy="322.43" rx="8.62" ry="11.23"/><ellipse class="cls-5" cx="167.64" cy="329.17" rx="8.62" ry="11.23"/><path class="cls-6" d="M97.73,368.47c-2.14,3.64,8.89,20.23,23.71,21.34,14.42,1.08,27.4-12.85,25.87-16.85-1.07-2.79-8.76.55-25.87-1.12C105.49,370.28,99.13,366.1,97.73,368.47Z"/><ellipse class="cls-10" cx="126.69" cy="352.75" rx="9.7" ry="6.74"/><path class="cls-4" d="M27.54,457.19s-2.16-18,28-22.46c0,0,23.71-11.23,36.64-9l8.62-13.48S62,389.81,59.87,378.58s-8.62-15.72-10.78-35.94c0,0-12.93-4.49-15.09-18s4.32-18,4.32-18,8.62-4.49,12.93,0,45.26-67.38,45.26-67.38,69,80.85,101.31,87.59c0,0,6.47-6.74,10.78-4.49,0,0,6.46,0,6.46,4.49s2.16-2.24,0,20.22S200,358.37,200,358.37s-4.32,26.95-15.09,35.93-34.49,20.22-34.49,20.22S152.56,428,159,430.24s47.42,11.23,56,20.21,19.4,35.94,19.4,35.94,8.62,24.7,8.62,40.43,4.32,74.11,4.32,74.11l4.31,123.54v31.44L256,791.85s-2.16,18-6.47,20.21-8.62,9-15.09,4.49a10.24,10.24,0,0,1-4.31-11.23l4.31-11.23-2.15-18h-6.47l-2.15,18s-4.32,6.74-6.47,4.49-2.16-24.7-2.16-24.7l2.16-9V753.66l-4.31-80.85-2.16-85.35-15.09-89.84s10.78,33.69-2.15,49.41-15.09,62.89-15.09,62.89,12.93,56.15,12.93,69.62-8.62,215.62-8.62,215.62l-2.15,51.66s4.31,67.38,0,98.82S169.8,1131,169.8,1131l-6.47,71.88s12.94,31.44,10.78,44.92S150.4,1268,150.4,1268s-19.4-4.49-19.4-15.72,4.31-51.66,4.31-51.66L131,1126.5l4.31-137L131,845.75,122.38,693l-4.31,157.22-2.16,51.66,2.16,78.61-8.62,146,2.15,74.12s10.78,33.69,6.47,49.41-21.56,18-21.56,18-19.4-9-19.4-15.72,6.47-51.66,6.47-51.66L77.11,1122,68.49,985,59.87,845.75,55.56,686.28s0-51.66,10.78-69.62S27.54,457.19,27.54,457.19Z"/><ellipse class="cls-5" cx="87.89" cy="322.43" rx="8.62" ry="11.23"/><ellipse class="cls-5" cx="168.47" cy="322.26" rx="8.62" ry="11.23" transform="translate(-9.43 5.11) rotate(-1.69)"/><path class="cls-6" d="M102.05,359.49c-2.15,3.64,8.88,20.23,23.71,21.34C140.17,381.9,153.15,368,151.62,364c-1.07-2.79-8.76.55-25.86-1.12C109.8,361.3,103.44,357.12,102.05,359.49Z"/><ellipse class="cls-8" cx="126.69" cy="346.01" rx="9.7" ry="6.74"/><ellipse class="cls-11" cx="74.96" cy="339.27" rx="14.01" ry="6.74"/><ellipse class="cls-11" cx="176.27" cy="339.27" rx="14.01" ry="6.74"/><path class="cls-7" d="M101.9,302.94s-19.4-17.11-32.33,4.89"/><path class="cls-7" d="M148.08,303.2s7.14-3.19,8.95-2"/><polyline class="cls-4" points="38.5 440.5 23.5 450.5 11.13 467.12 0.13 505.12 0.5 606.5 42.5 494.5"/><polygon class="cls-12" points="190.5 699.5 48.5 699.5 64.5 579.5 42.5 500.5 38.5 440.5 84.5 426.5 101.5 449.5 147.5 449.5 159.5 430.5 200.5 443.5 195.5 497.5 198.5 519.5 184.5 606.5 190.5 699.5"/><rect class="cls-13" x="142" y="638.79" width="43.51" height="28.71" rx="12"/><rect class="cls-13" x="57" y="639" width="42" height="28" rx="12"/><polygon class="cls-14" points="244.07 703 412.95 703 411.87 444.91 429.66 445.4 417.68 367.11 412.5 347.5 392.5 338.5 347.5 334.5 323.61 349.21 274.5 328.5 263.69 330.37 227.5 340.5 231.5 476.5 239.5 504.5 244.07 703"/><circle class="cls-15" cx="74.5" cy="74.5" r="64"/><path class="cls-16" d="M31.5,138.5c-9,44-10,65-10,65"/><path class="cls-16" d="M144.63,69.92c38.16,4,61.83,12.49,63.74,16.16"/><path class="cls-16" d="M88,142.21c5.55,44.57,4.48,43.29,4.48,43.29"/><path class="cls-16" d="M130,113.56c34.34,28.95,32.69,28.74,32.69,28.74"/><path class="cls-16" d="M129.79,25.38c37.2-9.39,62.36-9.54,65.42-6.76"/></svg>
