<svg id="Layer_1" data-name="Layer 1" xmlns="http://www.w3.org/2000/svg" viewBox="0 0 413 698"><defs><style>.cls-1,.cls-13{fill:#e6e6e6;}.cls-1,.cls-11,.cls-4,.cls-5,.cls-7,.cls-9{stroke:#000;}.cls-1,.cls-11,.cls-14,.cls-4,.cls-5,.cls-7,.cls-8,.cls-9{stroke-miterlimit:10;}.cls-2{fill:#bdccd4;}.cls-3{fill:gray;}.cls-4{fill:#fbb03b;}.cls-5{fill:#fdc59a;}.cls-6{fill:#d3a585;}.cls-8,.cls-9{fill:none;stroke-width:2px;}.cls-8{stroke:#f39031;}.cls-10{fill:#c46d5c;}.cls-11{fill:#f49ab1;}.cls-12{fill:#fff;}.cls-14{fill:#ccc;stroke:#e6e6e6;stroke-width:5px;}</style></defs><title>Artboard 1</title><rect class="cls-1" x="2.5" y="1.5" width="413" height="697"/><rect class="cls-2" x="32" y="57" width="190" height="114"/><rect class="cls-3" x="0.5" y="429.5" width="413" height="268"/><path class="cls-4" d="M245.07,23s77.78-2.26,90.75,38.47,19.44,74.68,25.93,113.15S379,387.35,398.48,391.88s-80,6.79-80,6.79L338,344.36s13-24.9,8.64-38.47-2.16-27.16-51.85-38.47l-75.63-2.27c.59,2.54-56.83,17.81-58.34,24.9C158,303.3,150,274.21,150,274.21s10.8-135.78,17.29-142.57,4.32-45.26,15.12-63.36S212.66,27.55,245.07,23Z"/><path class="cls-5" d="M317.43,493.49l-122.75-1.18s0-48.58,10.66-65.48-36.05-152.64-36.05-152.64-4.46-14.22,25.39-18.44c0,0,23.45-10.56,36.24-8.45l8.53-12.67s-38.37-21.13-40.51-31.69-8.53-14.78-10.66-33.79c0,0-12.79-4.23-14.92-16.9s4.26-16.9,4.26-16.9,8.53-4.22,12.79,0S235.19,72,235.19,72s68.23,76,100.21,82.37c0,0,6.39-6.33,10.66-4.22,0,0,6.39,0,6.39,4.22s2.14-2.11,0,19-14.92,10.56-14.92,10.56-4.27,25.35-14.93,33.8-34.11,19-34.11,19,2.13,12.67,8.53,14.78,46.91,10.56,55.43,19,19.19,33.8,19.19,33.8,8.53,23.23,8.53,38,4.27,69.71,4.27,69.71l4.26,116.16v29.57l4.26,33.8s-2.13,16.89-6.39,19S378,619,371.64,614.81a9.35,9.35,0,0,1-4.26-10.56l4.26-10.56-2.13-16.9h-6.4L361,593.69s-4.26,6.34-6.39,4.22-2.14-23.23-2.14-23.23l2.14-8.45V555.67l-4.27-76-2.13-80.26-14.93-84.48s10.67,31.68-2.13,46.46-14.92,59.14-14.92,59.14Z"/><ellipse class="cls-6" cx="260.03" cy="178.88" rx="15.55" ry="6.15"/><ellipse class="cls-7" cx="273.46" cy="145.2" rx="8.22" ry="9.09"/><ellipse class="cls-7" cx="244.89" cy="146.97" rx="9.61" ry="9.47"/><path class="cls-8" d="M245.56,118s-14.48-11.63-24.14,3.32"/><path class="cls-8" d="M270,118s0-4,8-4"/><path class="cls-9" d="M278,200.38S256.65,219.2,242.42,195"/><path class="cls-10" d="M269,221c-.06,8.28-7.2,15-13,15s-7-16.72-7-25,3.75-5.77,9.5-5C266,207,269.15,200.81,269,221Z"/><path class="cls-11" d="M318.47,257.13l0,53.37-49,10-46-5L215,248.75l-5.79,1.59,6.26,67.16-28.75,11.16,19.07,76.71L317,410.8s3.66-37,8.09-38.66,11.48-22.59,11.48-22.59,2.95-29.05-5.05-36.05-6.84-54.64-6.84-54.64Z"/><polygon class="cls-11" points="189.5 698.5 338.5 698.5 333.5 573.5 316.5 430.5 200 435.37 187 568.37 189.5 698.5"/><path class="cls-5" d="M69.5,697.5s110-101,115-120c0,0,21-7,23-17s-58-23-58-23-6,18-1,20-147,140-147,140Z"/><rect class="cls-12" x="107.89" y="261" width="169.13" height="329" rx="12"/><rect class="cls-13" x="121" y="296.09" width="142" height="241.25"/><path d="M262,297.09V536.34H122V297.09H262m2-2H120V538.34H264V295.09Z"/><ellipse cx="173.26" cy="277.21" rx="8.26" ry="8.17"/><rect x="188.11" y="272.19" width="44.89" height="10" rx="5"/><ellipse class="cls-14" cx="183.21" cy="563.7" rx="16.09" ry="16.2"/><path class="cls-4" d="M172.77,306s38-1.12,44.37,19,9.5,36.88,12.67,55.88,8.45,105.07,18,107.3-39.08,3.35-39.08,3.35l9.5-26.82s6.34-12.29,4.23-19-1.06-13.41-25.35-19l-37-1.12c.29,1.26-27.78,8.8-28.52,12.3-1.38,6.54-5.28-7.83-5.28-7.83s5.28-67.06,8.45-70.41,2.11-22.35,7.39-31.3S156.93,308.25,172.77,306Z"/><path class="cls-5" d="M242.5,537.5l-1.6-39.35s-2.08-27.12-2.08-34.42S234.65,445,234.65,445s-5.21-12.52-9.38-16.69-24-8.35-27.1-9.39-4.17-7.3-4.17-7.3,11.47-5.22,16.68-9.39S218,385.49,218,385.49s6.26,5.21,7.3-5.22,0-7.3,0-9.39-3.13-2.09-3.13-2.09c-2.08-1-5.21,2.09-5.21,2.09-15.63-3.13-49-40.68-49-40.68s-19.8,33.38-21.88,31.29-6.26,0-6.26,0-3.12,2.09-2.08,8.35,7.29,8.34,7.29,8.34c1.05,9.39,4.17,11.48,5.21,16.69S170,410.52,170,410.52l-4.17,6.26c-6.25-1-17.72,4.17-17.72,4.17-14.59,2.09-12.41,9.12-12.41,9.12s22.83,67,17.62,75.38-5.21,32.34-5.21,32.34l60,.59-.6-36.06s1-21.9,7.3-29.21,1-22.95,1-22.95l7.29,41.73,1.32,44.61Z"/><ellipse class="cls-6" cx="180.09" cy="382.2" rx="7.6" ry="3.01"/><ellipse class="cls-7" cx="186.65" cy="365.74" rx="4.02" ry="4.45"/><ellipse class="cls-7" cx="172.68" cy="366.6" rx="4.7" ry="4.63"/><path class="cls-8" d="M173,352.45s-7.08-5.68-11.8,1.63"/><path class="cls-8" d="M185,352.44s0-1.95,3.91-1.95"/><path class="cls-9" d="M188.87,392.71s-10.43,9.2-17.39-2.63"/><path class="cls-10" d="M184.47,402.79c0,4-3.52,7.33-6.35,7.33S174.7,402,174.7,397.9s1.83-2.82,4.64-2.44C183,396,184.54,392.92,184.47,402.79Z"/><path class="cls-11" d="M208.66,420.46v26.08l-23.95,4.89L162.23,449l-4.14-32.63-2.83.78L158.32,450l-14.06,5.45,9.32,37.5,54.35,2.66s3.4-17.28,5.57-18.08,4-11.87,4-11.87,1.45-14.2-2.46-17.62-3.35-26.71-3.35-26.71Z"/><polyline class="cls-5" points="143.5 452.5 121.5 460.5 120.5 433.5 139.5 423.5"/><polygon class="cls-11" points="209.5 537.5 149.5 536.5 149.05 521.94 154.05 501.94 208.5 502.5 209.5 537.5"/><path class="cls-5" d="M107.5,288.5s-38,64-48,48-13-46-13-46,14-7,10-18a27.14,27.14,0,0,0-13-15s9-31,5-31-12,27-12,27-9-32-12-27,5,34,5,34-13,10-8,17,6,103,24,105,62-38,62-38Z"/></svg>
