<svg xmlns="http://www.w3.org/2000/svg" width="220" height="320" viewBox="0 0 220 320"><defs><style>.cls-1{fill:#fd9128;}</style></defs><title>slet_knap</title><g id="Layer_9" data-name="Layer 9"><path class="cls-1" d="M197.43,106.15a36.29,36.29,0,0,1-.83-7.72A15.27,15.27,0,0,0,189,85.54L62.77,12.67a15.29,15.29,0,0,0-20.83,5.58l-.12.21a15.29,15.29,0,0,0,5.59,20.83l89.15,51.48H42.37A20.54,20.54,0,0,0,23.91,102.4a20.33,20.33,0,0,0-1.76,11.2L42.26,287.94c.08.62.1,1.24.13,1.86a20.56,20.56,0,0,0,20.48,19.56h94.27a20.56,20.56,0,0,0,20.47-19.56c0-.62,0-1.24.13-1.86L197.85,113.6A21.2,21.2,0,0,0,197.43,106.15ZM73.14,284.8a7.53,7.53,0,0,1-8.4-6.5L46.09,131.93A7.51,7.51,0,1,1,61,130L79.65,276.4A7.54,7.54,0,0,1,73.14,284.8Zm44.37-6.86a7.53,7.53,0,0,1-7.51,7.51h0a7.53,7.53,0,0,1-7.51-7.51V130.39a7.51,7.51,0,1,1,15,0Zm56.4-146L155.26,278.3a7.51,7.51,0,1,1-14.9-1.9L159,130a7.51,7.51,0,1,1,14.9,1.9Z"/></g></svg>
