<svg id="Layer_1" data-name="Layer 1" xmlns="http://www.w3.org/2000/svg" xmlns:xlink="http://www.w3.org/1999/xlink" width="1920" height="1080" viewBox="0 0 1920 1080"><defs><style>.cls-1{fill:#7dc5df;}.cls-2,.cls-7{fill:#e6e6e6;}.cls-3{fill:#fff;}.cls-16,.cls-4,.cls-6{fill:#fdc59a;}.cls-4{stroke:#93745f;}.cls-11,.cls-12,.cls-13,.cls-14,.cls-15,.cls-4,.cls-5,.cls-6,.cls-7,.cls-8,.cls-9{stroke-miterlimit:10;}.cls-5{fill:#ccc;stroke:#e6e6e6;stroke-width:5px;}.cls-12,.cls-13,.cls-14,.cls-6,.cls-7,.cls-8{stroke:#000;}.cls-11,.cls-15,.cls-8,.cls-9{fill:none;}.cls-11,.cls-9{stroke:#d3a585;}.cls-10{fill:#c48e7e;}.cls-11{stroke-width:4px;}.cls-12{fill:#42210b;}.cls-13{fill:#754c24;}.cls-15{stroke:#42210b;stroke-width:2px;}.cls-17{fill:#d3a585;}.cls-18{fill:#f4b0e4;}.cls-19{opacity:0.83;}</style></defs><title>startskaerm</title><rect class="cls-1" width="1920" height="1079.98"/><g id="W1m0Xg.tif"><image id="Layer_0" data-name="Layer 0" width="258" height="187" transform="translate(92 73)" xlink:href="startskaerm1.png"/></g><ellipse class="cls-2" cx="1756.14" cy="90.5" rx="36.25" ry="31.11"/><ellipse class="cls-2" cx="1793.75" cy="51.98" rx="24.25" ry="20.98"/><ellipse class="cls-3" cx="1787.13" cy="59.06" rx="14.33" ry="12.16"/><ellipse class="cls-3" cx="1751.86" cy="94.61" rx="25.35" ry="21.51"/><ellipse class="cls-2" cx="1380.31" cy="221.79" rx="299.22" ry="139.81"/><ellipse class="cls-2" cx="1118.02" cy="159.39" rx="77.06" ry="43.12"/><ellipse class="cls-2" cx="1081.14" cy="233.04" rx="72.14" ry="43.39"/><ellipse class="cls-2" cx="1126.69" cy="299.74" rx="77.06" ry="43.12"/><ellipse class="cls-2" cx="1252.32" cy="342.78" rx="77.06" ry="43.12"/><ellipse class="cls-2" cx="1380.31" cy="346.88" rx="77.06" ry="43.12"/><ellipse class="cls-2" cx="1517.21" cy="337.23" rx="77.06" ry="43.12"/><ellipse class="cls-2" cx="1189.12" cy="107.19" rx="77.06" ry="43.12"/><ellipse class="cls-2" cx="1189.12" cy="107.19" rx="77.06" ry="43.12"/><ellipse class="cls-2" cx="1622.36" cy="303.92" rx="77.06" ry="43.12"/><ellipse class="cls-2" cx="1647.94" cy="232.88" rx="77.06" ry="43.12"/><ellipse class="cls-2" cx="1647.94" cy="153.2" rx="77.06" ry="45.39"/><ellipse class="cls-2" cx="1552.66" cy="116.48" rx="77.06" ry="43.12"/><ellipse class="cls-2" cx="1295.86" cy="82.12" rx="77.06" ry="43.12"/><ellipse class="cls-2" cx="1429.95" cy="87.5" rx="77.06" ry="43.12"/><ellipse class="cls-3" cx="1384.22" cy="221.4" rx="263.61" ry="122.73"/><ellipse class="cls-3" cx="1153.15" cy="166.62" rx="67.89" ry="37.86"/><ellipse class="cls-3" cx="1120.67" cy="231.28" rx="63.55" ry="38.09"/><ellipse class="cls-3" cx="1160.79" cy="289.82" rx="67.89" ry="37.86"/><ellipse class="cls-3" cx="1271.47" cy="327.61" rx="67.89" ry="37.86"/><ellipse class="cls-3" cx="1384.22" cy="331.2" rx="67.89" ry="37.86"/><ellipse class="cls-3" cx="1504.83" cy="322.74" rx="67.89" ry="37.86"/><ellipse class="cls-3" cx="1215.79" cy="120.8" rx="67.89" ry="37.86"/><ellipse class="cls-3" cx="1215.79" cy="120.8" rx="67.89" ry="37.86"/><ellipse class="cls-3" cx="1597.46" cy="293.49" rx="67.89" ry="37.86"/><ellipse class="cls-3" cx="1632.37" cy="232.13" rx="67.89" ry="37.86"/><ellipse class="cls-3" cx="1648.01" cy="155.42" rx="55.98" ry="35.77" transform="translate(-7.31 152.98) rotate(-5.3)"/><ellipse class="cls-3" cx="1536.06" cy="128.95" rx="67.89" ry="37.86"/><ellipse class="cls-3" cx="1309.83" cy="98.79" rx="67.89" ry="37.86"/><ellipse class="cls-3" cx="1427.96" cy="103.51" rx="67.89" ry="37.86"/><path class="cls-4" d="M1407.84,654.56v7"/><rect class="cls-3" x="1537" y="403.73" width="317" height="616.63" rx="12"/><rect class="cls-2" x="1553.76" y="465.65" width="284.6" height="482.14"/><path d="M1837.37,466.65V946.79H1554.76V466.65h282.61m2-2H1552.76V948.79h286.61V464.65Z"/><ellipse class="cls-5" cx="1689.21" cy="988.64" rx="25.09" ry="25.25"/><rect x="1660.45" y="437.07" width="84.24" height="10.03" rx="5"/><ellipse cx="1643.63" cy="442.59" rx="6.77" ry="7.52"/><path class="cls-6" d="M1791.22,862.71c13.64-9.94,25.46-32.81,32.73-41.3s4.55-47.19,4.55-47.19l-23.64-176s-3.64-75.56-16.37-84.51-52.74-1-63.65-9,.07-37.13.07-37.13h-62.43s5.08,20.23-.38,34.15-59.46-5.58-83.1,32.2-16,149.75-16,149.75V726.5s-1.82,25.85,10.91,25.85,68.2-43.75,68.2-43.75l-34.55-102.4L1651,735s-40.73,35.25-37.09,93.91S1621.32,949,1621.32,949H1696s14-69,4-96c0,0,11,88,11,92s72,2.22,72,2.22c10-7,11.23-138.22,14-138.22s-4-42-4-42l-35.42-126L1746,572l1.57,17.29,24.55,100.42s27.28,99.43,32.74,110.36c1.76,3.54-2.57,10.52-9.24,18.34"/><polygon class="cls-7" points="1629.64 671.68 1605 693 1605 606 1629.64 671.68"/><path class="cls-8" d="M1696.5,759.5c4.62-3.17-47.08,129.55,55,92"/><path class="cls-8" d="M1691.5,844.5c-10,4-28,28-62,0"/><path class="cls-4" d="M166.35,695.85v6.3"/><rect class="cls-3" x="94" y="396" width="371" height="605.36" rx="12"/><rect class="cls-2" x="111.76" y="446.65" width="336.24" height="482.14"/><path d="M447,447.65V927.79H112.76V447.65H447m2-2H110.76V929.79H449V445.65Z"/><ellipse class="cls-5" cx="267.21" cy="969.64" rx="25.09" ry="25.25"/><rect x="259.45" y="421.07" width="84.24" height="10.03" rx="5"/><ellipse cx="225.63" cy="426.59" rx="6.77" ry="7.52"/><path class="cls-6" d="M265.5,928.5s-44.36,2-72,1c-10.89-.4-18.9.64-21-2-7.44-9.34,4.73-135.7,4.73-135.7l31.63-65.4s8.31-78.38-13-87.81c-24.46-10.82-9.65-57.71-7.44-57.93,0,0-14.93,54.16-21.89,74.84-2.05,6.1,29.33,98.93,29.33,98.93L178.5,788.5c-37.22-35.5-54-115-54-115s3.88-53.6,9.93-79.76,14.88-52.32,16.75-63.53c3.72-22.42,24.19-29.89,24.19-29.89S207,496.58,220,496.58s26-14.95,29.78-18.68,3.72-29.9,3.72-29.9h50.24c-3.72,22.42,14.88,39.24,14.88,39.24h5.59s3.72,3.74,24.19,7.47,27.91,15,27.91,15c7,1,14.65,20.49,27.91,69.13C415.75,621,419.91,644,422.5,653.5c5.58,20.55-44,138-44,138l-12-36,4-10c5.26-2.42,9.07-72,13.09-75.39L348.5,570.5a111.25,111.25,0,0,1,8,31c.56,5.89-3.67,5-4,11-.41,7.33-15.38,12.72-16,21-3.28,44.14,4.35,89.28,13.78,96.64,16.74,13.08,27.91,61.66,27.91,61.66l3.31,135.7h-96l-.35-59.09C266.5,928.5,265.5,928.5,265.5,928.5Z"/><path class="cls-9" d="M278,606c2.79,32.17,51,31.59,65.5,17.78"/><path class="cls-9" d="M255,606c-2.89,40.59-52.94,39.86-68,22.44"/><ellipse class="cls-10" cx="318.5" cy="608.26" rx="10.5" ry="6.97"/><ellipse class="cls-10" cx="212.5" cy="615.26" rx="10.5" ry="6.97"/><path class="cls-4" d="M315,815.11c0,6.42-29.33,49.86-29.33,49.86L257,805.48"/><ellipse class="cls-11" cx="280.1" cy="742" rx="2.9" ry="11"/><rect class="cls-3" x="577" y="84" width="397.39" height="773" rx="12"/><rect class="cls-2" x="596.51" y="150.54" width="357.28" height="604.91"/><path d="M952.79,151.54V754.45H597.51V151.54H952.79m2-2H595.51V756.45H954.79V149.54Z"/><ellipse class="cls-5" cx="772.82" cy="802.65" rx="31.46" ry="31.66"/><path class="cls-12" d="M822.51,231.41s39.19-1.08,45.73,18.43,9.79,35.78,13.06,54.21S890,406,899.81,408.13s-40.28,3.25-40.28,3.25l9.79-26s6.54-11.93,4.36-18.43-1.09-13-26.13-18.43l-38.11-1.09c.3,1.22-28.63,8.54-29.39,11.93-1.42,6.35-5.45-7.59-5.45-7.59s5.45-65.05,8.71-68.3,2.18-21.68,7.63-30.36S806.18,233.58,822.51,231.41Z"/><path class="cls-6" d="M655.93,512.2l9.8-124.67-1.05,97,8.71,251.52s-3.85-4.33-13.65,6.51S652.67,754,652.67,754s1.09,2.17,7.62,3.26a54.65,54.65,0,0,0,14.15,0L693,745.29,694,695.42,704.93,587l6.53-96.49L718,604.35s3.27,59.63,4.36,83.48,6.53,56.38,6.53,56.38l19.6,13s17.42,2.17,20.68-1.09,0-8.67,0-8.67-12-11.93-23.95-16.26l2.18-38s5.44-88.9,5.44-98.65,3.27-64,3.27-64l2.17-47.7,2.18-94.32,27.22,45.53-23.95,64s-18.51,17.34-16.33,21.68,0,9.76,16.33,16.26,19.59-20.6,19.59-20.6L814.89,432c3.07-.51-41.24-79.39-42.46-82.4-1.83-4.49-35.93-10.84-38.11-10.84s-7.62-6.5-7.62-6.5l14.15-10.85,8.71-15.17s2.18-16.27,4.36-19.52S756.1,278,756.1,278s-1.09-11.93-4.36-9.76-3.26,6.51-3.26,6.51-1.09-9.76-8.71-21.69-12-11.92-12-11.92-18.51,11.92-31.57,14.09-25-3.25-25-3.25l1.08,29.27-1.08,5.42a18.58,18.58,0,0,0-3.27-4.33c-2.18-2.17-5.44,0-5.44,0s0,9.75,1.08,13,7.63,4.34,7.63,4.34c3.26,20.6,26.12,30.36,27.21,32.53s-6.53,5.42-6.53,5.42-39.19,6.5-41.37,18.43S634.16,427.64,632,468.84L629.8,510v20.6c4.36,7.59,1.09,5.42,6.54,8.68s7.62-1.09,7.62-1.09l-3.27-9.76s1.09-7.58,2.18-7.58,4.35,5.42,3.26,7.58,2.18,5.43,2.18,5.43,3.27,1.08,3.27-1.09S655.93,514.37,655.93,512.2Z"/><path class="cls-13" d="M754.89,268.88s3.38-26.63-6.41-42.89-9.8-13-20.69-18.43-28.31-1.08-35.93,0-17.42,10.84-17.42,10.84c-14.15,14.09-12,29.27-12,29.27l1.08,34.7s1.78-1.92,3.07-1,3.34,0,5,4.26,1.53-8.73,1.53-8.73L672.26,252s16.34,5.42,21.78,4.34,34.84-15.18,34.84-15.18a8.43,8.43,0,0,1,3.26,1.08c2.18,1.09,8.71,10.84,8.71,10.84s7.81,13.46,8.26,19.2l.38,2s.07-4.91,1.16-4.91c0,0,1.74-1.45,3.05-1.27l1.31.18"/><ellipse class="cls-14" cx="689.68" cy="282.37" rx="4.35" ry="5.42"/><ellipse class="cls-14" cx="732.14" cy="275.86" rx="4.35" ry="5.42"/><path class="cls-3" d="M726.16,301.34c1.08,1.75-4.49,9.76-12,10.3-7.28.52-13.84-6.21-13.06-8.13.54-1.35,4.42.26,13.06-.55C722.24,302.21,725.45,300.19,726.16,301.34Z"/><path class="cls-15" d="M695.67,269.9s-9.8-7.59-16.33,2.17"/><path class="cls-15" d="M739.22,264.29s-9.8-8.27-16.33,2.36"/><ellipse class="cls-14" cx="810.53" cy="297.54" rx="4.35" ry="5.42"/><ellipse class="cls-14" cx="851.9" cy="300.8" rx="4.35" ry="5.42"/><path class="cls-3" d="M816.59,319.77c-1.08,1.75,4.49,9.76,12,10.3,7.28.52,13.84-6.21,13.06-8.13-.54-1.35-4.42.26-13.06-.55C820.51,320.64,817.3,318.62,816.59,319.77Z"/><ellipse class="cls-16" cx="831.22" cy="312.18" rx="4.9" ry="3.25"/><ellipse class="cls-17" cx="711.46" cy="291.58" rx="4.9" ry="3.25"/><path class="cls-6" d="M763.19,390.29s-9.82,9.7-10.9,15.12,6.53,16.27,6.53,16.27l19.6,21.68,8.71,17.35,2.17,2.16s7.62-1.08,10.89-6.5,2.18-8.67,2.18-8.67l-12-15.18Z"/><path class="cls-6" d="M781.14,362.59s-1.09-8.67,14.15-10.84c0,0,12-5.42,18.51-4.34l4.35-6.5s-19.59-10.84-20.68-16.26-4.36-7.59-5.45-17.35c0,0-6.53-2.17-7.62-8.67s2.18-8.68,2.18-8.68,4.36-2.16,6.53,0S816,257.43,816,257.43s34.84,39,51.17,42.28c0,0,3.26-3.25,5.44-2.17,0,0,3.27,0,3.27,2.17s1.09-1.08,0,9.76-7.62,5.42-7.62,5.42-2.18,13-7.63,17.35S843.2,342,843.2,342s1.08,6.51,4.35,7.59,24,5.42,28.31,9.76,9.8,17.35,9.8,17.35S890,388.61,890,396.2,892.19,432,892.19,432l2.18,59.62v15.18l2.17,17.35s-1.09,8.67-3.26,9.76-4.36,4.33-7.62,2.16a4.8,4.8,0,0,1-2.18-5.42l2.18-5.42-1.09-8.67H881.3l-1.09,8.67s-2.18,3.25-3.26,2.17-1.09-11.93-1.09-11.93l1.09-4.33V505.7l-2.18-39-1.09-41.2-7.62-43.36S871.5,398.37,865,406s-7.62,30.35-7.62,30.35,6.53,27.11,6.53,33.61S859.53,574,859.53,574l-1.09,24.93s2.17,32.53,0,47.71S853,687.83,853,687.83l-3.26,34.69s6.53,15.18,5.44,21.69-12,9.75-12,9.75-9.8-2.16-9.8-7.58,2.17-24.94,2.17-24.94l-2.17-35.78,2.17-66.13-2.17-69.38L829,476.43l-2.18,75.89-1.08,24.93,1.08,38-4.35,70.46,1.09,35.78s5.44,16.26,3.26,23.85S816,754,816,754s-9.8-4.33-9.8-7.58,3.26-24.94,3.26-24.94l-3.26-37.94-4.36-66.14-4.35-67.21-2.18-77s0-24.93,5.44-33.6S781.14,362.59,781.14,362.59Z"/><ellipse class="cls-14" cx="811.62" cy="297.54" rx="4.35" ry="5.42"/><ellipse class="cls-14" cx="852.32" cy="297.46" rx="4.35" ry="5.42" transform="matrix(1, -0.04, 0.04, 1, -10.08, 30.65)"/><path class="cls-3" d="M818.77,315.43c-1.08,1.76,4.49,9.77,12,10.3,7.28.52,13.84-6.2,13.06-8.13-.54-1.35-4.42.26-13.06-.54C822.69,316.31,819.48,314.29,818.77,315.43Z"/><ellipse class="cls-17" cx="831.22" cy="308.93" rx="4.9" ry="3.25"/><ellipse class="cls-18" cx="805.09" cy="305.67" rx="7.08" ry="3.25"/><ellipse class="cls-18" cx="856.26" cy="305.67" rx="7.08" ry="3.25"/><path class="cls-15" d="M818.7,288.14s-9.8-8.26-16.33,2.36"/><path class="cls-15" d="M842,288.26s3.61-1.54,4.52-.95"/><ellipse class="cls-17" cx="737.59" cy="385.9" rx="4.9" ry="3.25"/><ellipse class="cls-17" cx="689.68" cy="385.9" rx="4.9" ry="3.25"/><path class="cls-9" d="M833.4,390.78c1.39,23.54,25.42,23.11,32.66,13"/><path class="cls-9" d="M828,390.78c.83,24-25.93,21.7-32.66,13.55"/><ellipse class="cls-10" cx="808.36" cy="399.99" rx="4.9" ry="3.25"/><ellipse class="cls-10" cx="852.99" cy="399.99" rx="4.9" ry="3.25"/><path class="cls-4" d="M838.84,463.42c0,2.16-9.91,16.84-9.91,16.84l-9.69-20.1"/><path class="cls-9" d="M711.46,394c-12.66,4.84-31.43,1.58-50.08-10.84"/><path class="cls-9" d="M712.55,363.68c-11.43-5.37-30-15.18-49-6.51"/><path class="cls-9" d="M719.08,363.68c11.43-5.37,30-15.18,49-6.51"/><path class="cls-9" d="M721.26,394c14.45,5.53,30.68,2.32,44.64-11.92"/><line class="cls-9" x1="714.72" y1="399.45" x2="712.55" y2="469.92"/><ellipse class="cls-4" cx="701.66" cy="464.51" rx="9.8" ry="11.98"/><path class="cls-4" d="M709.28,493.91v7.62"/><ellipse class="cls-4" cx="717.99" cy="464.51" rx="9.8" ry="11.98"/><path class="cls-4" d="M718.54,471.86c2.91,13.47,1,17-.55,18.78a10,10,0,0,1-8.16,3.27c-4-.41-6.46-3.55-7.08-4.36-1.48-1.91-3.66-5.93-1.63-17.69.65-3.78,3.81-22.05,8.71-22.05C713.78,449.81,716.18,461,718.54,471.86Z"/><path class="cls-4" d="M718.29,490.28c0,5.91-3.84,10.7-8.59,10.7s-8.58-4.79-8.58-10.7S718.29,484.36,718.29,490.28Z"/><path class="cls-4" d="M709.28,499.35a7.63,7.63,0,0,0,0-4.35,7.22,7.22,0,0,0-1.09-2.18"/><rect x="750.11" y="112.31" width="91.45" height="10.89" rx="5"/><ellipse cx="723.16" cy="117.21" rx="7.35" ry="8.17"/><ellipse class="cls-17" cx="828.64" cy="441" rx="1.47" ry="2.95"/><ellipse class="cls-17" cx="713.64" cy="435" rx="1.47" ry="2.95"/><g class="cls-19"><path d="M1156.53,167.82l8.51-8.73h4.4l-9.88,9.9,9.94,12h-4.42l-7.87-9.73-.68.68V181h-3.3V159.09h3.3Z"/><path d="M1175,157V181h-3.18V157Z"/><path d="M1178.58,161.43a1.94,1.94,0,0,1,.61-1.44,2,2,0,0,1,1.45-.61,2,2,0,0,1,1.48.61,2,2,0,0,1,.61,1.45,2,2,0,0,1-.61,1.48,2.08,2.08,0,0,1-3.54-1.49Zm3.66,5.73V181h-3.18v-13.8Z"/><path d="M1189.47,157v14.58l4.49-4.46h4.27l-6,5.8,6.43,8h-4.13l-4.56-5.82-.51.51V181h-3.19V157Z"/><path d="M1212.86,188.46h-3.19v-21.3h3.19v1.51a5.87,5.87,0,0,1,4.27-1.89,6,6,0,0,1,4.69,2.1,8.23,8.23,0,0,1,0,10.42,6,6,0,0,1-4.65,2,5.9,5.9,0,0,1-4.33-1.94Zm7.57-14.31a4.74,4.74,0,0,0-1.07-3.23,3.5,3.5,0,0,0-2.75-1.26,3.65,3.65,0,0,0-2.85,1.21,4.67,4.67,0,0,0-1.09,3.2,4.74,4.74,0,0,0,1.09,3.2,3.58,3.58,0,0,0,2.84,1.24,3.46,3.46,0,0,0,2.73-1.25A4.5,4.5,0,0,0,1220.43,174.15Z"/><path d="M1237.23,167.16h3.2V181h-3.2v-1.45a6.14,6.14,0,0,1-9-.22,7.74,7.74,0,0,1-1.85-5.27,7.48,7.48,0,0,1,1.85-5.17,6,6,0,0,1,4.65-2.07,5.89,5.89,0,0,1,4.32,2Zm-7.56,6.86a4.8,4.8,0,0,0,1.06,3.23,3.48,3.48,0,0,0,2.75,1.26,3.67,3.67,0,0,0,2.86-1.22,5.24,5.24,0,0,0,0-6.4,3.62,3.62,0,0,0-2.84-1.23,3.5,3.5,0,0,0-2.74,1.24A4.58,4.58,0,0,0,1229.67,174Zm1.09-12.11a2.92,2.92,0,0,1,.9-2.14,3,3,0,0,1,2.17-.9,2.94,2.94,0,0,1,2.18.9,3.07,3.07,0,0,1,0,4.36,2.91,2.91,0,0,1-2.17.91,3,3,0,0,1-2.19-.91A3,3,0,0,1,1230.76,161.91Zm1.68,0a1.41,1.41,0,1,0,2.81,0,1.34,1.34,0,0,0-.41-1,1.36,1.36,0,0,0-1-.41,1.3,1.3,0,0,0-.55.12,1.23,1.23,0,0,0-.44.3,1.37,1.37,0,0,0-.3.45A1.35,1.35,0,0,0,1232.44,161.94Z"/><path d="M1263.57,157h3.2V181h-3.2v-1.45a6,6,0,0,1-4.27,1.84,6.1,6.1,0,0,1-4.7-2.06,7.74,7.74,0,0,1-1.85-5.27,7.47,7.47,0,0,1,1.85-5.16,6,6,0,0,1,9-.1ZM1256,174a4.8,4.8,0,0,0,1.07,3.23,3.46,3.46,0,0,0,2.74,1.26,3.65,3.65,0,0,0,2.86-1.22,5.24,5.24,0,0,0,0-6.4,3.6,3.6,0,0,0-2.83-1.23,3.54,3.54,0,0,0-2.75,1.24A4.63,4.63,0,0,0,1256,174Z"/><path d="M1283.35,174.81h-9.89a4.25,4.25,0,0,0,1.11,2.71,3.35,3.35,0,0,0,2.5,1,3.24,3.24,0,0,0,2-.57,8.3,8.3,0,0,0,1.75-2.1l2.68,1.51a11.07,11.07,0,0,1-1.31,1.82,6.87,6.87,0,0,1-1.49,1.24,5.86,5.86,0,0,1-1.71.72,8.45,8.45,0,0,1-2,.22,6.47,6.47,0,0,1-5-2,7.43,7.43,0,0,1-1.87-5.3,7.62,7.62,0,0,1,1.81-5.29,6.91,6.91,0,0,1,9.66-.06,7.65,7.65,0,0,1,1.75,5.34Zm-3.27-2.6a3.06,3.06,0,0,0-3.22-2.55,3.51,3.51,0,0,0-1.09.17,3.24,3.24,0,0,0-.93.51,3.42,3.42,0,0,0-1.16,1.87Z"/><path d="M1299.08,170.14V181h-3.2V170.14h-1.13v-3h1.13v-5.32a5.73,5.73,0,0,1,.91-3.68,4.43,4.43,0,0,1,3.62-1.5,6.21,6.21,0,0,1,2.14.49v3.26l-.33-.17a4,4,0,0,0-1.7-.52,1.14,1.14,0,0,0-1.14.61,5.78,5.78,0,0,0-.3,2.29v4.54h3.47v3Z"/><path d="M1304.52,161.43a1.94,1.94,0,0,1,.61-1.44,2,2,0,0,1,1.45-.61,2,2,0,0,1,1.48.61,2,2,0,0,1,.61,1.45,2,2,0,0,1-.61,1.48,2.08,2.08,0,0,1-3.54-1.49Zm3.66,5.73V181H1305v-13.8Z"/><path d="M1312.22,167.16h3.19v1.24a5.77,5.77,0,0,1,1.55-1.26,3.55,3.55,0,0,1,1.65-.36,5.22,5.22,0,0,1,2.63.82l-1.46,2.92a3,3,0,0,0-1.77-.65q-2.6,0-2.6,3.94V181h-3.19Z"/><path d="M1335.43,174.81h-9.89a4.25,4.25,0,0,0,1.11,2.71,3.38,3.38,0,0,0,2.51,1,3.21,3.21,0,0,0,2-.57,8.3,8.3,0,0,0,1.75-2.1l2.69,1.51a11.71,11.71,0,0,1-1.32,1.82,6.87,6.87,0,0,1-1.49,1.24,5.86,5.86,0,0,1-1.71.72,8.4,8.4,0,0,1-2,.22,6.47,6.47,0,0,1-5-2,7.43,7.43,0,0,1-1.87-5.3,7.62,7.62,0,0,1,1.81-5.29,6.91,6.91,0,0,1,9.66-.06,7.65,7.65,0,0,1,1.75,5.34Zm-3.27-2.6a3.06,3.06,0,0,0-3.22-2.55,3.55,3.55,0,0,0-1.09.17,3.06,3.06,0,0,0-.92.51,3.44,3.44,0,0,0-.72.8,3.67,3.67,0,0,0-.45,1.07Z"/><path d="M1351.05,157v11.72a5.88,5.88,0,0,1,4.33-2,6,6,0,0,1,4.65,2.08,7.47,7.47,0,0,1,1.85,5.16,7.59,7.59,0,0,1-1.87,5.27,6.05,6.05,0,0,1-4.69,2.06,5.93,5.93,0,0,1-4.27-1.84V181h-3.19V157Zm7.57,17.12a4.8,4.8,0,0,0-1.07-3.23,3.45,3.45,0,0,0-2.74-1.27,3.67,3.67,0,0,0-2.86,1.23,5.23,5.23,0,0,0,0,6.38,3.56,3.56,0,0,0,2.83,1.24,3.49,3.49,0,0,0,2.75-1.24A4.53,4.53,0,0,0,1358.62,174.16Z"/><path d="M1364.77,161.43a1.94,1.94,0,0,1,.61-1.44,2,2,0,0,1,1.46-.61,2,2,0,0,1,1.47.61,2,2,0,0,1,.61,1.45,2,2,0,0,1-.61,1.48,2,2,0,0,1-1.46.61,2.08,2.08,0,0,1-2.08-2.1Zm3.67,5.73V181h-3.19v-13.8Z"/><path d="M1375.66,157V181h-3.19V157Z"/><path d="M1382.88,157V181h-3.19V157Z"/><path d="M1399.47,174.81h-9.88a4.19,4.19,0,0,0,1.11,2.71,3.35,3.35,0,0,0,2.5,1,3.24,3.24,0,0,0,2-.57,8.1,8.1,0,0,0,1.74-2.1l2.69,1.51a11.07,11.07,0,0,1-1.31,1.82,7.12,7.12,0,0,1-1.49,1.24,5.86,5.86,0,0,1-1.71.72,8.45,8.45,0,0,1-2,.22,6.51,6.51,0,0,1-5-2,7.47,7.47,0,0,1-1.87-5.3,7.62,7.62,0,0,1,1.82-5.29,6.89,6.89,0,0,1,9.65-.06,7.66,7.66,0,0,1,1.76,5.34Zm-3.27-2.6a3,3,0,0,0-3.21-2.55,3.51,3.51,0,0,0-1.09.17,3.24,3.24,0,0,0-.93.51,3.4,3.4,0,0,0-.71.8,4,4,0,0,0-.46,1.07Z"/><path d="M1413.12,157h3.21V181h-3.21v-1.45a5.91,5.91,0,0,1-4.26,1.84,6.09,6.09,0,0,1-4.7-2.06,7.74,7.74,0,0,1-1.85-5.27,7.47,7.47,0,0,1,1.85-5.16,6,6,0,0,1,4.63-2.08,5.86,5.86,0,0,1,4.33,2Zm-7.56,17a4.8,4.8,0,0,0,1.07,3.23,3.46,3.46,0,0,0,2.74,1.26,3.65,3.65,0,0,0,2.86-1.22,5.24,5.24,0,0,0,0-6.4,3.6,3.6,0,0,0-2.83-1.23,3.54,3.54,0,0,0-2.75,1.24A4.63,4.63,0,0,0,1405.56,174Z"/><path d="M1432.91,174.81H1423a4.25,4.25,0,0,0,1.11,2.71,3.37,3.37,0,0,0,2.5,1,3.24,3.24,0,0,0,2-.57,8.1,8.1,0,0,0,1.74-2.1l2.7,1.51a11.71,11.71,0,0,1-1.32,1.82,6.87,6.87,0,0,1-1.49,1.24,5.86,5.86,0,0,1-1.71.72,8.45,8.45,0,0,1-2,.22,6.51,6.51,0,0,1-5-2,7.47,7.47,0,0,1-1.86-5.3,7.62,7.62,0,0,1,1.81-5.29,6.91,6.91,0,0,1,9.66-.06,7.65,7.65,0,0,1,1.75,5.34Zm-3.27-2.6a3.06,3.06,0,0,0-3.22-2.55,3.55,3.55,0,0,0-1.09.17,3.24,3.24,0,0,0-.93.51,3.4,3.4,0,0,0-.71.8,3.67,3.67,0,0,0-.45,1.07Z"/><path d="M1436.39,167.16h3.19v1.24a5.77,5.77,0,0,1,1.55-1.26,3.55,3.55,0,0,1,1.65-.36,5.19,5.19,0,0,1,2.63.82l-1.46,2.92a3,3,0,0,0-1.77-.65q-2.6,0-2.6,3.94V181h-3.19Z"/><path d="M1466.35,157h3.2V181h-3.2v-1.45a5.91,5.91,0,0,1-4.26,1.84,6.09,6.09,0,0,1-4.7-2.06,7.69,7.69,0,0,1-1.85-5.27,7.43,7.43,0,0,1,1.85-5.16,6,6,0,0,1,4.63-2.08,5.88,5.88,0,0,1,4.33,2Zm-7.56,17a4.85,4.85,0,0,0,1.06,3.23,3.5,3.5,0,0,0,2.75,1.26,3.67,3.67,0,0,0,2.86-1.22,5.24,5.24,0,0,0,0-6.4,3.61,3.61,0,0,0-2.83-1.23,3.52,3.52,0,0,0-2.75,1.24A4.63,4.63,0,0,0,1458.79,174Z"/><path d="M1486.13,174.81h-9.88a4.25,4.25,0,0,0,1.11,2.71,3.35,3.35,0,0,0,2.5,1,3.24,3.24,0,0,0,2-.57,8.1,8.1,0,0,0,1.74-2.1l2.69,1.51a11.07,11.07,0,0,1-1.31,1.82,7.12,7.12,0,0,1-1.49,1.24,5.86,5.86,0,0,1-1.71.72,8.45,8.45,0,0,1-2,.22,6.51,6.51,0,0,1-5-2,7.47,7.47,0,0,1-1.87-5.3,7.62,7.62,0,0,1,1.82-5.29,6.89,6.89,0,0,1,9.65-.06,7.66,7.66,0,0,1,1.76,5.34Zm-3.27-2.6a3,3,0,0,0-3.21-2.55,3.51,3.51,0,0,0-1.09.17,3.24,3.24,0,0,0-.93.51,3.4,3.4,0,0,0-.71.8,4,4,0,0,0-.46,1.07Z"/><path d="M1489.62,167.16h3.18v1.24a5.94,5.94,0,0,1,1.56-1.26,3.51,3.51,0,0,1,1.64-.36,5.22,5.22,0,0,1,2.64.82l-1.46,2.92a3,3,0,0,0-1.77-.65q-2.61,0-2.61,3.94V181h-3.18Z"/><path d="M1508.93,161.43a2.07,2.07,0,0,1,3.54-1.44,1.93,1.93,0,0,1,.61,1.45,2,2,0,0,1-.61,1.48,2,2,0,0,1-1.46.61,2.08,2.08,0,0,1-2.08-2.1Zm3.67,5.73V181h-3.19v-13.8Z"/><path d="M1519.82,157v14.58l4.49-4.46h4.28l-6,5.8,6.43,8h-4.14l-4.56-5.82-.51.51V181h-3.18V157Z"/><path d="M1534.27,157v14.58l4.48-4.46H1543l-6,5.8,6.43,8h-4.14l-4.55-5.82-.51.51V181h-3.19V157Z"/><path d="M1557.62,174.81h-9.89a4.25,4.25,0,0,0,1.11,2.71,3.35,3.35,0,0,0,2.5,1,3.24,3.24,0,0,0,2-.57,8.1,8.1,0,0,0,1.74-2.1l2.69,1.51a11.07,11.07,0,0,1-1.31,1.82,7.12,7.12,0,0,1-1.49,1.24,5.86,5.86,0,0,1-1.71.72,8.45,8.45,0,0,1-2,.22,6.51,6.51,0,0,1-5-2,7.47,7.47,0,0,1-1.87-5.3,7.62,7.62,0,0,1,1.82-5.29,6.89,6.89,0,0,1,9.65-.06,7.66,7.66,0,0,1,1.76,5.34Zm-3.28-2.6a3,3,0,0,0-3.21-2.55,3.51,3.51,0,0,0-1.09.17,3.24,3.24,0,0,0-.93.51,3.4,3.4,0,0,0-.71.8,4,4,0,0,0-.46,1.07Z"/><path d="M1582.61,174.81h-9.89a4.25,4.25,0,0,0,1.11,2.71,3.38,3.38,0,0,0,2.51,1,3.21,3.21,0,0,0,2-.57,8.1,8.1,0,0,0,1.74-2.1l2.7,1.51a11.71,11.71,0,0,1-1.32,1.82,6.87,6.87,0,0,1-1.49,1.24,5.86,5.86,0,0,1-1.71.72,8.4,8.4,0,0,1-2,.22,6.47,6.47,0,0,1-5-2,7.43,7.43,0,0,1-1.87-5.3,7.62,7.62,0,0,1,1.81-5.29,6.91,6.91,0,0,1,9.66-.06,7.65,7.65,0,0,1,1.75,5.34Zm-3.27-2.6a3.06,3.06,0,0,0-3.22-2.55,3.55,3.55,0,0,0-1.09.17,3.06,3.06,0,0,0-.92.51,3.44,3.44,0,0,0-.72.8,3.67,3.67,0,0,0-.45,1.07Z"/><path d="M1586.09,167.16h3.19v1.24a5.64,5.64,0,0,1,1.56-1.26,3.51,3.51,0,0,1,1.64-.36,5.19,5.19,0,0,1,2.63.82l-1.46,2.92a3,3,0,0,0-1.77-.65q-2.6,0-2.6,3.94V181h-3.19Z"/><path d="M1120,204.31l-2.63,1.41c-.42-.85-.93-1.28-1.55-1.28a1.08,1.08,0,0,0-.75.29,1,1,0,0,0-.31.75c0,.52.62,1.05,1.84,1.57a10.83,10.83,0,0,1,3.42,2,3.46,3.46,0,0,1,.87,2.48,4.35,4.35,0,0,1-1.47,3.34,5.29,5.29,0,0,1-8.37-2.11l2.72-1.26a5.93,5.93,0,0,0,.87,1.26,1.93,1.93,0,0,0,1.38.54c1.08,0,1.62-.49,1.62-1.48,0-.56-.42-1.09-1.25-1.58l-1-.47-1-.47a5.78,5.78,0,0,1-2-1.36,3.33,3.33,0,0,1-.73-2.22,3.93,3.93,0,0,1,1.24-3,4.29,4.29,0,0,1,3-1.18A4.17,4.17,0,0,1,1120,204.31Z"/><path d="M1126.92,191.84v23.92h-3.19V191.84Z"/><path d="M1142,202.93l2.18-2.16,1.44,1.53-2.12,2.09a7.31,7.31,0,0,1,1.54,4.51,6.94,6.94,0,0,1-2.14,5.16,7,7,0,0,1-5.18,2.09,7.47,7.47,0,0,1-4.56-1.44l-2.1,2-1.45-1.47,2.08-2.07a7.54,7.54,0,0,1-1.38-4.36,6.94,6.94,0,0,1,2.14-5.14,7.23,7.23,0,0,1,5.23-2.11A7.65,7.65,0,0,1,1142,202.93Zm-2.31,2.18a4.4,4.4,0,0,0-2-.44,4,4,0,0,0-3,1.16,4.24,4.24,0,0,0-1.12,3.09A4.74,4.74,0,0,0,1134,211Zm1.53,1.44-5.78,6a4.58,4.58,0,0,0,2.24.57,4,4,0,0,0,3-1.15,4.2,4.2,0,0,0,1.12-3.06A5.17,5.17,0,0,0,1141.21,206.55Z"/><path d="M1148.39,202h3.18v1.24a5.94,5.94,0,0,1,1.56-1.26,3.51,3.51,0,0,1,1.64-.36,5.25,5.25,0,0,1,2.64.82l-1.46,2.92a3.1,3.1,0,0,0-1.77-.65q-2.61,0-2.61,3.94v7.15h-3.18Z"/><path d="M1171.6,209.61h-9.89a4.25,4.25,0,0,0,1.11,2.71,3.35,3.35,0,0,0,2.5,1,3.24,3.24,0,0,0,2-.57,8.1,8.1,0,0,0,1.74-2.1l2.69,1.51a11.07,11.07,0,0,1-1.31,1.82,7.12,7.12,0,0,1-1.49,1.24,5.86,5.86,0,0,1-1.71.72,8.45,8.45,0,0,1-2,.22,6.51,6.51,0,0,1-5-2,7.47,7.47,0,0,1-1.87-5.3,7.62,7.62,0,0,1,1.82-5.29,6.89,6.89,0,0,1,9.65-.06,7.66,7.66,0,0,1,1.76,5.34Zm-3.28-2.6a3,3,0,0,0-3.21-2.55,3.51,3.51,0,0,0-1.09.17,3.24,3.24,0,0,0-.93.51,3.4,3.4,0,0,0-.71.8,3.84,3.84,0,0,0-.46,1.07Z"/><path d="M1185.25,191.84h3.2v23.92h-3.2v-1.45a6,6,0,0,1-4.27,1.84,6.1,6.1,0,0,1-4.7-2.06,7.74,7.74,0,0,1-1.85-5.27,7.47,7.47,0,0,1,1.85-5.16,6,6,0,0,1,9-.1Zm-7.57,17a4.8,4.8,0,0,0,1.07,3.23,3.46,3.46,0,0,0,2.74,1.26,3.65,3.65,0,0,0,2.86-1.22,5.24,5.24,0,0,0,0-6.4,3.6,3.6,0,0,0-2.83-1.23,3.5,3.5,0,0,0-2.74,1.24A4.59,4.59,0,0,0,1177.68,208.82Z"/><path d="M1205,209.61h-9.89a4.25,4.25,0,0,0,1.11,2.71,3.37,3.37,0,0,0,2.5,1,3.24,3.24,0,0,0,2-.57,8.1,8.1,0,0,0,1.74-2.1l2.7,1.51a11.71,11.71,0,0,1-1.32,1.82,6.87,6.87,0,0,1-1.49,1.24,5.86,5.86,0,0,1-1.71.72,8.45,8.45,0,0,1-2,.22,6.47,6.47,0,0,1-5-2,7.43,7.43,0,0,1-1.87-5.3,7.62,7.62,0,0,1,1.81-5.29,6.91,6.91,0,0,1,9.66-.06,7.65,7.65,0,0,1,1.75,5.34Zm-3.27-2.6a3.06,3.06,0,0,0-3.22-2.55,3.55,3.55,0,0,0-1.09.17,3.24,3.24,0,0,0-.93.51,3.64,3.64,0,0,0-.71.8,3.56,3.56,0,0,0-.45,1.07Z"/><path d="M1210.48,211.66l2.83,1.11-4,8.08-2.16-.89Z"/><path d="M1239,209.61h-9.88a4.19,4.19,0,0,0,1.1,2.71,3.38,3.38,0,0,0,2.51,1,3.26,3.26,0,0,0,2-.57,8.3,8.3,0,0,0,1.74-2.1l2.69,1.51a11.71,11.71,0,0,1-1.32,1.82,6.87,6.87,0,0,1-1.49,1.24,5.86,5.86,0,0,1-1.71.72,8.4,8.4,0,0,1-2,.22,6.49,6.49,0,0,1-4.95-2,7.43,7.43,0,0,1-1.87-5.3,7.62,7.62,0,0,1,1.81-5.29,6.91,6.91,0,0,1,9.66-.06,7.65,7.65,0,0,1,1.75,5.34Zm-3.27-2.6a3.06,3.06,0,0,0-3.22-2.55,3.55,3.55,0,0,0-1.09.17,3.19,3.19,0,0,0-.92.51,3.44,3.44,0,0,0-.72.8,3.56,3.56,0,0,0-.45,1.07Z"/><path d="M1246,204.94v10.82h-3.18V204.94h-1.36v-3h1.36v-5.05H1246V202h2.48v3Z"/><path d="M1272.15,209.61h-9.89a4.25,4.25,0,0,0,1.11,2.71,3.35,3.35,0,0,0,2.5,1,3.24,3.24,0,0,0,2-.57,8.1,8.1,0,0,0,1.74-2.1l2.69,1.51A11.07,11.07,0,0,1,1271,214a6.87,6.87,0,0,1-1.49,1.24,5.86,5.86,0,0,1-1.71.72,8.45,8.45,0,0,1-2,.22,6.51,6.51,0,0,1-5-2,7.47,7.47,0,0,1-1.86-5.3,7.62,7.62,0,0,1,1.81-5.29,6.91,6.91,0,0,1,9.66-.06,7.65,7.65,0,0,1,1.75,5.34Zm-3.27-2.6a3.06,3.06,0,0,0-3.22-2.55,3.51,3.51,0,0,0-1.09.17,3.24,3.24,0,0,0-.93.51,3.64,3.64,0,0,0-.71.8,3.56,3.56,0,0,0-.45,1.07Z"/><path d="M1278.93,204.94v10.82h-3.2V204.94h-1.13v-3h1.13v-5.32a5.73,5.73,0,0,1,.91-3.68,4.43,4.43,0,0,1,3.62-1.5,6.21,6.21,0,0,1,2.14.49v3.26l-.33-.17a4,4,0,0,0-1.7-.52,1.15,1.15,0,0,0-1.14.6,5.87,5.87,0,0,0-.3,2.3V202h3.47v3Z"/><path d="M1288.57,204.94v10.82h-3.18V204.94H1284v-3h1.36v-5.05h3.18V202h2.48v3Z"/><path d="M1306,209.61h-9.88a4.19,4.19,0,0,0,1.1,2.71,3.38,3.38,0,0,0,2.51,1,3.26,3.26,0,0,0,2-.57,8.1,8.1,0,0,0,1.74-2.1l2.69,1.51a11.71,11.71,0,0,1-1.32,1.82,7.07,7.07,0,0,1-1.48,1.24,5.81,5.81,0,0,1-1.72.72,8.37,8.37,0,0,1-2,.22,6.51,6.51,0,0,1-5-2,7.43,7.43,0,0,1-1.87-5.3,7.62,7.62,0,0,1,1.81-5.29,6.26,6.26,0,0,1,4.85-2,6.19,6.19,0,0,1,4.81,1.94,7.66,7.66,0,0,1,1.76,5.34Zm-3.27-2.6a3,3,0,0,0-3.21-2.55,3.51,3.51,0,0,0-1.09.17,3.24,3.24,0,0,0-.93.51,3.44,3.44,0,0,0-.72.8,3.83,3.83,0,0,0-.45,1.07Z"/><path d="M1309.52,202h3.18v1.24a5.94,5.94,0,0,1,1.56-1.26,3.51,3.51,0,0,1,1.64-.36,5.25,5.25,0,0,1,2.64.82l-1.46,2.92a3.1,3.1,0,0,0-1.77-.65q-2.61,0-2.61,3.94v7.15h-3.18Z"/><path d="M1341.87,209.61H1332a4.19,4.19,0,0,0,1.1,2.71,3.38,3.38,0,0,0,2.51,1,3.26,3.26,0,0,0,2-.57,8.1,8.1,0,0,0,1.74-2.1l2.69,1.51a11.71,11.71,0,0,1-1.32,1.82,7.07,7.07,0,0,1-1.48,1.24,5.81,5.81,0,0,1-1.72.72,8.37,8.37,0,0,1-2,.22,6.51,6.51,0,0,1-5-2,7.43,7.43,0,0,1-1.87-5.3,7.62,7.62,0,0,1,1.81-5.29,6.26,6.26,0,0,1,4.85-2,6.19,6.19,0,0,1,4.81,1.94,7.66,7.66,0,0,1,1.76,5.34Zm-3.27-2.6a3,3,0,0,0-3.21-2.55,3.51,3.51,0,0,0-1.09.17,3.24,3.24,0,0,0-.93.51,3.44,3.44,0,0,0-.72.8,3.83,3.83,0,0,0-.45,1.07Z"/><path d="M1348.89,204.94v10.82h-3.18V204.94h-1.36v-3h1.36v-5.05h3.18V202h2.48v3Z"/><path d="M1354,214.17a2,2,0,0,1,2-1.95,1.89,1.89,0,0,1,1.39.58,1.87,1.87,0,0,1,.58,1.38,1.95,1.95,0,0,1-2,2,1.94,1.94,0,0,1-1.4-.56A1.91,1.91,0,0,1,1354,214.17Z"/><path d="M1378.08,197v18.77h-3.3V197h-5v-3.1h13.34V197Z"/><path d="M1384.44,202h3.18v1.24a5.94,5.94,0,0,1,1.56-1.26,3.51,3.51,0,0,1,1.64-.36,5.25,5.25,0,0,1,2.64.82l-1.46,2.92a3.1,3.1,0,0,0-1.77-.65q-2.61,0-2.61,3.94v7.15h-3.18Z"/><path d="M1416.62,209.57h-9.94a4.43,4.43,0,0,0,1.16,2.72,3.35,3.35,0,0,0,2.5,1q2.17,0,3.61-2.76l2.74,1.52a8.83,8.83,0,0,1-1,1.52,5.84,5.84,0,0,1-1.14,1.09,7.28,7.28,0,0,1-4.4,1.49,6.94,6.94,0,0,1-5-2.21,6.06,6.06,0,0,1-5.08,2.21,6.27,6.27,0,0,1-4.09-1.28,4.08,4.08,0,0,1-1.58-3.33,4.23,4.23,0,0,1,1.51-3.39,5.83,5.83,0,0,1,4-1.31,8,8,0,0,1,3.59.94,3.51,3.51,0,0,0-.78-2.61,3.81,3.81,0,0,0-2.66-.75,13.69,13.69,0,0,0-3.68.53v-3a23.88,23.88,0,0,1,4-.43c2.25,0,3.86.65,4.85,1.94a7,7,0,0,1,9.64,0,7.23,7.23,0,0,1,1.81,5.14Zm-19.1,1.94a1.59,1.59,0,0,0,.79,1.34,3.64,3.64,0,0,0,2,.54,3.74,3.74,0,0,0,2.11-.55,1.66,1.66,0,0,0,.85-1.4,1.53,1.53,0,0,0-.87-1.28,4,4,0,0,0-2.11-.54,3.39,3.39,0,0,0-2,.56A1.59,1.59,0,0,0,1397.52,211.51Zm15.76-4.52a2.91,2.91,0,0,0-3.1-2.53,3.15,3.15,0,0,0-3.29,2.53Z"/><path d="M1423.35,204.94v10.82h-3.2V204.94H1419v-3h1.13v-5.32a5.8,5.8,0,0,1,.9-3.68,4.46,4.46,0,0,1,3.63-1.5,6.21,6.21,0,0,1,2.14.49v3.26l-.33-.17a4,4,0,0,0-1.7-.52,1.14,1.14,0,0,0-1.14.6,5.87,5.87,0,0,0-.3,2.3V202h3.47v3Z"/><path d="M1447.78,191.84h3.2v23.92h-3.2v-1.45a6,6,0,0,1-4.27,1.84,6.09,6.09,0,0,1-4.7-2.06,7.74,7.74,0,0,1-1.85-5.27,7.47,7.47,0,0,1,1.85-5.16,6,6,0,0,1,9-.1Zm-7.57,17a4.8,4.8,0,0,0,1.07,3.23,3.46,3.46,0,0,0,2.74,1.26,3.65,3.65,0,0,0,2.86-1.22,5.24,5.24,0,0,0,0-6.4,3.6,3.6,0,0,0-2.83-1.23,3.54,3.54,0,0,0-2.75,1.24A4.63,4.63,0,0,0,1440.21,208.82Z"/><path d="M1467.56,209.61h-9.89a4.25,4.25,0,0,0,1.11,2.71,3.35,3.35,0,0,0,2.5,1,3.24,3.24,0,0,0,2-.57,8.1,8.1,0,0,0,1.74-2.1l2.69,1.51a11.07,11.07,0,0,1-1.31,1.82,6.87,6.87,0,0,1-1.49,1.24,5.86,5.86,0,0,1-1.71.72,8.45,8.45,0,0,1-2,.22,6.51,6.51,0,0,1-5-2,7.47,7.47,0,0,1-1.86-5.3,7.62,7.62,0,0,1,1.81-5.29,6.91,6.91,0,0,1,9.66-.06,7.65,7.65,0,0,1,1.75,5.34Zm-3.27-2.6a3.06,3.06,0,0,0-3.22-2.55,3.51,3.51,0,0,0-1.09.17,3.24,3.24,0,0,0-.93.51,3.64,3.64,0,0,0-.71.8,3.56,3.56,0,0,0-.45,1.07Z"/><path d="M1474.58,204.94v10.82h-3.19V204.94H1470v-3h1.35v-5.05h3.19V202h2.48v3Z"/><path d="M1488.17,202h3.19v1.24a5.78,5.78,0,0,1,1.56-1.26,3.51,3.51,0,0,1,1.64-.36,5.19,5.19,0,0,1,2.63.82l-1.45,2.92a3.1,3.1,0,0,0-1.77-.65q-2.61,0-2.61,3.94v7.15h-3.19Z"/><path d="M1499,196.23a1.94,1.94,0,0,1,.61-1.44,2,2,0,0,1,1.46-.61,2,2,0,0,1,1.47.61,2,2,0,0,1,.61,1.45,2,2,0,0,1-.61,1.48,2,2,0,0,1-1.46.61,2,2,0,0,1-1.47-.61A2,2,0,0,1,1499,196.23Zm3.67,5.73v13.8h-3.19V202Z"/><path d="M1520,215.43c0,.65,0,1.23-.06,1.72a12.61,12.61,0,0,1-.18,1.31,5.9,5.9,0,0,1-1.33,2.68,6.47,6.47,0,0,1-5.14,2.15,6.88,6.88,0,0,1-4.55-1.49,6.11,6.11,0,0,1-2.12-4.23h3.2a3.63,3.63,0,0,0,.61,1.57,3.42,3.42,0,0,0,2.89,1.29q3.5,0,3.49-4.29v-1.93a6.07,6.07,0,0,1-9-.1A7.52,7.52,0,0,1,1506,209a8,8,0,0,1,1.68-5.13,5.88,5.88,0,0,1,4.79-2.24,5.56,5.56,0,0,1,4.33,1.94V202H1520Zm-3.06-6.54a4.71,4.71,0,0,0-1.07-3.22,3.57,3.57,0,0,0-2.79-1.23,3.41,3.41,0,0,0-2.86,1.35,5.53,5.53,0,0,0,0,6.2,3.42,3.42,0,0,0,2.86,1.32A3.5,3.5,0,0,0,1516,212,4.73,4.73,0,0,0,1517,208.89Z"/><path d="M1527.33,204.94v10.82h-3.19V204.94h-1.36v-3h1.36v-5.05h3.19V202h2.47v3Z"/><path d="M1531.49,196.23a1.94,1.94,0,0,1,.61-1.44,2,2,0,0,1,1.46-.61,2,2,0,0,1,1.47.61,1.93,1.93,0,0,1,.61,1.45,2,2,0,0,1-.61,1.48,2,2,0,0,1-1.46.61,2.08,2.08,0,0,1-2.08-2.1Zm3.67,5.73v13.8H1532V202Z"/><path d="M1552.53,215.43c0,.65,0,1.23-.06,1.72a10.38,10.38,0,0,1-.18,1.31,5.9,5.9,0,0,1-1.33,2.68,6.47,6.47,0,0,1-5.14,2.15,6.84,6.84,0,0,1-4.54-1.49,6.08,6.08,0,0,1-2.13-4.23h3.2a3.63,3.63,0,0,0,.61,1.57,3.42,3.42,0,0,0,2.89,1.29q3.5,0,3.5-4.29v-1.93a6,6,0,0,1-4.38,1.94,5.88,5.88,0,0,1-4.62-2,7.57,7.57,0,0,1-1.81-5.16,7.92,7.92,0,0,1,1.69-5.13,5.86,5.86,0,0,1,4.78-2.24,5.59,5.59,0,0,1,4.34,1.94V202h3.18Zm-3.06-6.54a4.66,4.66,0,0,0-1.07-3.22,3.57,3.57,0,0,0-2.79-1.23,3.42,3.42,0,0,0-2.86,1.35,5.53,5.53,0,0,0,0,6.2,3.43,3.43,0,0,0,2.86,1.32,3.52,3.52,0,0,0,2.89-1.33A4.78,4.78,0,0,0,1549.47,208.89Z"/><path d="M1569.11,209.61h-9.88a4.19,4.19,0,0,0,1.1,2.71,3.39,3.39,0,0,0,2.51,1,3.26,3.26,0,0,0,2-.57,8.1,8.1,0,0,0,1.74-2.1l2.69,1.51a10.54,10.54,0,0,1-1.32,1.82,6.82,6.82,0,0,1-1.48,1.24,5.81,5.81,0,0,1-1.72.72,8.31,8.31,0,0,1-2,.22,6.51,6.51,0,0,1-5-2,7.47,7.47,0,0,1-1.87-5.3,7.66,7.66,0,0,1,1.81-5.29,6.27,6.27,0,0,1,4.85-2,6.19,6.19,0,0,1,4.81,1.94,7.66,7.66,0,0,1,1.76,5.34Zm-3.27-2.6a3,3,0,0,0-3.21-2.55,3.51,3.51,0,0,0-1.09.17,3.24,3.24,0,0,0-.93.51,3.19,3.19,0,0,0-.71.8,3.84,3.84,0,0,0-.46,1.07Z"/><path d="M1583.26,202l3.57,7.75,3.55-7.75H1594l-7.16,14.75L1579.69,202Z"/><path d="M1605.79,202h3.2v13.8h-3.2v-1.45a6.12,6.12,0,0,1-9-.22,7.7,7.7,0,0,1-1.86-5.27,7.44,7.44,0,0,1,1.86-5.17,6,6,0,0,1,4.64-2.07,5.89,5.89,0,0,1,4.32,2Zm-7.56,6.86a4.8,4.8,0,0,0,1.06,3.23,3.48,3.48,0,0,0,2.75,1.26,3.67,3.67,0,0,0,2.86-1.22,5.24,5.24,0,0,0,0-6.4,3.62,3.62,0,0,0-2.84-1.23,3.5,3.5,0,0,0-2.74,1.24A4.58,4.58,0,0,0,1598.23,208.82Z"/><path d="M1616.2,191.84v23.92H1613V191.84Z"/><path d="M1633.57,215.43c0,.65,0,1.23-.06,1.72a12.61,12.61,0,0,1-.18,1.31,5.9,5.9,0,0,1-1.33,2.68,6.47,6.47,0,0,1-5.14,2.15,6.88,6.88,0,0,1-4.55-1.49,6.11,6.11,0,0,1-2.12-4.23h3.2a3.51,3.51,0,0,0,.61,1.57,3.42,3.42,0,0,0,2.89,1.29q3.49,0,3.49-4.29v-1.93a6.07,6.07,0,0,1-9-.1,7.52,7.52,0,0,1-1.81-5.16,7.92,7.92,0,0,1,1.69-5.13,5.84,5.84,0,0,1,4.78-2.24,5.56,5.56,0,0,1,4.33,1.94V202h3.19Zm-3.06-6.54a4.71,4.71,0,0,0-1.07-3.22,3.57,3.57,0,0,0-2.79-1.23,3.41,3.41,0,0,0-2.86,1.35,5.53,5.53,0,0,0,0,6.2,3.42,3.42,0,0,0,2.86,1.32,3.53,3.53,0,0,0,2.89-1.33A4.78,4.78,0,0,0,1630.51,208.89Z"/><path d="M1638.09,214.17a1.84,1.84,0,0,1,.58-1.37,1.89,1.89,0,0,1,1.39-.58,2,2,0,0,1,2,2,1.92,1.92,0,0,1-.58,1.41,1.89,1.89,0,0,1-1.38.56,1.92,1.92,0,0,1-2-2Z"/><path d="M1178,266.59v18.77h-3.3V266.59h-5v-3.1H1183v3.1Z"/><path d="M1184.38,271.56h3.18v1.24a5.94,5.94,0,0,1,1.56-1.26,3.51,3.51,0,0,1,1.64-.36,5.19,5.19,0,0,1,2.63.82l-1.45,2.92a3.1,3.1,0,0,0-1.77-.65q-2.61,0-2.61,3.94v7.15h-3.18Z"/><path d="M1200.84,282.79l-6.2-11.23h3.7l4.22,7.93,3.93-7.93h3.6l-11,21.3h-3.64Z"/><path d="M1215.44,261.44V276l4.49-4.46h4.28l-6,5.8,6.43,8h-4.14l-4.56-5.82-.51.51v5.31h-3.18V261.44Z"/><path d="M1243.66,273.92l-2.63,1.4c-.42-.85-.93-1.28-1.54-1.28a1.05,1.05,0,0,0-.75.29,1,1,0,0,0-.32.75c0,.52.62,1.05,1.85,1.57a11,11,0,0,1,3.41,2,3.46,3.46,0,0,1,.88,2.48,4.36,4.36,0,0,1-1.48,3.34,5.29,5.29,0,0,1-8.37-2.11l2.72-1.26a5.93,5.93,0,0,0,.87,1.26,2,2,0,0,0,1.38.54c1.08,0,1.62-.49,1.62-1.48,0-.56-.42-1.09-1.25-1.58l-1-.47-1-.47a5.89,5.89,0,0,1-1.95-1.36,3.33,3.33,0,0,1-.72-2.22,3.92,3.92,0,0,1,1.23-3,4.3,4.3,0,0,1,3.06-1.18A4.17,4.17,0,0,1,1243.66,273.92Z"/><path d="M1250.7,274.54v10.82h-3.18V274.54h-1.36v-3h1.36v-5.05h3.18v5.05h2.48v3Z"/><path d="M1265.77,271.56h3.2v13.8h-3.2v-1.45a6.14,6.14,0,0,1-9-.22,7.74,7.74,0,0,1-1.85-5.27,7.48,7.48,0,0,1,1.85-5.17,6,6,0,0,1,4.65-2.07,5.89,5.89,0,0,1,4.32,2Zm-7.56,6.86a4.8,4.8,0,0,0,1.06,3.23,3.48,3.48,0,0,0,2.75,1.26,3.67,3.67,0,0,0,2.86-1.22,5.24,5.24,0,0,0,0-6.4,3.62,3.62,0,0,0-2.84-1.23,3.5,3.5,0,0,0-2.74,1.24A4.58,4.58,0,0,0,1258.21,278.42Z"/><path d="M1273,271.56h3.19v1.24a5.77,5.77,0,0,1,1.55-1.26,3.55,3.55,0,0,1,1.65-.36,5.22,5.22,0,0,1,2.63.82l-1.46,2.92a3,3,0,0,0-1.77-.65c-1.74,0-2.6,1.31-2.6,3.94v7.15H1273Z"/><path d="M1288.17,274.54v10.82H1285V274.54h-1.36v-3H1285v-5.05h3.19v5.05h2.48v3Z"/><path d="M1305.06,274.54v10.82h-3.2V274.54h-1.13v-3h1.13v-5.32a5.73,5.73,0,0,1,.91-3.68,4.44,4.44,0,0,1,3.62-1.5,6.21,6.21,0,0,1,2.14.49v3.26l-.32-.17a4,4,0,0,0-1.7-.52,1.15,1.15,0,0,0-1.15.61,5.78,5.78,0,0,0-.3,2.29v4.54h3.47v3Z"/><path d="M1310.07,278.36a6.86,6.86,0,0,1,2.14-5.08,7.54,7.54,0,0,1,10.45,0,7.38,7.38,0,0,1,0,10.38,7.31,7.31,0,0,1-5.28,2.08,7,7,0,0,1-5.2-2.12A7.14,7.14,0,0,1,1310.07,278.36Zm3.26.06a4.63,4.63,0,0,0,1.11,3.27,4.27,4.27,0,0,0,6,0,5.17,5.17,0,0,0,0-6.43,4.26,4.26,0,0,0-6,0A4.47,4.47,0,0,0,1313.33,278.42Z"/><path d="M1328.16,271.56h3.18v1.24a5.94,5.94,0,0,1,1.56-1.26,3.51,3.51,0,0,1,1.64-.36,5.25,5.25,0,0,1,2.64.82l-1.46,2.92a3.07,3.07,0,0,0-1.77-.65q-2.61,0-2.61,3.94v7.15h-3.18Z"/><path d="M1358.12,271.56h3.2v13.8h-3.2v-1.45a6.12,6.12,0,0,1-9-.22,7.7,7.7,0,0,1-1.86-5.27,7.44,7.44,0,0,1,1.86-5.17,6,6,0,0,1,4.64-2.07,5.85,5.85,0,0,1,4.32,2Zm-7.56,6.86a4.8,4.8,0,0,0,1.06,3.23,3.48,3.48,0,0,0,2.75,1.26,3.67,3.67,0,0,0,2.86-1.22,5.24,5.24,0,0,0,0-6.4,3.61,3.61,0,0,0-2.83-1.23,3.51,3.51,0,0,0-2.75,1.24A4.58,4.58,0,0,0,1350.56,278.42Z"/><path d="M1368.63,274.54v10.82h-3.19V274.54h-1.36v-3h1.36v-5.05h3.19v5.05h2.48v3Z"/><path d="M1385.41,261.44V276l4.49-4.46h4.27l-6,5.8,6.43,8h-4.13l-4.56-5.82-.51.51v5.31h-3.19V261.44Z"/><path d="M1395.43,278.36a6.82,6.82,0,0,1,2.14-5.08,7.54,7.54,0,0,1,10.45,0,7.4,7.4,0,0,1,0,10.38,7.32,7.32,0,0,1-5.29,2.08,7,7,0,0,1-5.19-2.12A7.14,7.14,0,0,1,1395.43,278.36Zm3.26.06a4.67,4.67,0,0,0,1.1,3.27,4.29,4.29,0,0,0,6,0,5.17,5.17,0,0,0,0-6.43,4.26,4.26,0,0,0-6,0A4.47,4.47,0,0,0,1398.69,278.42Z"/><path d="M1413.51,271.56h3.19v1.28a6.53,6.53,0,0,1,1.57-1.3,3.77,3.77,0,0,1,1.74-.36,4.24,4.24,0,0,1,3.7,2,4.79,4.79,0,0,1,4.06-2c3.11,0,4.66,1.89,4.66,5.65v8.53h-3.2V277.7a5.94,5.94,0,0,0-.48-2.81,1.73,1.73,0,0,0-1.63-.83,2.09,2.09,0,0,0-1.92,1,6.38,6.38,0,0,0-.6,3.18v7.13h-3.2v-7.62c0-2.46-.71-3.68-2.12-3.68a2.12,2.12,0,0,0-2,1,6.27,6.27,0,0,0-.62,3.17v7.13h-3.19Z"/><path d="M1436.45,271.56h3.19v1.28a6.53,6.53,0,0,1,1.57-1.3,3.74,3.74,0,0,1,1.74-.36,4.24,4.24,0,0,1,3.7,2,4.77,4.77,0,0,1,4.06-2c3.11,0,4.66,1.89,4.66,5.65v8.53h-3.2V277.7a5.94,5.94,0,0,0-.48-2.81,1.73,1.73,0,0,0-1.63-.83,2.08,2.08,0,0,0-1.92,1,6.38,6.38,0,0,0-.6,3.18v7.13h-3.2v-7.62c0-2.46-.71-3.68-2.12-3.68a2.12,2.12,0,0,0-2,1,6.27,6.27,0,0,0-.62,3.17v7.13h-3.19Z"/><path d="M1472,279.21h-9.88a4.19,4.19,0,0,0,1.1,2.71,3.39,3.39,0,0,0,2.51,1,3.26,3.26,0,0,0,2-.57,8.1,8.1,0,0,0,1.74-2.1l2.69,1.51a10.54,10.54,0,0,1-1.32,1.82,6.82,6.82,0,0,1-1.48,1.24,5.81,5.81,0,0,1-1.72.72,8.31,8.31,0,0,1-2,.22,6.51,6.51,0,0,1-5-2,7.47,7.47,0,0,1-1.87-5.3,7.66,7.66,0,0,1,1.81-5.29,6.27,6.27,0,0,1,4.85-2,6.19,6.19,0,0,1,4.81,1.94,7.66,7.66,0,0,1,1.76,5.34Zm-3.27-2.6a3,3,0,0,0-3.21-2.55,3.51,3.51,0,0,0-1.09.17,3.24,3.24,0,0,0-.93.51,3.19,3.19,0,0,0-.71.8,3.84,3.84,0,0,0-.46,1.07Z"/><path d="M1483.9,265.83a2,2,0,0,1,.61-1.44,2.08,2.08,0,0,1,2.94,0,2,2,0,0,1,.6,1.45,2,2,0,0,1-.6,1.48,2,2,0,0,1-1.46.61,2.08,2.08,0,0,1-2.09-2.1Zm3.67,5.73v13.8h-3.18v-13.8Z"/><path d="M1513.9,285c0,.65,0,1.23-.07,1.72a12.82,12.82,0,0,1-.17,1.31,5.91,5.91,0,0,1-1.34,2.68,6.44,6.44,0,0,1-5.14,2.15,6.86,6.86,0,0,1-4.54-1.49,6.08,6.08,0,0,1-2.13-4.23h3.2a3.76,3.76,0,0,0,.61,1.57,3.43,3.43,0,0,0,2.89,1.29q3.49,0,3.5-4.29v-1.93a6.07,6.07,0,0,1-9-.1,7.52,7.52,0,0,1-1.81-5.16,8,8,0,0,1,1.68-5.13,5.86,5.86,0,0,1,4.79-2.24,5.57,5.57,0,0,1,4.33,1.94v-1.56h3.19Zm-3.06-6.54a4.66,4.66,0,0,0-1.08-3.22A3.57,3.57,0,0,0,1507,274a3.42,3.42,0,0,0-2.86,1.35,5.53,5.53,0,0,0,0,6.2,3.43,3.43,0,0,0,2.86,1.32,3.52,3.52,0,0,0,2.89-1.33A4.78,4.78,0,0,0,1510.84,278.49Z"/><path d="M1528.08,271.56h3.21v13.8h-3.21v-1.45a6.12,6.12,0,0,1-9-.22,7.69,7.69,0,0,1-1.85-5.27,7.43,7.43,0,0,1,1.85-5.17,6,6,0,0,1,4.65-2.07,5.85,5.85,0,0,1,4.31,2Zm-7.56,6.86a4.85,4.85,0,0,0,1.06,3.23,3.5,3.5,0,0,0,2.75,1.26,3.67,3.67,0,0,0,2.86-1.22,5.24,5.24,0,0,0,0-6.4,3.61,3.61,0,0,0-2.83-1.23,3.54,3.54,0,0,0-2.75,1.24A4.63,4.63,0,0,0,1520.52,278.42Z"/><path d="M1535.31,271.56h3.2v1.28a5.2,5.2,0,0,1,3.76-1.66,4.77,4.77,0,0,1,3.76,1.52,6.22,6.22,0,0,1,1.16,4.2v8.46H1544v-7.71a5,5,0,0,0-.57-2.81,2.29,2.29,0,0,0-2-.8,2.45,2.45,0,0,0-2.25,1,7.14,7.14,0,0,0-.65,3.61v6.66h-3.2Z"/><path d="M1564.55,285c0,.65,0,1.23-.07,1.72a12.82,12.82,0,0,1-.17,1.31,5.82,5.82,0,0,1-1.34,2.68,6.44,6.44,0,0,1-5.14,2.15,6.86,6.86,0,0,1-4.54-1.49,6,6,0,0,1-2.12-4.23h3.2a3.63,3.63,0,0,0,.6,1.57,3.43,3.43,0,0,0,2.89,1.29c2.34,0,3.5-1.43,3.5-4.29v-1.93a6.07,6.07,0,0,1-9-.1,7.52,7.52,0,0,1-1.81-5.16,8,8,0,0,1,1.68-5.13,5.86,5.86,0,0,1,4.79-2.24,5.57,5.57,0,0,1,4.33,1.94v-1.56h3.19Zm-3.06-6.54a4.66,4.66,0,0,0-1.08-3.22,3.54,3.54,0,0,0-2.79-1.23,3.42,3.42,0,0,0-2.86,1.35,5.53,5.53,0,0,0,0,6.2,3.43,3.43,0,0,0,2.86,1.32,3.52,3.52,0,0,0,2.89-1.33A4.78,4.78,0,0,0,1561.49,278.49Z"/><path d="M1569.4,283.77a2,2,0,0,1,3.94,0,2,2,0,1,1-3.94,0Zm.37-3.28v-17h3.2v17Z"/></g></svg>
