<svg id="Layer_1" data-name="Layer 1" xmlns="http://www.w3.org/2000/svg" width="399" height="136" viewBox="0 0 399 136"><defs><style>.cls-1{fill:#00031f;opacity:0.52;}.cls-2{fill:#ff9206;}.cls-3{fill:#fff;}</style></defs><title>START</title><rect class="cls-1" x="14" y="11" width="376" height="122" rx="60.71"/><rect class="cls-2" x="8" y="4" width="376" height="122" rx="60.71"/><path class="cls-3" d="M113.11,70c2.66,2.52,6.7,4.9,11,4.9,2.52,0,4-.79,4.82-1.66a4.3,4.3,0,0,0,1.23-3,3.74,3.74,0,0,0-1.37-2.88c-1.23-1.08-3.1-1.59-6.2-2.52l-3.24-1c-2-.65-5-1.73-6.91-3.89-2.45-2.66-2.73-6-2.73-8.5,0-5.9,2.3-9.5,4.39-11.59,2.45-2.45,6.48-4.54,12.31-4.54a33.8,33.8,0,0,1,14.83,3.89l-5,9.72c-3.75-3-6.56-3.24-8.21-3.24A6,6,0,0,0,124,47.05a3.57,3.57,0,0,0-1.22,2.6,3.19,3.19,0,0,0,.65,2.16c.36.43,1.22,1.29,4.17,2.16l3.82,1.15c3,.93,6.19,2,8.71,4.75s3.1,5.26,3.1,8.57c0,4.39-1.08,8.64-4.54,12.1-4.1,4.1-9.07,4.89-14.18,4.89a25.81,25.81,0,0,1-9.44-1.58A33.67,33.67,0,0,1,107.78,80Z"/><path class="cls-3" d="M169.2,46.91V84.35H156.74V46.91H146.52V36.32h32.9V46.91Z"/><path class="cls-3" d="M212.11,76.29H194.69l-3.24,8.06H178.27l18.43-48h13.61l18.08,48H215.06Zm-3.31-9.51-5.4-15.55-5.26,15.55Z"/><path class="cls-3" d="M253.37,36.32c3.6,0,8.21.58,11.73,4.25a15.81,15.81,0,0,1,4.11,10.8,13.83,13.83,0,0,1-3.82,10,13.52,13.52,0,0,1-6.62,3.32l15.05,19.65H258.33L246.38,65.92V84.35H233.92v-48Zm-7,21.53h2.38c1.87,0,4.53-.5,6.05-1.94a6,6,0,0,0,1.58-4,5.65,5.65,0,0,0-1.66-4c-1.15-1.16-3.24-1.88-6-1.88h-2.38Z"/><path class="cls-3" d="M295.41,46.91V84.35H283V46.91H272.73V36.32h32.91V46.91Z"/></svg>
