<svg xmlns="http://www.w3.org/2000/svg" viewBox="0 0 292 295"><defs><style>.cls-1{opacity:0.25;}.cls-2{fill:#eae9e8;}.cls-3{fill:#2b2823;}.cls-4{opacity:0.13;}.cls-5{fill:#202020;}.cls-6{opacity:0.11;}</style></defs><title>Artboard 8</title><g id="Layer_4" data-name="Layer 4"><g class="cls-1"><path d="M286,270c-81.32,9.54-169.64,11.07-251,20.61L16.39,67C96.93,55.69,169.46,20.35,250,9,259.67,93.33,276.33,185.67,286,270Z"/></g><path class="cls-2" d="M268,251,29,283.61,10.39,60,250,9.39Q259,130.2,268,251Z"/><path class="cls-3" d="M259,243,40.67,270.17,16.46,45.23,241.4,21Q250.19,132,259,243Z"/><g class="cls-1"><path d="M259,288c-81.59-6.91-162.47,4.91-244-2L30.31,14.1,273.84,29C266.46,113.59,266.38,203.44,259,288Z"/></g><path class="cls-2" d="M243.12,269.75Q186.35,267.2,127,263,66.58,258.7,9,253,17.42,129.52,25.82,6.05L273.73,29.4Q258.43,149.58,243.12,269.75Z"/><path d="M235.9,260.11l-219.35-17L37.77,17.87,263,39.09Q249.46,149.6,235.9,260.11Z"/><g class="cls-4"><path class="cls-5" d="M156.37,59.38c0-.08-.14-.25-.14-.2l.14.3Z"/><path class="cls-5" d="M155.94,58.91a4.51,4.51,0,0,0,.27.7,4.94,4.94,0,0,0-.18-.55s.09.08.14.19c0-.08.07,0,0-.14s-.18-.21-.12,0A1.13,1.13,0,0,1,155.94,58.91Z"/><path class="cls-5" d="M154.23,58.35v0A.08.08,0,0,0,154.23,58.35Z"/><path class="cls-5" d="M153.36,57.67a.1.1,0,0,0,0-.06Z"/><path class="cls-5" d="M153.4,57.25v0S153.41,57.23,153.4,57.25Z"/><path class="cls-5" d="M154.23,58.35v-.11C154.2,58.34,154.22,58.32,154.23,58.35Z"/><path class="cls-5" d="M155.9,59.77a.13.13,0,0,0,0-.09s0,0,0,0Z"/><path class="cls-5" d="M154.73,58.23h0l0-.13Z"/><path class="cls-5" d="M155,58.23s0,.27-.05.39a1.26,1.26,0,0,1,0-.19Z"/><path class="cls-5" d="M155.52,58.7v0Z"/><path class="cls-5" d="M154.53,58.11l0-.09Z"/><path class="cls-5" d="M143.64,59.89v0Z"/><polygon class="cls-5" points="143.24 58.47 143.25 58.46 143.26 58.3 143.24 58.47"/><path class="cls-5" d="M153.27,56.74h0S153.29,56.72,153.27,56.74Z"/><path class="cls-5" d="M148.87,56.34c.14.22.06.33.23.56A2.77,2.77,0,0,0,148.87,56.34Z"/><path class="cls-5" d="M155.88,59.74h0S155.88,59.75,155.88,59.74Z"/><polygon class="cls-5" points="149.1 56.9 149.1 56.9 149.12 56.92 149.1 56.9"/><path class="cls-5" d="M152.32,56.38l0,.12Z"/><path class="cls-5" d="M152.77,57.09v0S152.76,57.09,152.77,57.09Z"/><path class="cls-5" d="M151.78,56.58s0-.06,0,0v0S151.79,56.53,151.78,56.58Z"/><path class="cls-5" d="M151.37,56.44v.06h0Z"/><path class="cls-5" d="M144.74,59.79v-.26C144.73,59.73,144.68,59.8,144.74,59.79Z"/><path class="cls-5" d="M155.86,59.62a.43.43,0,0,1,0,.12v0A.62.62,0,0,0,155.86,59.62Z"/><path class="cls-5" d="M151,58.64l0,0A.08.08,0,0,0,151,58.64Z"/><path class="cls-5" d="M147.51,59.44v0S147.51,59.47,147.51,59.44Z"/><path class="cls-5" d="M150.84,58.59a.63.63,0,0,0,0-.19l0,.07Z"/><path class="cls-5" d="M144.73,59.53Z"/><path class="cls-5" d="M144.33,60.19c.06,0,0-.36,0-.57s0,.27.05.46c0-.1.08-.43.11-.42a.85.85,0,0,1,0,.16c.05-.29.13,0,.18-.38V59s0-.23.05,0c0,0,0,.09,0,.17l0-.11c0,.35,0,.12,0,.38.06-.11.11-.4.15-.3,0,.34-.09.11,0,.41l-.06-.13c.05.54,0,0,0,.54.08.1.09-.17.17-.07,0-.19,0-.28,0-.47.1-.34.1.85.17.4,0-.23,0-.66.09-.43l0,.38c.08,0,0-.55.12-.29s-.05.12,0,.17c.06.3,0-.22.07-.22l0,.34c.08-.06.17-.31.25-.37a1.1,1.1,0,0,0,0,.31c.11-.18.26,0,.39.21l0-.29a.59.59,0,0,1,0,.18c.05.11,0-.18,0-.3s0,.17,0,.25c.06-.25.17-.55.29-.25v.09c.08.11,0-.61.09-.35v.06c.16.1.27-.19.46.23-.06-.42.18.15.07-.43.14.27.14.38.3.54s0-.37,0-.44l.07.3,0-.32.13.34v-.08a.72.72,0,0,1-.09-.21c0-.15.2.17.24.32l.06-.29a.6.6,0,0,1,0,.25c0-.33.11.3.09,0,0-.07-.05-.18-.07-.24.09.17.17.14.2,0l.06.2c.12,0,.18-.17.29-.21a1.16,1.16,0,0,1-.18-.47l.13.3c0-.19-.08-.1-.13-.35a1.29,1.29,0,0,1,.19.44v-.12a2.56,2.56,0,0,1,.09.26c0-.2.22.26.11-.07l0,.08c.12,0,.12-.17.2-.22a3,3,0,0,1-.14-.43c.1,0,.26.22.32.16a2.3,2.3,0,0,0-.15-.38c.12.23.17.18.22.36.06-.08.08-.1.08-.33a1.73,1.73,0,0,1-.13-.21s.09.08.15.19v0c-.06-.39.58.55.41,0v0l0-.29s.06.19.16.32c-.1-.43.15,0,.1-.3.34.68.15-.12.38.31l-.07-.16c0-.17.06.09.08.12a1.23,1.23,0,0,1-.09-.24c.07-.25.33.18.39.34s-.06-.92,0-.5v.33c.05-.4.1,0,.2-.31a.75.75,0,0,1,0,.17c0,.23.05,0,.09-.18,0,0,0,.18,0,.28s.09-.3.05-.06a.64.64,0,0,1,0,.09c0-.11,0,0,.09-.23,0,.14.09-.1.07.06.11-.29,0,.16.16-.25-.15.43-.07.36,0,.18-.06.12,0,.13-.11.31,0,0,.08-.07.16-.29-.17.52.28-.35,0,.29a1.4,1.4,0,0,1,.47-.33c-.22.39-.11,0-.33.41.16-.12.39-.44.42-.3s-.11.17-.16.23c.17-.12.13.12.33,0l-.08.1s0,.07.1-.1l0,0a3.77,3.77,0,0,1,.47-.62c-.34.48,0,.17-.44.77a1.12,1.12,0,0,0,.16-.22s0,.11-.14.24c.11-.07.21-.26.25-.23a2.12,2.12,0,0,1-.15.21c.13-.15.26-.3.25-.2s-.07.12-.08.11.4-.36.37-.15c-.26.35,0,.14-.25.45l.1-.06.09-.17s.21-.17.18-.05l-.12.11h.11l0-.15c.14-.13.26-.4.25-.28s0,0-.07.23h0c.08-.09.17-.18.15-.09l-.27.42c.18-.25.14,0,.34-.28a2.26,2.26,0,0,0-.17.26l.15-.21a.85.85,0,0,1-.13.25c0,.08.23-.41.19-.2,0,0,0,0-.06.08s.21-.07.21.08c-.17.33-.1,0-.24.33.13,0,.41-.29.46-.16v-.05c.25-.47-.05.27.11.07a1.06,1.06,0,0,0-.11.21c0,.11.19-.06.35-.17l-.06.12c0,.13.07.11.09.18a.8.8,0,0,0,.14-.28c-.13.78.37-.31.3.34,0,0-.07.11,0,.11l.14-.09a1.45,1.45,0,0,0,0-.32c.05-.13.1-.23.12-.22a1.46,1.46,0,0,0-.09.49l.05-.21c0,.41.11-.46.12-.17l0,.12c0-.06.1-.21.12-.17,0,.26-.05.11-.1.33.05,0,.17-.48.16-.22,0,.08-.05.07-.08.14,0,.32,0,.24,0,.3h0l.06.15v-.09c.13-.68.13-.11.23-.56a1.62,1.62,0,0,0,0,.55,1.15,1.15,0,0,1,0,.26c.05-.24.07.2.13-.16,0,.1,0,0,0,.26.05-.08,0-.17,0-.3.06-.33.22.41.3-.07a4.37,4.37,0,0,0,.07-.7,1.28,1.28,0,0,1,.05.35c.07.13.11.09.12,0a1,1,0,0,0,.08.25s-.07-.34,0-.22a2.33,2.33,0,0,1,.08.38,2.48,2.48,0,0,0,0-.38,1.13,1.13,0,0,1,.08.36.52.52,0,0,0,0-.45l-.06-.08a.83.83,0,0,1,.1.26c0,.22-.09-.06-.13-.15v-.07c-.23-.53-.07.13-.15.11l-.1-.4,0,.34a1.72,1.72,0,0,1-.1-.39c-.08-.19,0,.15-.07-.06a.26.26,0,0,1,0-.07v.13c0-.09-.06-.29,0-.24-.09-.22,0,.32-.1,0v0c0,.15,0,.3,0,.67,0-.25-.08-.5-.11-.75l0,.31s0,0,0-.16a1.76,1.76,0,0,0,0,.33c-.06-.27-.12.14-.13-.35,0,.23,0,.18,0,.34,0-.52,0,.09-.08-.15s.05-.13,0-.37c-.05.45-.06-.1-.08,0,0,.36-.08.15-.14.26,0-.12-.06-.21-.07-.35v-.06c-.08.36-.11.28-.17.35a2.74,2.74,0,0,1,.12-.39h0a.49.49,0,0,1-.08.2l.07-.26s-.16.29-.16.1a3.93,3.93,0,0,1-.28.84,3.12,3.12,0,0,1,.14-.41s0,.1,0,0l.09-.21c0-.11-.07.18-.09.15.07-.19,0-.14.09-.29s0,.09,0,0a.84.84,0,0,1,0-.31,1.09,1.09,0,0,1-.11.27s.07-.23.08-.33c-.06.13,0,0-.14.26a1.22,1.22,0,0,1,.06-.21c-.06.11-.1,0-.2.3v0h0c-.18.24-.08-.22-.2-.13l.05-.09c-.09.08-.12,0-.25.19a1,1,0,0,1,.12-.28c-.07.05-.12.15-.09,0s.06-.14.09-.09.07-.24-.1,0c.13-.21.13-.29.07-.24l-.06.18s-.05,0-.05,0l.17-.28c.14-.39-.49.5-.19-.11-.14.19-.05.17-.21.39a5.19,5.19,0,0,1,.2-.5c.05-.18-.31.38-.3.24a2,2,0,0,1-.32.44,1.36,1.36,0,0,1,.3-.51s0,0,0,.06.08-.06.14-.17l-.07.09c.05-.11,0-.13.11-.29a.37.37,0,0,0-.13.22c0-.17-.08-.05-.07-.18,0,.06-.09.18-.1.17,0-.17-.16.17-.24.18.07-.17.25-.36.12-.26a.85.85,0,0,1,.23-.34c-.17.16,0-.19,0-.24l.07-.07s-.05,0-.07,0l-.11.21a.19.19,0,0,1,.05-.13c-.1.12-.21.33-.35.49,0-.11-.13.07,0-.2,0,.13.16-.27.25-.28s0,0,0,0l.05-.06c.09-.28-.22.28-.28.23.1-.14.16-.29.13-.27s-.14.26-.24.36c0-.14-.1.06-.11,0v.07c-.1.15-.11.12-.17.15.07-.12.08-.07.1-.13-.2.25.09-.32-.06-.17,0-.11.17-.28.19-.37-.18.17.06-.24-.1-.11a.91.91,0,0,1-.22.35l.18-.1-.24.27s.14-.1.13,0a.75.75,0,0,0-.18.28c.14-.33-.18.14-.1-.1l.29-.51c.06-.27-.27.2-.29,0v.1c-.13.21-.08,0-.15.07a1.86,1.86,0,0,0,.15-.36c-.07.13-.07,0-.25.3l.07-.25c0-.14-.32.47-.36.38a2.08,2.08,0,0,1,.23-.45s0-.06-.09.07c0-.12-.17.21-.12,0,0,.08-.12.27-.15.24l0-.09a1,1,0,0,0-.14.32c.13-.61-.22,0-.14-.55a.52.52,0,0,1-.23.09c0-.06,0-.1,0-.07,0-.2-.16.54-.2.33s.07-.17.07-.29c.09-.64-.13.07-.14-.31l0,0c0-.22-.15.23-.22.18a.77.77,0,0,0,0-.1,1.17,1.17,0,0,1-.24.53,1.28,1.28,0,0,0,0-.39s0,.41,0,.48a3.68,3.68,0,0,1-.09-.53l.06,0c0-.35-.09,0-.12,0v-.15c-.11,0-.06.45-.16.43l0,.12c0,.39-.07-.22-.08.08l-.08-.39c0,.11-.06.4-.09.49a2.51,2.51,0,0,1,0-.64s-.12.06-.1.25c0,0,0-.14,0-.08,0,.31,0,.47-.06.48-.19-.74-.22-.14-.45-.68,0,.3-.28,0-.41.07.28.53,0,0,.22.59,0,0,0,0-.05,0l-.23-.3c-.1-.15,0-.13-.09-.26s-.13-.22-.24-.35c.1.2.1.3,0,.24l.17.23c0,.34-.29-.43-.24-.09l-.06-.19c0,.12-.17.08,0,.54a.85.85,0,0,1-.12-.26c-.14,0,0,.58-.19.35l-.06-.14s.09.27,0,.14a.88.88,0,0,0-.07-.14c0,.06.07.26,0,.19l-.05-.15c-.18-.14.05.43,0,.56a1.48,1.48,0,0,0-.38-.55l0,0c-.11,0,0,.4,0,.59-.24-.42-.25-.11-.42-.34a1.73,1.73,0,0,1,.11.38c0-.08,0,.3-.09-.08h0C147,56.85,147,57,147,57l.16.5c-.31-.71-.16.34-.39-.31a2.43,2.43,0,0,1,0,.27l-.07-.28c-.07,0-.1-.08-.16,0l0-.2s.11.81.07.83l-.09-.41c-.07,0-.2-.33-.22.06a1.87,1.87,0,0,1,0-.21s-.17-.26-.08.31c-.05-.37-.08,0-.11.15l0-.28a1.76,1.76,0,0,1,0,.56s0-.22,0-.15c0-.15,0,.26-.07.12v-.18s0,.08,0,.29-.09-.07-.12-.32c0,.16,0,.36,0,.29a1,1,0,0,1,0-.18c-.08-.19-.08.33-.15.06a.9.9,0,0,0,0-.16c.06,0,.1,0,.1,0a3.69,3.69,0,0,1-.06-.65c0,.19,0,.62-.1.5v-.12s0,0,0,0,0-.07,0-.07c0-.22-.06-.12-.08-.12a2.19,2.19,0,0,0,0,.46s0,0,0,0v0l.06,0c0,.14,0,.27-.06.11v.46c0-.4-.12-.6-.13-.85a1,1,0,0,0-.2.64c0,.07,0-.15,0-.23s0,0,0-.12c0,.13-.12,0-.12.42-.06-.17,0-.34-.05-.28v-.11c-.13-.59-.23.94-.38.18a.44.44,0,0,1,0,.13c-.17-.34-.38.3-.54-.24,0-.1-.06.13-.1.31v-.3l-.07.34c-.09.25-.09-.75-.21-.27v.21s-.11.11-.1-.12c0,0,0,.21,0,.1V58l-.1.27c-.06-.12,0-.63-.05-.66a2.21,2.21,0,0,0-.12.56s0,.1,0,.26l0,.08a6,6,0,0,0,0,1.26l.07-.28v.23h-.05c0,.21,0,0,.07-.1a.88.88,0,0,0,0,.25l.08-.44a1.91,1.91,0,0,0,0,.46c0-.2,0-.41,0-.54,0,.21,0,.38,0,.2a.73.73,0,0,1,0,.25c0-.14.08,0,.11-.3,0,.26.1-.06.07.38a1.24,1.24,0,0,1,.1-.36c-.08.52.09,0,0,.6.06-.48.14-.21.22-.47a.66.66,0,0,1,0,.09.87.87,0,0,1,0,.27,3.79,3.79,0,0,1,.12-.71,7.5,7.5,0,0,1,0,.82c0-.32.09-.32.08-.58a1.72,1.72,0,0,1,0,.44c0-.49,0-.08.08-.38,0,.24,0,.46.05.31A.9.9,0,0,1,144.33,60.19Zm1.31-.86h0Zm.11,0h-.05a.53.53,0,0,1,0-.19A.84.84,0,0,0,145.75,59.32Zm-.32-1.93s0,0,0,.07,0,0,0,0v-.1Z"/><path class="cls-5" d="M145.42,57.76v0Z"/><path class="cls-5" d="M154.22,58.4h0v0Z"/><polygon class="cls-5" points="147.41 59.61 147.39 59.54 147.4 59.61 147.41 59.61"/><path class="cls-5" d="M154.48,59.49a.17.17,0,0,0,0,.07Z"/><path class="cls-5" d="M154.76,59.61l0,.1A.23.23,0,0,0,154.76,59.61Z"/><path class="cls-5" d="M155,59.77l0-.12h0Z"/><path class="cls-5" d="M151.79,58.7h0Z"/><path class="cls-5" d="M152.87,58.62l-.1.09S152.78,58.75,152.87,58.62Z"/><polygon class="cls-5" points="150.96 58.64 150.96 58.64 150.96 58.64 150.96 58.64"/><path class="cls-5" d="M152.74,58.69c0,.05,0,.05,0,0S152.77,58.66,152.74,58.69Z"/><path class="cls-5" d="M156.15,59.71h0l0,0Z"/><path class="cls-5" d="M156.15,59.68v0S156.14,59.65,156.15,59.68Z"/><path class="cls-5" d="M156.16,59.57v.07S156.18,59.64,156.16,59.57Z"/><path class="cls-5" d="M155.76,59.7l0,.1Z"/><path class="cls-5" d="M155.66,59.76s.11.19.14.12l0-.08C155.79,60,155.65,59.58,155.66,59.76Z"/><path class="cls-5" d="M155.19,58.54l.05.08a.92.92,0,0,1,0-.28C155.17,58,155.26,58.58,155.19,58.54Z"/><path class="cls-5" d="M155.05,58.38c0-.05,0-.16,0-.22A.55.55,0,0,0,155.05,58.38Z"/><path class="cls-5" d="M154,58l.12-.23S154,57.89,154,58Z"/><polygon class="cls-5" points="153.09 59.05 153.03 59.21 153.16 59.01 153.09 59.05"/><polygon class="cls-5" points="153.89 57.41 153.92 57.39 153.84 57.45 153.89 57.41"/><path class="cls-5" d="M151.52,56.22l-.08.31C151.48,56.48,151.59,56.15,151.52,56.22Z"/><path class="cls-5" d="M150.1,56.42c0-.15-.09-.25-.09-.09S150.09,56.47,150.1,56.42Z"/><polygon class="cls-5" points="147 57.1 146.99 57 146.98 57.09 147 57.1"/></g><g class="cls-4"><path class="cls-6" d="M90.52,118.79Q100.32,132,111,144.53q10.92,12.71,22.75,24.56T158.4,192q12.76,11,26.3,21.1c.64.5.34-1.35.34-1.36-.09-.83-.21-1.65-.36-2.48a3.06,3.06,0,0,0-.36-1.26q-13.4-10.06-26-21.08T134,164q-11.73-11.85-22.56-24.53-10.56-12.31-20-25.49c-.48-.64-.65,1.18-.65,1.17C90.58,115.9,90,118.13,90.52,118.79Z"/><path class="cls-6" d="M90,122.87q9.81,13.29,20.59,25.83,10.93,12.7,22.79,24.56t24.66,22.9q12.8,11,26.36,21.1c.58.45.42-1,.41-1.11,0-.6,0-2.61-.52-3.05Q170.87,203,158.18,192t-24.49-22.88Q121.92,157.28,111,144.6,100.36,132.24,90.77,119c-.43-.58-.62.9-.63.93C90,120.56,89.59,122.3,90,122.87Z"/><path class="cls-6" d="M90.37,115.38q9.64,13.38,20.38,25.93t22.67,24.54q11.84,11.9,24.5,22.9t26.16,21.1a1.88,1.88,0,0,0,.18-1.36q-.12-2.52-.36-5c-.13-1.67-.3-3.35-.51-5a2,2,0,0,0-.42-1.3Q169.9,187,157.59,176t-23.83-22.91q-11.52-11.87-22.17-24.53a308.61,308.61,0,0,1-19.24-25.7,2,2,0,0,0-.5,1.26c-.32,1.65-.61,3.29-.86,5s-.51,3.31-.71,5A2,2,0,0,0,90.37,115.38Z"/><path class="cls-6" d="M89.69,117.94q9.69,13.37,20.43,25.89,10.91,12.71,22.72,24.55t24.55,22.89q12.74,11,26.23,21.09a1.57,1.57,0,0,0,.23-1.2c0-1.5-.09-3-.19-4.48s-.19-3-.35-4.46a1.58,1.58,0,0,0-.36-1.17q-13.19-10.12-25.6-21.16t-24-22.91Q121.75,145.1,111,132.43a287.1,287.1,0,0,1-19.36-25.65,1.56,1.56,0,0,0-.5,1.12c-.33,1.46-.61,2.92-.87,4.39s-.51,2.95-.71,4.43A1.61,1.61,0,0,0,89.69,117.94Z"/><path class="cls-6" d="M90.38,118.84q10,13,20.61,25.55,10.94,12.71,22.79,24.55t24.66,22.9q12.78,11,26.34,21.09c.52.4.47-2.66-.06-3.07q-13.46-10.05-26.14-21.06t-24.49-22.86q-11.79-11.83-22.67-24.53Q101.09,129,91,116.34C90.57,115.8,90,118.37,90.38,118.84Z"/><path class="cls-6" d="M90.15,114.83q9.61,13.4,20.35,25.93,10.88,12.69,22.68,24.55t24.5,22.89q12.7,11,26.18,21.1a1.35,1.35,0,0,0,.22-1.06c0-1.3-.12-2.61-.23-3.91s-.21-2.6-.37-3.9a1.3,1.3,0,0,0-.38-1Q170,189.3,157.57,178.27t-23.95-22.91q-11.57-11.88-22.26-24.54A311.56,311.56,0,0,1,92,105.15a1.26,1.26,0,0,0-.49,1c-.3,1.26-.56,2.53-.79,3.81s-.47,2.55-.64,3.84A1.25,1.25,0,0,0,90.15,114.83Z"/><path class="cls-6" d="M90,119.62q9.67,13.45,20.48,26,10.91,12.7,22.72,24.55t24.58,22.9q12.75,11,26.26,21.09a2,2,0,0,0,.19-1.38c-.08-1.71-.19-3.42-.34-5.13s-.28-3.41-.48-5.12a2,2,0,0,0-.41-1.33q-13.17-10.11-25.59-21.14t-24-22.91q-11.58-11.86-22.29-24.54a271.28,271.28,0,0,1-19.38-25.76,2,2,0,0,0-.47,1.3c-.3,1.68-.55,3.35-.77,5s-.44,3.36-.6,5A2,2,0,0,0,90,119.62Z"/><path class="cls-6" d="M89.15,117.28q10,13,20.6,25.49,10.94,12.72,22.78,24.58t24.66,22.93q12.8,11,26.36,21.13c.58.44.62-2.24.16-2.59q-13.49-10.09-26.19-21.15T133,164.74q-11.79-11.87-22.66-24.58Q100,127.75,90,115.19C89.48,114.59,88.83,116.87,89.15,117.28Z"/><path class="cls-6" d="M90.42,117.19q9.69,13.4,20.44,25.95,10.9,12.71,22.7,24.55t24.53,22.9q12.72,11,26.2,21.1a2.44,2.44,0,0,0,.16-1.56c-.11-1.92-.25-3.84-.44-5.76s-.36-3.84-.6-5.75a2.45,2.45,0,0,0-.43-1.5Q169.92,187,157.59,176t-23.83-22.9q-11.52-11.87-22.18-24.53a298.53,298.53,0,0,1-19.26-25.76,2.47,2.47,0,0,0-.49,1.47c-.32,1.89-.59,3.79-.83,5.69s-.49,3.79-.68,5.7A2.42,2.42,0,0,0,90.42,117.19Z"/><path class="cls-6" d="M89.5,116.74q9.75,13.23,20.43,25.75,10.91,12.69,22.72,24.55t24.58,22.9q12.74,11,26.25,21.11c.23.18.16-3.49.17-3.37,0-.71.12-2.76-.58-3.32q-13.31-10.12-25.83-21.17Q147.8,175,139,166.09q-9-8.66-17.39-17.93a371.6,371.6,0,0,1-30.69-38c-.17-.23-1.1,3.35-1.07,3.24C89.69,114,89,116,89.5,116.74Z"/><path class="cls-6" d="M89.73,117.23q10.15,13,20.78,25.67,10.93,12.71,22.81,24.56T158,190.36q12.81,11,26.38,21.09c.6.47.73-1.69.33-2q-13.5-10.07-26.24-21.08T133.9,165.51Q122.07,153.66,111.17,141q-10.45-12.66-20.8-25.41C89.91,115,89.43,116.85,89.73,117.23Z"/><path class="cls-6" d="M89.77,118.44q9.7,13.41,20.49,26T133,169q11.86,11.88,24.56,22.88t26.23,21.08a2.28,2.28,0,0,0,.22-1.48c0-1.84-.09-3.68-.19-5.51s-.2-3.68-.35-5.51a2.28,2.28,0,0,0-.37-1.45q-13.12-10.11-25.49-21.14t-23.92-22.9q-11.55-11.87-22.24-24.53a293.76,293.76,0,0,1-19.36-25.74,2.27,2.27,0,0,0-.53,1.39q-.54,2.72-1,5.43c-.32,1.82-.59,3.64-.83,5.46A2.33,2.33,0,0,0,89.77,118.44Z"/></g></g></svg>