<svg xmlns="http://www.w3.org/2000/svg" viewBox="0 0 120 119"><defs><style>.cls-1{fill:#f5be64;}.cls-2{opacity:0.08;}.cls-3{fill:#e47855;}.cls-4{fill:#4c4a4a;}</style></defs><title>blyant</title><g id="Layer_1" data-name="Layer 1"><circle class="cls-1" cx="61" cy="60" r="53"/><path class="cls-2" d="M74.5,19.5a24,24,0,0,1-3.07,12.8c-4.59,7.75-11.36,7.49-14.93,14.2C53,53,57,58,56.5,65.5s-5.12,17.49-24,29l22.71,17.67a4.1,4.1,0,0,1,.66.19l.4.15a48.58,48.58,0,0,0,5.89.15c1.29-.08,2.54-.13,3.82-.14,2.47-.46,4.87-.8,7.25-1.3a4.78,4.78,0,0,1,2-.49,26.72,26.72,0,0,0,4.1-1.44,6.49,6.49,0,0,1,2.16-.55,5.37,5.37,0,0,1,.87-.33,7.57,7.57,0,0,1,.78-.57,6.16,6.16,0,0,1,2.21-.83l.17,0a6.47,6.47,0,0,1,1.58-.67l0,0A4.15,4.15,0,0,1,89,105.08a74.34,74.34,0,0,0,11.3-9.14c2.38-2.43,3.8-5.49,5.86-8.09.85-1.42,1.65-2.85,2.37-4.31.53-1.09,1-2.09,1.4-3.06a69.58,69.58,0,0,0,2.58-7,52.77,52.77,0,0,0,2-12,148.78,148.78,0,0,0-24-29A148.9,148.9,0,0,0,74.5,19.5Z"/></g><g id="Layer_3" data-name="Layer 3"><path class="cls-3" d="M31.44,85.59l-.2,7.13A2.08,2.08,0,0,0,34,94.59l5.87-2.88c1-.5,1-1.93-.12-2.74l-5.66-4.24C33,83.86,31.47,84.34,31.44,85.59Z"/><polygon class="cls-4" points="49.99 77.88 41.65 71.63 32.06 75.73 30.82 86.08 39.16 92.33 48.75 88.23 49.99 77.88"/><rect class="cls-3" x="50.96" y="18.99" width="21" height="70" transform="translate(44.63 -26.07) rotate(36.83)"/><rect class="cls-4" x="57.66" y="16.89" width="2" height="70" transform="translate(42.82 -24.81) rotate(36.83)"/><rect class="cls-4" x="63.26" y="21.08" width="2" height="70" transform="translate(46.45 -27.33) rotate(36.83)"/></g></svg>
