<svg xmlns="http://www.w3.org/2000/svg" viewBox="0 0 116 112"><defs><style>.cls-1{fill:#90ccf4;}.cls-2{opacity:0.08;}.cls-3{fill:#fce181;}.cls-4{fill:#fff;}</style></defs><title>mapper</title><g id="Layer_1" data-name="Layer 1"><path class="cls-1" d="M105.84,75a25.35,25.35,0,0,1,.88-2.63c.38-1.23.69-2.49,1-3.75a45.07,45.07,0,0,1,.86-4.89c.13-1,.22-1.95.29-2.93a5.38,5.38,0,0,1,.06-1c0-.94.09-1.88.09-2.83a53,53,0,1,0-23.55,44.07l1-.69c.43-.3.86-.59,1.28-.91h0A53.16,53.16,0,0,0,105.84,75Z"/><path class="cls-2" d="M105.43,77.09c.46-1.85,1.34-3.49,1.65-5.4a55.14,55.14,0,0,1,1-6,4.44,4.44,0,0,1,.33-.81c-.06-.51-.1-1-.13-1.52a4.56,4.56,0,0,1,.68-2.81h0L81.56,28A66.08,66.08,0,0,0,46,41.74C28.71,55.26,23.43,73.33,22,79l29.2,32.63a4.77,4.77,0,0,1,1.09-.09c2.18.06,4.37.29,6.55.43.13,0,.25-.1.39-.13,1.7-.35,3.42-.53,5.13-.72a3.91,3.91,0,0,1,2.69-.32,20.17,20.17,0,0,0,6.58-1.89c1.69-.87,3.49-1.12,5.23-1.83a30.51,30.51,0,0,0,5.52-3.45,74.63,74.63,0,0,0,11.41-9.22c2.38-2.43,3.8-5.49,5.86-8.09.85-1.42,1.65-2.85,2.37-4.31a5.36,5.36,0,0,1,.7-2.58,4.82,4.82,0,0,1,.53-1.23v0A5.74,5.74,0,0,1,105.43,77.09Z"/><rect class="cls-3" x="70" y="27" width="16" height="56"/><rect class="cls-4" x="73.83" y="30.41" width="9.17" height="20.59"/><circle class="cls-4" cx="78" cy="72" r="5"/><circle cx="78" cy="72" r="4"/><rect class="cls-3" x="53" y="27" width="16" height="56"/><rect class="cls-4" x="56.83" y="30.41" width="9.17" height="20.59"/><circle class="cls-4" cx="61" cy="72" r="5"/><circle cx="61" cy="72" r="4"/><polyline class="cls-3" points="38.91 84.1 23.7 79.13 41.09 25.9 56.3 30.87"/><polyline class="cls-4" points="45.99 52.75 37.28 49.9 43.67 30.33 52.39 33.18"/><path class="cls-4" d="M39.47,72.71a5,5,0,1,1-3.2-6.3,5,5,0,0,1,3.2,6.3"/><path d="M38.52,72.4a4,4,0,1,1-2.56-5,4,4,0,0,1,2.56,5"/></g></svg>
