<svg xmlns="http://www.w3.org/2000/svg" viewBox="0 0 115 112"><defs><style>.cls-1{fill:#e8725c;}.cls-2{opacity:0.08;}.cls-3{fill:#f2ba72;}.cls-4{fill:#594b60;}.cls-5{fill:#232120;}.cls-6{fill:#ecfef8;}</style></defs><title>profil</title><g id="Layer_1" data-name="Layer 1"><circle class="cls-1" cx="56" cy="57" r="53"/><path class="cls-2" d="M68,30a20.17,20.17,0,0,0-2.07-.2C57.69,29.45,47.35,34.06,45,40.74,42.16,48.93,53.55,55.31,51,63c-1.83,5.52-9.53,7.89-15,9-6.89,9.2-5.56,15.17-5,17,.63,2.06,1.75,3.6,9,11,3.86,3.94,7.19,7.22,9.71,9.67l.33.08.33.11.4.15a48.58,48.58,0,0,0,5.89.15c1.29-.08,2.54-.13,3.82-.14,2.47-.46,4.87-.8,7.25-1.3a4.78,4.78,0,0,1,2-.49,26.72,26.72,0,0,0,4.1-1.44,6.49,6.49,0,0,1,2.16-.55,5.37,5.37,0,0,1,.87-.33,7.57,7.57,0,0,1,.78-.57,6.16,6.16,0,0,1,2.21-.83l.17,0a6.47,6.47,0,0,1,1.58-.67l0,0a4.15,4.15,0,0,1,1.82-1.19,74.34,74.34,0,0,0,11.3-9.14c2.38-2.43,3.8-5.49,5.86-8.09.85-1.42,1.65-2.85,2.37-4.31.53-1.09,1-2.09,1.4-3.06A69.58,69.58,0,0,0,107,71a52.77,52.77,0,0,0,2-12Z"/><path class="cls-3" d="M60.49,69.77h-7.7c0-2.34-.39-5.47-2.56-7.69C48.86,60.67,47.33,59.31,46,58s-2.37-2.52-2.18-7.46H68.18c.25,5.23-1.79,6.29-3.18,7.46a27.82,27.82,0,0,0-4.51,4.08C58.89,64.08,59.62,67.32,60.49,69.77Z"/><path class="cls-3" d="M58.89,60.79H53.11a9.28,9.28,0,0,1-9.29-9.28V36.75a9.29,9.29,0,0,1,9.29-9.29h5.78a9.29,9.29,0,0,1,9.29,9.29V51.51A10.58,10.58,0,0,1,65,58,10.46,10.46,0,0,1,58.89,60.79Z"/><rect class="cls-4" x="52.79" y="67.21" width="5.13" height="2.56"/></g><g id="Layer_3" data-name="Layer 3"><path class="cls-5" d="M69.46,39V28.74a14.46,14.46,0,0,0-3.84-2.56,17.15,17.15,0,0,0-5.13-1.28c-5-.62-5.42.56-10.26,0-2-.24-2.81-.54-3.85,0-1.23.64-2,2.05-2.56,5.13-.86,4.36.53,5.9,0,11.53,0,.43-.13,1.26,0,1.29s1.76-3.52,2.56-7.7c.37-1.89.39-2.87,1.29-3.84s2.81-1.87,3.84-1.28c.71.4.76,1.27,1.28,1.28s.6-.87,1.29-1.28c1.15-.7,2.5.83,5.13,1.28,2.4.41,2.78-.6,3.84,0,2,1.11.64,4.6,2.57,9a13.53,13.53,0,0,0,2.56,3.85"/><rect class="cls-4" x="31" y="69.77" width="50" height="19.23"/><rect class="cls-4" x="32.05" y="66.44" width="23.84" height="11.17" transform="translate(-17.4 14.11) rotate(-15.26)"/><rect class="cls-4" x="56.1" y="66.46" width="23.65" height="11.17" transform="translate(114.47 159.44) rotate(-164.72)"/></g><g id="Layer_4" data-name="Layer 4"><path class="cls-6" d="M54.42,62.74l-3.77,1.12q2.81,2.51,5.59,5"/><path class="cls-6" d="M57.77,62.92l3.45,1.29q-2.84,2.37-5.69,4.72"/></g></svg>
